<svg width="34" height="34" viewBox="0 0 34 34" fill="none" xmlns="http://www.w3.org/2000/svg">
<path d="M16.9997 23.6673C20.6815 23.6673 23.6663 20.6825 23.6663 17.0007C23.6663 13.3188 20.6815 10.334 16.9997 10.334C13.3178 10.334 10.333 13.3188 10.333 17.0007C10.333 20.6825 13.3178 23.6673 16.9997 23.6673Z" stroke="white" stroke-width="3" stroke-linecap="round" stroke-linejoin="round"/>
<path d="M2 23.6667V10.3333C2 5.73097 5.73097 2 10.3333 2H23.6667C28.269 2 32 5.73097 32 10.3333V23.6667C32 28.269 28.269 32 23.6667 32H10.3333C5.73097 32 2 28.269 2 23.6667Z" stroke="white" stroke-width="3"/>
<path d="M26.167 7.85055L26.1837 7.83203" stroke="white" stroke-width="5" stroke-linecap="round" stroke-linejoin="round"/>
</svg>
