<svg width="33" height="32" viewBox="0 0 33 32" fill="none" xmlns="http://www.w3.org/2000/svg">
<path fill-rule="evenodd" clip-rule="evenodd" d="M7.10688 19.3818C7.17704 19.4058 7.24858 19.4244 7.32101 19.4376C7.77996 20.6374 8.23633 21.8385 8.69012 23.0408C9.50607 25.2041 10.3285 27.4322 10.5086 28.0729C10.7341 28.8612 10.9709 29.3976 11.2304 29.7647C11.3651 29.9519 11.5192 30.1175 11.7009 30.2435C11.7963 30.3076 11.8974 30.3607 12.0026 30.4018C12.5217 30.6178 12.9954 30.5278 13.2922 30.418C13.4665 30.3523 13.6323 30.2616 13.7854 30.1481L13.7935 30.1445L18.3777 26.9733L23.6741 31.4763C23.752 31.5423 23.8363 31.5981 23.9272 31.6437C24.5631 31.9496 25.1795 32.0576 25.7602 31.9712C26.3377 31.8813 26.7968 31.6131 27.1391 31.3089C27.5318 30.9571 27.845 30.5085 28.054 29.9987L28.0686 29.9591L28.0735 29.9447L28.0767 29.9375V29.9339L28.0783 29.9321C28.1049 29.8541 28.1266 29.7741 28.1432 29.6927L32.9773 2.65109C32.9906 2.56423 32.9982 2.47641 33 2.38832C33 1.59642 32.7307 0.842313 32.0997 0.386969C31.5579 -0.00358221 30.9561 -0.0215802 30.5749 0.0108158C30.1661 0.0468113 29.7865 0.158397 29.5318 0.248386C29.3895 0.29937 29.2488 0.355797 29.11 0.417565L29.0922 0.426564L1.97919 12.2259L1.97595 12.2277C1.88401 12.2645 1.79361 12.306 1.70505 12.3519C1.48997 12.4589 1.28371 12.5866 1.08862 12.7334C0.720387 13.0124 -0.128009 13.7791 0.0163643 15.0461C0.129916 16.054 0.752831 16.6749 1.13404 16.9737C1.34168 17.1375 1.53958 17.2545 1.68558 17.3319C1.75047 17.3679 1.88997 17.4291 1.94999 17.4578L1.96622 17.4632L7.10688 19.3818ZM30.0412 2.91026H30.0379L29.9957 2.93005L2.8503 14.7456L2.80812 14.7636L2.7919 14.769C2.7422 14.7903 2.69348 14.8143 2.64591 14.841C2.69126 14.8692 2.73782 14.8951 2.78541 14.9184L7.88228 16.8225C7.97227 16.8595 8.05913 16.9053 8.14183 16.9593L24.9751 6.02567L24.9913 6.01667C25.0571 5.97326 25.1242 5.93244 25.1925 5.89428C25.3093 5.82769 25.4958 5.7305 25.7067 5.65851C25.8527 5.60812 26.2858 5.46594 26.753 5.63332C27.0012 5.71922 27.2224 5.88122 27.3912 6.10063C27.56 6.32004 27.6694 6.58792 27.7069 6.87336C27.7673 7.12309 27.7689 7.38582 27.7117 7.63647C27.5982 8.13141 27.2867 8.51656 27.0028 8.81172C26.7595 9.06369 23.6028 12.4401 20.4898 15.7733L16.2511 20.3087L15.4968 21.1186L25.0222 29.2212C25.1508 29.2808 25.2904 29.3055 25.4293 29.2932C25.4993 29.2825 25.5651 29.2501 25.6191 29.1996C25.6848 29.1379 25.7412 29.065 25.7862 28.9836L25.7894 28.9818L30.4775 2.75367C30.3301 2.79396 30.1853 2.84568 30.0444 2.90846L30.0412 2.91026ZM16.316 25.2167L14.4148 23.6005L13.9541 26.8491L16.316 25.2167ZM12.6709 20.3933L14.5608 18.3685L18.7995 13.8295L20.3779 12.1413L9.80131 19.0111L9.85809 19.1586C10.5251 20.907 11.1848 22.6588 11.8371 24.414L12.2962 21.1744C12.3381 20.8741 12.4702 20.6 12.6709 20.3933Z" fill="white"/>
</svg>
