<svg width="120" height="173" viewBox="0 0 120 173" fill="none" xmlns="http://www.w3.org/2000/svg">
<path d="M13.606 122.338H9.51367L12.3508 102.28L20.3709 114.588L28.3369 102.28L31.2281 122.338H27.11L25.8831 111.667L20.3734 120.563L14.8638 111.667L13.6086 122.338H13.606Z" fill="black"/>
<path d="M47.8679 118.026H41.3216L39.3565 122.338H34.9092L44.5935 102.09L54.306 122.338H49.8587L47.8679 118.026ZM42.2476 114.915H46.9393L44.5935 109.457L42.2476 114.915Z" fill="black"/>
<path d="M67.5632 112.131H77.0005C77.2192 117.972 73.7261 122.828 67.3986 122.828C61.4517 122.828 57.1973 118.733 57.1973 112.784C57.1973 106.835 61.5623 102.852 67.5092 102.852C71.3829 102.852 74.1917 104.571 75.9382 107.218L72.5841 109.184C71.6015 107.548 69.9656 106.346 67.5092 106.346C64.0727 106.346 61.2896 108.801 61.2896 112.787C61.2896 116.773 63.9621 119.336 67.5092 119.336C70.6189 119.336 72.3912 117.534 73.0188 115.242H67.5632V112.131Z" fill="black"/>
<path d="M86.8743 103.234V122.338H82.8926V103.234H86.8743Z" fill="black"/>
<path d="M102.997 118.954C105.698 118.954 107.552 117.809 108.836 116.335V120.756C107.28 122.011 105.618 122.722 102.835 122.722C96.9422 122.722 92.6338 118.682 92.6338 112.789C92.6338 106.896 96.9448 102.856 102.835 102.856C105.618 102.856 107.282 103.567 108.836 104.822V109.243C107.555 107.769 105.698 106.624 102.997 106.624C99.7227 106.624 96.8856 108.999 96.8856 112.792C96.8856 116.585 99.7227 118.96 102.997 118.96V118.954Z" fill="black"/>
<path d="M16.1538 150.316H9.64355V131.936H15.7859C19.4076 131.936 21.9798 133.459 21.9798 136.583C21.9798 138.394 20.9303 139.681 19.2507 140.391C21.4293 141.073 23.0292 142.545 23.0292 145.064C23.0292 148.713 20.2461 150.316 16.1512 150.316H16.1538ZM13.4247 134.928V139.287H15.4464C17.0746 139.287 18.0983 138.446 18.0983 137.082C18.0983 135.718 17.0746 134.928 15.4464 134.928H13.4247ZM15.8399 147.323C17.7305 147.323 19.1478 146.482 19.1478 144.593C19.1478 142.807 17.7305 142.02 15.8399 142.02H13.4247V147.323H15.8399Z" fill="black"/>
<path d="M37.5212 131.568C43.0848 131.568 47.2337 135.559 47.2337 141.125C47.2337 146.691 43.1645 150.788 37.5212 150.788C31.8778 150.788 27.8086 146.691 27.8086 141.125C27.8086 135.559 32.009 131.568 37.5212 131.568ZM37.5212 147.167C40.9062 147.167 43.2443 144.645 43.2443 141.128C43.2443 137.61 40.9859 135.089 37.5212 135.089C34.0564 135.089 31.7981 137.61 31.7981 141.128C31.7981 144.645 34.1336 147.167 37.5212 147.167Z" fill="black"/>
<path d="M72.7695 131.933H77.1782L69.4616 151.338L63.6614 139.339L57.8611 151.338L50.1445 131.933H54.5816L58.5453 143.33L63.6639 131.015L68.834 143.33L72.772 131.933H72.7695Z" fill="black"/>
<path d="M85.7365 131.934V147.005H93.0596V150.314H81.958V131.934H85.7365Z" fill="black"/>
<path d="M104.059 147.532C105.581 147.532 106.579 146.691 106.579 145.378C106.579 143.698 105.268 143.119 102.801 142.175C100.964 141.493 97.8932 140.178 97.8932 136.66C97.8932 133.562 100.545 131.565 103.982 131.565C107.418 131.565 109.519 133.614 110.466 135.505L107.526 137.185C106.739 135.873 105.61 134.795 103.982 134.795C102.513 134.795 101.777 135.582 101.777 136.501C101.777 137.867 103.143 138.629 105.898 139.573C108.287 140.415 110.569 142.067 110.569 145.167C110.569 148.739 107.418 150.787 104.113 150.787C100.807 150.787 97.9189 148.687 96.71 146.06L99.439 144.118C100.594 146.166 102.091 147.532 104.059 147.532Z" fill="black"/>
<path d="M119.125 21.706C119.109 22.2258 118.996 22.6941 118.862 23.1444C118.793 23.3708 118.718 23.5896 118.631 23.8058C118.551 24.0271 118.448 24.256 118.34 24.4671C117.89 25.3214 117.288 26.0496 116.645 26.7006C115.336 27.995 113.834 28.9985 112.301 29.9042C110.76 30.7997 109.173 31.5897 107.581 32.3514C104.384 33.8593 101.155 35.272 97.9505 36.7362C94.743 38.2003 91.5612 39.721 88.4386 41.3241C86.8721 42.1295 85.3211 42.9453 83.7984 43.8047C82.2808 44.6693 80.7838 45.5649 79.3665 46.5684C77.9621 47.572 76.6091 48.6605 75.5108 49.9291C75.4414 50.0037 75.3719 50.0963 75.2973 50.1812C75.2279 50.2662 75.1584 50.3433 75.089 50.4231C74.9449 50.5852 74.8214 50.7396 74.6928 50.9068C74.4408 51.2388 74.199 51.5938 73.9623 51.9489C73.4788 52.6617 73.0183 53.3977 72.5734 54.1491C72.1284 54.8953 71.6834 55.6518 71.2538 56.4135C71.0403 56.7789 70.8294 57.1495 70.6262 57.5149C70.2558 60.0521 68.7331 62.7513 66.4104 65.2319C74.9192 66.166 82.8955 66.1866 89.9279 65.3503C80.3568 85.5011 57.4309 96.4656 35.2047 90.295C12.8395 84.0858 -1.19177 62.6253 1.22094 40.2692C11.6023 48.5653 26.5312 56.025 43.8781 60.8446C44.0555 60.8935 44.233 60.9424 44.4079 60.9887C45.6323 59.4114 47.0161 57.9472 48.5389 56.6322C49.5086 55.7831 50.5555 55.0215 51.6384 54.3138C52.7315 53.6268 53.8813 53.0143 55.0774 52.5331C56.2786 52.039 57.5184 51.6685 58.7736 51.3854C59.4012 51.2465 60.034 51.1281 60.6667 51.0303C60.9882 50.9866 61.3046 50.9454 61.621 50.9068C61.9425 50.8734 62.2538 50.8322 62.5701 50.7885C63.8202 50.6058 65.0497 50.2739 66.2072 49.7746C67.3724 49.2806 68.481 48.6733 69.5485 47.9992C71.6782 46.6354 73.754 45.1763 75.7217 43.5835C77.6946 41.9958 79.58 40.2821 81.5529 38.6558C83.5154 37.0141 85.5809 35.4676 87.7441 34.0935C88.827 33.4064 89.9279 32.7528 91.0545 32.1403C91.6178 31.8341 92.1811 31.5434 92.7547 31.2552C93.3232 30.9644 93.9019 30.6916 94.4832 30.424L94.5218 30.4987C92.338 31.8187 90.1928 33.1826 88.1274 34.657C87.0934 35.3929 86.0825 36.1597 85.0922 36.942C84.0993 37.732 83.1296 38.5477 82.1625 39.3737C80.2411 41.0309 78.3171 42.7214 76.2773 44.2833C74.2401 45.8453 72.1258 47.3043 69.8674 48.5394C68.7305 49.1467 67.5602 49.6923 66.3487 50.1272C65.1372 50.5569 63.882 50.8837 62.6087 51.0561C61.976 51.1642 61.3381 51.2105 60.7207 51.3417C60.0983 51.4549 59.4809 51.6042 58.8765 51.7869C57.665 52.142 56.4946 52.6231 55.3629 53.1712C53.1096 54.2726 50.9696 55.6132 49.0019 57.1906C47.4946 58.382 46.0901 59.6969 44.7372 61.0813C51.1574 62.8208 57.4721 64.0869 63.545 64.8871C67.6322 61.2743 70.0037 56.9385 69.4404 53.2691C69.3761 52.8291 69.263 52.4095 69.1189 52.0184C69.8957 52.8882 70.4179 53.9458 70.6159 55.1681C70.8886 54.6149 71.1741 54.0668 71.4699 53.5213C71.8995 52.7442 72.3393 51.9644 72.8332 51.2079C73.0852 50.8322 73.3425 50.4565 73.628 50.0911C73.772 49.9085 73.9186 49.7206 74.0729 49.5534L74.5128 49.0489C75.7577 47.68 77.1904 46.5582 78.6694 45.5546C80.1562 44.5562 81.6995 43.6658 83.2711 42.8346C84.8375 42.0035 86.4349 41.2419 88.0451 40.5162C91.2732 39.0675 94.5475 37.7577 97.7808 36.3579C101.009 34.9632 104.224 33.5093 107.313 31.8341C108.854 30.9927 110.372 30.0999 111.82 29.1349C112.545 28.6563 113.258 28.1518 113.934 27.6218C114.616 27.0968 115.264 26.5333 115.85 25.9209C116.439 25.3188 116.967 24.6652 117.332 23.9576C117.43 23.7749 117.509 23.6025 117.584 23.4095C117.664 23.2165 117.733 23.0184 117.792 22.8254C117.921 22.4394 118.011 22.0431 118.034 21.6777C118.055 21.3123 117.985 20.9957 117.826 20.8027C117.671 20.6097 117.371 20.4759 117.005 20.4219C116.635 20.3679 116.228 20.3833 115.82 20.4322C115.405 20.4811 114.994 20.5661 114.575 20.6639C113.749 20.862 112.918 21.1245 112.103 21.4204C111.287 21.7215 110.467 22.038 109.662 22.3802C108.046 23.0621 106.454 23.8083 104.877 24.5854L104.813 24.4722C106.282 23.4944 107.817 22.6092 109.394 21.7986C110.971 20.9932 112.597 20.2573 114.341 19.7427C114.775 19.6243 115.225 19.5162 115.686 19.4468C116.146 19.3773 116.625 19.3334 117.134 19.3875C117.386 19.4209 117.653 19.4724 117.916 19.5805C118.178 19.6937 118.441 19.8661 118.646 20.1054C118.85 20.3421 118.983 20.6304 119.055 20.9109C119.125 21.1888 119.14 21.459 119.13 21.7163L119.125 21.706Z" fill="black"/>
<path d="M60.2219 0.153122C60.1756 0.140256 60.1293 0.130054 60.083 0.117188C60.1576 0.137773 60.2348 0.158294 60.3094 0.178879C60.2811 0.17116 60.2528 0.160842 60.2219 0.153122Z" fill="black"/>
<path d="M10.8147 33.2633C12.7104 26.4314 28.9538 24.89 47.9674 29.4369C46.7122 29.038 45.4338 28.6571 44.1323 28.2969C23.4982 22.5663 5.12763 23.8298 3.10589 31.1223C1.08158 38.4148 16.17 48.9701 36.8041 54.7033C38.1056 55.0635 39.3994 55.3981 40.6778 55.7043C22.0423 49.7936 8.91903 40.0952 10.8147 33.2633Z" fill="white"/>
<path d="M31.5958 8.24193C33.2678 8.24193 34.6233 6.88594 34.6233 5.21325C34.6233 3.54056 33.2678 2.18457 31.5958 2.18457C29.9238 2.18457 28.5684 3.54056 28.5684 5.21325C28.5684 6.88594 29.9238 8.24193 31.5958 8.24193Z" fill="white"/>
<path d="M50.6602 36.5052C52.1462 36.5052 53.3507 35.3002 53.3507 33.8136C53.3507 32.3271 52.1462 31.1221 50.6602 31.1221C49.1743 31.1221 47.9697 32.3271 47.9697 33.8136C47.9697 35.3002 49.1743 36.5052 50.6602 36.5052Z" fill="#DC3426"/>
<path d="M39.1912 20.1575C40.3447 20.1575 41.2798 19.222 41.2798 18.068C41.2798 16.914 40.3447 15.9785 39.1912 15.9785C38.0376 15.9785 37.1025 16.914 37.1025 18.068C37.1025 19.222 38.0376 20.1575 39.1912 20.1575Z" fill="#F9BF33"/>
<path d="M30.8783 36.7217C32.4835 36.7217 33.7848 35.4198 33.7848 33.8139C33.7848 32.208 32.4835 30.9062 30.8783 30.9062C29.273 30.9062 27.9717 32.208 27.9717 33.8139C27.9717 35.4198 29.273 36.7217 30.8783 36.7217Z" fill="#DBC120"/>
<path d="M41.2808 42.6497C42.082 42.6497 42.7315 41.9999 42.7315 41.1984C42.7315 40.3969 42.082 39.7471 41.2808 39.7471C40.4796 39.7471 39.8301 40.3969 39.8301 41.1984C39.8301 41.9999 40.4796 42.6497 41.2808 42.6497Z" fill="#F9BF33"/>
<path d="M17.9063 19.4988C20.3469 19.4988 22.3253 17.5195 22.3253 15.0779C22.3253 12.6364 20.3469 10.6572 17.9063 10.6572C15.4658 10.6572 13.4873 12.6364 13.4873 15.0779C13.4873 17.5195 15.4658 19.4988 17.9063 19.4988Z" fill="#ED6D24"/>
<path d="M53.7486 11.8479C56.4548 11.8479 58.6487 9.65328 58.6487 6.94599C58.6487 4.23871 56.4548 2.04395 53.7486 2.04395C51.0424 2.04395 48.8486 4.23871 48.8486 6.94599C48.8486 9.65328 51.0424 11.8479 53.7486 11.8479Z" fill="#DBC120"/>
<path d="M9.61914 163.515C9.61914 163.225 9.83263 163.014 10.1104 163.014C10.3882 163.014 10.6017 163.227 10.6017 163.515C10.6017 163.804 10.3805 164.007 10.1104 164.007C9.84035 164.007 9.61914 163.804 9.61914 163.515ZM10.5271 164.722H11.4917V171.48H10.5271V164.722ZM11.4042 163.515C11.4042 163.225 11.6254 163.014 11.9058 163.014C12.1862 163.014 12.3971 163.227 12.3971 163.515C12.3971 163.804 12.1759 164.007 11.9058 164.007C11.6357 164.007 11.4042 163.804 11.4042 163.515Z" fill="white"/>
<path d="M19.2292 168.505H17.9457V171.477H16.9991V168.505H15.7053L13.8147 171.477H12.6855L14.9156 167.965L12.8502 164.723H13.8816L15.6847 167.656H16.9965V164.723H17.9431V167.656H19.2369L21.0503 164.723H22.0817L20.0163 167.986L22.2438 171.48H21.1146L19.224 168.508L19.2292 168.505Z" fill="white"/>
<path d="M27.552 169.789H23.9638L23.2204 171.477H22.2275L25.2859 164.72H26.2402L29.3088 171.477H28.2953L27.552 169.789ZM27.215 169.017L25.7591 165.705L24.3033 169.017H27.2176H27.215Z" fill="white"/>
<path d="M39.5048 170.639V172.954H38.6071V171.477H33.0486L33.0383 172.954H32.1406L32.1509 170.639H32.4801C33.4061 170.582 33.6273 168.951 33.6968 166.895L33.7637 164.723H38.5094V170.639H39.5022H39.5048ZM33.7457 170.639H37.5576V165.562H34.5971L34.5482 166.979C34.4916 168.629 34.327 170.116 33.7482 170.639H33.7457Z" fill="white"/>
<path d="M46.3443 164.723V171.48H45.3978V165.564H42.4063L42.3394 167.543C42.252 170.227 41.8379 171.557 40.5055 171.557C40.3126 171.557 40.1299 171.537 39.8984 171.48L39.9653 170.621C40.0811 170.649 40.1685 170.659 40.274 170.659C41.1125 170.659 41.4032 169.666 41.4803 167.571L41.5858 164.725H46.3418L46.3443 164.723Z" fill="white"/>
<path d="M53.3949 164.723V171.48H52.4483V169.511H50.5861C50.4986 169.511 50.4137 169.511 50.3263 169.501L48.9759 171.48H47.9521L49.4466 169.336C48.4923 169.017 47.9521 168.245 47.9521 167.154C47.9521 165.61 49.0222 164.723 50.6812 164.723H53.3923H53.3949ZM50.6632 168.698H52.4483V165.562H50.7224C49.5752 165.562 48.927 166.102 48.927 167.144C48.927 168.186 49.516 168.698 50.6632 168.698Z" fill="white"/>
<path d="M62.676 169.585C62.676 170.831 61.3745 171.554 59.9083 171.554C59.0389 171.554 58.1052 171.304 57.3516 170.743L57.6885 170.028C58.2956 170.501 59.0775 170.723 59.7926 170.723C60.824 170.723 61.7037 170.27 61.7037 169.439C61.7037 168.744 61.1147 168.376 60.1218 168.376H58.6171V167.594H60.0549C60.914 167.594 61.4259 167.218 61.4259 166.59C61.4259 165.857 60.6825 165.442 59.7566 165.442C59.1495 165.442 58.473 165.615 57.8763 165.983L57.5676 165.19C58.2724 164.794 59.0543 164.611 59.7874 164.611C61.197 164.611 62.4033 165.296 62.4033 166.474C62.4033 167.169 61.9969 167.699 61.3333 167.951C62.1718 168.183 62.6837 168.782 62.6837 169.583L62.676 169.585Z" fill="white"/>
<path d="M70.7216 170.639V172.954H69.8239V171.477H64.2654L64.2551 172.954H63.3574L63.3677 170.639H63.697C64.6229 170.582 64.8442 168.951 64.9136 166.895L64.9805 164.723H69.7261V170.639H70.719H70.7216ZM64.9625 170.639H68.7745V165.562H65.8139L65.765 166.979C65.7084 168.629 65.5438 170.116 64.965 170.639H64.9625Z" fill="white"/>
<path d="M71.4805 168.101C71.4805 166.123 73.0058 164.646 75.079 164.646C77.1521 164.646 78.6594 166.112 78.6594 168.101C78.6594 170.09 77.1341 171.557 75.079 171.557C73.0238 171.557 71.4805 170.08 71.4805 168.101ZM77.6949 168.101C77.6949 166.606 76.576 165.505 75.079 165.505C73.5819 165.505 72.445 166.606 72.445 168.101C72.445 169.596 73.5639 170.698 75.079 170.698C76.594 170.698 77.6949 169.596 77.6949 168.101Z" fill="white"/>
<path d="M85.6712 167.077C85.6712 168.544 84.6088 169.431 82.8546 169.431H81.1853V171.477H80.2207V164.72H82.8546C84.6114 164.72 85.6712 165.607 85.6712 167.074V167.077ZM84.7066 167.077C84.7066 166.112 84.061 165.561 82.8263 165.561H81.1853V168.592H82.8263C84.061 168.592 84.7066 168.042 84.7066 167.077Z" fill="white"/>
<path d="M86.5479 168.101C86.5479 166.123 88.0732 164.646 90.1463 164.646C92.2195 164.646 93.7268 166.112 93.7268 168.101C93.7268 170.09 92.2015 171.557 90.1463 171.557C88.0912 171.557 86.5479 170.08 86.5479 168.101ZM92.7622 168.101C92.7622 166.606 91.6433 165.505 90.1463 165.505C88.6493 165.505 87.5124 166.606 87.5124 168.101C87.5124 169.596 88.6313 170.698 90.1463 170.698C91.6614 170.698 92.7622 169.596 92.7622 168.101Z" fill="white"/>
<path d="M100.886 169.635C100.886 170.793 100.038 171.477 98.3786 171.477H95.292V164.72H98.196C99.6621 164.72 100.55 165.327 100.55 166.457C100.55 167.2 100.153 167.72 99.4975 167.972C100.406 168.194 100.886 168.754 100.886 169.632V169.635ZM96.2463 167.694H98.1265C99.0525 167.694 99.5747 167.319 99.5747 166.593C99.5747 165.867 99.0525 165.484 98.1265 165.484H96.2463V167.694ZM99.9116 169.557C99.9116 168.775 99.3715 168.428 98.358 168.428H96.2437V170.715H98.358C99.3715 170.715 99.9116 170.35 99.9116 169.557Z" fill="white"/>
<path d="M103.151 164.915C103.151 165.098 103.123 165.245 102.997 165.6L102.534 166.951H101.927L102.284 165.513C102.043 165.425 101.878 165.204 101.878 164.913C101.878 164.527 102.158 164.257 102.524 164.257C102.889 164.257 103.151 164.537 103.151 164.913V164.915Z" fill="white"/>
<path d="M109.671 164.723V171.48H108.725V169.511H106.862C106.775 169.511 106.69 169.511 106.603 169.501L105.252 171.48H104.229L105.723 169.336C104.769 169.017 104.229 168.245 104.229 167.154C104.229 165.61 105.299 164.723 106.958 164.723H109.669H109.671ZM106.94 168.698H108.725V165.562H106.999C105.852 165.562 105.203 166.102 105.203 167.144C105.203 168.186 105.792 168.698 106.94 168.698Z" fill="white"/>
</svg>
