<svg width="189" height="70" viewBox="0 0 189 70" fill="none" xmlns="http://www.w3.org/2000/svg">
<path d="M28.6331 20.5782C28.6103 20.6011 28.597 20.6317 28.5961 20.6632C28.5952 20.6947 28.6068 20.7246 28.6284 20.7465L32.9801 25.1116C32.9873 25.1191 32.9958 25.1251 33.0053 25.1293C33.0147 25.1334 33.0248 25.1357 33.035 25.136C33.0453 25.1363 33.0554 25.1346 33.0649 25.131C33.0744 25.1273 33.0831 25.1218 33.0904 25.1148L37.4263 20.8015C37.4391 20.7887 37.4493 20.7736 37.4563 20.7569C37.4632 20.7402 37.4668 20.7223 37.4668 20.7043C37.4668 20.6863 37.4632 20.6686 37.4563 20.652C37.4493 20.6355 37.4391 20.6206 37.4263 20.6081L33.0919 16.2964C33.0766 16.2813 33.056 16.2728 33.0344 16.2728C33.0129 16.2728 32.9923 16.2813 32.977 16.2964L31.7658 17.4903C31.737 17.5188 31.6982 17.535 31.6578 17.5353C31.6174 17.5356 31.5787 17.52 31.55 17.4919L29.8159 15.76C29.7926 15.7366 29.7795 15.7048 29.7795 15.6715C29.7795 15.6383 29.7926 15.6062 29.8159 15.5822L31.3043 14.0957C31.3416 14.0593 31.3914 14.039 31.4429 14.0391H34.6654C34.7188 14.0391 34.7692 14.0595 34.8055 14.0957L39.6361 18.9391C39.6704 18.9743 39.6896 19.0217 39.6896 19.0712V22.2786C39.6896 22.316 39.6822 22.3529 39.6679 22.3873C39.6536 22.4216 39.6326 22.4525 39.6061 22.4784L33.1313 28.9467C33.111 28.9668 33.0835 28.978 33.0549 28.978C33.0263 28.978 32.9989 28.9668 32.9785 28.9467L26.436 22.3919C26.4007 22.3566 26.3809 22.3079 26.3809 22.2566V19.1593C26.3808 19.0665 26.4176 18.9772 26.4832 18.9107L27.9086 17.4872C27.9225 17.4733 27.9389 17.4623 27.9569 17.4548C27.975 17.4473 27.9943 17.4435 28.0138 17.4435C28.0333 17.4435 28.0525 17.4473 28.0704 17.4548C28.0883 17.4623 28.1045 17.4733 28.1181 17.4872L29.8711 19.2521C29.8787 19.2597 29.8849 19.2686 29.8891 19.2785C29.8933 19.2884 29.8956 19.299 29.8957 19.3096C29.8959 19.3203 29.8939 19.3309 29.89 19.3407C29.886 19.3505 29.8801 19.3594 29.8726 19.3669L28.6331 20.5782Z" fill="#92278E"/>
<path d="M84.2803 39.8101C83.3353 39.1525 82.6995 38.2806 82.373 37.1941C82.2155 36.6719 82.1367 35.8036 82.1367 34.5892C82.1367 27.8136 82.1367 21.0092 82.1367 14.1759C82.1367 14.1396 82.1512 14.1048 82.1769 14.0791C82.2026 14.0535 82.2374 14.0391 82.2737 14.0391H88.3879C88.4046 14.0391 88.4212 14.0424 88.4367 14.0488C88.4522 14.0552 88.4663 14.0646 88.4781 14.0764C88.4899 14.0882 88.4993 14.1023 88.5058 14.1177C88.5122 14.1332 88.5155 14.1497 88.5155 14.1665C88.5155 20.8267 88.5155 27.4287 88.5155 33.9725C88.5155 34.7926 88.5433 35.2902 88.5989 35.4654C88.79 36.0642 89.3003 36.3405 90.1298 36.2943C90.5099 36.2734 90.8874 36.287 91.2623 36.3352C91.2842 36.3383 91.3043 36.3491 91.3188 36.3656C91.3333 36.3821 91.3412 36.4031 91.341 36.4249L91.3505 40.7256C91.3505 40.761 91.3364 40.795 91.3113 40.8201C91.2862 40.8452 91.2521 40.8593 91.2166 40.8593C90.0458 40.8593 88.9092 40.8588 87.8067 40.8577C87.1694 40.8567 86.5509 40.7696 85.9514 40.5966C85.3371 40.4194 84.7801 40.1572 84.2803 39.8101Z" fill="white"/>
<path d="M66.5751 40.2729C64.5486 39.737 63.2728 38.5452 62.7478 36.6974C62.6008 36.1804 62.5273 35.4086 62.5273 34.3819C62.5273 31.3764 62.5273 28.3708 62.5273 25.3653C62.5273 24.5798 62.7158 23.8263 63.0928 23.1048C63.4466 22.4305 63.9349 21.8543 64.5575 21.3761C65.534 20.6273 66.6554 20.2529 67.9217 20.2529C71.6629 20.2529 75.456 20.2529 79.3011 20.2529C79.3154 20.2529 79.3295 20.2557 79.3427 20.2611C79.3559 20.2664 79.3679 20.2743 79.3779 20.2843C79.388 20.2942 79.396 20.306 79.4015 20.319C79.407 20.3319 79.4098 20.3458 79.4098 20.3599L79.4176 22.9743C79.4186 23.0686 79.3833 23.162 79.3184 23.237L78.0348 24.7282C78.0013 24.7676 77.9597 24.7993 77.9129 24.821C77.8662 24.8427 77.8153 24.854 77.7639 24.8541C75.3174 24.8541 72.8935 24.8541 70.4921 24.8541C70.0543 24.8541 69.7414 24.9054 69.5534 25.0082C69.3403 25.1236 69.177 25.2929 69.0636 25.5163C68.9848 25.6726 68.9455 25.8933 68.9455 26.1785C68.9413 28.9481 68.9439 31.7172 68.9533 34.4857C68.9554 34.8832 69.0263 35.1753 69.166 35.3619C69.419 35.6975 69.818 35.8653 70.363 35.8653C73.2767 35.8653 76.2529 35.8653 79.2916 35.8653C79.3255 35.8653 79.3579 35.8787 79.3819 35.9026C79.4058 35.9265 79.4192 35.9589 79.4192 35.9927V40.361C79.4192 40.3749 79.4165 40.3886 79.4112 40.4014C79.4059 40.4141 79.3981 40.4258 79.3883 40.4355C79.3785 40.4453 79.3669 40.4531 79.3541 40.4584C79.3413 40.4637 79.3276 40.4664 79.3137 40.4664C75.6828 40.4664 72.0561 40.4664 68.4336 40.4664C67.6828 40.4664 67.0633 40.4019 66.5751 40.2729Z" fill="white"/>
<path d="M96.5384 40.2792C94.5917 39.3742 93.6152 37.798 93.6089 35.5507C93.6005 32.5221 93.5958 29.4935 93.5947 26.4648C93.5947 25.2232 93.6745 24.3412 93.8341 23.819C94.2037 22.6099 94.9671 21.6734 96.1242 21.0096C96.646 20.7107 97.2293 20.4978 97.874 20.3709C98.2782 20.2923 98.893 20.2529 99.7183 20.2529C102.35 20.2529 104.981 20.2529 107.612 20.2529C108.037 20.2529 108.572 20.3562 109.216 20.5628C111.029 21.1459 112.18 22.2774 112.668 23.9574C112.815 24.4618 112.888 25.2253 112.888 26.2478C112.888 28.7457 112.888 31.2437 112.888 33.7417C112.888 35.4133 112.843 36.4583 112.751 36.8768C112.417 38.4215 111.475 39.5624 109.926 40.2997C109.11 40.6877 108.168 40.8791 107.1 40.8738C104.876 40.8654 102.653 40.8607 100.429 40.8597C100.419 40.8597 100.143 40.8665 99.6002 40.8801C98.4788 40.9074 97.4582 40.7071 96.5384 40.2792ZM106.51 26.0039C106.51 25.6777 106.38 25.3648 106.149 25.1341C105.918 24.9034 105.605 24.7738 105.278 24.7738H101.205C100.878 24.7738 100.565 24.9034 100.334 25.1341C100.103 25.3648 99.9735 25.6777 99.9735 26.0039V35.1055C99.9735 35.4318 100.103 35.7446 100.334 35.9753C100.565 36.206 100.878 36.3356 101.205 36.3356H105.278C105.605 36.3356 105.918 36.206 106.149 35.9753C106.38 35.7446 106.51 35.4318 106.51 35.1055V26.0039Z" fill="white"/>
<path d="M143.254 32.8847C143.244 33.4332 143.23 33.9806 143.213 34.5269C143.197 35.0744 143.379 35.4776 143.76 35.7366C143.963 35.875 144.267 35.9442 144.672 35.9442C147.846 35.9442 151.02 35.9442 154.193 35.9442C154.203 35.9442 154.213 35.9463 154.223 35.9502C154.232 35.9542 154.241 35.96 154.248 35.9673C154.256 35.9746 154.262 35.9832 154.266 35.9928C154.269 36.0023 154.272 36.0126 154.272 36.0229L154.262 40.3566C154.262 40.3858 154.25 40.4138 154.229 40.4345C154.208 40.4551 154.18 40.4667 154.15 40.4667C150.162 40.4667 146.226 40.4641 142.341 40.4588C141.512 40.4578 140.718 40.2932 139.958 39.9649C138.252 39.2287 137.235 37.9409 136.907 36.1015C136.842 35.7335 136.812 35.2091 136.816 34.5285C136.822 33.7525 136.825 33.3597 136.825 33.3503C136.813 30.8681 136.822 28.3863 136.854 25.9051C136.865 25.0043 136.947 24.3127 137.099 23.8303C137.576 22.3254 138.591 21.2673 140.145 20.6559C140.78 20.4063 141.498 20.2794 142.302 20.2752C144.717 20.2606 147.132 20.2496 149.547 20.2422C150.283 20.2401 150.998 20.3612 151.692 20.6056C153.418 21.2138 154.517 22.3218 154.99 23.9294C155.141 24.4454 155.217 25.2539 155.217 26.355C155.217 28.4167 155.217 30.522 155.217 32.6708C155.217 32.7045 155.203 32.737 155.179 32.7609C155.155 32.7847 155.123 32.7982 155.089 32.7982L143.336 32.8076C143.315 32.8076 143.294 32.8157 143.279 32.8301C143.264 32.8445 143.255 32.8641 143.254 32.8847ZM143.538 25.1863C143.344 25.4159 143.247 25.7379 143.247 26.1521C143.247 26.8862 143.247 27.6245 143.247 28.3669C143.247 28.3949 143.258 28.4217 143.277 28.4415C143.297 28.4612 143.324 28.4723 143.352 28.4723L148.75 28.4629C148.771 28.4629 148.791 28.4545 148.806 28.4395C148.821 28.4245 148.83 28.4041 148.83 28.3827C148.841 27.6905 148.843 26.9984 148.835 26.3063C148.83 25.9099 148.777 25.6126 148.676 25.4144C148.512 25.0945 148.26 24.8926 147.92 24.8087C147.832 24.7878 147.42 24.7767 146.682 24.7757C145.943 24.7747 145.205 24.771 144.467 24.7647C144.087 24.7615 143.777 24.9021 143.538 25.1863Z" fill="white"/>
<path d="M162.65 22.8248C162.722 22.7598 162.792 22.6581 162.858 22.5197C163.562 21.0295 164.756 20.2797 166.438 20.2702C168.263 20.2587 170.093 20.2529 171.928 20.2529C171.947 20.2529 171.965 20.2565 171.982 20.2634C171.999 20.2703 172.014 20.2804 172.027 20.2931C172.04 20.3058 172.05 20.3209 172.057 20.3375C172.064 20.3541 172.067 20.3719 172.067 20.3898L172.04 24.6684C172.04 24.689 172.032 24.7088 172.017 24.7235C172.002 24.7382 171.981 24.7467 171.96 24.7471C169.929 24.7775 167.898 24.788 165.866 24.7785C165.334 24.7765 164.941 24.8462 164.688 24.9878C164.391 25.1535 164.163 25.3915 164.006 25.7019C163.895 25.9211 163.839 26.231 163.839 26.6316C163.839 31.1546 163.839 35.7258 163.839 40.3453C163.839 40.3749 163.827 40.4033 163.807 40.4243C163.786 40.4452 163.758 40.457 163.729 40.457L157.558 40.4664C157.522 40.4664 157.487 40.452 157.461 40.4263C157.435 40.4007 157.421 40.3659 157.421 40.3296V20.7154C157.421 20.6866 157.432 20.659 157.453 20.6387C157.473 20.6183 157.501 20.6069 157.53 20.6069H161.473C161.507 20.6068 161.54 20.6169 161.568 20.636C161.596 20.655 161.618 20.6821 161.631 20.7138L162.488 22.7887C162.494 22.8036 162.504 22.8168 162.516 22.8271C162.529 22.8375 162.544 22.8447 162.56 22.8483C162.575 22.8518 162.592 22.8515 162.608 22.8475C162.623 22.8434 162.638 22.8356 162.65 22.8248Z" fill="white"/>
<path d="M124.624 34.984C124.788 35.0469 124.896 34.9766 124.946 34.7732C126.108 30.1317 127.267 25.4577 128.424 20.7512C128.434 20.7099 128.458 20.6733 128.492 20.647C128.525 20.6208 128.567 20.6065 128.61 20.6064H134.754C134.782 20.6064 134.808 20.6173 134.828 20.6368C134.848 20.6562 134.859 20.6826 134.859 20.7103C134.864 21.3489 134.863 21.9692 134.856 22.5712C134.853 22.9036 134.795 23.2297 134.683 23.5496C132.728 29.1087 130.74 34.7024 128.719 40.3307C128.705 40.3702 128.679 40.4045 128.645 40.4288C128.611 40.453 128.57 40.466 128.528 40.466H120.895C120.862 40.4659 120.828 40.4553 120.801 40.4355C120.773 40.4158 120.752 40.388 120.741 40.3559L114.699 23.3624C114.65 23.2219 114.626 23.0887 114.627 22.9628L114.646 20.715C114.646 20.6936 114.655 20.6731 114.671 20.6581C114.687 20.6431 114.709 20.6347 114.731 20.6348L120.891 20.6159C120.92 20.6156 120.949 20.6255 120.973 20.6441C120.996 20.6626 121.013 20.6887 121.02 20.7181L124.534 34.8754C124.541 34.9008 124.552 34.9239 124.568 34.9427C124.584 34.9616 124.603 34.9757 124.624 34.984Z" fill="white"/>
<path d="M23.2977 34.8965L27.6352 30.5832C27.644 30.5746 27.6509 30.5643 27.6557 30.553C27.6604 30.5416 27.6629 30.5295 27.6629 30.5172C27.6629 30.5049 27.6604 30.4927 27.6557 30.4814C27.6509 30.47 27.644 30.4597 27.6352 30.4511L23.2788 26.1017C23.2702 26.0928 23.2599 26.0857 23.2485 26.0809C23.2371 26.076 23.2248 26.0736 23.2123 26.0736C23.1998 26.0736 23.1875 26.076 23.1759 26.0809C23.1643 26.0857 23.1538 26.0928 23.1449 26.1017L18.8184 30.4212C18.7983 30.4415 18.787 30.4689 18.787 30.4975C18.787 30.5261 18.7983 30.5535 18.8184 30.5738L20.0831 31.8354C20.0908 31.843 20.0969 31.852 20.1011 31.862C20.1053 31.872 20.1075 31.8827 20.1075 31.8936C20.1075 31.9044 20.1053 31.9151 20.1011 31.9251C20.0969 31.9351 20.0908 31.9442 20.0831 31.9518L18.2813 33.7497C18.2698 33.7614 18.2562 33.7706 18.2412 33.777C18.2262 33.7834 18.2102 33.7867 18.1941 33.7869C18.1779 33.787 18.162 33.784 18.1472 33.7779C18.1325 33.7717 18.1191 33.7627 18.108 33.7513L16.6401 32.2569C16.6059 32.2216 16.5866 32.1731 16.5866 32.1217L16.5771 28.9284C16.5772 28.8498 16.6089 28.774 16.6653 28.7176L21.4533 23.9372C21.4713 23.9192 21.4925 23.9049 21.5158 23.8952C21.539 23.8855 21.5638 23.8805 21.5888 23.8805L24.7687 23.8711C24.8121 23.8711 24.8552 23.8799 24.8955 23.8969C24.9357 23.9139 24.9724 23.9388 25.0034 23.9702L31.4814 30.4385C31.5021 30.4594 31.5138 30.4877 31.5138 30.5172C31.5138 30.5466 31.5021 30.5749 31.4814 30.5958L25.0034 37.0641C24.9398 37.1276 24.8543 37.1632 24.7656 37.1632H21.6675C21.5727 37.1632 21.4811 37.1253 21.4124 37.0578L20.0075 35.6531C19.9915 35.637 19.9787 35.6179 19.97 35.5969C19.9613 35.5759 19.9569 35.5534 19.9569 35.5307C19.9569 35.5081 19.9613 35.4857 19.97 35.4649C19.9787 35.444 19.9915 35.4252 20.0075 35.4093L21.7242 33.6947C21.7535 33.6652 21.7936 33.6489 21.8358 33.6492C21.878 33.6494 21.9189 33.6664 21.9495 33.6963L23.1827 34.8981C23.1902 34.9055 23.1991 34.9114 23.209 34.9154C23.2188 34.9193 23.2294 34.9213 23.2401 34.9211C23.2507 34.921 23.2613 34.9187 23.2712 34.9145C23.2811 34.9103 23.2901 34.9042 23.2977 34.8965Z" fill="#92278E"/>
<path d="M42.8495 34.9888C42.8729 35.0125 42.9048 35.026 42.9381 35.0263C42.9715 35.0266 43.0036 35.0137 43.0275 34.9903L47.3697 30.6519C47.3774 30.6446 47.3834 30.6358 47.3876 30.6261C47.3917 30.6163 47.3938 30.6059 47.3938 30.5953C47.3938 30.5847 47.3917 30.5743 47.3876 30.5645C47.3834 30.5548 47.3774 30.546 47.3697 30.5387L46.1349 29.3038C46.1237 29.2927 46.1148 29.2795 46.1087 29.2649C46.1026 29.2503 46.0995 29.2347 46.0995 29.2189C46.0995 29.2031 46.1026 29.1874 46.1087 29.1729C46.1148 29.1583 46.1237 29.1451 46.1349 29.1339L47.9147 27.3548C47.937 27.3331 47.967 27.321 47.9982 27.321C48.0293 27.321 48.0593 27.3331 48.0816 27.3548L49.5543 28.8272C49.5727 28.8451 49.5874 28.8666 49.5974 28.8904C49.6074 28.9142 49.6126 28.9398 49.6125 28.9656V32.1856C49.6126 32.2371 49.5922 32.2868 49.5558 32.3241L44.667 37.1863C44.6317 37.2215 44.583 37.2413 44.5316 37.2414H41.4288C41.3834 37.2414 41.3383 37.2324 41.2961 37.2148C41.254 37.1973 41.2156 37.1715 41.1831 37.1391L34.7335 30.6991C34.7009 30.6666 34.6826 30.6223 34.6826 30.5761C34.6826 30.5298 34.7009 30.4853 34.7335 30.4521L41.1784 24.0169C41.1999 23.9954 41.2253 23.9784 41.2531 23.9668C41.2809 23.9551 41.3107 23.9492 41.3406 23.9492H44.5552C44.5922 23.9492 44.6288 23.9564 44.6628 23.9705C44.6969 23.9845 44.7277 24.0051 44.7537 24.031L46.1995 25.4766C46.2107 25.4878 46.2197 25.501 46.2258 25.5156C46.2318 25.5301 46.235 25.5458 46.235 25.5616C46.235 25.5774 46.2318 25.593 46.2258 25.6076C46.2197 25.6222 46.2107 25.6354 46.1995 25.6465L44.4213 27.4225C44.4102 27.4337 44.397 27.4426 44.3824 27.4487C44.3678 27.4548 44.3521 27.4579 44.3363 27.4579C44.3205 27.4579 44.3048 27.4548 44.2902 27.4487C44.2756 27.4426 44.2624 27.4337 44.2512 27.4225L43.0432 26.2175C43.0297 26.2037 43.0135 26.1927 42.9956 26.1852C42.9777 26.1777 42.9584 26.1738 42.9389 26.1738C42.9195 26.1738 42.9001 26.1777 42.8821 26.1852C42.864 26.1927 42.8476 26.2037 42.8337 26.2175L38.5765 30.4694C38.5481 30.4979 38.5322 30.5364 38.5322 30.5767C38.5322 30.6171 38.5481 30.656 38.5765 30.685L42.8495 34.9888Z" fill="#92278E"/>
<path d="M28.7642 40.2321C28.746 40.25 28.7315 40.2713 28.7215 40.2947C28.7115 40.3181 28.7063 40.3432 28.706 40.3684C28.7057 40.3937 28.7104 40.4187 28.7198 40.4421C28.7293 40.4654 28.7433 40.4865 28.761 40.5042L33.0576 44.7955C33.078 44.8155 33.1054 44.8268 33.134 44.8268C33.1626 44.8268 33.1901 44.8155 33.2104 44.7955L34.4074 43.5984C34.4356 43.5708 34.4734 43.5554 34.5126 43.5554C34.5518 43.5554 34.5893 43.5708 34.6169 43.5984L36.3557 45.3366C36.3669 45.3477 36.3758 45.3609 36.3819 45.3755C36.388 45.3901 36.3912 45.4057 36.3912 45.4215C36.3912 45.4373 36.388 45.453 36.3819 45.4676C36.3758 45.4821 36.3669 45.4954 36.3557 45.5065L34.9492 46.9112C34.9108 46.95 34.8653 46.9809 34.8153 47.0019C34.7653 47.023 34.7117 47.0339 34.6578 47.0339L31.4716 47.0245C31.4212 47.0245 31.3726 47.0047 31.3362 46.9694L26.5497 42.1874C26.5213 42.1595 26.4988 42.1261 26.4834 42.0891C26.4679 42.0521 26.46 42.0122 26.46 41.9719V38.8164C26.46 38.765 26.4798 38.7164 26.5151 38.6811L33.0435 32.1404C33.0623 32.1218 33.0878 32.1113 33.1143 32.1113C33.1409 32.1113 33.1663 32.1218 33.1852 32.1404L39.6663 38.615C39.6988 38.6469 39.7245 38.685 39.7421 38.7271C39.7597 38.7692 39.7687 38.8145 39.7687 38.8604V42.0018C39.7687 42.0522 39.7495 42.1001 39.7152 42.1355L38.2441 43.6204C38.2327 43.6322 38.2191 43.6416 38.204 43.648C38.189 43.6545 38.1728 43.6579 38.1566 43.658C38.1403 43.6582 38.1241 43.6551 38.1092 43.6489C38.0942 43.6427 38.0806 43.6335 38.0693 43.622L36.3163 41.8224C36.3023 41.8081 36.2948 41.7884 36.2954 41.7673C36.296 41.7463 36.3046 41.7255 36.3195 41.7092L37.5117 40.446C37.5261 40.4307 37.5337 40.4102 37.5331 40.3889C37.5325 40.3675 37.5238 40.3468 37.5086 40.3312L33.1836 35.9928C33.1654 35.9744 33.1404 35.9643 33.1141 35.9646C33.0879 35.9649 33.0624 35.9756 33.0435 35.9943L28.7642 40.2321Z" fill="#92278E"/>
<path d="M109.236 47.4966C109.723 47.85 109.967 48.3513 109.968 49.0004C109.972 50.6783 109.974 52.3557 109.974 54.0325C109.974 54.754 109.921 55.2459 109.814 55.508C109.604 56.0177 109.201 56.3685 108.606 56.5604C108.279 56.6663 107.908 56.7182 107.494 56.7161C106.024 56.7109 104.491 56.7083 102.896 56.7083C102.862 56.7083 102.83 56.6948 102.806 56.671C102.782 56.6471 102.769 56.6147 102.769 56.5809V47.1128C102.769 47.0843 102.78 47.0569 102.8 47.0366C102.82 47.0163 102.847 47.0046 102.876 47.0042C104.422 46.9927 105.988 46.9864 107.572 46.9854C108.213 46.9854 108.767 47.1558 109.236 47.4966ZM107.897 48.2831C107.665 48.1845 107.373 48.1352 107.021 48.1352C106.207 48.1352 105.359 48.1352 104.477 48.1352C104.442 48.1352 104.408 48.1493 104.383 48.1744C104.358 48.1995 104.344 48.2335 104.344 48.2689V55.4797C104.344 55.5031 104.353 55.5255 104.369 55.542C104.386 55.5585 104.408 55.5678 104.432 55.5678C105.37 55.5678 106.273 55.5778 107.139 55.5977C107.979 55.6166 108.399 55.2003 108.399 54.3487C108.399 52.632 108.398 50.9148 108.394 49.197C108.393 48.7272 108.228 48.4226 107.897 48.2831Z" fill="white"/>
<path d="M115.112 52.1071C115.172 52.235 115.231 52.2355 115.288 52.1086L117.577 47.1819C117.602 47.1272 117.641 47.081 117.69 47.0489C117.738 47.0168 117.794 47.0002 117.849 47.001L119.081 47.0183C119.103 47.0182 119.125 47.0263 119.142 47.0412C119.159 47.0561 119.171 47.077 119.176 47.1001C119.24 47.4105 119.214 47.6737 119.1 47.8898C118.095 49.7732 117.082 51.6902 116.062 53.6408C116.018 53.7247 115.995 53.8191 115.994 53.9239L115.972 56.6012C115.972 56.6238 115.964 56.6454 115.949 56.6613C115.933 56.6772 115.913 56.6862 115.892 56.6862H114.532C114.511 56.6861 114.491 56.6773 114.476 56.6614C114.46 56.6456 114.451 56.624 114.451 56.6012C114.399 55.3732 114.39 54.583 114.424 54.2307C114.443 54.0262 114.426 53.8458 114.375 53.6895C114.369 53.6707 114.288 53.5139 114.134 53.2192C113.176 51.3976 112.22 49.575 111.264 47.7513C111.198 47.6265 111.193 47.4095 111.25 47.1001C111.254 47.0768 111.266 47.0556 111.282 47.0404C111.299 47.0251 111.32 47.0168 111.342 47.0167H112.661C112.684 47.0166 112.707 47.0238 112.727 47.0375C112.748 47.0512 112.764 47.0707 112.775 47.0938L115.112 52.1071Z" fill="white"/>
<path d="M127.268 54.3386C127.25 53.8846 127.22 53.4315 127.177 52.9795C127.127 52.4615 127.103 52.009 127.103 51.622C127.103 50.1371 127.103 48.6296 127.103 47.0995C127.103 47.0716 127.114 47.0448 127.134 47.025C127.153 47.0052 127.18 46.9941 127.208 46.9941H128.574C128.601 46.9941 128.628 47.0051 128.647 47.0245C128.667 47.044 128.678 47.0704 128.678 47.098V56.5629C128.678 56.6013 128.662 56.6381 128.635 56.6652C128.608 56.6924 128.571 56.7076 128.533 56.7076H127.076C127.036 56.7077 126.996 56.6975 126.961 56.678C126.925 56.6585 126.895 56.6303 126.873 56.5959L122.176 49.3521C122.147 49.306 122.133 49.3091 122.135 49.3616C122.154 49.8072 122.185 50.2519 122.227 50.6955C122.275 51.1978 122.299 51.6419 122.299 52.0278C122.299 53.5568 122.299 55.0706 122.299 56.5692C122.299 56.5873 122.295 56.6052 122.289 56.6219C122.282 56.6386 122.272 56.6538 122.259 56.6665C122.247 56.6793 122.232 56.6893 122.215 56.6961C122.199 56.7029 122.181 56.7063 122.164 56.706L120.848 56.6998C120.816 56.6998 120.785 56.6865 120.762 56.6629C120.739 56.6393 120.726 56.6073 120.726 56.5739L120.752 47.1011C120.752 47.09 120.754 47.0789 120.759 47.0686C120.763 47.0583 120.769 47.0489 120.776 47.041C120.784 47.0332 120.793 47.0269 120.803 47.0226C120.813 47.0184 120.824 47.0162 120.834 47.0162L122.378 47.0256C122.4 47.0256 122.423 47.0323 122.445 47.0453C122.466 47.0582 122.485 47.0769 122.499 47.0995L127.227 54.3528C127.256 54.3958 127.269 54.3911 127.268 54.3386Z" fill="white"/>
<path d="M132.091 54.4329L131.368 56.6257C131.36 56.6494 131.345 56.6701 131.324 56.6848C131.303 56.6994 131.278 56.7074 131.251 56.7075H129.917C129.894 56.7075 129.871 56.6986 129.854 56.6825C129.836 56.6665 129.826 56.6445 129.824 56.621C129.803 56.3378 129.824 56.0714 129.886 55.8218C129.889 55.8124 129.977 55.5639 130.149 55.0762C131.086 52.4157 132.028 49.7562 132.973 47.0978C132.981 47.0744 132.996 47.0541 133.015 47.0397C133.034 47.0253 133.056 47.0176 133.078 47.0176H134.989C135.011 47.0175 135.033 47.0252 135.051 47.0395C135.07 47.0539 135.085 47.0743 135.093 47.0978C136.151 50.0299 137.185 52.9699 138.196 55.9178C138.244 56.0583 138.254 56.2733 138.225 56.5627C138.221 56.6005 138.204 56.6355 138.178 56.6608C138.151 56.6861 138.116 56.7 138.081 56.6996L136.817 56.6839C136.795 56.6839 136.772 56.6762 136.753 56.6618C136.734 56.6474 136.72 56.6271 136.712 56.6036L135.981 54.4392C135.972 54.4126 135.955 54.3895 135.933 54.3732C135.91 54.3568 135.884 54.348 135.857 54.3479L132.19 54.3574C132.168 54.3573 132.147 54.3646 132.129 54.3782C132.111 54.3918 132.098 54.411 132.091 54.4329ZM133.984 48.5151L132.51 53.1304C132.507 53.1393 132.506 53.1487 132.508 53.1578C132.51 53.167 132.513 53.1756 132.519 53.1831C132.524 53.1906 132.531 53.1967 132.54 53.2009C132.548 53.2051 132.557 53.2074 132.566 53.2075H135.464C135.479 53.2074 135.494 53.2039 135.507 53.1972C135.52 53.1904 135.532 53.1807 135.54 53.1688C135.549 53.1568 135.555 53.143 135.557 53.1284C135.56 53.1138 135.559 53.0989 135.554 53.0848L134.093 48.5151C134.057 48.4019 134.021 48.4019 133.984 48.5151Z" fill="white"/>
<path d="M141.791 48.7325L140.911 56.6181C140.908 56.6428 140.896 56.6655 140.877 56.682C140.858 56.6985 140.834 56.7077 140.809 56.7078H139.53C139.498 56.7079 139.468 56.6962 139.445 56.675C139.422 56.6538 139.407 56.6245 139.404 56.593C139.374 56.2868 139.373 56.0356 139.401 55.8395C139.806 52.9241 140.227 50.0114 140.665 47.1013C140.669 47.0782 140.68 47.057 140.696 47.0417C140.713 47.0264 140.734 47.018 140.755 47.0179H142.705C142.728 47.0178 142.75 47.0255 142.77 47.0399C142.789 47.0542 142.804 47.0746 142.812 47.0981L145.256 53.9188C145.326 54.1128 145.395 54.1128 145.464 53.9188L147.896 47.0981C147.904 47.0753 147.918 47.0554 147.937 47.0413C147.956 47.0272 147.979 47.0196 148.002 47.0195L149.923 46.999C149.957 46.9985 149.991 47.0109 150.017 47.0341C150.044 47.0572 150.061 47.0895 150.066 47.1249C150.473 49.8672 150.875 52.6274 151.273 55.4053C151.325 55.7713 151.339 56.173 151.312 56.6103C151.311 56.6367 151.299 56.6615 151.28 56.6796C151.261 56.6977 151.236 56.7078 151.21 56.7078H149.961C149.92 56.7077 149.881 56.6927 149.851 56.6658C149.821 56.6388 149.802 56.6017 149.797 56.5615L148.914 48.6838C148.9 48.5569 148.872 48.5537 148.829 48.6743L146.468 55.3581C146.451 55.4068 146.419 55.4488 146.379 55.4784C146.338 55.5081 146.29 55.5237 146.241 55.5233L144.417 55.5029C144.395 55.5028 144.373 55.495 144.354 55.4807C144.335 55.4663 144.32 55.4461 144.311 55.4226C143.495 53.2151 142.703 50.9987 141.938 48.7734C141.93 48.7514 141.906 48.7262 141.867 48.6979C141.86 48.6929 141.853 48.6899 141.844 48.689C141.836 48.6882 141.828 48.6896 141.82 48.6931C141.812 48.6966 141.806 48.7021 141.801 48.709C141.796 48.7159 141.792 48.724 141.791 48.7325Z" fill="white"/>
<path d="M155.004 46.9941H153.618C153.566 46.9941 153.523 47.0364 153.523 47.0885V56.6148C153.523 56.6669 153.566 56.7092 153.618 56.7092H155.004C155.056 56.7092 155.098 56.6669 155.098 56.6148V47.0885C155.098 47.0364 155.056 46.9941 155.004 46.9941Z" fill="white"/>
<path d="M158.121 56.1269C157.698 55.7557 157.487 55.2544 157.489 54.6231C157.496 53.0889 157.499 51.5546 157.5 50.0204C157.5 49.0755 157.584 48.4343 157.751 48.0966C158.096 47.395 158.771 47.0374 159.775 47.0238C161.776 46.9955 163.22 46.9881 164.106 47.0018C164.129 47.0022 164.152 47.0098 164.17 47.0234C164.188 47.037 164.202 47.0558 164.208 47.0773C164.314 47.4338 164.208 47.7537 163.89 48.0368C163.82 48.0996 163.729 48.1343 163.635 48.1343C162.485 48.1343 161.372 48.1364 160.296 48.1406C159.649 48.1427 159.258 48.3876 159.123 48.8752C159.091 48.9906 159.075 49.3902 159.075 50.0739C159.075 51.4718 159.075 52.8702 159.075 54.2692C159.075 55.2319 159.548 55.6645 160.493 55.5669C160.864 55.5281 162.075 55.537 164.125 55.5937C164.149 55.5945 164.172 55.6035 164.188 55.6187C164.205 55.634 164.214 55.6543 164.215 55.6755L164.213 56.6004C164.213 56.6212 164.204 56.6411 164.187 56.656C164.171 56.671 164.148 56.6798 164.125 56.6806C162.692 56.7131 161.258 56.7278 159.823 56.7247C159.142 56.7236 158.574 56.5244 158.121 56.1269Z" fill="white"/>
<path d="M166.191 51.5274C165.787 51.1887 165.557 50.7535 165.501 50.2218C165.454 49.796 165.456 49.3734 165.504 48.9539C165.559 48.4736 165.701 48.084 165.928 47.7851C166.293 47.3038 166.791 47.0532 167.422 47.0332C168.866 46.9881 170.353 46.9756 171.884 46.9955C171.92 46.9958 171.954 47.0089 171.981 47.0322C172.008 47.0556 172.025 47.0877 172.031 47.1229C172.083 47.4585 172.009 47.7275 171.809 47.9299C171.672 48.0672 171.456 48.1354 171.161 48.1344C170.375 48.1312 169.588 48.1186 168.802 48.0966C168.329 48.084 167.945 48.1328 167.649 48.2429C167.35 48.3541 167.17 48.5932 167.11 48.9602C167.036 49.4122 167.038 49.8023 167.117 50.1305C167.212 50.5259 167.48 50.7744 167.92 50.8762C168.535 51.0177 169.15 51.1609 169.764 51.3056C170.601 51.5017 171.083 51.6286 171.21 51.6863C171.71 51.9149 172.069 52.294 172.287 52.8236C172.376 53.0396 172.421 53.3296 172.424 53.6935C172.428 53.9902 172.433 54.287 172.442 54.5838C172.455 55.0756 172.333 55.4993 172.073 55.8548C171.841 56.1726 171.497 56.4059 171.042 56.5548C170.66 56.6786 170.263 56.7341 169.851 56.7216C169.56 56.7121 169.41 56.7074 169.402 56.7074C168.174 56.7074 166.918 56.7074 165.631 56.7074C165.613 56.7074 165.595 56.7038 165.578 56.6969C165.562 56.6899 165.546 56.6797 165.533 56.6669C165.521 56.654 165.51 56.6387 165.503 56.6219C165.496 56.6051 165.493 56.5871 165.493 56.569V55.6723C165.493 55.6444 165.504 55.6176 165.524 55.5978C165.534 55.588 165.545 55.5803 165.558 55.575C165.571 55.5697 165.584 55.5669 165.598 55.5669C166.903 55.5669 168.184 55.5669 169.441 55.5669C169.88 55.5669 170.182 55.525 170.345 55.4411C170.66 55.2807 170.824 54.9818 170.837 54.5445C170.844 54.3211 170.853 54.0983 170.862 53.8759C170.88 53.4607 170.753 53.1471 170.482 52.9353C170.344 52.8283 170.055 52.7229 169.616 52.6191C168.898 52.4502 168.18 52.2793 167.462 52.1063C166.92 51.9762 166.496 51.7833 166.191 51.5274Z" fill="white"/>
</svg>
