<svg width="133" height="63" viewBox="0 0 133 63" fill="none" xmlns="http://www.w3.org/2000/svg">
<g clip-path="url(#clip0_966_493)">
<path d="M66.4692 6.41776C66.4167 7.53935 66.4342 8.48172 66.3234 9.40097C66.0319 11.7424 64.9416 12.679 62.5336 12.7947C61.1342 12.864 59.7232 12.8814 58.3356 13.0779C56.2191 13.3728 54.5224 15.2344 54.3825 17.362C54.3125 18.3853 54.3475 19.4259 54.4699 20.4435C54.744 22.756 56.5573 24.4962 58.907 24.635C60.0089 24.6986 61.1401 24.6234 62.2304 24.4326C64.1894 24.0915 65.6645 22.1952 65.787 20.0619C65.8744 18.5587 65.9153 17.0498 66.0902 15.5524C66.3234 13.5694 67.5711 12.494 69.606 12.4478C71.4193 12.4073 73.2384 12.3321 75.04 12.4478C77.2789 12.5923 78.3401 13.7891 78.4859 16.038C78.585 17.5932 78.6141 19.1484 78.7774 20.6921C78.9814 22.6288 80.6023 24.2534 82.5614 24.502C83.9257 24.6754 85.3134 24.6986 86.6836 24.82C87.2375 24.8662 87.7972 24.9356 88.3219 25.0859C89.488 25.4155 90.2518 26.1555 90.4326 27.3811C90.8057 29.9539 90.8757 32.5324 90.4093 35.1051C90.1935 36.3019 89.4239 37.0997 88.2345 37.3483C85.8148 37.8455 83.366 37.8397 80.9405 37.435C79.0922 37.1286 78.1885 35.9203 78.1244 34.0529C78.0602 32.1392 78.0369 30.2198 77.8445 28.3177C77.6521 26.4503 76.9 25.6063 75.005 25.427C73.0926 25.2478 71.1336 25.2825 69.2212 25.4791C67.4837 25.6583 66.6674 26.7278 66.5683 28.4623C66.475 30.0637 66.475 31.6709 66.3934 33.2724C66.3584 33.9373 66.2709 34.6079 66.1077 35.2554C65.8103 36.4695 64.9824 37.1864 63.7463 37.4003C61.2917 37.8166 58.8312 37.8166 56.3823 37.3888C55.2221 37.1864 54.4466 36.4753 54.1609 35.371C53.916 34.4287 53.7878 33.4458 53.7178 32.4746C53.6187 31.0928 53.7295 29.6879 53.5662 28.3177C53.3213 26.2942 52.2252 25.3981 50.1495 25.3172C48.5286 25.2536 46.9078 25.2131 45.2869 25.1726C43.217 25.1148 41.9576 24.1031 41.8235 22.0565C41.6836 19.9173 41.6778 17.7551 41.8119 15.6102C41.9402 13.552 43.2112 12.5229 45.3219 12.442C46.8728 12.3842 48.4179 12.3495 49.9688 12.2685C52.4934 12.1356 53.4671 11.4187 53.6945 8.33719C53.8053 6.78777 53.7703 5.22679 53.8577 3.67159C53.9977 1.31856 55.0355 0.208529 57.4144 0.0697753C59.3443 -0.0400714 61.2858 -0.0169458 63.2157 0.092901C65.0348 0.196966 66.1018 1.34747 66.2651 3.15705C66.37 4.30177 66.405 5.45227 66.4633 6.41198L66.4692 6.41776Z" fill="white"/>
<path d="M36.6254 58.907C37.5174 55.999 38.3337 53.328 39.185 50.6685C39.2549 50.4488 39.5931 50.1771 39.8146 50.1655C40.9982 50.1193 42.1877 50.1598 43.3771 50.1482C43.9485 50.1482 43.8902 50.524 43.8902 50.8882C43.8902 54.3628 43.8902 57.8375 43.8902 61.3121C43.8902 61.7399 43.8902 62.1677 43.8902 62.7054C42.9923 62.7054 42.1585 62.7401 41.3306 62.6707C41.1907 62.6592 40.9866 62.1967 40.9866 61.9423C40.9516 59.6181 40.9574 57.294 40.9516 54.9699C40.9516 54.6866 40.9516 54.4033 40.7825 54.0796C40.4618 55.0393 40.1295 55.9932 39.8263 56.9529C39.2782 58.6873 38.7302 60.4218 38.2054 62.1562C38.0597 62.6418 37.7565 62.7806 37.2842 62.7517C36.7769 62.7228 36.2639 62.6939 35.7566 62.7343C35.022 62.7921 34.7304 62.4048 34.5439 61.7746C33.7567 59.1903 32.9463 56.6118 32.1417 54.0333C32.095 53.8888 32.0134 53.7558 31.8093 53.6402C31.8093 54.4669 31.8093 55.2937 31.8093 56.1146C31.8152 58.0572 31.8035 59.9997 31.8443 61.9365C31.856 62.584 31.6286 62.8211 31.0047 62.7343C30.9114 62.7228 30.8123 62.7228 30.7132 62.7285C28.8883 62.8153 29.034 62.9771 29.034 61.0462C29.034 57.7392 29.034 54.4322 29.034 51.1253C29.034 50.2349 29.1331 50.1366 30.031 50.1309C30.9989 50.1309 31.9668 50.1424 32.9405 50.154C33.5177 50.1598 33.815 50.4084 33.99 51.0096C34.6663 53.328 35.4126 55.629 36.1473 57.93C36.2347 58.2075 36.4038 58.4619 36.6254 58.8955V58.907Z" fill="white"/>
<path d="M89.7503 49.9863C93.5402 49.9863 96.1814 52.6342 96.1523 56.3979C96.1231 60.364 93.511 62.9656 89.5638 62.9656C85.6748 62.9656 83.1036 60.4044 83.1094 56.5425C83.1152 52.5417 85.7156 49.9806 89.7503 49.9863ZM86.1937 56.4442C86.1937 56.7332 86.1704 57.0223 86.1937 57.3056C86.3278 58.7799 87.2257 59.9072 88.5434 60.283C90.0944 60.7224 91.5345 60.2946 92.3857 59.0053C93.2487 57.6987 93.2662 56.2303 92.7531 54.7907C92.0243 52.7441 89.8436 51.9 87.9079 52.9117C86.4853 53.6575 86.1413 54.9757 86.1879 56.4442H86.1937Z" fill="white"/>
<path d="M110.774 56.4904C110.774 60.3293 108.15 62.9367 104.267 62.9598C100.319 62.9772 97.789 60.4333 97.7774 56.4442C97.7715 52.5706 100.407 49.9863 104.36 49.9863C108.278 49.9863 110.768 52.5186 110.774 56.4904ZM100.879 56.5887C100.879 56.8026 100.873 57.0223 100.879 57.2362C100.932 58.7798 102.022 60.0691 103.503 60.3466C105.252 60.6761 106.616 59.9939 107.31 58.4619C107.759 57.479 107.783 56.4442 107.619 55.4266C107.205 52.8655 104.389 51.6282 102.313 53.0967C101.124 53.935 100.774 55.1896 100.879 56.5887Z" fill="white"/>
<path d="M14.0004 56.4437C14.0353 52.4545 16.6474 49.9454 20.7229 49.9858C24.5478 50.0205 27.0491 52.6568 27.0199 56.6345C26.9908 60.3692 24.2621 62.9824 20.4139 62.9535C16.49 62.9246 13.9654 60.3635 14.0004 56.4437ZM24.0522 56.3107C23.8364 55.6632 23.6849 54.8769 23.3292 54.2005C22.7286 53.0442 21.685 52.4661 20.3673 52.5007C19.0846 52.5297 18.1109 53.1194 17.5103 54.2641C16.9798 55.2816 16.9739 56.3627 17.108 57.4728C17.3004 59.0858 18.3907 60.1669 20.1574 60.4213C21.6267 60.6352 23.0493 59.7969 23.5741 58.34C23.7898 57.7445 23.8714 57.097 24.0463 56.3107H24.0522Z" fill="white"/>
<path d="M132.709 53.9232C131.741 53.9232 130.825 53.9463 129.91 53.9058C129.723 53.8943 129.508 53.6688 129.379 53.4896C128.639 52.472 126.546 52.1078 125.508 52.8305C124.849 53.293 124.878 54.1255 125.642 54.4262C126.441 54.7441 127.304 54.9176 128.138 55.1546C129.018 55.4032 129.928 55.5824 130.779 55.912C132.091 56.415 132.948 57.3342 132.994 58.8142C133.041 60.3868 132.336 61.6067 130.93 62.2484C128.604 63.3064 126.231 63.2717 123.951 62.0403C122.902 61.4679 122.319 60.5082 121.986 59.3866C121.87 58.9819 121.998 58.7796 122.418 58.7738C123.071 58.768 123.73 58.7217 124.377 58.8027C124.657 58.8374 124.977 59.0975 125.152 59.3404C125.939 60.4446 128.522 60.7973 129.549 59.9012C130.032 59.4791 130.009 58.82 129.403 58.5425C128.621 58.1841 127.782 57.9413 126.96 57.6811C126.044 57.3862 125.088 57.1897 124.196 56.8312C122.948 56.3282 122.144 55.4379 122.05 54.0215C121.951 52.4952 122.517 51.2984 123.945 50.6972C126.219 49.7432 128.54 49.5351 130.761 50.8822C131.869 51.5528 132.493 52.5703 132.703 53.929L132.709 53.9232Z" fill="white"/>
<path d="M12.4091 55.0681C11.447 55.0681 10.555 55.1144 9.67455 55.0334C9.45299 55.0103 9.17313 54.6114 9.07984 54.3339C8.35686 52.2179 5.53488 51.8884 4.1239 53.3568C3.84986 53.6459 3.60498 54.0101 3.48837 54.3859C2.99861 55.9353 2.91115 57.4905 3.69827 58.9821C4.26383 60.0575 5.29 60.4737 6.42112 60.4333C7.59306 60.387 8.59008 59.8783 9.00404 58.6873C9.21977 58.0745 9.54045 57.8143 10.2226 57.8779C10.9398 57.9473 11.6628 57.8952 12.4849 57.8952C12.1584 59.4215 11.6278 60.705 10.4442 61.6647C7.83794 63.7634 2.02491 63.7113 0.421517 58.9128C-0.540519 56.0278 0.0425335 52.5821 3.06274 50.8188C6.06546 49.0728 11.4587 49.7781 12.3741 54.6576C12.3916 54.7502 12.3916 54.8427 12.4091 55.0739V55.0681Z" fill="white"/>
<path d="M70.2123 54.646C70.2123 55.8428 70.2648 57.0395 70.2007 58.2363C70.0899 60.3754 68.8188 62.0058 66.7315 62.6128C64.4343 63.2835 62.2712 63.0696 60.452 61.3583C59.4084 60.3812 59.0002 59.0862 58.9594 57.7218C58.8953 55.4497 58.9594 53.1718 58.9303 50.8997C58.9303 50.3909 59.1402 50.1944 59.5949 50.177C60.1488 50.1539 60.7086 50.177 61.2625 50.1365C61.7814 50.0961 61.9272 50.3158 61.9213 50.8014C61.9038 52.8596 61.9097 54.9178 61.9213 56.9817C61.9213 57.3864 61.9563 57.7911 61.9913 58.1958C62.1604 60.1615 64.341 60.8668 65.9036 60.1442C66.8365 59.7106 67.2329 58.9243 67.2388 57.9357C67.2621 55.6347 67.2854 53.3394 67.2679 51.0384C67.2621 50.3447 67.5245 50.0729 68.2066 50.125C68.6148 50.1539 69.0346 50.1655 69.4427 50.125C70.1015 50.0672 70.2881 50.3794 70.2823 50.9748C70.2648 52.1947 70.2823 53.4146 70.2823 54.6403C70.2648 54.6403 70.2415 54.6403 70.224 54.6403L70.2123 54.646Z" fill="white"/>
<path d="M49.6865 58.091C49.6865 59.4381 49.6632 60.6638 49.6981 61.8836C49.7156 62.4907 49.4941 62.7277 48.8702 62.7624C46.7246 62.8723 46.7304 62.8954 46.7304 60.7447C46.7304 57.4609 46.7362 54.177 46.7188 50.8932C46.7188 50.4191 46.847 50.1647 47.3484 50.1705C49.5291 50.1879 51.7155 50.0838 53.8845 50.2514C56.135 50.4249 57.4936 52.1478 57.3711 54.3331C57.2487 56.5127 55.7152 58.0101 53.4763 58.091C52.2461 58.1315 51.0217 58.0968 49.6923 58.0968L49.6865 58.091ZM49.6865 52.645C49.6865 53.5526 49.6981 54.362 49.6865 55.1714C49.6807 55.5646 49.8789 55.6571 50.2287 55.6455C51.0975 55.6224 51.9662 55.6224 52.835 55.5993C53.8436 55.5703 54.2809 55.1888 54.3276 54.3273C54.3859 53.304 53.9836 52.7375 52.9749 52.6681C51.9254 52.5929 50.8643 52.6507 49.6865 52.6507V52.645Z" fill="white"/>
<path d="M78.7704 52.7785C78.7704 53.6573 78.7704 54.4436 78.7704 55.2299C78.7704 57.4326 78.7529 59.6353 78.782 61.838C78.7937 62.5202 78.5313 62.8093 77.855 62.7572C77.6626 62.7399 77.4701 62.7572 77.2719 62.7572C76.2108 62.7765 75.686 62.2504 75.6977 61.1789C75.7268 58.5484 75.7385 55.9121 75.7851 53.2815C75.791 52.8306 75.5927 52.767 75.2196 52.7728C74.0884 52.7843 72.9573 52.7728 71.7387 52.7728C71.7387 51.998 71.7213 51.3101 71.7562 50.6221C71.7621 50.4891 71.9428 50.2868 72.0827 50.2463C72.3568 50.1653 72.6541 50.1422 72.9398 50.1422C75.8668 50.1422 78.7995 50.1364 81.7264 50.1422C82.6651 50.1422 82.7118 50.2 82.7001 51.1135C82.6768 53.1023 82.8925 52.7207 81.0559 52.7554C80.3329 52.7728 79.6099 52.7554 78.7645 52.7554L78.7704 52.7785Z" fill="white"/>
<path d="M115.427 60.1783H121.24C121.24 60.9299 121.28 61.6179 121.211 62.3001C121.193 62.4678 120.791 62.7106 120.557 62.7164C118.791 62.7569 117.018 62.7453 115.252 62.7569C114.552 62.7569 113.847 62.7858 113.147 62.8147C112.68 62.832 112.441 62.6875 112.441 62.1614C112.459 58.3977 112.459 54.6398 112.441 50.8761C112.441 50.4078 112.634 50.2054 113.059 50.1881C113.689 50.1649 114.319 50.1592 114.949 50.1534C115.467 50.1476 115.427 50.5118 115.427 50.8529C115.427 53.4893 115.427 56.1256 115.427 58.7619C115.427 59.2129 115.427 59.658 115.427 60.1783Z" fill="white"/>
</g>
<defs>
<clipPath id="clip0_966_493">
<rect width="133" height="63" fill="white"/>
</clipPath>
</defs>
</svg>
