<svg width="145" height="23" viewBox="0 0 145 23" fill="none" xmlns="http://www.w3.org/2000/svg">
<g clip-path="url(#clip0_966_513)">
<path d="M0 0L11.3578 11.2355L22.7155 0H0Z" fill="#1B3E6C"/>
<path d="M0 22.471L11.3578 11.2355L0 0V22.471Z" fill="#F7941D"/>
<path d="M22.7171 22.4709V11.2354L11.3594 22.4709H22.7171Z" fill="#40C4E0"/>
<path d="M17.0366 16.8535L11.3578 22.4713H0L5.67888 16.8535H17.0366Z" fill="#725BA7"/>
<path d="M11.3586 11.2354L5.67969 16.8531H17.0374L11.3586 11.2354Z" fill="#DC4E3A"/>
<path d="M17.0352 5.61775L22.714 11.2355V0L17.0352 5.61775Z" fill="#00B388"/>
<path d="M22.714 11.2359L17.0352 5.61816L11.3563 11.2359L17.0352 16.8537L22.714 11.2359Z" fill="#F5DF2E"/>
<path d="M39.0666 0H31.8359V22.471H38.8435C43.5218 22.471 50.3029 19.6086 50.3029 11.2874C50.3029 2.96628 42.9804 0 39.0666 0ZM38.6893 18.1254H37.0227V4.34556H38.9288C40.579 4.34556 44.8734 5.46197 44.8734 11.2874C44.8734 17.1129 40.1492 18.1254 38.6893 18.1254Z" fill="white"/>
<path d="M64.0704 7.8155V9.86983L63.4503 9.18181C62.8204 8.48081 61.4261 7.30273 59.1461 7.30273C57.1448 7.30273 55.1896 8.07513 53.9068 9.3668C53.0669 10.2138 51.6562 12.1091 51.6562 15.2734C51.6562 17.451 52.2993 19.1159 53.7428 20.6737C55.1928 22.2185 56.9513 23.0039 58.9722 23.0039C60.0843 23.0039 62.1413 22.7378 63.4241 20.9496L64.0671 20.0538V22.4879H68.3386V7.8155H64.0671H64.0704ZM59.9302 19.0121C57.8108 19.0121 56.0917 17.2758 56.0917 15.1338C56.0917 12.9919 57.8108 11.2556 59.9302 11.2556C62.0495 11.2556 63.7686 12.9919 63.7686 15.1338C63.7686 17.2758 62.0495 19.0121 59.9302 19.0121Z" fill="white"/>
<path d="M94.1218 7.8155V9.86983L93.5017 9.18181C92.8719 8.48081 91.4776 7.30273 89.1975 7.30273C87.1963 7.30273 85.241 8.07513 83.9615 9.3668C83.1216 10.2138 81.7109 12.1091 81.7109 15.2734C81.7109 17.451 82.3539 19.1159 83.7975 20.6737C85.2475 22.2185 87.0093 23.0039 89.0269 23.0039C90.139 23.0039 92.1927 22.7378 93.4788 20.9496L94.1218 20.0538V22.4879H98.3933V7.8155H94.1218ZM89.9816 19.0121C87.8622 19.0121 86.1431 17.2758 86.1431 15.1338C86.1431 12.9919 87.8622 11.2556 89.9816 11.2556C92.1009 11.2556 93.82 12.9919 93.82 15.1338C93.82 17.2758 92.1009 19.0121 89.9816 19.0121Z" fill="white"/>
<path d="M72.9217 0.00683594V7.81846H71.1797V11.6123H72.9217V22.4843H77.6656V11.6123H80.7691V7.81846H77.6656V0.00683594H72.9217Z" fill="white"/>
<path d="M137.152 0V22.4872H141.9V11.6152H145V7.81812H141.9V0H137.152Z" fill="white"/>
<path d="M115.215 14.8573H108.722L111.924 5.29321L115.215 14.8573ZM117.908 22.471H123.311L114.933 0H109.027L100.484 22.4678H105.825L107.39 18.5344H116.481L117.908 22.4678V22.471Z" fill="white"/>
<path d="M125.035 22.4874H129.779V16.266C129.779 15.6396 129.779 13.7346 131.118 12.4981C131.79 11.8782 132.682 11.5796 133.85 11.5796C134.654 11.5796 135.533 11.5991 135.848 11.6056V7.83122C135.629 7.81824 134.903 7.7793 134.903 7.7793C133.985 7.7793 133.119 7.7793 132.453 8.14278C131.6 8.57441 130.908 9.25919 130.448 10.1322L129.779 11.3979V7.81824H125.035V22.4874Z" fill="white"/>
</g>
<defs>
<clipPath id="clip0_966_513">
<rect width="145" height="23" fill="white"/>
</clipPath>
</defs>
</svg>
