<svg width="428" height="104" viewBox="0 0 428 104" fill="none" xmlns="http://www.w3.org/2000/svg">
<path d="M161.964 88.1025C161.416 87.1554 160.682 86.4213 159.77 85.9117C158.857 85.3944 157.842 85.1357 156.721 85.1357C155.713 85.1357 154.82 85.3944 154.048 85.9117C153.443 86.311 152.945 86.8473 152.546 87.5205V85.402H150.417V103.495H152.546V95.5193C152.945 96.1964 153.443 96.7327 154.048 97.1396C154.82 97.6569 155.709 97.9117 156.721 97.9117C157.838 97.9117 158.853 97.6569 159.77 97.1396C160.682 96.6223 161.416 95.8921 161.964 94.9336C162.511 93.9751 162.789 92.8379 162.789 91.5256C162.789 90.2134 162.511 89.0572 161.964 88.1063V88.1025ZM160.063 93.9181C159.679 94.5761 159.177 95.0705 158.546 95.409C157.914 95.7475 157.222 95.9149 156.458 95.9149C155.838 95.9149 155.226 95.7475 154.626 95.409C154.021 95.0705 153.527 94.5761 153.135 93.9181C152.748 93.2638 152.554 92.4651 152.554 91.5218C152.554 90.5786 152.748 89.7874 153.135 89.1256C153.527 88.4714 154.021 87.9732 154.626 87.6346C155.23 87.3037 155.838 87.1288 156.458 87.1288C157.222 87.1288 157.914 87.2999 158.546 87.6346C159.177 87.9732 159.682 88.4714 160.063 89.1256C160.439 89.7836 160.633 90.5824 160.633 91.5218C160.633 92.4613 160.439 93.2638 160.063 93.9181Z" fill="black"/>
<path d="M166.15 79.3127C166.443 79.0275 166.785 78.8867 167.173 78.8867C167.561 78.8867 167.926 79.0275 168.211 79.3127C168.492 79.598 168.637 79.9441 168.637 80.3511C168.637 80.758 168.496 81.0814 168.211 81.378C167.926 81.6709 167.58 81.8154 167.173 81.8154C166.766 81.8154 166.443 81.6709 166.15 81.378C165.857 81.0852 165.713 80.7428 165.713 80.3511C165.713 79.9593 165.861 79.598 166.15 79.3127ZM168.237 85.4059V97.6456H166.108V85.4059H168.237Z" fill="black"/>
<path d="M171.83 87.4021V85.4053H182.468L174.887 95.6519H181.935V97.6488H171.031L178.612 87.4021H171.83Z" fill="black"/>
<path d="M184.863 87.4021V85.4053H195.501L187.92 95.6519H194.968V97.6488H184.064L191.646 87.4021H184.863Z" fill="black"/>
<path d="M206.501 86.8397C206.101 86.292 205.543 85.8698 204.828 85.5807C204.109 85.2879 203.269 85.1357 202.311 85.1357C201.174 85.1357 200.205 85.3069 199.395 85.6416C198.593 85.9801 197.961 86.3186 197.494 86.6571L198.536 88.2242C198.73 88.0873 198.996 87.9123 199.334 87.7183C199.665 87.5243 200.083 87.3532 200.57 87.2125C201.056 87.0679 201.6 86.9957 202.204 86.9957C202.577 86.9957 202.931 87.0337 203.269 87.106C203.607 87.1706 203.9 87.2885 204.162 87.4483C204.417 87.608 204.619 87.8248 204.759 88.0987C204.896 88.3763 204.969 88.7263 204.969 89.1523V90.9209C204.638 90.7041 204.216 90.5101 203.706 90.3389C203.113 90.1336 202.372 90.0271 201.486 90.0271C199.98 90.0271 198.805 90.3884 197.961 91.1073C197.117 91.8223 196.699 92.7808 196.699 93.9675C196.699 94.8005 196.897 95.5079 197.285 96.0975C197.673 96.6794 198.193 97.1282 198.843 97.4401C199.494 97.752 200.186 97.9041 200.931 97.9041C201.6 97.9041 202.284 97.7824 202.965 97.5314C203.645 97.2804 204.223 96.9 204.695 96.3903C204.801 96.28 204.889 96.1583 204.972 96.029V97.6379H207.101V88.8556C207.101 88.0568 206.904 87.3874 206.505 86.8321L206.501 86.8397ZM204.505 94.5456C204.193 95.0325 203.779 95.409 203.258 95.6753C202.733 95.9415 202.144 96.0746 201.486 96.0746C200.969 96.0746 200.516 95.991 200.117 95.8198C199.718 95.6525 199.406 95.3976 199.186 95.0667C198.965 94.7282 198.855 94.3288 198.855 93.8686C198.855 93.4084 198.961 93.0432 199.178 92.7199C199.387 92.4043 199.71 92.1532 200.148 91.9783C200.581 91.7995 201.144 91.712 201.84 91.712C202.581 91.712 203.28 91.8071 203.938 91.9897C204.288 92.0886 204.63 92.2217 204.976 92.3928V92.8531C204.976 93.4921 204.82 94.055 204.512 94.5456H204.505Z" fill="black"/>
<path d="M227.844 76.8895V87.5242C227.453 86.8547 226.951 86.3146 226.354 85.9153C225.594 85.398 224.696 85.1394 223.673 85.1394C222.571 85.1394 221.563 85.398 220.636 85.9153C219.716 86.4249 218.978 87.1552 218.43 88.1061C217.883 89.0608 217.605 90.1942 217.605 91.5255C217.605 92.8567 217.883 93.9749 218.43 94.9334C218.978 95.8919 219.716 96.626 220.636 97.1394C221.56 97.6567 222.571 97.9116 223.673 97.9116C224.7 97.9116 225.597 97.6567 226.354 97.1394C226.951 96.7363 227.453 96.1962 227.844 95.5191V97.6415H229.973V76.8857H227.844V76.8895ZM227.262 93.9179C226.871 94.5759 226.377 95.0703 225.772 95.4088C225.168 95.7474 224.559 95.9147 223.94 95.9147C223.191 95.9147 222.499 95.7474 221.86 95.4088C221.221 95.0703 220.712 94.5759 220.331 93.9179C219.947 93.2637 219.761 92.4649 219.761 91.5217C219.761 90.5784 219.951 89.7873 220.331 89.1254C220.715 88.4712 221.225 87.973 221.86 87.6345C222.499 87.3036 223.191 87.1286 223.94 87.1286C224.559 87.1286 225.171 87.2998 225.772 87.6345C226.377 87.973 226.871 88.4712 227.262 89.1254C227.65 89.7835 227.844 90.5822 227.844 91.5217C227.844 92.4611 227.65 93.2637 227.262 93.9179Z" fill="black"/>
<path d="M243.908 88.0644C243.448 87.1288 242.79 86.4023 241.931 85.8964C241.068 85.3906 240.038 85.1357 238.833 85.1357C237.627 85.1357 236.567 85.402 235.65 85.9345C234.738 86.467 234.027 87.2163 233.521 88.1747C233.015 89.1294 232.761 90.2477 232.761 91.5218C232.761 92.796 233.004 93.8952 233.491 94.8499C233.978 95.8084 234.662 96.5577 235.54 97.1016C236.414 97.6455 237.426 97.9117 238.555 97.9117C239.867 97.9117 241.011 97.6531 241.973 97.1282C242.943 96.6033 243.745 95.8236 244.384 94.8005L242.654 93.7089C242.209 94.4505 241.669 95.0058 241.03 95.371C240.391 95.7361 239.658 95.9149 238.825 95.9149C237.992 95.9149 237.278 95.7361 236.696 95.3824C236.11 95.0287 235.666 94.5114 235.361 93.842C235.133 93.3247 234.989 92.7313 234.939 92.0581H244.566C244.566 92.0239 244.57 91.9402 244.581 91.8071C244.585 91.674 244.593 91.5485 244.593 91.4191C244.593 90.1221 244.365 89.0077 243.901 88.0644H243.908ZM235.415 89.0115C235.726 88.3611 236.168 87.8629 236.745 87.5205C237.323 87.1706 238.015 86.9995 238.833 86.9995C239.521 86.9995 240.125 87.1554 240.639 87.4559C241.156 87.7564 241.559 88.1747 241.848 88.7034C242.091 89.1522 242.239 89.6695 242.281 90.2515H235.035C235.111 89.7912 235.24 89.3805 235.418 89.0153L235.415 89.0115Z" fill="black"/>
<path d="M249.656 76.8896V97.6454H247.527V76.8896H249.656Z" fill="black"/>
<path d="M254.086 79.3127C254.378 79.0275 254.721 78.8867 255.108 78.8867C255.496 78.8867 255.861 79.0275 256.146 79.3127C256.428 79.598 256.572 79.9441 256.572 80.3511C256.572 80.758 256.431 81.0814 256.146 81.378C255.861 81.6709 255.515 81.8154 255.108 81.8154C254.702 81.8154 254.378 81.6709 254.086 81.378C253.793 81.0852 253.648 80.7428 253.648 80.3511C253.648 79.9593 253.797 79.598 254.086 79.3127ZM256.173 85.4059V97.6456H254.044V85.4059H256.173Z" fill="black"/>
<path d="M260.96 85.4053L264.416 94.0545L267.876 85.4053H270.271L264.419 98.5768L258.568 85.4053H260.964H260.96Z" fill="black"/>
<path d="M281.946 88.0644C281.486 87.1288 280.829 86.4023 279.962 85.8964C279.102 85.3906 278.072 85.1357 276.863 85.1357C275.654 85.1357 274.597 85.402 273.688 85.9345C272.776 86.467 272.065 87.2163 271.559 88.1747C271.05 89.1294 270.799 90.2477 270.799 91.5218C270.799 92.796 271.042 93.8952 271.529 94.8499C272.015 95.8084 272.7 96.5577 273.578 97.1016C274.453 97.6455 275.456 97.9117 276.593 97.9117C277.905 97.9117 279.049 97.6531 280.011 97.1282C280.977 96.6033 281.779 95.8236 282.421 94.8005L280.688 93.7089C280.243 94.4505 279.707 95.0058 279.068 95.371C278.426 95.7361 277.696 95.9149 276.855 95.9149C276.015 95.9149 275.316 95.7361 274.726 95.3824C274.145 95.0287 273.7 94.5114 273.396 93.842C273.167 93.3247 273.023 92.7313 272.973 92.0581H282.6C282.6 92.0239 282.604 91.9402 282.612 91.8071C282.623 91.674 282.627 91.5485 282.627 91.4191C282.627 90.1221 282.395 89.0077 281.935 88.0644H281.946ZM273.445 89.0115C273.757 88.3611 274.198 87.8629 274.779 87.5205C275.35 87.1706 276.049 86.9995 276.863 86.9995C277.555 86.9995 278.159 87.1554 278.676 87.4559C279.186 87.7564 279.589 88.1747 279.886 88.7034C280.129 89.1522 280.273 89.6695 280.311 90.2515H273.065C273.141 89.7912 273.27 89.3805 273.449 89.0153L273.445 89.0115Z" fill="black"/>
<path d="M292.559 85.9916L291.388 87.7489C291.107 87.5321 290.844 87.3761 290.616 87.2848C290.384 87.1859 290.092 87.1365 289.734 87.1365C289.202 87.1365 288.788 87.2696 288.487 87.5359C288.183 87.8021 287.978 88.1672 287.86 88.6275C287.742 89.0877 287.689 89.6126 287.689 90.1945V97.6456H285.56V85.4059H287.689V86.8132C287.951 86.4138 288.248 86.0829 288.594 85.8053C289.141 85.3603 289.704 85.1396 290.266 85.1396C290.711 85.1396 291.126 85.2005 291.506 85.3184C291.882 85.4287 292.236 85.6569 292.551 85.9954L292.559 85.9916Z" fill="black"/>
<path d="M305.192 85.4023L297.211 103.499H294.82L298.169 95.9153L293.489 85.4023H296.014L299.435 93.8423L302.797 85.4023H305.192Z" fill="black"/>
<path d="M22.3311 2.55762V24.9109H1.73191C0.233926 24.9109 -0.518912 22.9292 0.545645 21.7692L7.89492 13.7399L0.54184 5.70312C-0.522718 4.53924 0.230121 2.56142 1.72811 2.56142H22.3311V2.55762Z" fill="#118D44"/>
<path d="M73.0611 11.4928C67.0806 5.50605 59.8454 2.5127 51.3555 2.5127H36.0107C35.6571 2.5127 35.3112 2.52791 34.969 2.55834H25.7871V52.6506C25.7871 55.4842 26.7833 57.8956 28.7793 59.8925C30.7678 61.8893 33.1858 62.8859 36.0107 62.8859H51.3555C59.8454 62.8859 67.0806 59.8925 73.0611 53.9058C79.0454 47.919 82.0377 40.8521 82.0377 32.7012C82.0377 24.5502 79.0454 17.4795 73.0611 11.4966V11.4928ZM60.0317 44.9333C57.0015 45.7054 54.131 45.287 51.424 43.6743C48.7246 42.0654 46.9871 39.7453 46.2153 36.7101C45.4511 33.6711 45.8654 30.7994 47.4737 28.0989L66.9969 39.7225C65.3887 42.423 63.0695 44.1574 60.0317 44.9295V44.9333Z" fill="#118D44"/>
<path d="M129.801 19.145C124.825 14.1662 118.791 11.6787 111.704 11.6787C104.617 11.6787 98.6213 14.1662 93.6216 19.145C88.6296 24.1238 86.1279 30.16 86.1279 37.2573C86.1279 44.3547 88.6258 50.3452 93.6216 55.3392C98.6213 60.3332 104.644 62.836 111.704 62.836C118.764 62.836 124.825 60.337 129.801 55.3392C134.782 50.3452 137.272 44.3129 137.272 37.2573C137.272 30.2018 134.786 24.1238 129.801 19.145ZM121.551 36.5727C120.779 39.6041 119.046 41.928 116.342 43.5407C113.643 45.1496 110.772 45.5642 107.738 44.7921C104.708 44.02 102.385 42.2856 100.773 39.5851L120.296 27.9615C121.905 30.662 122.323 33.5337 121.555 36.5727H121.551Z" fill="#118D44"/>
<path d="M186.623 33.0125V54.2932C186.623 56.6475 185.79 58.6634 184.14 60.3293C182.49 62.0029 180.467 62.8359 178.076 62.8359C175.684 62.8359 173.718 62.0029 172.068 60.3293C170.418 58.6596 169.586 56.6475 169.586 54.2932V33.8303C169.586 32.3279 169.164 31.1031 168.312 30.1447C167.46 29.19 166.111 28.7145 164.271 28.7145C162.43 28.7145 161.028 29.19 160.176 30.1447C159.328 31.1031 158.902 32.3279 158.902 33.8303V54.2932C158.902 56.6475 158.07 58.6634 156.42 60.3293C154.769 62.0029 152.762 62.8359 150.412 62.8359C148.063 62.8359 146.044 62.0029 144.378 60.3293C142.706 58.6596 141.873 56.6475 141.873 54.2932V20.2213C141.873 17.8327 142.706 15.813 144.378 14.1547C146.048 12.504 148.059 11.6748 150.412 11.6748C152.252 11.6748 153.887 12.1845 155.321 13.2114C158.013 12.1845 160.993 11.6748 164.271 11.6748C170.848 11.6748 176.217 13.7553 180.38 17.9164C184.535 22.0736 186.619 27.1095 186.619 33.0049L186.623 33.0125Z" fill="black"/>
<path d="M239.882 14.1585C238.224 12.5078 236.224 11.6748 233.871 11.6748C231.517 11.6748 229.559 12.4774 227.886 14.0824C224.552 12.4812 220.849 11.6748 216.792 11.6748C209.732 11.6748 203.71 14.1699 198.718 19.1487C193.718 24.1275 191.224 30.1637 191.224 37.261C191.224 44.3584 193.718 50.3489 198.718 55.3429C203.71 60.3369 209.736 62.8397 216.792 62.8397C220.849 62.8397 224.552 62.0181 227.886 60.3826C229.559 62.0181 231.555 62.8397 233.871 62.8397C236.186 62.8397 238.228 62.0029 239.882 60.3331C241.532 58.6596 242.36 56.6475 242.36 54.297V20.2251C242.36 17.8365 241.536 15.8168 239.882 14.1585ZM224.776 38.8129L211.538 45.0316C210.542 45.4956 209.397 44.773 209.397 43.6662V31.2249C209.397 30.1218 210.538 29.3954 211.538 29.867L224.776 36.0857C225.928 36.622 225.928 38.2652 224.776 38.8091V38.8129Z" fill="black"/>
<path d="M281.699 20.2242C281.699 22.5786 280.874 24.5945 279.216 26.2604C277.566 27.9301 275.544 28.7669 273.16 28.7669H272.338V54.2961C272.338 56.6505 271.502 58.6663 269.833 60.3323C268.16 62.0058 266.149 62.8388 263.799 62.8388C261.45 62.8388 259.431 62.0058 257.765 60.3323C256.093 58.6625 255.26 56.6505 255.26 54.2961V28.7669H254.439C252.089 28.7669 250.07 27.9301 248.405 26.2604C246.736 24.5907 245.899 22.5786 245.899 20.2242C245.899 17.8699 246.736 15.8616 248.405 14.1881C250.074 12.5183 252.089 11.6815 254.439 11.6815H255.26V9.98898C255.26 7.60417 256.093 5.58071 257.765 3.92998C259.434 2.27165 261.446 1.44629 263.799 1.44629C266.153 1.44629 268.16 2.27165 269.833 3.92998C271.502 5.58071 272.338 7.60417 272.338 9.98898V11.6815H273.16C275.544 11.6815 277.566 12.5183 279.216 14.1881C280.874 15.8616 281.699 17.8737 281.699 20.2242Z" fill="black"/>
<path d="M350.078 8.97033V54.2968C350.078 56.6512 349.245 58.667 347.595 60.333C345.945 62.0065 343.938 62.8395 341.588 62.8395C339.238 62.8395 337.22 62.0065 335.554 60.333C333.881 58.6632 333.049 56.6512 333.049 54.2968V8.97033C333.049 6.58172 333.881 4.56205 335.554 2.90372C337.223 1.253 339.235 0.423828 341.588 0.423828C343.942 0.423828 345.945 1.24919 347.595 2.90372C349.245 4.56205 350.078 6.57792 350.078 8.97033Z" fill="black"/>
<path d="M372.224 8.97033V54.2968C372.224 56.6512 371.392 58.667 369.742 60.333C368.092 62.0065 366.084 62.8395 363.735 62.8395C361.385 62.8395 359.366 62.0065 357.701 60.333C356.028 58.6632 355.195 56.6512 355.195 54.2968V8.97033C355.195 6.58172 356.028 4.56205 357.701 2.90372C359.37 1.253 361.381 0.423828 363.735 0.423828C366.088 0.423828 368.092 1.24919 369.742 2.90372C371.392 4.56205 372.224 6.57792 372.224 8.97033Z" fill="black"/>
<path d="M420.495 19.1487C415.518 14.1699 409.484 11.6748 402.39 11.6748C395.295 11.6748 389.307 14.1699 384.315 19.1487C379.315 24.1275 376.821 30.1637 376.821 37.261C376.821 44.3584 379.315 50.3489 384.315 55.3429C389.307 60.3369 395.337 62.8397 402.39 62.8397C409.442 62.8397 415.518 60.3408 420.495 55.3429C425.472 50.3489 427.958 44.3165 427.958 37.261C427.958 30.2055 425.472 24.1275 420.495 19.1487ZM409.971 32.6322L403.747 45.876C403.211 47.0285 401.569 47.0285 401.032 45.876L394.809 32.6322C394.345 31.6356 395.071 30.487 396.173 30.487H408.61C409.712 30.487 410.439 31.6356 409.975 32.6322H409.971Z" fill="black"/>
<path d="M326.391 43.422C324.741 41.7712 322.718 40.9383 320.335 40.9383C317.951 40.9383 315.78 41.7484 313.734 43.3725C311.689 44.9928 309.491 45.7992 307.142 45.7992C306.461 45.7992 305.811 45.7345 305.195 45.5938L325.654 29.9385C327.459 28.7138 328.307 26.8158 328.209 24.2637C328.307 21.9093 327.152 19.5245 324.73 17.1016C320.099 13.4883 314.229 11.6816 307.142 11.6816C300.055 11.6816 294.059 14.1691 289.059 19.1479C284.067 24.1267 281.573 30.1629 281.573 37.2603C281.573 44.3576 284.067 50.3482 289.059 55.3422C294.059 60.3438 300.081 62.8389 307.142 62.8389C314.202 62.8389 320.262 60.842 325.247 56.8522C327.326 54.7716 328.482 52.9155 328.722 51.2762C328.828 50.6981 328.878 50.0857 328.878 49.4353C328.878 47.0847 328.053 45.0765 326.395 43.4258L326.391 43.422ZM296.333 32.2967C296.553 30.1173 297.511 28.3258 299.218 26.9375C300.925 25.5455 302.872 24.9597 305.047 25.1803C307.229 25.4009 309.016 26.367 310.404 28.0672L298.085 38.1275C296.694 36.4197 296.108 34.4761 296.329 32.2967H296.333Z" fill="black"/>
</svg>
