<svg width="140" height="110" viewBox="0 0 140 110" fill="none" xmlns="http://www.w3.org/2000/svg">
<g clip-path="url(#clip0_1786_445)">
<path d="M70.9412 13.7656C63.3885 13.7656 57.2656 19.9245 57.2656 27.5217C57.2656 35.1188 63.3885 41.2873 70.9412 41.2873C78.494 41.2873 84.6265 47.4462 84.6265 55.0434C84.6265 62.6406 78.5036 68.8091 70.9412 68.8091C86.0564 68.8091 98.3021 56.4914 98.3021 41.2873C98.3021 26.0833 86.0564 13.7656 70.9412 13.7656Z" fill="#CEDC72"/>
<path d="M70.9409 41.2873C63.3881 41.2873 57.2653 35.1285 57.2653 27.5217C57.2653 19.9148 63.3881 13.7656 70.9409 13.7656C55.8258 13.7656 43.5801 26.0833 43.5801 41.2873C43.5801 56.4914 55.8258 68.8091 70.9409 68.8091C78.4937 68.8091 84.6261 62.6502 84.6261 55.0434C84.6261 47.4365 78.5033 41.2873 70.9409 41.2873Z" fill="#378C15"/>
<path d="M69.98 8.69827C69.7689 8.14803 69.5194 7.6171 69.2315 7.10547C68.4925 7.29854 67.8015 7.60744 67.1777 8.02254C67.6768 8.36041 68.1374 8.75619 68.5309 9.2099C69.5962 10.4166 70.2488 12.0094 70.2583 13.747C70.4887 13.7566 70.7094 13.7663 70.9397 13.7663C70.9397 11.9804 70.5942 10.2718 69.98 8.69827Z" fill="#0A0A0A"/>
<path d="M70.9422 57.7954C72.4527 57.7954 73.6773 56.5636 73.6773 55.0442C73.6773 53.5247 72.4527 52.293 70.9422 52.293C69.4316 52.293 68.207 53.5247 68.207 55.0442C68.207 56.5636 69.4316 57.7954 70.9422 57.7954Z" fill="#0A0A0A"/>
<path d="M84.6266 0C77.0738 0 70.9414 6.15884 70.9414 13.7657C78.4942 13.7657 84.6266 7.60685 84.6266 0Z" fill="#378C15"/>
<path d="M139.97 101.701C139.73 102.067 139.519 102.55 139.241 102.888C138.31 103.737 136.746 103.583 136.266 102.038C135.335 102.405 134.395 102.975 133.406 103.226C130.997 103.805 128.752 103.1 126.909 101.343C125.277 99.7795 124.5 97.7716 124.538 95.5224C124.625 91.8252 127.226 88.6203 130.7 88.099C132.696 87.7708 134.577 88.1859 136.122 89.5277C136.362 88.8326 136.727 88.2245 137.504 88.099C138.56 87.8866 139.5 88.4272 139.874 89.4891C139.874 89.5759 139.961 89.6146 139.999 89.7304C139.961 93.611 139.961 97.7234 139.961 101.701H139.97ZM128.137 95.6383C128.137 98.0612 129.942 99.9436 132.293 100.031C134.577 100.031 136.419 98.1481 136.419 95.7637C136.419 93.1863 134.673 91.3425 132.293 91.3715C129.97 91.4101 128.137 93.2539 128.137 95.6383Z" fill="#0A0A0A"/>
<path d="M78.1768 103.391V108.15C78.1768 108.97 77.7257 109.453 77.1211 109.839C76.5165 110.167 75.8927 110.08 75.3169 109.627C74.8274 109.26 74.5875 108.806 74.5875 108.198V103.439C70.0673 102.705 67.2075 100.359 67.1211 95.4749C67.1211 93.467 67.8505 91.7487 69.3764 90.262C70.7967 88.872 72.6009 88.2059 74.6067 87.9935V82.7324C74.6067 81.8829 75.1825 81.0431 75.8351 80.85C76.766 80.6087 77.6393 80.9755 78.0904 81.8443C78.2151 82.0856 78.3015 82.4235 78.3015 82.6938C78.3015 84.2577 78.3879 85.8118 78.3015 87.3757C78.3015 87.868 78.5126 87.9838 78.9061 88.0707C81.4013 88.3989 83.3879 89.5863 84.7411 91.6811C86.6604 94.7991 86.123 99.5582 82.4858 101.856C81.3725 102.551 80.2017 103.043 78.8965 103.159C78.4455 103.246 78.3207 103.313 78.1672 103.371L78.1768 103.391ZM78.1768 99.9444C80.8639 99.6161 82.457 97.2414 81.9675 94.8184C81.6029 93.0036 79.8562 91.4591 78.1768 91.488V99.9347V99.9444ZM74.4148 91.5266C72.5434 91.6135 70.7103 93.3415 70.5376 95.137C70.4128 97.7724 71.9196 99.6451 74.4148 99.9444V91.5266Z" fill="#0A0A0A"/>
<path d="M110.105 89.3161C111.094 88.9493 112.025 88.3797 113.08 88.1287C116.756 87.3082 120.22 89.3161 121.363 92.9361C122.418 96.1796 121.852 99.1336 119.366 101.508C116.996 103.806 112.956 104.086 110.46 101.962C110.374 101.875 110.336 101.875 110.22 101.837V108.024C110.22 109.134 109.405 109.955 108.349 109.955C107.293 109.955 106.43 109.134 106.43 108.024V89.8857C106.43 89.0362 107.245 88.0033 108.109 87.955C109.126 87.8681 109.827 88.3701 110.105 89.3161ZM118.263 95.7066C118.387 93.776 116.842 91.4012 114.107 91.4012C111.545 91.4012 109.865 93.4091 109.952 95.9093C110.038 98.1779 111.823 99.9638 114.107 99.9638C116.756 99.9251 118.387 97.6276 118.263 95.697V95.7066Z" fill="#0A0A0A"/>
<path d="M92.2841 97.0686C92.4089 98.0629 93.0135 98.6324 93.6661 99.1923C95.0864 100.38 97.6968 100.129 98.8484 99.4336C99.3379 99.1054 99.8369 98.9799 100.403 98.9799C101.094 99.0668 101.507 99.3468 101.823 99.9742C102.063 100.553 102.035 101.094 101.612 101.664C101.008 102.484 100.058 102.783 99.1171 103.054C96.6219 103.633 94.1459 103.662 91.8619 102.204C89.3667 100.64 87.9463 97.5223 88.4358 94.578C89.0116 91.2186 90.9981 88.9984 94.2227 88.2164C98.4645 87.1546 102.054 89.6451 103.196 93.5451C103.321 93.9988 103.407 94.3946 103.407 94.8483C103.407 96.1515 102.562 97.1168 101.238 97.1168H93.0423C92.6776 97.0686 92.524 97.0686 92.2841 97.0686ZM92.2841 94.2788H99.6642C99.5394 92.7149 97.668 91.2862 95.8734 91.3152C94.1939 91.3152 92.3225 92.8307 92.2841 94.2788Z" fill="#0A0A0A"/>
<path d="M3.93451 97.0686C4.05927 98.0629 4.66388 98.6324 5.31647 99.1923C6.73682 100.38 9.34718 100.129 10.4988 99.4336C10.9883 99.1054 11.4873 98.9799 12.0535 98.9799C12.7445 99.0668 13.1668 99.3468 13.4739 99.9742C13.7138 100.553 13.685 101.094 13.2627 101.664C12.6581 102.484 11.708 102.783 10.7675 103.054C8.27233 103.633 5.79632 103.662 3.51225 102.204C1.01705 100.64 -0.403298 97.5223 0.0861458 94.578C0.661961 91.2186 2.64853 88.9984 5.87309 88.2164C10.1149 87.1546 13.7042 89.6451 14.8462 93.5451C14.971 93.9988 15.0574 94.3946 15.0574 94.8483C15.0574 96.1515 14.2128 97.1168 12.8884 97.1168H4.70227C4.35678 97.0686 4.18403 97.0686 3.94411 97.0686H3.93451ZM3.93451 94.2788H11.3146C11.1898 92.7149 9.31839 91.2862 7.52377 91.3152C5.8635 91.3152 3.9921 92.8307 3.93451 94.2788Z" fill="#0A0A0A"/>
<path d="M33.732 95.6388C33.6073 91.6134 36.8318 87.9258 41.5247 87.9258C45.8913 87.9258 49.3558 91.2851 49.3558 95.6388C49.3558 99.9925 45.9297 103.39 41.5631 103.39C36.9182 103.39 33.6169 99.6932 33.732 95.6388ZM37.2829 95.6388C37.2829 98.0232 39.1543 99.9442 41.4383 100.031C43.7224 100.031 45.5938 98.1004 45.5938 95.7257C45.5938 93.351 43.7224 91.5458 41.4383 91.4589C39.2023 91.4106 37.2829 93.3413 37.2829 95.6388Z" fill="#0A0A0A"/>
<path d="M26.0174 95.3406C27.6489 96.9817 29.3283 98.5455 30.8638 100.148C31.2285 100.515 31.4684 100.998 31.5548 101.538C31.6796 102.272 31.3149 102.928 30.5663 103.295C29.8753 103.623 28.9349 103.42 28.455 102.928C26.6508 101.113 24.8658 99.2309 22.9848 97.4258C22.7736 97.2134 22.4953 97.1844 22.1402 96.9334V101.48C22.1402 102.542 21.3245 103.363 20.336 103.411C19.2803 103.498 18.3398 102.59 18.3398 101.528V89.7127C18.3398 88.7184 19.2707 87.8979 20.336 87.8979C21.3245 87.8979 22.1402 88.7474 22.1402 89.7803V93.3907C22.6297 93.5161 22.9848 93.5162 23.3206 93.0624C24.3091 91.8751 25.3168 90.7649 26.3821 89.6162C26.9579 89.037 27.5625 88.4964 28.3015 88.0523C29.0308 87.5986 30.0481 87.811 30.5567 88.4192C31.2477 89.2687 31.1613 90.3016 30.2304 90.9966C28.599 92.2516 27.4089 93.8154 26.0174 95.331V95.3406Z" fill="#0A0A0A"/>
<path d="M51.967 95.6389C51.8423 91.9417 54.7022 88.6209 58.3778 88.0996C60.0093 87.8583 61.6887 87.9741 63.2242 88.592C63.9536 88.9202 64.6062 89.3256 64.6446 90.233C64.7309 90.9281 64.4334 91.4687 63.9152 91.9224C63.2242 92.3761 62.5332 92.2506 61.8711 91.9224C60.1916 91.1887 58.6465 91.2273 57.1398 92.3761C55.9114 93.3704 55.2684 95.3397 55.6331 96.7973C56.0841 98.4867 57.5045 99.674 59.0975 99.9154C60.1532 100.041 61.0169 99.8285 61.9574 99.3362C62.8979 98.8438 63.8288 98.9693 64.4526 99.7899C65.0284 100.61 64.9037 101.479 64.0016 102.213C63.6753 102.454 63.2722 102.705 62.8883 102.908C61.7079 103.4 60.3931 103.4 59.1839 103.362C57.6292 103.275 56.2377 102.782 55.0572 101.933C53.2722 100.524 51.8902 98.3805 51.9574 95.6389H51.967Z" fill="#0A0A0A"/>
</g>
<defs>
<clipPath id="clip0_1786_445">
<rect width="140" height="110" fill="white"/>
</clipPath>
</defs>
</svg>
