<svg width="142" height="141" viewBox="0 0 142 141" fill="none" xmlns="http://www.w3.org/2000/svg">
<path fill-rule="evenodd" clip-rule="evenodd" d="M0.874023 94.4941L70.9877 94.4833L102.415 94.4806H141.123V57.0684L98.1736 57.0711H82.4914L77.3437 57.0738L71.0149 57.0684H0.874023V94.4941Z" fill="white"/>
<path fill-rule="evenodd" clip-rule="evenodd" d="M17.968 32.6404H0.874023V36.6631H70.909C70.9036 37.4942 71.0067 55.4045 71.0067 57.0695H77.3437V56.9988C78.0985 56.5371 78.6768 56.0618 79.9148 56.0618C80.9303 56.0618 82.0109 56.5317 82.4914 57.0722H98.1736C98.5483 56.5724 98.9583 56.0645 99.3655 55.505C99.7646 54.9563 100.08 54.4484 100.468 53.8563C102.347 50.9853 103.737 47.658 104.671 44.309C104.858 43.6408 104.997 42.7581 105.222 42.1171L119.889 54.538C120.22 54.7988 120.516 55.1274 120.891 55.3121V13.9289C120.396 14.1272 105.849 26.7817 105.048 27.2081C104.492 23.9651 102.618 19.6681 101.147 17.2019C99.4551 14.3662 97.3564 11.5686 95.0051 9.41468C93.501 8.03488 92.977 7.51881 91.1878 6.22321C87.7288 3.71349 83.5829 1.77416 79.3392 0.676838L76.8007 0.130894C76.7762 0.122746 76.7491 0.114597 76.7274 0.109165C76.7029 0.101016 76.6731 0.0874379 76.6541 0.0820056C76.635 0.0765733 76.5943 0.0820054 76.5807 0.0521278C76.5672 0.0195341 76.5319 0.033112 76.5074 0.0195312H70.9714V14.9475C67.8844 15.1159 66.0735 15.3929 63.4806 16.4984C58.5039 18.617 54.5046 23.2371 53.2177 28.6966C52.8783 30.1389 52.9353 31.2308 52.7262 32.6432H17.9708L17.968 32.6404Z" fill="#231F20"/>
<path fill-rule="evenodd" clip-rule="evenodd" d="M70.9874 128.134L70.9766 140.321H141.123V94.4805H102.412C102.61 95.1785 102.469 100.304 102.469 101.45C102.469 103.694 102.596 106.345 102.452 108.539L85.2469 108.545L85.2415 128.136H70.9874V128.134Z" fill="#FBB959"/>
<path fill-rule="evenodd" clip-rule="evenodd" d="M60.2553 140.322H70.9798L70.9906 128.134V94.4866L0.876953 94.4974V94.4648L4.17575 94.4784C4.30608 95.2091 5.60659 98.281 5.97855 99.104C7.8981 103.366 10.2656 107.611 12.9074 111.253C13.3825 111.908 13.7843 112.432 14.2676 113.087C15.56 114.833 16.703 115.982 17.8895 117.452L22.649 122.273C24.9324 124.522 29.8982 128.131 32.5536 129.848C35.1383 131.516 37.7882 132.879 40.7558 134.332C45.0455 136.435 50.2476 138.143 55.0017 139.251C55.8461 139.447 59.9105 140.148 60.2553 140.327" fill="#DD4E3A"/>
<path fill-rule="evenodd" clip-rule="evenodd" d="M98.173 57.072H141.125V0.0166016H76.5068C76.5313 0.0301823 76.5666 0.0166002 76.5801 0.049194C76.5937 0.0817877 76.6344 0.0736395 76.6535 0.0790718C76.6725 0.0845041 76.705 0.0980864 76.7268 0.106235C76.7485 0.114383 76.7756 0.122532 76.8001 0.127965L79.3386 0.673908C83.5823 1.77123 87.7282 3.71056 91.1872 6.22028C92.9737 7.5186 93.4977 8.03466 95.0045 9.41175C97.3558 11.5657 99.4545 14.366 101.146 17.1989C102.618 19.6652 104.491 23.9621 105.048 27.2052C105.846 26.7815 120.393 14.1243 120.89 13.926V55.3092C120.515 55.1272 120.219 54.7958 119.888 54.5351L105.221 42.1141C104.996 42.7552 104.855 43.6379 104.67 44.3061C103.736 47.6524 102.346 50.9796 100.467 53.8533C100.082 54.4454 99.764 54.9507 99.3649 55.502C98.9577 56.0643 98.5504 56.5695 98.173 57.0692" fill="#DD4E3A"/>
<path fill-rule="evenodd" clip-rule="evenodd" d="M0.874023 32.6427H17.968C18.0061 31.9284 20.8134 27.205 21.2886 26.4716C22.6054 24.44 23.857 22.6473 25.296 20.8954C40.9809 1.81176 60.7194 0.660115 61.9194 0.0136719H0.874023V32.64V32.6427Z" fill="#3B5DAB"/>
<path fill-rule="evenodd" clip-rule="evenodd" d="M17.9688 32.6402H52.7242C52.9306 31.2278 52.8763 30.1359 53.2156 28.6937C54.4999 23.2315 58.4992 18.6141 63.4786 16.4955C66.0715 15.3927 67.8824 15.1157 70.9667 14.9445V0.0166016H61.9201C60.7201 0.663044 40.9816 1.81469 25.2967 20.8983C23.8577 22.6475 22.6061 24.4402 21.2893 26.4746C20.8141 27.2079 18.0068 31.9313 17.9688 32.6429" fill="white"/>
<path fill-rule="evenodd" clip-rule="evenodd" d="M0.874023 140.321H60.2551C59.9076 140.142 55.8458 139.441 55.0015 139.246C50.2474 138.137 45.0453 136.432 40.7555 134.327C37.788 132.871 35.1354 131.51 32.5533 129.842C25.1331 125.051 18.1119 118.426 12.9072 111.247C10.2681 107.608 7.89788 103.36 5.97834 99.0982C5.60637 98.2752 4.30586 95.2032 4.17554 94.4726L0.876737 94.459V140.321H0.874023Z" fill="#3B5DAB"/>
<path fill-rule="evenodd" clip-rule="evenodd" d="M70.9881 128.134H85.2421L85.2476 108.545L102.453 108.539C102.597 106.345 102.469 103.696 102.469 101.45C102.469 100.304 102.61 95.1785 102.412 94.4805H70.9854V128.131L70.9881 128.134Z" fill="#0D9261"/>
<path fill-rule="evenodd" clip-rule="evenodd" d="M89.155 15.5203C84.2408 16.6393 85.935 24.0273 90.8356 22.9218C92.6493 22.5117 94.2132 20.6864 93.6973 18.3505C93.3036 16.5687 91.4547 14.9961 89.155 15.5203Z" fill="#DD4E3A"/>
<path fill-rule="evenodd" clip-rule="evenodd" d="M92.1023 46.061C87.0143 46.9193 88.3419 54.329 93.2535 53.5657C95.135 53.2751 96.7695 51.4363 96.4002 49.19C96.0907 47.3132 94.2743 45.6943 92.105 46.061" fill="#DD4E3A"/>
<path fill-rule="evenodd" clip-rule="evenodd" d="M78.4436 6.83364C76.5105 7.15414 74.8787 8.83815 75.2425 11.1822C75.5357 13.0726 77.325 14.6833 79.592 14.3384C81.4817 14.0504 83.0999 12.217 82.7442 9.96536C82.451 8.1048 80.6319 6.47239 78.4436 6.83635" fill="#DD4E3A"/>
<path fill-rule="evenodd" clip-rule="evenodd" d="M94.6356 30.1439C92.6889 30.3721 91.0165 32.1267 91.2988 34.411C91.5405 36.3666 93.3541 37.9664 95.5859 37.6839C97.4946 37.4422 99.1155 35.6468 98.8358 33.4169C98.6023 31.5346 96.8348 29.8859 94.6356 30.1439Z" fill="#DD4E3A"/>
<path fill-rule="evenodd" clip-rule="evenodd" d="M77.3438 56.9986V57.0746H82.4915C82.0109 56.5314 80.9303 56.0615 79.9149 56.0615C78.6796 56.0615 78.0985 56.5341 77.3438 56.9986Z" fill="#DD4E3A"/>
<path d="M71.1696 36.6602H0.874023V40.7425H71.1696V36.6602Z" fill="#0D9261"/>
<path d="M71.1696 40.7422H0.874023V44.8246H71.1696V40.7422Z" fill="#231F20"/>
<path d="M71.1696 44.8242H0.874023V48.9066H71.1696V44.8242Z" fill="#0D9261"/>
<path d="M71.1696 48.9053H0.874023V52.9876H71.1696V48.9053Z" fill="#231F20"/>
<path d="M71.1696 52.9863H0.874023V57.0687H71.1696V52.9863Z" fill="#0D9261"/>
<path d="M16.736 68.168H6.42691L6.40247 78.5409H5.51465V64.7021H16.736V68.168Z" fill="#231F20"/>
<path d="M30.0332 65.3749C31.1599 66.0214 32.0504 66.896 32.7048 67.9987C33.3591 69.1015 33.6849 70.3047 33.6849 71.6112C33.6849 72.9177 33.3591 74.1427 32.7048 75.2427C32.0532 76.3454 31.1626 77.2201 30.0332 77.8665C28.9037 78.5129 27.6548 78.8361 26.2837 78.8361H25.5316C24.1469 78.8361 22.8871 78.5129 21.7522 77.8665C20.6173 77.2201 19.7268 76.3454 19.0806 75.2427C18.4344 74.1399 18.1113 72.9313 18.1113 71.6112C18.1113 70.2912 18.4344 69.0852 19.0806 67.9879C19.7268 66.8933 20.6173 66.0214 21.7522 65.3749C22.8871 64.7285 24.1469 64.4053 25.5316 64.4053H26.2837C27.6548 64.4053 28.9064 64.7285 30.0332 65.3749ZM29.7915 74.8298C29.9734 74.7592 30.1499 74.6832 30.3264 74.5962C31.4721 74.0259 32.8242 72.9095 32.8242 71.5161C32.8242 70.8425 32.5201 70.2205 31.9147 69.6447C31.3065 69.0716 30.8368 68.7104 29.8078 68.3736C28.7788 68.0368 27.6575 67.8684 26.4438 67.8684H25.3741C24.1605 67.8684 23.0364 68.0368 21.9993 68.3736C20.9649 68.7104 20.4436 69.164 19.8354 69.7398C19.2272 70.3129 18.9258 70.9376 18.9258 71.6112C18.9258 72.2848 19.2299 72.9285 19.8354 73.5016C20.4436 74.0747 20.9567 74.5175 21.9993 74.8679C23.031 75.2155 24.1605 75.3731 25.3741 75.3731H26.4438C27.5652 75.3731 28.7299 75.24 29.7942 74.8298H29.7915Z" fill="#231F20"/>
<path d="M36.606 64.6826H43.7113C45.3729 64.6826 46.5839 64.8619 47.3414 65.2177C48.0989 65.5735 48.5686 66.0434 48.7451 66.6247C48.9215 67.2059 49.0111 68.0425 49.0111 69.1398V70.0497C49.0111 70.5658 48.8699 71.0275 48.5849 71.435C48.2998 71.8451 47.9224 72.1602 47.4473 72.3856C46.9721 72.6111 46.459 72.7224 45.9024 72.7224H37.4884L37.5047 78.5431H36.6006V64.6853L36.606 64.6826ZM47.5939 71.3806C48.1097 71.0248 48.3351 70.7315 48.3351 70.085C48.3351 69.3979 48.1532 68.9225 47.5884 68.6129C47.021 68.3032 46.3096 68.1484 45.4517 68.1484L37.4938 68.1267L37.483 71.8342H45.8969C46.5567 71.8342 47.0834 71.7419 47.5966 71.3861L47.5939 71.3806Z" fill="#231F20"/>
<path d="M53.8523 61.7324C53.8523 62.167 53.6975 62.5418 53.388 62.8515C53.0785 63.1611 52.7065 63.3159 52.2694 63.3159C51.8323 63.3159 51.4603 63.1611 51.1508 62.8515C50.8413 62.5418 50.6865 62.1697 50.6865 61.7324C50.6865 61.2951 50.8413 60.904 51.1508 60.5943C51.4603 60.2847 51.8323 60.1299 52.2694 60.1299C52.7065 60.1299 53.0785 60.2847 53.388 60.5943C53.6975 60.904 53.8523 61.2842 53.8523 61.7324ZM52.8912 64.6821L52.8667 78.5399H51.9707V64.6821H52.8884H52.8912Z" fill="#231F20"/>
<path d="M61.8791 69.9112L65.6231 64.6826H69.6604L64.0837 72.4372L69.4106 78.5404H68.235L63.5271 73.1163L59.5685 78.5404H55.5312L61.3279 70.6011L56.1856 64.6826H57.3341L61.8791 69.9112Z" fill="#231F20"/>
<path d="M100.943 76.4596C100.772 77.0789 100.311 77.5814 99.5585 77.9644C98.8064 78.3473 97.5928 78.5375 95.9176 78.5375H88.1797V64.6797H95.2823C96.9575 64.6797 98.1657 64.8481 98.9042 65.1849C99.6427 65.5217 100.104 66.0052 100.289 66.6407C100.473 67.2736 100.566 68.265 100.566 69.6095C100.566 69.9001 100.454 70.2288 100.229 70.5982C100.004 70.9676 99.6807 71.2636 99.2599 71.4891C99.7866 71.6466 100.243 71.9182 100.626 72.3012C101.008 72.6842 101.198 73.1595 101.198 73.7272C101.198 74.9277 101.112 75.8403 100.94 76.4596M97.4788 71.1821C98.0598 71.1821 98.6137 71.1957 99.1404 70.916C99.6671 70.6389 99.9332 70.2369 99.9332 69.7073C99.9332 69.1532 99.6318 68.7539 99.0318 68.5095C98.4318 68.265 97.7557 68.1428 97.0036 68.1428H89.0757V71.1794H97.4788V71.1821ZM99.7947 74.6398C100.321 74.3492 100.585 73.9662 100.585 73.4909C100.585 73.1215 100.441 72.8173 100.15 72.581C99.8599 72.3419 99.6427 72.2767 99.2517 72.1708C98.8634 72.0649 98.4019 72.0757 98.1114 72.0757H89.0757V75.0744H97.6362C98.5458 75.0744 99.2653 74.9277 99.792 74.6398H99.7947Z" fill="#231F20"/>
<path d="M118.257 64.6826V78.5404H117.361V66.7116L107.214 78.5404H103.75V64.6826H104.643V76.5087L114.792 64.6826H118.257Z" fill="#231F20"/>
<path d="M135.465 64.6821V78.5399H134.571L134.582 66.6731L124.422 78.5399H120.958V64.6821H121.849L121.862 76.5463L132 64.6821H135.465ZM129.339 62.8515C129.03 63.1611 128.658 63.3159 128.221 63.3159C127.784 63.3159 127.393 63.1611 127.083 62.8515C126.774 62.5418 126.619 62.1697 126.619 61.7324C126.619 61.2951 126.774 60.904 127.083 60.5943C127.393 60.2847 127.773 60.1299 128.221 60.1299C128.669 60.1299 129.03 60.2847 129.339 60.5943C129.649 60.904 129.804 61.2842 129.804 61.7324C129.804 62.1806 129.649 62.5418 129.339 62.8515Z" fill="#231F20"/>
<path d="M81.9404 65.3749C83.0671 66.0214 83.9577 66.896 84.612 67.9987C85.2663 69.1015 85.5921 70.3047 85.5921 71.6112C85.5921 72.9177 85.2663 74.1427 84.612 75.2427C83.9604 76.3454 83.0698 77.2201 81.9404 77.8665C80.8136 78.5129 79.562 78.8361 78.1909 78.8361H77.4388C76.0541 78.8361 74.7943 78.5129 73.6594 77.8665C72.5245 77.2201 71.634 76.3454 70.9878 75.2427C70.3416 74.1399 70.0186 72.9313 70.0186 71.6112C70.0186 70.2912 70.3416 69.0852 70.9878 67.9879C71.634 66.8933 72.5245 66.0214 73.6594 65.3749C74.7943 64.7285 76.0541 64.4053 77.4388 64.4053H78.1909C79.562 64.4053 80.8136 64.7285 81.9404 65.3749ZM81.6987 74.8298C81.8806 74.7592 82.0571 74.6832 82.2336 74.5962C83.3794 74.0259 84.7315 72.9095 84.7315 71.5161C84.7315 70.8425 84.4274 70.2205 83.8219 69.6447C83.2137 69.0716 82.744 68.7104 81.715 68.3736C80.686 68.0368 79.5647 67.8684 78.3511 67.8684H77.2813C76.0677 67.8684 74.9437 68.0368 73.9065 68.3736C72.8721 68.7104 72.3508 69.164 71.7426 69.7398C71.1344 70.3129 70.8331 70.9376 70.8331 71.6112C70.8331 72.2848 71.1372 72.9285 71.7426 73.5016C72.3508 74.0747 72.8639 74.5175 73.9065 74.8679C74.9382 75.2155 76.0677 75.3731 77.2813 75.3731H78.3511C79.4724 75.3731 80.6372 75.24 81.7015 74.8298H81.6987Z" fill="#231F20"/>
<path d="M6.57833 88.606H6.10048V89.6653H5.48145V87.0225H6.10048V88.0899H6.59462L7.37656 87.0225H8.03903L7.0779 88.2936L8.10419 89.6653H7.37656L6.57833 88.606Z" fill="#231F20"/>
<path d="M21.5066 86.4803C21.4306 86.4097 21.3926 86.3201 21.3926 86.2168C21.3926 86.1136 21.4306 86.024 21.5066 85.9506C21.5826 85.88 21.6777 85.8447 21.789 85.8447C21.9003 85.8447 21.9953 85.8773 22.0713 85.9452C22.1474 86.0131 22.1854 86.0973 22.1854 86.2005C22.1854 86.3092 22.1474 86.4015 22.0741 86.4749C22.0007 86.5482 21.9057 86.5862 21.789 86.5862C21.6722 86.5862 21.5826 86.5509 21.5066 86.4803ZM21.4767 87.0235H22.0958V89.6663H21.4767V87.0235Z" fill="#231F20"/>
<path d="M35.8691 87.0225H36.4882V88.0953H37.8186V87.0225H38.4376V89.6653H37.8186V88.6196H36.4882V89.6653H35.8691V87.0225Z" fill="#231F20"/>
<path d="M52.661 89.5261C52.4465 89.4094 52.2781 89.2491 52.1587 89.0427C52.0392 88.8362 51.9795 88.6026 51.9795 88.3419C51.9795 88.0811 52.0392 87.8476 52.1587 87.6439C52.2809 87.4401 52.4465 87.2799 52.661 87.1631C52.8755 87.049 53.1171 86.9893 53.3832 86.9893C53.6492 86.9893 53.8963 87.0463 54.1108 87.1631C54.3253 87.2799 54.4936 87.4374 54.6131 87.6439C54.7326 87.8476 54.7923 88.0811 54.7923 88.3419C54.7923 88.6026 54.7326 88.8362 54.6131 89.0427C54.4936 89.2491 54.3253 89.4094 54.1108 89.5261C53.8963 89.6429 53.6547 89.7 53.3832 89.7C53.1117 89.7 52.8755 89.6429 52.661 89.5261ZM53.9479 88.9422C54.0972 88.7901 54.1705 88.5918 54.1705 88.3419C54.1705 88.092 54.0972 87.8937 53.9479 87.7444C53.7986 87.5923 53.6112 87.5162 53.3832 87.5162C53.1551 87.5162 52.9678 87.5923 52.8212 87.7444C52.6745 87.8965 52.6012 88.0947 52.6012 88.3419C52.6012 88.5891 52.6745 88.7901 52.8212 88.9422C52.9678 89.0943 53.1551 89.1703 53.3832 89.1703C53.6112 89.1703 53.7986 89.0943 53.9479 88.9422Z" fill="#231F20"/>
<path d="M71.2395 89.1381V90.2735H70.6612V89.6651H68.3398V87.0195H68.9589V89.1381H70.2187V87.0195H70.8377V89.1381H71.2395Z" fill="#231F20"/>
<path d="M87.1914 88.5407H85.1198C85.1551 88.7363 85.2501 88.8884 85.4049 89.0025C85.5569 89.1166 85.7497 89.1736 85.975 89.1736C86.2656 89.1736 86.5045 89.0785 86.6918 88.8857L87.023 89.2659C86.9036 89.4072 86.7543 89.5158 86.5724 89.5864C86.3904 89.6598 86.1868 89.6951 85.9588 89.6951C85.6682 89.6951 85.413 89.6381 85.1904 89.5213C84.9705 89.4045 84.7994 89.2442 84.6772 89.0378C84.5578 88.8314 84.498 88.5978 84.498 88.337C84.498 88.0763 84.5578 87.8481 84.6745 87.6417C84.7913 87.4353 84.9542 87.275 85.1632 87.1582C85.3723 87.0414 85.6058 86.9844 85.8664 86.9844C86.1271 86.9844 86.3551 87.0414 86.5561 87.1555C86.7597 87.2696 86.9172 87.4298 87.0312 87.6363C87.1452 87.8427 87.2022 88.0817 87.2022 88.3506C87.2022 88.3941 87.1995 88.4538 87.1914 88.5326M85.3642 87.6553C85.2284 87.7721 85.1442 87.9269 85.1144 88.1224H86.6131C86.5859 87.9323 86.5072 87.7775 86.3714 87.658C86.2357 87.5385 86.0674 87.4787 85.8664 87.4787C85.6655 87.4787 85.4999 87.5385 85.3642 87.6553Z" fill="#231F20"/>
<path d="M100.814 87.0225H101.433V88.0953H102.764V87.0225H103.383V89.6653H102.764V88.6196H101.433V89.6653H100.814V87.0225Z" fill="#231F20"/>
<path d="M119.246 87.5467H118.323V89.6653H117.704V87.5467H116.772V87.0225H119.246V87.5467Z" fill="#231F20"/>
<path d="M134.789 87.1577C134.992 87.269 135.15 87.4293 135.266 87.633C135.38 87.8367 135.44 88.073 135.44 88.3419C135.44 88.6108 135.383 88.8471 135.266 89.0535C135.15 89.26 134.992 89.4202 134.789 89.5316C134.585 89.6429 134.357 89.7 134.099 89.7C133.743 89.7 133.461 89.5805 133.252 89.3442V90.6262H132.633V87.0219H133.222V87.3668C133.325 87.2419 133.45 87.1468 133.599 87.0843C133.749 87.0219 133.914 86.9893 134.096 86.9893C134.354 86.9893 134.585 87.0463 134.786 87.1577M134.588 88.9394C134.734 88.7873 134.808 88.5891 134.808 88.3392C134.808 88.0893 134.734 87.891 134.588 87.7416C134.441 87.5895 134.254 87.5135 134.026 87.5135C133.876 87.5135 133.743 87.5461 133.624 87.614C133.504 87.6819 133.412 87.7797 133.341 87.9046C133.271 88.0295 133.238 88.1762 133.238 88.3392C133.238 88.5022 133.274 88.6488 133.341 88.7738C133.409 88.8987 133.504 88.9965 133.624 89.0644C133.743 89.1323 133.876 89.1649 134.026 89.1649C134.254 89.1649 134.441 89.0888 134.588 88.9367V88.9394Z" fill="#231F20"/>
</svg>
