<svg width="164" height="32" viewBox="0 0 164 32" fill="none" xmlns="http://www.w3.org/2000/svg">
<path d="M10.9803 14.7699H18.4666C17.499 18.2247 14.3339 20.7583 10.5867 20.7583C6.07687 20.7583 2.40342 17.0731 2.40342 12.549C2.40342 8.02486 6.07687 4.33152 10.5867 4.33152C13.9978 4.33152 16.9332 6.4373 18.155 9.42323H20.3771C19.057 5.26102 15.1703 2.24219 10.5867 2.24219C4.92891 2.24219 0.3125 6.86504 0.3125 12.549C0.3125 18.233 4.92891 22.8558 10.5867 22.8558C13.8256 22.8558 16.8348 21.2271 18.5978 18.8746V22.4116H20.5001V12.7135H10.9803V14.7699Z" fill="white"/>
<path d="M26.0267 2.88379H23.9767V22.4034H26.0267V2.88379Z" fill="white"/>
<path d="M86.5813 2.88379H84.5313V22.387H86.5813V2.88379Z" fill="white"/>
<path d="M36.7112 20.9969C33.5625 20.9969 31.0042 18.2824 31.0042 15.132C31.0042 11.9815 33.5625 9.28348 36.7112 9.28348C39.8599 9.28348 42.4182 11.9733 42.4182 15.132C42.4182 18.2906 39.8517 20.9969 36.7112 20.9969ZM36.7112 7.33398C32.4228 7.33398 28.9297 10.8299 28.9297 15.132C28.9297 19.434 32.4228 22.9299 36.7112 22.9299C40.9996 22.9299 44.4927 19.4258 44.4927 15.132C44.4927 10.8381 40.9996 7.33398 36.7112 7.33398Z" fill="white"/>
<path d="M54.6514 20.9968C51.4945 20.9968 48.9444 18.2823 48.9444 15.1319C48.9444 11.9814 51.5027 9.28339 54.6514 9.28339C57.8001 9.28339 60.3584 11.9732 60.3584 15.1319C60.3584 18.2905 57.8001 20.9968 54.6514 20.9968ZM54.7416 7.18584C52.4375 7.18584 50.3712 8.1976 48.9444 9.80984V2.88379H46.8945V22.4034H48.9444V20.4457C50.3794 22.0497 52.4375 23.0615 54.7416 23.0615C59.0628 23.0615 62.5723 19.508 62.5723 15.1237C62.5723 10.7393 59.0628 7.17761 54.7416 7.17761" fill="white"/>
<path d="M73.1517 20.9893C70.003 20.9893 67.4447 18.2748 67.4447 15.1161C67.4447 11.9574 70.003 9.26763 73.1517 9.26763C76.3003 9.26763 78.8586 11.9574 78.8586 15.1161C78.8586 18.2748 76.3003 20.9893 73.1517 20.9893ZM78.875 9.8352C77.4237 8.20651 75.3246 7.18652 72.9795 7.18652C68.6008 7.18652 65.0586 10.74 65.0586 15.1326C65.0586 19.5251 68.6008 23.0704 72.9795 23.0704C75.3246 23.0704 77.4237 22.0422 78.875 20.4217V22.4123H80.9496V8.11603H78.875V9.84343V9.8352Z" fill="white"/>
<path d="M144.16 0.893555H140.527V4.34835H144.16V0.893555Z" fill="white"/>
<path d="M93.8877 2.88379H90.5586V19.253V22.387H101.472V19.253H93.8877V2.88379Z" fill="white"/>
<path d="M144.16 7.03809H140.527V22.3626H144.16V7.03809Z" fill="white"/>
<path d="M110.697 19.7299C108.27 19.7299 106.294 17.6077 106.294 14.9919C106.294 12.3761 108.27 10.2621 110.697 10.2621C113.125 10.2621 115.101 12.3843 115.101 14.9919C115.101 17.5995 113.125 19.7299 110.697 19.7299ZM110.697 6.98828C106.294 6.98828 102.711 10.5747 102.711 14.9919C102.711 19.4091 106.286 22.9955 110.697 22.9955C115.109 22.9955 118.676 19.4173 118.676 14.9919C118.676 10.5665 115.101 6.98828 110.697 6.98828Z" fill="white"/>
<path d="M159.314 17.1482C158.584 18.7028 157.1 19.7639 155.37 19.7639C152.935 19.7639 150.959 17.6335 150.959 15.0177C150.959 12.1634 152.935 10.2797 155.37 10.2797C157.01 10.2797 158.445 11.2421 159.199 12.6734H163.004C162.004 9.39954 158.962 7.00586 155.362 7.00586C150.95 7.00586 147.367 10.5923 147.367 15.0259C147.367 19.4596 150.95 23.0296 155.362 23.0296C159.044 23.0296 162.135 20.5372 163.061 17.1399H159.306L159.314 17.1482Z" fill="white"/>
<path d="M128.449 27.6849C126.825 27.6849 125.267 26.8294 124.324 25.5462L121.094 27.1255C122.619 29.5192 125.161 31.115 128.449 31.115C132.704 31.115 136.189 27.7425 136.534 23.6543H132.885C132.573 25.941 130.704 27.6931 128.449 27.6931" fill="white"/>
<path d="M128.614 19.8045C126.195 19.8045 124.227 17.6823 124.227 15.083C124.227 12.4837 126.195 10.3696 128.614 10.3696C131.033 10.3696 133.009 12.4754 133.009 15.083C133.009 17.6905 131.041 19.8045 128.614 19.8045ZM133.279 8.63403C131.968 7.67984 130.36 7.11227 128.614 7.11227C124.227 7.11227 120.66 10.6822 120.66 15.083C120.66 19.4837 124.219 23.0537 128.614 23.0537C133.009 23.0537 136.543 19.5002 136.568 15.1159V7.05469H133.279V8.63403Z" fill="white"/>
</svg>
