<svg width="205" height="100" viewBox="0 0 205 100" fill="none" xmlns="http://www.w3.org/2000/svg">
<path d="M30.9803 48.7699H38.4666C37.499 52.2247 34.3339 54.7583 30.5867 54.7583C26.0769 54.7583 22.4034 51.0731 22.4034 46.549C22.4034 42.0249 26.0769 38.3315 30.5867 38.3315C33.9978 38.3315 36.9332 40.4373 38.155 43.4232H40.3771C39.057 39.261 35.1703 36.2422 30.5867 36.2422C24.9289 36.2422 20.3125 40.865 20.3125 46.549C20.3125 52.233 24.9289 56.8558 30.5867 56.8558C33.8256 56.8558 36.8348 55.2271 38.5978 52.8746V56.4116H40.5001V46.7135H30.9803V48.7699Z" fill="white"/>
<path d="M46.0265 36.8838H43.9766V56.4034H46.0265V36.8838Z" fill="white"/>
<path d="M106.581 36.8838H104.531V56.387H106.581V36.8838Z" fill="white"/>
<path d="M56.7112 54.9969C53.5625 54.9969 51.0042 52.2824 51.0042 49.132C51.0042 45.9815 53.5625 43.2835 56.7112 43.2835C59.8599 43.2835 62.4182 45.9733 62.4182 49.132C62.4182 52.2906 59.8517 54.9969 56.7112 54.9969ZM56.7112 41.334C52.4228 41.334 48.9297 44.8299 48.9297 49.132C48.9297 53.434 52.4228 56.9299 56.7112 56.9299C60.9996 56.9299 64.4927 53.4258 64.4927 49.132C64.4927 44.8381 60.9996 41.334 56.7112 41.334Z" fill="white"/>
<path d="M74.6514 54.9968C71.4945 54.9968 68.9444 52.2823 68.9444 49.1319C68.9444 45.9814 71.5027 43.2834 74.6514 43.2834C77.8001 43.2834 80.3584 45.9732 80.3584 49.1319C80.3584 52.2905 77.8001 54.9968 74.6514 54.9968ZM74.7416 41.1858C72.4375 41.1858 70.3712 42.1976 68.9444 43.8098V36.8838H66.8945V56.4034H68.9444V54.4457C70.3794 56.0497 72.4375 57.0615 74.7416 57.0615C79.0628 57.0615 82.5723 53.508 82.5723 49.1237C82.5723 44.7393 79.0628 41.1776 74.7416 41.1776" fill="white"/>
<path d="M93.1517 54.9893C90.003 54.9893 87.4447 52.2748 87.4447 49.1161C87.4447 45.9574 90.003 43.2676 93.1517 43.2676C96.3003 43.2676 98.8586 45.9574 98.8586 49.1161C98.8586 52.2748 96.3003 54.9893 93.1517 54.9893ZM98.875 43.8352C97.4237 42.2065 95.3246 41.1865 92.9795 41.1865C88.6008 41.1865 85.0586 44.74 85.0586 49.1326C85.0586 53.5251 88.6008 57.0704 92.9795 57.0704C95.3246 57.0704 97.4237 56.0422 98.875 54.4217V56.4123H100.95V42.116H98.875V43.8434V43.8352Z" fill="white"/>
<path d="M164.16 34.8936H160.527V38.3484H164.16V34.8936Z" fill="white"/>
<path d="M113.888 36.8838H110.559V53.253V56.387H121.472V53.253H113.888V36.8838Z" fill="white"/>
<path d="M164.16 41.0381H160.527V56.3626H164.16V41.0381Z" fill="white"/>
<path d="M130.697 53.7299C128.27 53.7299 126.294 51.6077 126.294 48.9919C126.294 46.3761 128.27 44.2621 130.697 44.2621C133.125 44.2621 135.101 46.3843 135.101 48.9919C135.101 51.5995 133.125 53.7299 130.697 53.7299ZM130.697 40.9883C126.294 40.9883 122.711 44.5747 122.711 48.9919C122.711 53.4091 126.286 56.9955 130.697 56.9955C135.109 56.9955 138.676 53.4173 138.676 48.9919C138.676 44.5665 135.101 40.9883 130.697 40.9883Z" fill="white"/>
<path d="M179.314 51.1482C178.584 52.7028 177.1 53.7639 175.37 53.7639C172.935 53.7639 170.959 51.6335 170.959 49.0177C170.959 46.1634 172.935 44.2797 175.37 44.2797C177.01 44.2797 178.445 45.2421 179.199 46.6734H183.004C182.004 43.3995 178.962 41.0059 175.362 41.0059C170.95 41.0059 167.367 44.5923 167.367 49.0259C167.367 53.4596 170.95 57.0296 175.362 57.0296C179.044 57.0296 182.135 54.5372 183.061 51.1399H179.306L179.314 51.1482Z" fill="white"/>
<path d="M148.449 61.6849C146.825 61.6849 145.267 60.8294 144.324 59.5462L141.094 61.1255C142.619 63.5192 145.161 65.115 148.449 65.115C152.704 65.115 156.189 61.7425 156.534 57.6543H152.885C152.573 59.941 150.704 61.6931 148.449 61.6931" fill="white"/>
<path d="M148.614 53.8045C146.195 53.8045 144.227 51.6823 144.227 49.083C144.227 46.4837 146.195 44.3696 148.614 44.3696C151.033 44.3696 153.009 46.4754 153.009 49.083C153.009 51.6905 151.041 53.8045 148.614 53.8045ZM153.279 42.634C151.968 41.6798 150.36 41.1123 148.614 41.1123C144.227 41.1123 140.66 44.6822 140.66 49.083C140.66 53.4837 144.219 57.0537 148.614 57.0537C153.009 57.0537 156.543 53.5002 156.568 49.1159V41.0547H153.279V42.634Z" fill="white"/>
<path d="M189.258 36.7695C189.365 36.7695 189.455 36.786 189.537 36.8189C189.619 36.8518 189.693 36.9011 189.75 36.9587C189.808 37.0163 189.857 37.0821 189.89 37.1644C189.923 37.2384 189.939 37.3289 189.939 37.4111C189.939 37.551 189.914 37.6661 189.857 37.7648C189.8 37.8636 189.701 37.9376 189.578 37.9952C189.644 38.0198 189.693 38.0445 189.734 38.0856C189.775 38.1185 189.808 38.1679 189.832 38.209C189.857 38.2584 189.882 38.316 189.89 38.3735C189.898 38.4311 189.906 38.4887 189.914 38.5463C189.914 38.5792 189.914 38.6285 189.914 38.6779C189.914 38.7273 189.914 38.7766 189.923 38.8342C189.923 38.8835 189.939 38.9329 189.947 38.9822C189.964 39.0316 189.98 39.0727 190.005 39.1056H189.496C189.472 39.0316 189.447 38.9411 189.447 38.8424C189.447 38.7437 189.431 38.645 189.414 38.5463C189.398 38.4229 189.357 38.3324 189.299 38.2748C189.242 38.2173 189.152 38.1926 189.021 38.1926H188.512V39.1056H188.004V36.7695H189.258ZM189.078 37.8224C189.193 37.8224 189.283 37.7977 189.34 37.7402C189.398 37.6908 189.431 37.6003 189.431 37.4852C189.431 37.37 189.398 37.2878 189.34 37.2384C189.283 37.189 189.193 37.1644 189.078 37.1644H188.52V37.8224H189.078Z" fill="white"/>
<path d="M188.955 40.3967C187.61 40.3967 186.512 39.2944 186.512 37.9454C186.512 36.5964 187.61 35.4941 188.955 35.4941C190.3 35.4941 191.399 36.5964 191.399 37.9454C191.399 39.2944 190.3 40.3967 188.955 40.3967ZM188.955 35.8972C187.832 35.8972 186.913 36.8185 186.913 37.9454C186.913 39.0723 187.832 39.9936 188.955 39.9936C190.079 39.9936 190.997 39.0723 190.997 37.9454C190.997 36.8185 190.079 35.8972 188.955 35.8972Z" fill="white"/>
</svg>
