<svg width="209" height="40" viewBox="0 0 209 40" fill="none" xmlns="http://www.w3.org/2000/svg">
<path d="M13.6313 18.45H22.7244C21.5491 22.8031 17.7047 25.9953 13.1532 25.9953C7.67543 25.9953 3.21353 21.352 3.21353 15.6516C3.21353 9.95121 7.67543 5.29759 13.1532 5.29759C17.2964 5.29759 20.8619 7.95088 22.3459 11.7132H25.045C23.4415 6.46877 18.7206 2.66504 13.1532 2.66504C6.28108 2.66504 0.673828 8.48983 0.673828 15.6516C0.673828 22.8134 6.28108 28.6382 13.1532 28.6382C17.0872 28.6382 20.7424 26.5861 22.8837 23.6218V28.0785H25.1944V15.8589H13.6313V18.45Z" fill="black"/>
<path d="M31.9059 3.47363H29.416V28.0684H31.9059V3.47363Z" fill="black"/>
<path d="M105.459 3.47363H102.969V28.0476H105.459V3.47363Z" fill="black"/>
<path d="M44.8853 26.2963C41.0608 26.2963 37.9534 22.8761 37.9534 18.9065C37.9534 14.9369 41.0608 11.5374 44.8853 11.5374C48.7098 11.5374 51.8171 14.9266 51.8171 18.9065C51.8171 22.8864 48.6998 26.2963 44.8853 26.2963ZM44.8853 9.08105C39.6764 9.08105 35.4336 13.4859 35.4336 18.9065C35.4336 24.3271 39.6764 28.732 44.8853 28.732C50.0941 28.732 54.3369 24.3167 54.3369 18.9065C54.3369 13.4963 50.0941 9.08105 44.8853 9.08105Z" fill="black"/>
<path d="M66.6757 26.296C62.8412 26.296 59.7438 22.8758 59.7438 18.9062C59.7438 14.9367 62.8512 11.5371 66.6757 11.5371C70.5002 11.5371 73.6076 14.9263 73.6076 18.9062C73.6076 22.8861 70.5002 26.296 66.6757 26.296ZM66.7852 8.89421C63.9866 8.89421 61.4768 10.169 59.7438 12.2005V3.47363H57.2539V28.0683H59.7438V25.6016C61.4867 27.6227 63.9866 28.8975 66.7852 28.8975C72.034 28.8975 76.2967 24.4201 76.2967 18.8959C76.2967 13.3716 72.034 8.88385 66.7852 8.88385" fill="black"/>
<path d="M89.1465 26.287C85.322 26.287 82.2146 22.8667 82.2146 18.8868C82.2146 14.9069 85.322 11.5177 89.1465 11.5177C92.971 11.5177 96.0784 14.9069 96.0784 18.8868C96.0784 22.8667 92.971 26.287 89.1465 26.287ZM96.0983 12.2328C94.3355 10.1807 91.7858 8.89551 88.9374 8.89551C83.6189 8.89551 79.3164 13.3729 79.3164 18.9075C79.3164 24.4421 83.6189 28.9092 88.9374 28.9092C91.7858 28.9092 94.3355 27.6136 96.0983 25.5718V28.08H98.6181V10.0667H96.0983V12.2432V12.2328Z" fill="black"/>
<path d="M175.396 0.96582H170.984V5.31887H175.396V0.96582Z" fill="black"/>
<path d="M114.333 3.47363H110.289V24.0988V28.0476H123.545V24.0988H114.333V3.47363Z" fill="black"/>
<path d="M175.396 8.70801H170.984V28.0169H175.396V8.70801Z" fill="black"/>
<path d="M134.751 24.7C131.803 24.7 129.403 22.0259 129.403 18.7301C129.403 15.4342 131.803 12.7705 134.751 12.7705C137.699 12.7705 140.1 15.4446 140.1 18.7301C140.1 22.0156 137.699 24.7 134.751 24.7ZM134.751 8.64551C129.403 8.64551 125.051 13.1644 125.051 18.7301C125.051 24.2958 129.393 28.8146 134.751 28.8146C140.11 28.8146 144.442 24.3061 144.442 18.7301C144.442 13.154 140.1 8.64551 134.751 8.64551Z" fill="black"/>
<path d="M193.802 21.4463C192.916 23.4052 191.113 24.7422 189.012 24.7422C186.054 24.7422 183.653 22.0578 183.653 18.7619C183.653 15.1655 186.054 12.792 189.012 12.792C191.004 12.792 192.746 14.0047 193.663 15.8081H198.284C197.069 11.683 193.374 8.66699 189.002 8.66699C183.643 8.66699 179.291 13.1859 179.291 18.7723C179.291 24.3587 183.643 28.8568 189.002 28.8568C193.473 28.8568 197.228 25.7164 198.354 21.4359H193.792L193.802 21.4463Z" fill="black"/>
<path d="M156.313 34.7231C154.341 34.7231 152.448 33.6452 151.303 32.0283L147.379 34.0183C149.231 37.0343 152.319 39.045 156.313 39.045C161.482 39.045 165.715 34.7956 166.133 29.6445H161.701C161.322 32.5258 159.052 34.7335 156.313 34.7335" fill="black"/>
<path d="M156.512 24.7933C153.574 24.7933 151.184 22.1193 151.184 18.8442C151.184 15.569 153.574 12.9054 156.512 12.9054C159.45 12.9054 161.851 15.5587 161.851 18.8442C161.851 22.1297 159.46 24.7933 156.512 24.7933ZM162.179 10.7185C160.586 9.51621 158.634 8.80107 156.512 8.80107C151.184 8.80107 146.852 13.2992 146.852 18.8442C146.852 24.3891 151.174 28.8873 156.512 28.8873C161.851 28.8873 166.143 24.4099 166.173 18.8856V8.72852H162.179V10.7185Z" fill="black"/>
<path d="M205.881 3.3291C206.011 3.3291 206.12 3.34983 206.22 3.39129C206.319 3.43274 206.409 3.49493 206.479 3.56748C206.549 3.64003 206.608 3.72295 206.648 3.82659C206.688 3.91987 206.708 4.03388 206.708 4.13752C206.708 4.31372 206.678 4.45882 206.608 4.58319C206.539 4.70757 206.419 4.80084 206.27 4.87339C206.349 4.90449 206.409 4.93558 206.459 4.9874C206.509 5.02886 206.549 5.09105 206.578 5.14287C206.608 5.20506 206.638 5.27761 206.648 5.35016C206.658 5.42271 206.668 5.49526 206.678 5.56781C206.678 5.60927 206.678 5.67146 206.678 5.73364C206.678 5.79583 206.678 5.85801 206.688 5.93056C206.688 5.99275 206.708 6.05494 206.718 6.11712C206.738 6.17931 206.758 6.23113 206.788 6.27259H206.17C206.14 6.17931 206.11 6.0653 206.11 5.94093C206.11 5.81656 206.09 5.69218 206.07 5.56781C206.051 5.41235 206.001 5.29834 205.931 5.22578C205.861 5.15323 205.752 5.12214 205.592 5.12214H204.975V6.27259H204.357V3.3291H205.881ZM205.662 4.65574C205.802 4.65574 205.911 4.62465 205.981 4.5521C206.051 4.48991 206.09 4.3759 206.09 4.2308C206.09 4.0857 206.051 3.98206 205.981 3.91987C205.911 3.85769 205.802 3.82659 205.662 3.82659H204.985V4.65574H205.662Z" fill="black"/>
<path d="M205.513 7.89984C203.88 7.89984 202.545 6.51101 202.545 4.81125C202.545 3.11149 203.88 1.72266 205.513 1.72266C207.146 1.72266 208.481 3.11149 208.481 4.81125C208.481 6.51101 207.146 7.89984 205.513 7.89984ZM205.513 2.23051C204.148 2.23051 203.033 3.39132 203.033 4.81125C203.033 6.23117 204.148 7.39198 205.513 7.39198C206.877 7.39198 207.993 6.23117 207.993 4.81125C207.993 3.39132 206.877 2.23051 205.513 2.23051Z" fill="black"/>
</svg>
