<svg width="186" height="104" viewBox="0 0 186 104" fill="none" xmlns="http://www.w3.org/2000/svg">
<g clip-path="url(#clip0_73_872)">
<path d="M0 0C62 0 124 0 186 0C186 34.6667 186 69.3333 186 104C124 104 62 104 0 104C0 102.192 0 100.383 0 98.5747C0.0775 100.238 0.101234 101.943 0.0712031 103.689C0.0706238 103.719 0.0760218 103.749 0.0870812 103.777C0.0981407 103.805 0.114639 103.83 0.135612 103.852C0.156585 103.873 0.181611 103.89 0.209226 103.902C0.23684 103.913 0.266489 103.919 0.296438 103.919L185.831 103.928C185.85 103.928 185.867 103.921 185.88 103.908C185.893 103.895 185.9 103.878 185.9 103.86C185.947 92.7839 185.945 81.6949 185.894 70.5929C185.893 70.2626 185.902 69.7599 185.922 69.0849C185.937 68.5813 185.94 68.0781 185.932 67.5754C185.907 66.183 185.894 65.4285 185.894 65.312C185.934 52.4728 185.948 39.6336 185.938 26.7944C185.931 17.9236 185.927 9.08507 185.927 0.278778C185.927 0.226294 185.906 0.175961 185.869 0.138849C185.832 0.101738 185.781 0.0808889 185.728 0.0808889H0.236859C0.214858 0.0808889 0.193077 0.085207 0.172787 0.0935913C0.152497 0.101976 0.134104 0.114258 0.118683 0.129721C0.103262 0.145185 0.0911209 0.16352 0.0829689 0.183656C0.0748169 0.203792 0.0708171 0.225326 0.0712031 0.247C0.0915469 2.16233 0.0678125 4.01507 0 5.80522C0 3.86967 0 1.93459 0 0Z" fill="#1B1C1C"/>
<path d="M48.8846 28.7059C52.7111 28.7059 55.8131 25.6224 55.8131 21.8188C55.8131 18.0151 52.7111 14.9316 48.8846 14.9316C45.058 14.9316 41.9561 18.0151 41.9561 21.8188C41.9561 25.6224 45.058 28.7059 48.8846 28.7059Z" fill="white"/>
<path d="M98.4131 15.5692L98.0862 15.6299C94.8283 15.6 91.4134 15.7223 87.8416 15.9968C77.4731 16.7931 67.2586 18.5674 57.1981 21.3195C57.1852 21.323 57.1717 21.3236 57.1586 21.3214C57.1454 21.3192 57.133 21.3143 57.122 21.3068C57.1111 21.2994 57.102 21.2897 57.0953 21.2784C57.0886 21.2671 57.0845 21.2546 57.0833 21.2415C56.9681 20.0398 56.6484 18.9381 56.1243 17.9366C56.1203 17.9296 56.1182 17.9217 56.1182 17.9136C56.1181 17.9055 56.1201 17.8975 56.1239 17.8901C56.1277 17.8828 56.1333 17.8764 56.1402 17.8714C56.1471 17.8664 56.1551 17.863 56.1635 17.8615C59.0271 17.3454 61.5217 16.9525 63.6471 16.6829C75.089 15.2307 86.6777 14.8595 98.4131 15.5692Z" fill="white"/>
<path d="M98.4129 15.5696C98.5253 15.5485 98.6352 15.5513 98.7428 15.5783C98.8222 15.5985 98.8222 15.6096 98.7428 15.6115L98.0859 15.6303L98.4129 15.5696Z" fill="#6D8F85"/>
<path d="M37.3 85.8811C34.5575 84.974 31.9622 84.0082 29.5142 82.9836C25.5297 81.3157 21.7153 79.3267 18.0708 77.0166C14.9195 75.0184 12.0776 72.701 9.54533 70.0645C8.06799 68.5266 6.76211 66.814 5.62771 64.9266C4.18814 62.5297 3.28139 59.9639 2.90746 57.2291C2.77474 56.2613 2.72291 55.3003 2.75197 54.346C2.82947 51.8259 3.38941 49.3829 4.43178 47.0169C5.34241 44.9494 6.47052 43.0601 7.81611 41.3489C10.0384 38.5236 12.5891 36.0295 15.4683 33.8667C19.102 31.1367 22.9756 28.7981 27.0889 26.851C31.4115 24.8047 35.8963 23.0651 40.5434 21.6322C40.556 21.6286 40.5693 21.6279 40.5822 21.6302C40.5951 21.6325 40.6072 21.6378 40.6177 21.6455C40.6281 21.6532 40.6366 21.6632 40.6423 21.6747C40.6481 21.6862 40.6511 21.6988 40.6509 21.7117C40.6587 23.3834 41.1087 24.9174 42.0009 26.3137C42.0078 26.3246 42.0121 26.3369 42.0137 26.3497C42.0153 26.3625 42.0141 26.3755 42.01 26.3877C42.006 26.4 41.9993 26.4112 41.9905 26.4207C41.9816 26.4301 41.9708 26.4374 41.9587 26.4422C37.0249 28.397 32.3114 30.7505 27.8184 33.5027C24.5711 35.4912 21.6537 37.7484 19.0662 40.2742C18.2883 41.034 17.631 41.7408 17.0943 42.3947C15.9909 43.739 15.0546 45.1743 14.2854 46.7006C13.5162 48.2278 13.0357 49.8393 12.8439 51.5351C12.7412 52.4432 12.7495 53.4033 12.8686 54.4153C13.1554 56.8382 13.8766 59.1411 15.0323 61.3241C15.661 62.5115 16.374 63.6429 17.1713 64.7186C17.7041 65.4379 18.3241 66.177 19.0313 66.9358C21.2091 69.2729 23.6838 71.3452 26.4553 73.1527C29.4255 75.0892 32.4345 76.7325 35.4822 78.0826C39.0714 79.6724 42.7439 81.0413 46.4997 82.1891C50.3747 83.3736 54.5128 84.4112 58.9138 85.3019C59.836 85.4887 60.7888 85.6683 61.7721 85.8407C70.5286 87.3776 79.5816 88.327 88.931 88.6891C99.347 89.0926 109.749 88.8706 120.138 88.0232C128.516 87.3386 136.819 86.1455 145.046 84.4439C149.543 83.5137 154.297 82.2594 159.307 80.6811C163.763 79.2781 168.167 77.4817 172.522 75.2919C176.25 73.417 179.647 71.1733 182.714 68.5608C182.727 68.5512 182.774 68.5016 182.855 68.412C182.975 68.2801 183.088 68.3306 183.194 68.5637C183.212 68.6034 183.217 68.6478 183.208 68.6904C183.199 68.733 183.177 68.7716 183.144 68.8006C181.279 70.4636 179.335 71.9995 177.313 73.4083C174.067 75.6703 170.675 77.6911 167.137 79.4707C162.931 81.5863 158.608 83.4285 154.168 84.9971C149.588 86.6149 144.937 87.9934 140.213 89.1326C134.164 90.5905 128.053 91.7095 121.878 92.4895C112.33 93.696 102.619 94.2348 92.7454 94.1058C86.7518 94.0278 80.9989 93.7625 75.4867 93.3099C66.0966 92.5395 56.8232 91.0537 47.6666 88.8523C44.2876 88.0396 40.8321 87.0492 37.3 85.8811Z" fill="white"/>
<path d="M71.2307 43.705L69.8314 43.6559C69.8118 43.6552 69.7933 43.6466 69.7798 43.6321C69.7662 43.6175 69.7587 43.5981 69.7587 43.5779L69.75 41.2523C69.75 41.2204 69.7631 41.1898 69.7865 41.1671C69.8099 41.1443 69.8417 41.1314 69.875 41.131L71.2104 41.1238C71.2375 41.1234 71.2634 41.1123 71.2824 41.0928C71.3015 41.0734 71.3121 41.0471 71.3121 41.0198C71.3121 39.168 71.3121 37.3634 71.3121 35.606C71.3121 34.7721 71.3635 34.007 71.4661 33.3108C71.5979 32.4114 71.8275 31.7344 72.1549 31.2799C72.6035 30.6559 73.2545 30.2553 74.1079 30.0781C75.1241 29.8653 76.166 29.9838 77.2336 30.4335C77.2659 30.4471 77.2934 30.4698 77.3128 30.4988C77.3321 30.5278 77.3425 30.5619 77.3426 30.5967V33.6632C77.3427 33.6784 77.3388 33.6933 77.3314 33.7065C77.3239 33.7196 77.3131 33.7306 77.3 33.7384C77.2869 33.7461 77.272 33.7503 77.2568 33.7506C77.2416 33.7508 77.2266 33.7471 77.2132 33.7398C76.9265 33.5819 76.6209 33.474 76.2963 33.4162C75.9437 33.3527 75.6308 33.3835 75.3576 33.5087C74.8345 33.7485 74.57 34.2097 74.5642 34.8925C74.5468 36.8636 74.5405 38.8998 74.5453 41.001C74.5457 41.0364 74.5603 41.0702 74.5858 41.0951C74.6114 41.12 74.6459 41.1339 74.6819 41.1339L77.0258 41.1556C77.0458 41.1556 77.0651 41.1633 77.0792 41.1771C77.0934 41.191 77.1014 41.2097 77.1014 41.2292V43.5938C77.1014 43.6142 77.0931 43.6339 77.0785 43.6484C77.0638 43.663 77.0438 43.6714 77.0229 43.6718L74.6311 43.6834C74.6083 43.6834 74.5865 43.692 74.5704 43.7075C74.5543 43.7229 74.5453 43.7438 74.5453 43.7657V57.6323C74.5453 57.6901 74.5531 57.7469 74.5686 57.8028C74.6112 57.9578 74.5899 58.0286 74.5046 58.0151C74.4581 58.0074 74.43 58.0036 74.4203 58.0036C73.4119 57.9978 72.4029 57.992 71.3935 57.9862C71.3741 57.9862 71.3554 57.9787 71.3416 57.9652C71.3277 57.9517 71.3198 57.9333 71.3194 57.914C71.2981 56.8461 71.2903 55.7777 71.2961 54.7088C71.3029 53.4261 71.3039 52.4627 71.299 51.8185C71.2787 49.1376 71.2797 46.4567 71.3019 43.7758C71.3023 43.7577 71.295 43.7401 71.2817 43.7269C71.2684 43.7136 71.2501 43.7058 71.2307 43.705Z" fill="white"/>
<path d="M50.6387 32.8252H47.2297C47.208 32.8252 47.1904 32.8427 47.1904 32.8642V57.9542C47.1904 57.9757 47.208 57.9932 47.2297 57.9932H50.6387C50.6604 57.9932 50.6779 57.9757 50.6779 57.9542V32.8642C50.6779 32.8427 50.6604 32.8252 50.6387 32.8252Z" fill="white"/>
<path d="M82.0947 38.1669C83.2688 38.1669 84.2206 37.2208 84.2206 36.0537C84.2206 34.8866 83.2688 33.9404 82.0947 33.9404C80.9206 33.9404 79.9688 34.8866 79.9688 36.0537C79.9688 37.2208 80.9206 38.1669 82.0947 38.1669Z" fill="white"/>
<path d="M58.9618 42.7151C58.956 42.9626 59.0156 42.977 59.1405 42.7585C59.9446 41.3506 61.1802 40.7117 62.8475 40.8417C63.6806 40.9062 64.3461 41.184 64.8441 41.6751C65.2296 42.0555 65.5169 42.6366 65.7058 43.4186C65.8617 44.0618 65.9392 44.7195 65.9383 45.3917C65.9315 49.5411 65.9334 53.717 65.9441 57.9193C65.9443 57.9291 65.9425 57.9389 65.9389 57.948C65.9352 57.9571 65.9298 57.9654 65.9229 57.9724C65.916 57.9794 65.9077 57.9849 65.8987 57.9887C65.8896 57.9925 65.8798 57.9945 65.87 57.9945H62.814C62.7992 57.9945 62.7846 57.9916 62.7709 57.986C62.7572 57.9804 62.7448 57.9721 62.7344 57.9618C62.724 57.9514 62.7158 57.9392 62.7102 57.9257C62.7047 57.9122 62.702 57.8978 62.7021 57.8832C62.7196 53.9158 62.7099 49.9903 62.6731 46.1067C62.6663 45.4066 62.5927 44.9174 62.4522 44.6391C62.2778 44.2944 62.0109 44.0368 61.6515 43.8663C61.3251 43.7113 60.9749 43.6588 60.6009 43.7089C59.8666 43.8091 59.3924 44.2496 59.1783 45.0306C59.1541 45.1182 59.112 45.3344 59.0519 45.6791C59.0151 45.8929 58.9957 46.112 58.9938 46.3363C58.9541 50.1526 58.9429 54.0097 58.9604 57.9078C58.9605 57.9191 58.9585 57.9303 58.9542 57.9408C58.95 57.9514 58.9437 57.9609 58.9358 57.969C58.9278 57.9771 58.9183 57.9835 58.9078 57.9878C58.8973 57.9922 58.886 57.9945 58.8746 57.9945L55.8812 57.9858C55.8619 57.9858 55.8434 57.9782 55.8298 57.9646C55.8162 57.9511 55.8085 57.9327 55.8085 57.9136L55.7998 41.1551C55.7998 41.1295 55.8102 41.1048 55.8287 41.0867C55.8473 41.0685 55.8724 41.0583 55.8986 41.0583H58.8906C58.905 41.0583 58.9193 41.0613 58.9326 41.0671C58.946 41.073 58.958 41.0815 58.9682 41.0922C58.9783 41.103 58.9863 41.1158 58.9917 41.1298C58.9971 41.1438 58.9998 41.1588 58.9996 41.1739L58.9618 42.7151Z" fill="white"/>
<path d="M91.6066 42.7264C92.1181 41.7634 92.8801 41.1688 93.8924 40.9425C94.7352 40.7547 95.5184 40.7735 96.2421 40.9988C97.1024 41.2665 97.6928 41.8761 98.0135 42.8275C98.2992 43.6749 98.4441 44.674 98.4479 45.8247C98.4615 49.8663 98.447 53.9078 98.4044 57.9494C98.4044 57.9586 98.4025 57.9677 98.3988 57.9762C98.3951 57.9848 98.3898 57.9925 98.383 57.9989C98.3762 58.0054 98.3682 58.0105 98.3594 58.0138C98.3506 58.0172 98.3412 58.0189 98.3317 58.0187L95.2235 57.9855C95.2046 57.9851 95.1866 57.9774 95.1735 57.9641C95.1605 57.9509 95.1533 57.9331 95.1537 57.9147C95.1847 54.4866 95.2046 51.0584 95.2133 47.6303C95.2152 46.8705 95.1813 46.1121 95.1116 45.3553C95.0719 44.9171 94.9188 44.5522 94.6524 44.2604C94.3995 43.984 94.0716 43.8034 93.6686 43.7187C93.2104 43.6224 92.7938 43.6966 92.4189 43.9411C92.0954 44.152 91.8517 44.4756 91.688 44.9118C91.5417 45.3028 91.4691 45.7154 91.47 46.1497C91.4739 50.0824 91.4604 54.0152 91.4294 57.9479C91.4294 57.9573 91.4275 57.9667 91.4238 57.9753C91.4201 57.984 91.4148 57.9919 91.408 57.9985C91.4012 58.0051 91.3932 58.0103 91.3844 58.0137C91.3756 58.0172 91.3662 58.0189 91.3567 58.0187L88.2485 57.9855C88.2298 57.9851 88.2121 57.9773 88.199 57.9638C88.186 57.9503 88.1787 57.9322 88.1787 57.9133L88.1961 41.1577C88.1961 41.1378 88.2038 41.1187 88.2174 41.1046C88.2311 41.0905 88.2495 41.0826 88.2688 41.0826L91.3116 41.0595C91.3452 41.0595 91.3773 41.0729 91.401 41.0967C91.4247 41.1206 91.4381 41.1529 91.4381 41.1866V42.6845C91.4381 42.9233 91.4943 42.9373 91.6066 42.7264Z" fill="white"/>
<path d="M105.722 50.3133C105.692 51.5555 105.798 52.6956 106.041 53.7337C106.106 54.012 106.225 54.2966 106.396 54.5874C106.583 54.9042 106.784 55.1305 107 55.2663C107.318 55.4656 107.674 55.5176 108.067 55.4223C108.565 55.3 108.931 54.9827 109.166 54.4704C109.459 53.8262 109.604 53.1502 109.602 52.4424C109.602 52.4258 109.605 52.4093 109.611 52.394C109.617 52.3786 109.627 52.3647 109.638 52.353C109.65 52.3413 109.664 52.3321 109.679 52.3259C109.694 52.3196 109.71 52.3165 109.727 52.3167L112.517 52.3499C112.536 52.3503 112.555 52.3584 112.569 52.3724C112.583 52.3865 112.591 52.4054 112.591 52.4251C112.597 53.3957 112.439 54.3385 112.115 55.2533C111.667 56.5196 110.894 57.3988 109.796 57.8908C108.953 58.2683 108.005 58.3954 106.953 58.2722C104.97 58.0382 103.663 56.8503 103.029 54.7087C102.784 53.8815 102.621 53.0428 102.541 52.1925C102.486 51.6089 102.455 50.7582 102.448 49.6402C102.44 48.3758 102.512 47.1885 102.663 46.0782C102.784 45.1884 103.076 44.2697 103.539 43.3222C104.402 41.5599 105.842 40.7294 107.858 40.8305C109.158 40.896 110.184 41.3842 110.937 42.2952C111.583 43.079 112.031 44.0636 112.281 45.2491C112.62 46.8591 112.772 48.4865 112.736 50.1313C112.736 50.1509 112.728 50.1697 112.714 50.1834C112.7 50.1972 112.681 50.2049 112.662 50.2049L105.796 50.2396C105.776 50.24 105.758 50.2479 105.744 50.2616C105.73 50.2753 105.722 50.2939 105.722 50.3133ZM105.791 47.8924L109.307 47.9184C109.334 47.9184 109.361 47.9076 109.381 47.8882C109.401 47.8688 109.413 47.8423 109.414 47.8144C109.451 46.8582 109.356 45.9665 109.129 45.1393C108.976 44.5817 108.689 44.1744 108.269 43.9173C107.921 43.7045 107.56 43.6486 107.185 43.7497C106.79 43.8556 106.48 44.1099 106.256 44.5124C106.062 44.861 105.945 45.145 105.905 45.3646C105.762 46.1504 105.699 46.9679 105.716 47.8173C105.716 47.8373 105.724 47.8564 105.739 47.8705C105.753 47.8845 105.772 47.8924 105.791 47.8924Z" fill="white"/>
<path d="M118.566 57.3165C117.638 56.5847 117.03 55.5572 116.742 54.2341C116.169 51.5965 116.087 48.8747 116.495 46.0687C116.604 45.3204 116.784 44.6257 117.036 43.9843C117.329 43.2419 117.703 42.64 118.159 42.1788C119.059 41.2717 120.251 40.8258 121.735 40.8412C123.67 40.8614 125.06 41.7069 125.904 43.3776C126.305 44.1711 126.58 45.0508 126.727 46.0166C126.922 47.2974 127.002 48.8343 126.967 50.6273C126.941 51.9629 126.771 53.2148 126.458 54.3829C126.304 54.9597 126.066 55.5124 125.745 56.0411C125.397 56.6131 125.007 57.0609 124.575 57.3844C123.852 57.9256 122.966 58.2251 121.917 58.2829C120.591 58.3561 119.474 58.0339 118.566 57.3165ZM121.25 55.3073C121.86 55.5018 122.412 55.2799 122.904 54.6414C123.081 54.4113 123.213 54.1571 123.3 53.8788C123.517 53.1845 123.64 52.4738 123.67 51.7468C123.735 50.0972 123.714 48.4486 123.604 46.801C123.561 46.1664 123.421 45.5544 123.183 44.9651C123.028 44.5818 122.794 44.2799 122.481 44.0594C122.163 43.8351 121.814 43.746 121.435 43.7922C120.902 43.8577 120.492 44.1572 120.205 44.6906C119.877 45.3041 119.685 45.9107 119.628 46.5107C119.446 48.4539 119.449 50.4973 119.637 52.6409C119.691 53.2572 119.852 53.8075 120.118 54.2919C120.408 54.8215 120.785 55.16 121.25 55.3073Z" fill="white"/>
<path d="M134.291 42.8699C135.081 41.3763 136.37 40.6998 138.156 40.8404C139.384 40.9367 140.229 41.5179 140.69 42.5839C140.899 43.0673 141.031 43.6667 141.089 44.3822C141.194 45.6918 141.243 47.0034 141.235 48.3169C141.217 51.4946 141.208 54.6907 141.208 57.9051C141.208 57.9166 141.205 57.928 141.201 57.9386C141.197 57.9492 141.19 57.9588 141.182 57.9669C141.174 57.9749 141.164 57.9813 141.154 57.9856C141.143 57.9898 141.132 57.9919 141.12 57.9917L138.038 57.9701C138.019 57.9697 138 57.9617 137.986 57.9477C137.973 57.9337 137.965 57.9148 137.964 57.895C137.937 52.4109 137.928 48.7487 137.938 46.9085C137.942 46.2383 137.919 45.7178 137.868 45.3471C137.777 44.6653 137.469 44.1853 136.944 43.907C136.549 43.698 136.134 43.634 135.7 43.7149C135.218 43.8044 134.853 44.0774 134.605 44.5339C134.35 45.0028 134.224 45.5777 134.227 46.2585C134.244 50.1499 134.238 54.0412 134.207 57.9325C134.206 57.942 134.204 57.9514 134.2 57.9601C134.197 57.9687 134.191 57.9766 134.184 57.9832C134.177 57.9897 134.169 57.9949 134.16 57.9984C134.151 58.0018 134.142 58.0035 134.132 58.0033L131.063 57.9686C131.044 57.9686 131.025 57.9609 131.012 57.9471C130.998 57.9334 130.99 57.9146 130.989 57.895C130.961 53.7985 130.962 49.7016 130.991 45.6042C130.995 45.1294 130.987 44.386 130.968 43.374C130.954 42.6296 130.955 41.8852 130.97 41.1409C130.971 41.1208 130.979 41.1017 130.993 41.0877C131.006 41.0736 131.025 41.0658 131.045 41.0657L134.132 41.0831C134.143 41.0831 134.153 41.085 134.162 41.0887C134.171 41.0924 134.18 41.0978 134.187 41.1047C134.194 41.1115 134.2 41.1196 134.204 41.1286C134.207 41.1375 134.209 41.1471 134.209 41.1567L134.22 42.8496C134.22 42.9517 134.243 42.9584 134.291 42.8699Z" fill="white"/>
<path d="M83.6623 41.1309H80.5759C80.555 41.1309 80.5381 41.1477 80.5381 41.1684V57.9586C80.5381 57.9794 80.555 57.9962 80.5759 57.9962H83.6623C83.6832 57.9962 83.7001 57.9794 83.7001 57.9586V41.1684C83.7001 41.1477 83.6832 41.1309 83.6623 41.1309Z" fill="white"/>
<path d="M0 45.2744C0.0532813 46.48 0.0808906 47.6866 0.0828281 48.8942C0.0944531 54.1 0.0789531 59.3057 0.0363281 64.5115C0.0363281 64.5183 0.0377813 64.5298 0.0406875 64.5462C0.0455313 64.5741 0.0319688 64.59 0 64.5939C0 58.1536 0 51.7137 0 45.2744Z" fill="#1B1C1C"/>
<path d="M71.2239 65.9852C71.6055 65.5682 72.0555 65.3227 72.5738 65.2485C73.1066 65.1734 73.574 65.2769 73.9761 65.5591C74.4372 65.8826 74.6823 66.3824 74.7114 67.0584C74.7637 68.2862 74.7801 69.5679 74.7608 70.9035C74.7608 70.9253 74.7523 70.9463 74.7374 70.9617C74.7224 70.9772 74.702 70.9858 74.6808 70.9858L73.8642 70.9902C73.8548 70.9902 73.8455 70.9882 73.8368 70.9844C73.8282 70.9806 73.8203 70.9751 73.8138 70.968C73.8073 70.961 73.8022 70.9527 73.7989 70.9436C73.7956 70.9345 73.794 70.9248 73.7944 70.9151C73.8225 69.7258 73.8167 68.5365 73.777 67.3473C73.7537 66.6838 73.4864 66.2875 72.9749 66.1585C72.5486 66.0516 72.1602 66.1224 71.8095 66.3708C71.4472 66.627 71.2563 67.0247 71.2369 67.5639C71.1982 68.6348 71.1875 69.7484 71.205 70.9049C71.2054 70.9239 71.2014 70.9426 71.1932 70.9597C71.185 70.9768 71.173 70.9918 71.1579 71.0035C71.1429 71.0153 71.1252 71.0234 71.1064 71.0274C71.0876 71.0313 71.0681 71.031 71.0495 71.0263C70.8615 70.9781 70.6542 70.9829 70.4275 71.0407C70.4035 71.0471 70.3783 71.0479 70.3538 71.043C70.3294 71.0381 70.3064 71.0276 70.2866 71.0124C70.2668 70.9972 70.2507 70.9777 70.2397 70.9553C70.2286 70.9329 70.2228 70.9083 70.2227 70.8833L70.2314 61.2185C70.2314 61.1972 70.2384 61.1767 70.2514 61.1601C70.2643 61.1436 70.2824 61.1321 70.3026 61.1275C70.5806 61.062 70.8548 61.0721 71.125 61.1578C71.1455 61.1641 71.1633 61.1768 71.1759 61.1939C71.1885 61.2111 71.1951 61.2319 71.1948 61.2532L71.1774 65.9678C71.1774 66.0131 71.1929 66.0189 71.2239 65.9852Z" fill="white"/>
<path d="M98.8346 61.1172H97.9918C97.9629 61.1172 97.9395 61.1405 97.9395 61.1692V70.977C97.9395 71.0057 97.9629 71.029 97.9918 71.029H98.8346C98.8635 71.029 98.8869 71.0057 98.8869 70.977V61.1692C98.8869 61.1405 98.8635 61.1172 98.8346 61.1172Z" fill="white"/>
<path d="M123.295 63.9106C123.67 63.9106 123.973 63.6086 123.973 63.2361C123.973 62.8635 123.67 62.5615 123.295 62.5615C122.92 62.5615 122.616 62.8635 122.616 63.2361C122.616 63.6086 122.92 63.9106 123.295 63.9106Z" fill="white"/>
<path d="M48.1439 66.3449L48.1454 70.9122C48.1454 70.9329 48.1375 70.9527 48.1236 70.9674C48.1097 70.982 48.0909 70.9902 48.0712 70.9902H47.272C47.2528 70.9902 47.2343 70.9822 47.2207 70.9678C47.207 70.9534 47.1994 70.934 47.1994 70.9137L47.1907 66.3333C47.1907 66.319 47.1875 66.3048 47.1815 66.2919C47.1754 66.2789 47.1665 66.2674 47.1556 66.2583C47.1446 66.2492 47.1317 66.2426 47.1179 66.2391C47.1042 66.2356 47.0898 66.2352 47.0759 66.238C46.9112 66.2688 46.7809 66.2712 46.685 66.2452C46.6649 66.2395 46.6472 66.2269 46.6346 66.2091C46.622 66.1914 46.6152 66.1696 46.6152 66.147L46.6123 65.4999C46.6123 65.4747 46.6181 65.4499 46.6294 65.4273C46.6407 65.4048 46.6572 65.3851 46.6775 65.3697C46.6979 65.3544 46.7216 65.3438 46.7468 65.3388C46.772 65.3339 46.7981 65.3346 46.823 65.341C47.0972 65.4113 47.225 65.3506 47.2066 65.159C47.196 65.0492 47.1907 64.991 47.1907 64.9842C47.1907 64.4931 47.1907 63.9755 47.1907 63.4314C47.1907 63.4203 47.1927 63.4093 47.1968 63.399C47.2008 63.3888 47.2067 63.3795 47.2142 63.3717C47.2216 63.3639 47.2304 63.3578 47.2401 63.3536C47.2498 63.3495 47.2602 63.3475 47.2706 63.3477L48.0364 63.3578C48.0555 63.3579 48.0739 63.3664 48.0878 63.3814C48.1016 63.3965 48.1097 63.417 48.1105 63.4387L48.1599 65.2616C48.1606 65.283 48.1688 65.3033 48.1829 65.3183C48.1969 65.3334 48.2157 65.342 48.2354 65.3424L49.0492 65.3554C49.0718 65.3558 49.0933 65.3632 49.1093 65.3761C49.1253 65.389 49.1345 65.4065 49.1349 65.4248L49.1611 66.1716C49.1614 66.1823 49.159 66.1929 49.154 66.2029C49.149 66.213 49.1415 66.2221 49.1319 66.2299C49.1223 66.2377 49.1108 66.244 49.0981 66.2483C49.0854 66.2527 49.0718 66.2551 49.0579 66.2553L48.2151 66.2654C48.2058 66.2654 48.1965 66.2675 48.1879 66.2715C48.1792 66.2755 48.1714 66.2813 48.1648 66.2887C48.1581 66.2961 48.1529 66.3048 48.1493 66.3145C48.1457 66.3241 48.1439 66.3345 48.1439 66.3449Z" fill="white"/>
<path d="M53.2712 68.4763C53.341 69.2457 53.6776 69.7748 54.2811 70.0637C54.7394 70.2843 55.2019 70.3175 55.6689 70.1634C56.1533 70.0036 56.5282 69.667 56.7936 69.1537C56.7992 69.143 56.8069 69.1334 56.8164 69.1258C56.8259 69.1182 56.8369 69.1127 56.8487 69.1095C56.8604 69.1064 56.8727 69.1058 56.8848 69.1077C56.8968 69.1096 56.9083 69.1139 56.9186 69.1205L57.5797 69.5452C57.5988 69.5574 57.6122 69.5767 57.6171 69.5991C57.622 69.6214 57.6179 69.6451 57.6059 69.6651C57.2775 70.1918 56.8629 70.5813 56.362 70.8336C55.8776 71.0773 55.3419 71.1784 54.7549 71.137C53.8045 71.0686 53.0901 70.5967 52.6115 69.7214C52.2686 69.0936 52.1799 68.3622 52.3456 67.5273C52.5597 66.4478 53.1119 65.7444 54.0021 65.417C54.6493 65.1781 55.293 65.1651 55.9333 65.378C56.6299 65.61 57.1346 66.0881 57.4475 66.8123C57.5386 67.0213 57.6054 67.2634 57.648 67.5388C57.6878 67.7931 57.7129 68.0444 57.7236 68.2928C57.7242 68.3059 57.7221 68.319 57.7175 68.3312C57.7128 68.3435 57.7058 68.3546 57.6967 68.3641C57.6876 68.3736 57.6766 68.3811 57.6645 68.3862C57.6524 68.3913 57.6394 68.394 57.6262 68.394L53.3381 68.4026C53.3288 68.4026 53.3196 68.4045 53.3111 68.4083C53.3026 68.412 53.2949 68.4175 53.2886 68.4245C53.2823 68.4314 53.2775 68.4396 53.2745 68.4485C53.2715 68.4574 53.2704 68.4669 53.2712 68.4763ZM55.9595 66.4281C55.5497 66.1286 55.0968 66.0501 54.6008 66.1926C54.0157 66.3611 53.5987 66.7454 53.3497 67.3453C53.3396 67.3693 53.3357 67.3953 53.3382 67.4212C53.3407 67.4471 53.3497 67.4719 53.3642 67.4935C53.3787 67.5151 53.3984 67.5328 53.4215 67.545C53.4446 67.5572 53.4703 67.5635 53.4965 67.5634H56.5684C56.5827 67.5634 56.5969 67.5601 56.6099 67.5539C56.6228 67.5476 56.6341 67.5384 56.6429 67.5272C56.6517 67.5159 56.6579 67.5027 56.6608 67.4887C56.6638 67.4747 56.6635 67.4603 56.6599 67.4464C56.5582 67.0343 56.3247 66.6948 55.9595 66.4281Z" fill="white"/>
<path d="M61.7131 69.8605C61.3973 69.4166 61.2278 68.925 61.2046 68.3857C61.1716 67.6375 61.3794 66.9649 61.8279 66.3678C62.2958 65.7458 62.9628 65.3741 63.8289 65.2527C64.5467 65.1526 65.2258 65.311 65.8662 65.7279C65.888 65.7416 65.9062 65.7589 65.9189 65.7781C65.9316 65.7973 65.9384 65.8178 65.9388 65.8377L65.9534 66.9153C65.9543 66.9885 65.9282 66.9981 65.8749 66.9442C65.1687 66.2354 64.4242 65.9923 63.6414 66.2147C63.222 66.3341 62.8829 66.5522 62.6243 66.8691C62.3501 67.2051 62.2067 67.6052 62.1941 68.0694C62.168 69.0584 62.5434 69.7262 63.3203 70.0728C63.7601 70.2693 64.2053 70.3169 64.6557 70.2158C65.1372 70.107 65.5368 69.8494 65.8546 69.4431C65.9572 69.3111 66.0071 69.327 66.0042 69.4907L65.9882 70.5336C65.9877 70.5553 65.9811 70.5768 65.9688 70.596C65.9566 70.6152 65.9393 70.6316 65.9185 70.6434C64.8664 71.2568 63.8492 71.3189 62.8669 70.8297C62.3874 70.5909 62.0028 70.2678 61.7131 69.8605Z" fill="white"/>
<path d="M80.4088 65.8884C80.7304 65.5774 81.0767 65.3776 81.4478 65.289C82.5512 65.0261 83.302 65.4113 83.7001 66.4445C83.7786 66.6477 83.8212 66.9847 83.828 67.4556C83.8435 68.6083 83.8464 69.761 83.8367 70.9136C83.8367 70.9333 83.8293 70.9522 83.816 70.9662C83.8027 70.9803 83.7845 70.9884 83.7655 70.9887L82.9765 70.9931C82.9564 70.9931 82.9372 70.985 82.923 70.9707C82.9089 70.9563 82.9009 70.9368 82.9009 70.9165C82.9009 69.837 82.9091 68.7797 82.9256 67.7445C82.9314 67.3969 82.8733 67.0603 82.7512 66.7349C82.6728 66.5259 82.5459 66.3694 82.3705 66.2654C82.2329 66.1836 82.047 66.1388 81.8125 66.1311C80.8922 66.1003 80.4044 66.5904 80.3492 67.6015C80.2901 68.6839 80.2693 69.7995 80.2867 70.9483C80.2869 70.959 80.2849 70.9697 80.2809 70.9797C80.2768 70.9897 80.2707 70.9988 80.263 71.0064C80.2553 71.0141 80.2461 71.0202 80.2359 71.0243C80.2258 71.0285 80.2149 71.0306 80.2039 71.0306H79.4061C79.3865 71.0306 79.3676 71.0229 79.3537 71.0091C79.3398 70.9952 79.332 70.9765 79.332 70.957L79.3407 65.5085C79.3408 65.483 79.3471 65.4578 79.359 65.4351C79.3709 65.4125 79.3882 65.393 79.4093 65.3784C79.4304 65.3638 79.4547 65.3545 79.4802 65.3513C79.5058 65.348 79.5317 65.3509 79.5558 65.3597C79.7147 65.4194 79.8731 65.4199 80.031 65.3612C80.279 65.2697 80.3637 65.366 80.2853 65.6501C80.2601 65.7416 80.2683 65.8196 80.31 65.8841C80.315 65.8915 80.3218 65.8976 80.3298 65.902C80.3378 65.9063 80.3468 65.9088 80.3563 65.9092C80.3657 65.9096 80.3753 65.908 80.3844 65.9044C80.3935 65.9008 80.4018 65.8953 80.4088 65.8884Z" fill="white"/>
<path d="M93.8817 68.1863C93.8817 68.9705 93.5683 69.7225 93.0105 70.277C92.4526 70.8315 91.6961 71.143 90.9072 71.143C90.1183 71.143 89.3617 70.8315 88.8038 70.277C88.246 69.7225 87.9326 68.9705 87.9326 68.1863C87.9326 67.4021 88.246 66.65 88.8038 66.0955C89.3617 65.541 90.1183 65.2295 90.9072 65.2295C91.6961 65.2295 92.4526 65.541 93.0105 66.0955C93.5683 66.65 93.8817 67.4021 93.8817 68.1863ZM90.9669 70.2655C91.2305 70.2581 91.49 70.1973 91.7307 70.0863C91.9713 69.9753 92.1883 69.8165 92.3693 69.6188C92.5503 69.421 92.6917 69.1884 92.7855 68.934C92.8794 68.6797 92.9237 68.4086 92.9161 68.1363C92.9084 67.864 92.8489 67.5958 92.7409 67.3471C92.633 67.0983 92.4787 66.8739 92.2869 66.6865C92.0951 66.4992 91.8695 66.3526 91.623 66.2551C91.3765 66.1577 91.114 66.1113 90.8503 66.1186C90.3179 66.1334 89.8135 66.366 89.4479 66.7653C89.0824 67.1646 88.8857 67.6979 88.9012 68.2478C88.9166 68.7977 89.143 69.3192 89.5303 69.6976C89.9177 70.076 90.4345 70.2802 90.9669 70.2655Z" fill="white"/>
<path d="M116.988 70.3327C116.533 70.7756 116.01 71.0352 115.42 71.1112C114.859 71.1844 114.317 71.0804 113.794 70.7992C112.985 70.363 112.52 69.6336 112.399 68.6109C112.298 67.75 112.49 66.9845 112.978 66.3142C113.239 65.955 113.539 65.6936 113.877 65.5299C114.225 65.3614 114.626 65.266 115.079 65.2439C115.712 65.2121 116.311 65.462 116.878 65.9936C116.988 66.0976 117.045 66.0749 117.048 65.9257L117.058 65.4779C117.058 65.4555 117.066 65.4341 117.079 65.4182C117.093 65.4023 117.111 65.3931 117.129 65.3927L117.91 65.3725C117.925 65.3721 117.941 65.3752 117.956 65.3816C117.97 65.388 117.983 65.3977 117.995 65.4099C118.006 65.4221 118.015 65.4368 118.021 65.4529C118.027 65.4691 118.03 65.4864 118.03 65.5039C118.03 67.4308 118.023 69.3692 118.008 71.3192C117.998 72.8484 117.291 73.7753 115.887 74.0998C115.211 74.2558 114.556 74.1768 113.922 73.8629C113.484 73.6462 113.152 73.3607 112.925 73.0063C112.69 72.6385 112.547 72.2061 112.497 71.7092C112.495 71.6928 112.497 71.6763 112.502 71.6606C112.507 71.6449 112.515 71.6305 112.525 71.6183C112.536 71.606 112.549 71.5962 112.564 71.5895C112.578 71.5828 112.594 71.5793 112.61 71.5792L113.334 71.5763C113.354 71.5763 113.374 71.584 113.389 71.598C113.405 71.612 113.416 71.6314 113.419 71.6529C113.598 72.6399 114.127 73.1734 115.008 73.2533C115.534 73.3015 115.977 73.1975 116.336 72.9413C116.745 72.6505 116.973 72.2061 117.022 71.6081C117.055 71.1902 117.062 70.7718 117.044 70.3529C117.042 70.3057 117.023 70.299 116.988 70.3327ZM115.244 70.2691C115.491 70.2687 115.736 70.2144 115.964 70.1092C116.192 70.0041 116.399 69.8502 116.573 69.6563C116.748 69.4625 116.886 69.2325 116.98 68.9794C117.074 68.7264 117.123 68.4552 117.122 68.1815C117.122 67.9078 117.072 67.6369 116.977 67.3841C116.882 67.1314 116.743 66.9019 116.568 66.7086C116.393 66.5154 116.186 66.3622 115.957 66.2579C115.729 66.1535 115.484 66.1 115.237 66.1005C114.989 66.1009 114.745 66.1552 114.517 66.2604C114.289 66.3655 114.081 66.5194 113.907 66.7132C113.733 66.9071 113.594 67.1371 113.5 67.3902C113.406 67.6432 113.358 67.9143 113.358 68.1881C113.359 68.4618 113.408 68.7327 113.503 68.9854C113.598 69.2382 113.737 69.4677 113.912 69.6609C114.087 69.8542 114.295 70.0074 114.524 70.1117C114.752 70.2161 114.997 70.2696 115.244 70.2691Z" fill="white"/>
<path d="M128.93 70.4149C128.463 69.9642 128.179 69.4423 128.08 68.8491C127.984 68.2858 128.018 67.7201 128.181 67.1519C128.33 66.6329 128.612 66.1986 129.025 65.849C129.4 65.5322 129.855 65.3348 130.389 65.2568C131.633 65.0758 132.573 65.5948 133.206 66.8139C133.411 67.2078 133.491 67.7013 133.447 68.2945C133.446 68.3145 133.437 68.3333 133.422 68.3469C133.407 68.3606 133.388 68.3682 133.367 68.3681L129.137 68.3927C129.121 68.393 129.104 68.3967 129.089 68.4036C129.074 68.4105 129.061 68.4205 129.05 68.4328C129.04 68.4451 129.032 68.4595 129.027 68.475C129.023 68.4905 129.022 68.5068 129.024 68.5227C129.119 69.1534 129.381 69.6209 129.81 69.9252C130.234 70.2257 130.712 70.3229 131.242 70.217C131.795 70.1043 132.228 69.7606 132.541 69.1857C132.548 69.1719 132.558 69.1597 132.57 69.1499C132.583 69.1401 132.596 69.1329 132.611 69.1287C132.626 69.1245 132.642 69.1234 132.657 69.1255C132.672 69.1276 132.686 69.1329 132.699 69.1409L133.354 69.5482C133.371 69.5587 133.383 69.5754 133.387 69.5948C133.391 69.6142 133.388 69.6348 133.378 69.6522C132.743 70.6999 131.805 71.1954 130.563 71.1386C129.946 71.1106 129.401 70.8694 128.93 70.4149ZM131.852 66.5337C131.651 66.3632 131.429 66.2448 131.185 66.1783C130.95 66.1148 130.705 66.1129 130.448 66.1726C129.827 66.3161 129.382 66.7248 129.111 67.3989C129.104 67.4171 129.101 67.4368 129.103 67.4563C129.105 67.4758 129.112 67.4945 129.123 67.5108C129.134 67.527 129.149 67.5404 129.167 67.5496C129.184 67.5588 129.203 67.5636 129.223 67.5636H132.359C132.37 67.5635 132.382 67.5608 132.392 67.5558C132.402 67.5508 132.411 67.5435 132.418 67.5345C132.425 67.5256 132.43 67.5152 132.432 67.5042C132.434 67.4932 132.433 67.4819 132.43 67.4711C132.323 67.083 132.13 66.7706 131.852 66.5337Z" fill="white"/>
<path d="M108.85 68.1961C108.85 68.9788 108.537 69.7294 107.98 70.2828C107.423 70.8362 106.668 71.1471 105.881 71.1471C105.093 71.1471 104.338 70.8362 103.782 70.2828C103.225 69.7294 102.912 68.9788 102.912 68.1961C102.912 67.8086 102.989 67.4248 103.138 67.0668C103.287 66.7088 103.506 66.3835 103.782 66.1094C104.057 65.8354 104.385 65.618 104.745 65.4697C105.105 65.3214 105.491 65.2451 105.881 65.2451C106.271 65.2451 106.657 65.3214 107.017 65.4697C107.377 65.618 107.704 65.8354 107.98 66.1094C108.256 66.3835 108.474 66.7088 108.624 67.0668C108.773 67.4248 108.85 67.8086 108.85 68.1961ZM105.88 70.266C106.144 70.2665 106.405 70.2133 106.648 70.1094C106.892 70.0056 107.113 69.8532 107.3 69.6609C107.487 69.4687 107.635 69.2403 107.736 68.9888C107.838 68.7373 107.89 68.4677 107.891 68.1953C107.891 67.9229 107.84 67.6531 107.739 67.4012C107.639 67.1494 107.491 66.9205 107.305 66.7275C107.119 66.5346 106.898 66.3814 106.655 66.2768C106.412 66.1721 106.151 66.118 105.887 66.1176C105.624 66.1171 105.363 66.1703 105.119 66.2741C104.876 66.3779 104.654 66.5303 104.467 66.7226C104.281 66.9149 104.132 67.1433 104.031 67.3948C103.93 67.6463 103.877 67.9159 103.877 68.1883C103.876 68.4607 103.928 68.7305 104.028 68.9823C104.129 69.2342 104.276 69.4631 104.462 69.656C104.648 69.8489 104.869 70.0021 105.112 70.1068C105.356 70.2114 105.617 70.2655 105.88 70.266Z" fill="white"/>
<path d="M138.038 67.9338C137.68 67.7201 137.485 67.3917 137.455 66.9487C137.427 66.5154 137.531 66.148 137.766 65.8466C137.979 65.5731 138.283 65.3892 138.676 65.2948C139.426 65.1138 140.044 65.3911 140.53 66.1268C140.541 66.1431 140.548 66.1617 140.55 66.1814C140.553 66.2011 140.551 66.2216 140.544 66.2415C140.538 66.2615 140.527 66.2804 140.513 66.2972C140.499 66.314 140.481 66.3283 140.462 66.3392L140.049 66.5688C139.985 66.6045 139.912 66.6186 139.846 66.6084C139.78 66.5982 139.726 66.5643 139.695 66.5139C139.56 66.2973 139.383 66.1692 139.163 66.1297C138.97 66.096 138.782 66.1514 138.597 66.2958C138.264 66.5568 138.244 66.8312 138.538 67.1192C138.654 67.2338 138.858 67.3532 139.148 67.4774C139.848 67.7769 140.277 68.0012 140.436 68.1505C140.859 68.5501 141.029 69.0258 140.944 69.5776C140.883 69.9782 140.714 70.3148 140.436 70.5873C140.192 70.8271 139.872 70.9903 139.477 71.0769C138.479 71.2955 137.688 70.9027 137.104 69.8983C137.094 69.8814 137.087 69.8627 137.085 69.8434C137.083 69.8241 137.084 69.8045 137.09 69.7861C137.096 69.7677 137.105 69.7508 137.118 69.7365C137.13 69.7223 137.146 69.7109 137.163 69.7033L137.808 69.4216C137.824 69.4147 137.842 69.4112 137.859 69.4114C137.877 69.4116 137.894 69.4155 137.911 69.4228C137.927 69.4301 137.942 69.4407 137.954 69.4539C137.966 69.4671 137.975 69.4827 137.981 69.4996C138.132 69.9098 138.421 70.1506 138.849 70.2218C139.49 70.3297 139.865 70.0938 139.972 69.5141C140.012 69.2974 139.959 69.1014 139.814 68.9262C139.728 68.8222 139.569 68.7153 139.337 68.6055C138.778 68.3417 138.345 68.1178 138.038 67.9338Z" fill="white"/>
<path d="M123.71 65.3613H122.885C122.852 65.3613 122.825 65.3878 122.825 65.4206V70.9528C122.825 70.9855 122.852 71.012 122.885 71.012H123.71C123.743 71.012 123.77 70.9855 123.77 70.9528V65.4206C123.77 65.3878 123.743 65.3613 123.71 65.3613Z" fill="white"/>
<path d="M55.9599 66.4284C56.3252 66.6951 56.5586 67.0346 56.6603 67.4467C56.6639 67.4606 56.6642 67.4751 56.6612 67.4891C56.6583 67.5031 56.6522 67.5162 56.6433 67.5275C56.6345 67.5388 56.6232 67.5479 56.6103 67.5542C56.5974 67.5605 56.5832 67.5637 56.5688 67.5637H53.4969C53.4708 67.5638 53.445 67.5575 53.4219 67.5453C53.3988 67.5331 53.3792 67.5154 53.3646 67.4938C53.3501 67.4722 53.3412 67.4474 53.3386 67.4215C53.3361 67.3957 53.3401 67.3696 53.3501 67.3456C53.5991 66.7457 54.0161 66.3615 54.6013 66.193C55.0973 66.0504 55.5502 66.1289 55.9599 66.4284Z" fill="black"/>
<path d="M131.852 66.5344C132.13 66.7713 132.323 67.0837 132.43 67.4718C132.433 67.4825 132.434 67.4939 132.432 67.5049C132.43 67.5159 132.425 67.5262 132.418 67.5352C132.411 67.5442 132.402 67.5515 132.392 67.5565C132.382 67.5615 132.37 67.5642 132.359 67.5643H129.223C129.203 67.5643 129.184 67.5595 129.167 67.5502C129.149 67.541 129.134 67.5277 129.123 67.5115C129.112 67.4952 129.105 67.4765 129.103 67.457C129.101 67.4375 129.104 67.4178 129.111 67.3996C129.382 66.7255 129.827 66.3167 130.448 66.1733C130.705 66.1136 130.95 66.1155 131.185 66.179C131.429 66.2455 131.651 66.3639 131.852 66.5344Z" fill="black"/>
</g>
<defs>
<clipPath id="clip0_73_872">
<rect width="186" height="104" fill="white"/>
</clipPath>
</defs>
</svg>
