<svg width="207" height="28" viewBox="0 0 207 28" fill="none" xmlns="http://www.w3.org/2000/svg">
<path d="M14.715 27.5728L8.38321 18.7773L5.08465 21.7699V27.5728H0.914062V0.930664H5.08465V17.8284L14.1841 8.52184H18.7339L11.0372 16.5145L19.1509 27.5728H14.715Z" fill="black"/>
<path d="M28.6869 27.9371C27.1451 27.9371 25.7422 27.6816 24.4784 27.1707C23.2146 26.6355 22.1278 25.9177 21.2178 25.0174C20.3332 24.1172 19.638 23.0711 19.1325 21.8788C18.6522 20.6866 18.4121 19.4214 18.4121 18.0831C18.4121 16.745 18.6522 15.4798 19.1325 14.2876C19.638 13.0711 20.3332 12.0126 21.2178 11.1125C22.1278 10.1879 23.2146 9.47011 24.4784 8.9592C25.7422 8.42391 27.1578 8.15625 28.7248 8.15625C30.2667 8.15625 31.6569 8.42391 32.8954 8.9592C34.1593 9.49444 35.2335 10.2122 36.1181 11.1125C37.0029 11.9884 37.6727 13.0224 38.1276 14.2147C38.6079 15.3825 38.848 16.6112 38.848 17.9007C38.848 18.1927 38.8354 18.4725 38.8102 18.7402C38.7848 18.9834 38.7596 19.1902 38.7343 19.3606H22.848C22.924 20.2121 23.1262 20.9786 23.4548 21.6598C23.8086 22.3411 24.251 22.9371 24.7818 23.4482C25.3378 23.9347 25.9571 24.3119 26.6395 24.5794C27.3473 24.8472 28.0803 24.981 28.8386 24.981C29.3947 24.981 29.9381 24.9201 30.4689 24.7985C31.025 24.6525 31.5305 24.4578 31.9855 24.2145C32.4405 23.9469 32.8449 23.6306 33.1988 23.2656C33.5527 22.9007 33.8307 22.4993 34.0329 22.0613L37.5968 23.0467C36.9144 24.4822 35.777 25.6622 34.1845 26.5868C32.6174 27.4871 30.7849 27.9371 28.6869 27.9371ZM34.7153 16.5868C34.6395 15.7839 34.4247 15.0419 34.0709 14.3606C33.7423 13.6793 33.3125 13.1076 32.7817 12.6453C32.2509 12.1586 31.6316 11.7815 30.9239 11.5139C30.2161 11.2463 29.4705 11.1125 28.6869 11.1125C27.9034 11.1125 27.1578 11.2463 26.4499 11.5139C25.7675 11.7815 25.1609 12.1586 24.6301 12.6453C24.0993 13.1076 23.6696 13.6793 23.341 14.3606C23.0124 15.0419 22.8102 15.7839 22.7344 16.5868H34.7153Z" fill="black"/>
<path d="M50.2884 27.9371C48.7466 27.9371 47.3438 27.6816 46.08 27.1707C44.8162 26.6355 43.7292 25.9177 42.8195 25.0174C41.9346 24.1172 41.2396 23.0711 40.7341 21.8788C40.2538 20.6866 40.0137 19.4214 40.0137 18.0831C40.0137 16.745 40.2538 15.4798 40.7341 14.2876C41.2396 13.0711 41.9346 12.0126 42.8195 11.1125C43.7292 10.1879 44.8162 9.47011 46.08 8.9592C47.3438 8.42391 48.7593 8.15625 50.3262 8.15625C51.8684 8.15625 53.2585 8.42391 54.4972 8.9592C55.761 9.49444 56.8352 10.2122 57.7198 11.1125C58.6044 11.9884 59.2743 13.0224 59.7292 14.2147C60.2095 15.3825 60.4497 16.6112 60.4497 17.9007C60.4497 18.1927 60.4369 18.4725 60.4114 18.7402C60.3864 18.9834 60.3613 19.1902 60.3358 19.3606H44.4498C44.5254 20.2121 44.7278 20.9786 45.0564 21.6598C45.4101 22.3411 45.8526 22.9371 46.3831 23.4482C46.9395 23.9347 47.5589 24.3119 48.2411 24.5794C48.9489 24.8472 49.6818 24.981 50.4401 24.981C50.9961 24.981 51.5398 24.9201 52.0703 24.7985C52.6268 24.6525 53.1322 24.4578 53.5871 24.2145C54.0419 23.9469 54.4466 23.6306 54.8003 23.2656C55.1544 22.9007 55.4324 22.4993 55.6343 22.0613L59.1982 23.0467C58.516 24.4822 57.3784 25.6622 55.786 26.5868C54.2192 27.4871 52.3866 27.9371 50.2884 27.9371ZM56.317 16.5868C56.2409 15.7839 56.0262 15.0419 55.6721 14.3606C55.3439 13.6793 54.9142 13.1076 54.3833 12.6453C53.8523 12.1586 53.2334 11.7815 52.5256 11.5139C51.8178 11.2463 51.0722 11.1125 50.2884 11.1125C49.5049 11.1125 48.7593 11.2463 48.0515 11.5139C47.3693 11.7815 46.7627 12.1586 46.2317 12.6453C45.7008 13.1076 45.271 13.6793 44.9425 14.3606C44.6139 15.0419 44.4119 15.7839 44.3359 16.5868H56.317Z" fill="black"/>
<path d="M80.6838 27.5722H76.5133V16.8788C76.5133 15.0783 76.2102 13.7766 75.6036 12.9737C75.0221 12.1465 74.1502 11.7328 72.9876 11.7328C72.381 11.7328 71.774 11.8423 71.1674 12.0613C70.5608 12.2803 69.992 12.5966 69.4615 13.0102C68.9305 13.3995 68.4502 13.874 68.0204 14.4336C67.6162 14.9689 67.3003 15.565 67.0729 16.2219V27.5722H62.9023V8.48473H66.6937V12.3168C67.4521 11.0272 68.5514 10.0176 69.992 9.28764C71.433 8.53341 73.0254 8.15625 74.7691 8.15625C75.9573 8.15625 76.9307 8.36309 77.6886 8.77669C78.447 9.19034 79.0409 9.76211 79.4706 10.492C79.9259 11.1976 80.2417 12.0248 80.4186 12.9737C80.5954 13.8983 80.6838 14.8837 80.6838 15.9299V27.5722Z" fill="black"/>
<path d="M115.745 27.9381C114.204 27.9381 112.801 27.6826 111.537 27.1717C110.273 26.6364 109.186 25.9186 108.276 25.0184C107.392 24.1182 106.697 23.072 106.191 21.8797C105.71 20.6876 105.471 19.4223 105.471 18.0842C105.471 16.7459 105.71 15.4807 106.191 14.2886C106.697 13.072 107.392 12.0136 108.276 11.1134C109.186 10.1888 110.273 9.47108 111.537 8.96013C112.801 8.42485 114.216 8.15723 115.783 8.15723C117.325 8.15723 118.715 8.42485 119.954 8.96013C121.218 9.49542 122.292 10.2132 123.177 11.1134C124.061 11.9893 124.731 13.0233 125.186 14.2156C125.667 15.3834 125.906 16.6121 125.906 17.9017C125.906 18.1937 125.894 18.4735 125.868 18.7411C125.843 18.9844 125.818 19.1912 125.793 19.3615H109.907C109.982 20.2131 110.185 20.9795 110.513 21.6608C110.867 22.342 111.31 22.9382 111.84 23.4491C112.397 23.9357 113.016 24.3128 113.698 24.5805C114.406 24.8481 115.139 24.9819 115.897 24.9819C116.453 24.9819 116.997 24.9211 117.528 24.7994C118.084 24.6534 118.589 24.4588 119.044 24.2155C119.499 23.9478 119.904 23.6316 120.257 23.2666C120.611 22.9016 120.889 22.5002 121.091 22.0622L124.655 23.0476C123.972 24.4832 122.836 25.6632 121.243 26.5877C119.676 27.488 117.843 27.9381 115.745 27.9381ZM121.774 16.5878C121.698 15.7849 121.483 15.0428 121.129 14.3616C120.8 13.6803 120.371 13.1085 119.84 12.6462C119.309 12.1597 118.69 11.7825 117.982 11.5148C117.275 11.2472 116.529 11.1134 115.745 11.1134C114.962 11.1134 114.216 11.2472 113.509 11.5148C112.826 11.7825 112.219 12.1597 111.688 12.6462C111.158 13.1085 110.728 13.6803 110.399 14.3616C110.071 15.0428 109.869 15.7849 109.793 16.5878H121.774Z" fill="black"/>
<path d="M139.245 26.5893C138.713 26.8327 137.981 27.1124 137.046 27.4287C136.111 27.7207 135.112 27.8667 134.051 27.8667C133.393 27.8667 132.774 27.7816 132.193 27.6112C131.611 27.4409 131.093 27.1854 130.638 26.8449C130.208 26.5042 129.867 26.0662 129.615 25.531C129.361 24.9714 129.235 24.3023 129.235 23.5237V11.5895H126.619V8.48728H129.235V2.20996H133.407V8.48728H137.728V11.5895H133.407V22.2463C133.456 22.9276 133.672 23.4263 134.051 23.7427C134.454 24.0346 134.948 24.1806 135.529 24.1806C136.111 24.1806 136.666 24.0832 137.198 23.8887C137.728 23.694 138.12 23.5358 138.372 23.4142L139.245 26.5893Z" fill="black"/>
<path d="M158.967 27.5737H154.797V16.8804C154.797 15.1286 154.467 13.8391 153.81 13.0119C153.179 12.1603 152.257 11.7345 151.043 11.7345C150.462 11.7345 149.88 11.8439 149.299 12.063C148.718 12.2819 148.161 12.5982 147.631 13.0119C147.125 13.4011 146.67 13.8756 146.265 14.4351C145.862 14.9705 145.558 15.5665 145.356 16.2235V27.5737H141.186V0.931641H145.356V12.3184C146.114 11.0045 147.138 9.98267 148.427 9.25273C149.742 8.52284 151.17 8.15787 152.711 8.15787C153.95 8.15787 154.961 8.37686 155.744 8.81479C156.554 9.22844 157.198 9.78802 157.678 10.4936C158.158 11.1992 158.488 12.0265 158.664 12.9753C158.866 13.8999 158.967 14.8853 158.967 15.9315V27.5737Z" fill="black"/>
<path d="M162.861 27.5737V8.48631H167.032V27.5737H162.861ZM162.861 5.34765V0.931641H167.032V5.34765H162.861Z" fill="black"/>
<path d="M169.803 18.0111C169.803 16.673 170.043 15.4078 170.523 14.2156C171.003 13.0233 171.685 11.9772 172.57 11.0769C173.481 10.1767 174.568 9.47108 175.831 8.96013C177.094 8.42485 178.511 8.15723 180.077 8.15723C182.124 8.15723 183.882 8.59516 185.347 9.47108C186.838 10.3227 187.951 11.4662 188.684 12.9017L184.627 14.1426C184.147 13.3397 183.502 12.7192 182.694 12.2813C181.885 11.819 180.988 11.5878 180.001 11.5878C179.168 11.5878 178.384 11.7461 177.651 12.0623C176.943 12.3786 176.324 12.8288 175.793 13.4126C175.263 13.9722 174.845 14.6413 174.542 15.4199C174.239 16.1985 174.087 17.0623 174.087 18.0111C174.087 18.9357 174.239 19.7994 174.542 20.6024C174.871 21.381 175.3 22.0622 175.831 22.6462C176.387 23.2302 177.019 23.6924 177.727 24.033C178.46 24.3493 179.23 24.5075 180.039 24.5075C180.545 24.5075 181.051 24.4467 181.556 24.3249C182.061 24.179 182.516 23.9843 182.921 23.7411C183.351 23.4977 183.717 23.218 184.02 22.9016C184.349 22.5853 184.589 22.2447 184.741 21.8797L188.836 23.0476C188.178 24.4832 187.079 25.6632 185.537 26.5877C183.995 27.488 182.175 27.9381 180.077 27.9381C178.535 27.9381 177.132 27.6705 175.869 27.1352C174.605 26.5999 173.518 25.8821 172.608 24.9819C171.723 24.0574 171.028 22.9989 170.523 21.8068C170.043 20.6146 169.803 19.3493 169.803 18.0111Z" fill="black"/>
<path d="M198.53 27.9381C196.937 27.9381 195.345 27.6948 193.752 27.2082C192.185 26.6973 190.832 25.9795 189.695 25.0549L191.364 22.5002C192.551 23.3274 193.727 23.96 194.89 24.398C196.053 24.8116 197.24 25.0184 198.453 25.0184C199.692 25.0184 200.665 24.7872 201.373 24.3249C202.106 23.8627 202.473 23.2058 202.473 22.3542C202.473 21.5513 202.068 20.9674 201.259 20.6024C200.45 20.2374 199.187 19.836 197.468 19.398C196.229 19.0818 195.167 18.7776 194.282 18.4856C193.398 18.1937 192.678 17.853 192.122 17.4637C191.566 17.0744 191.161 16.6243 190.909 16.1134C190.656 15.6025 190.529 14.982 190.529 14.252C190.529 13.2789 190.719 12.415 191.099 11.6608C191.502 10.9065 192.046 10.274 192.728 9.76304C193.436 9.22776 194.258 8.8263 195.193 8.55868C196.129 8.29106 197.139 8.15723 198.226 8.15723C199.718 8.15723 201.108 8.37622 202.397 8.81415C203.685 9.25209 204.836 9.88468 205.847 10.712L204.064 13.1206C202.22 11.7095 200.261 11.0039 198.188 11.0039C197.127 11.0039 196.229 11.2229 195.496 11.6608C194.788 12.0745 194.434 12.7435 194.434 13.6682C194.434 14.0574 194.51 14.3858 194.662 14.6535C194.814 14.9212 195.054 15.1523 195.383 15.3469C195.737 15.5416 196.178 15.7241 196.71 15.8943C197.265 16.0404 197.948 16.2107 198.757 16.4054C200.096 16.7217 201.246 17.0379 202.207 17.3542C203.193 17.6706 204.002 18.0477 204.634 18.4856C205.265 18.8993 205.733 19.398 206.036 19.982C206.34 20.5416 206.492 21.2228 206.492 22.0257C206.492 23.8505 205.77 25.2983 204.331 26.3688C202.915 27.415 200.981 27.9381 198.53 27.9381Z" fill="black"/>
<path d="M98.2279 23.1338C98.2279 25.8213 95.9644 27.9999 93.1724 27.9999C90.3803 27.9999 88.1172 25.8213 88.1172 23.1338C88.1172 20.4463 90.3803 18.2676 93.1724 18.2676C95.9644 18.2676 98.2279 20.4463 98.2279 23.1338Z" fill="#D62C2C"/>
</svg>
