<svg width="191" height="25" viewBox="0 0 191 25" fill="none" xmlns="http://www.w3.org/2000/svg">
<path d="M12.8192 24.507L6.93781 16.4163L3.8739 19.1691V24.507H0V0H3.8739V15.5435L12.3261 6.9828H16.5522L9.40301 14.3349L16.9395 24.507H12.8192Z" fill="white"/>
<path d="M25.7978 24.8421C24.3656 24.8421 23.0626 24.6071 21.8887 24.1371C20.7148 23.6447 19.7052 22.9845 18.86 22.1564C18.0383 21.3283 17.3926 20.366 16.9231 19.2693C16.477 18.1726 16.2539 17.0088 16.2539 15.7778C16.2539 14.5469 16.477 13.3832 16.9231 12.2864C17.3926 11.1674 18.0383 10.1938 18.86 9.3658C19.7052 8.51531 20.7148 7.85504 21.8887 7.38508C23.0626 6.8927 24.3774 6.64648 25.833 6.64648C27.2652 6.64648 28.5565 6.8927 29.7069 7.38508C30.8809 7.87743 31.8787 8.53766 32.7003 9.3658C33.5222 10.1715 34.1443 11.1227 34.5669 12.2194C35.013 13.2936 35.2361 14.4238 35.2361 15.61C35.2361 15.8786 35.2243 16.136 35.2009 16.3822C35.1773 16.6059 35.1539 16.7962 35.1304 16.9528H20.3743C20.4448 17.7362 20.6326 18.4412 20.9378 19.0678C21.2665 19.6945 21.6774 20.2428 22.1704 20.7129C22.6869 21.1604 23.2622 21.5074 23.896 21.7535C24.5535 21.9997 25.2343 22.1228 25.9387 22.1228C26.4552 22.1228 26.96 22.0669 27.453 21.955C27.9695 21.8207 28.4391 21.6416 28.8617 21.4178C29.2843 21.1716 29.6599 20.8807 29.9887 20.5449C30.3174 20.2093 30.5757 19.84 30.7634 19.4371L34.0739 20.3436C33.44 21.6641 32.3835 22.7494 30.9043 23.6C29.4486 24.4281 27.7465 24.8421 25.7978 24.8421ZM31.3973 14.4014C31.3269 13.6628 31.1273 12.9803 30.7987 12.3536C30.4935 11.7269 30.0943 11.201 29.6013 10.7758C29.1082 10.3281 28.533 9.98122 27.8756 9.73505C27.2182 9.48887 26.5257 9.3658 25.7978 9.3658C25.07 9.3658 24.3774 9.48887 23.7199 9.73505C23.0861 9.98122 22.5226 10.3281 22.0296 10.7758C21.5365 11.201 21.1374 11.7269 20.8321 12.3536C20.527 12.9803 20.3391 13.6628 20.2687 14.4014H31.3973Z" fill="white"/>
<path d="M45.8602 24.8421C44.4281 24.8421 43.1251 24.6071 41.9512 24.1371C40.7773 23.6447 39.7677 22.9845 38.9227 22.1564C38.1007 21.3283 37.4551 20.366 36.9856 19.2693C36.5395 18.1726 36.3164 17.0088 36.3164 15.7778C36.3164 14.5469 36.5395 13.3832 36.9856 12.2864C37.4551 11.1674 38.1007 10.1938 38.9227 9.3658C39.7677 8.51531 40.7773 7.85504 41.9512 7.38508C43.1251 6.8927 44.4399 6.64648 45.8953 6.64648C47.3278 6.64648 48.619 6.8927 49.7696 7.38508C50.9435 7.87743 51.9412 8.53766 52.7629 9.3658C53.5846 10.1715 54.2069 11.1227 54.6294 12.2194C55.0755 13.2936 55.2986 14.4238 55.2986 15.61C55.2986 15.8786 55.2868 16.136 55.2631 16.3822C55.2398 16.6059 55.2165 16.7962 55.1928 16.9528H40.4369C40.5072 17.7362 40.6952 18.4412 41.0004 19.0678C41.3289 19.6945 41.7399 20.2428 42.2327 20.7129C42.7496 21.1604 43.3248 21.5074 43.9586 21.7535C44.616 21.9997 45.2967 22.1228 46.0011 22.1228C46.5176 22.1228 47.0226 22.0669 47.5154 21.955C48.0322 21.8207 48.5017 21.6416 48.9242 21.4178C49.3467 21.1716 49.7226 20.8807 50.0511 20.5449C50.38 20.2093 50.6382 19.84 50.8258 19.4371L54.1362 20.3436C53.5025 21.6641 52.4459 22.7494 50.9668 23.6C49.5113 24.4281 47.8091 24.8421 45.8602 24.8421ZM51.4599 14.4014C51.3892 13.6628 51.1898 12.9803 50.8609 12.3536C50.5561 11.7269 50.1569 11.201 49.6638 10.7758C49.1706 10.3281 48.5957 9.98122 47.9383 9.73505C47.2808 9.48887 46.5883 9.3658 45.8602 9.3658C45.1325 9.3658 44.4399 9.48887 43.7825 9.73505C43.1487 9.98122 42.5853 10.3281 42.0921 10.7758C41.599 11.201 41.1998 11.7269 40.8946 12.3536C40.5893 12.9803 40.4018 13.6628 40.3311 14.4014H51.4599Z" fill="white"/>
<path d="M74.0947 24.5064H70.2208V14.67C70.2208 13.0138 69.9393 11.8164 69.3758 11.0779C68.8357 10.317 68.0258 9.93645 66.9459 9.93645C66.3825 9.93645 65.8186 10.0372 65.2552 10.2386C64.6917 10.44 64.1634 10.731 63.6706 11.1114C63.1775 11.4696 62.7313 11.906 62.3321 12.4207C61.9566 12.9132 61.6632 13.4614 61.452 14.0657V24.5064H57.5781V6.94864H61.0998V10.4736C61.8042 9.28739 62.8253 8.35864 64.1634 7.6872C65.502 6.99342 66.9811 6.64648 68.6007 6.64648C69.7043 6.64648 70.6085 6.83675 71.3126 7.2172C72.017 7.5977 72.5686 8.12364 72.9678 8.79505C73.3906 9.4441 73.684 10.205 73.8483 11.0779C74.0125 11.9283 74.0947 12.8347 74.0947 13.7971V24.5064Z" fill="white"/>
<path d="M106.661 24.843C105.229 24.843 103.926 24.6081 102.752 24.1381C101.578 23.6457 100.569 22.9854 99.7228 22.1573C98.9015 21.3293 98.2559 20.3669 97.7861 19.2702C97.3395 18.1736 97.1172 17.0097 97.1172 15.7788C97.1172 14.5478 97.3395 13.3841 97.7861 12.2875C98.2559 11.1683 98.9015 10.1948 99.7228 9.36674C100.569 8.51625 101.578 7.85602 102.752 7.38602C103.926 6.89364 105.241 6.64746 106.696 6.64746C108.128 6.64746 109.42 6.89364 110.57 7.38602C111.744 7.87841 112.742 8.53864 113.563 9.36674C114.385 10.1724 115.008 11.1236 115.43 12.2203C115.876 13.2945 116.099 14.4248 116.099 15.611C116.099 15.8796 116.088 16.137 116.064 16.3831C116.04 16.6069 116.017 16.7971 115.993 16.9538H101.237C101.308 17.7372 101.496 18.4421 101.801 19.0688C102.129 19.6954 102.541 20.2438 103.034 20.7138C103.55 21.1614 104.126 21.5083 104.759 21.7545C105.417 22.0007 106.098 22.1237 106.802 22.1237C107.318 22.1237 107.824 22.0679 108.316 21.9559C108.833 21.8216 109.303 21.6426 109.725 21.4188C110.147 21.1726 110.523 20.8817 110.851 20.5459C111.18 20.2102 111.439 19.8409 111.627 19.4381L114.937 20.3445C114.303 21.665 113.247 22.7505 111.768 23.6009C110.312 24.429 108.61 24.843 106.661 24.843ZM112.26 14.4024C112.19 13.6639 111.991 12.9812 111.662 12.3546C111.356 11.7279 110.958 11.202 110.464 10.7767C109.971 10.3291 109.396 9.98223 108.738 9.73598C108.082 9.48981 107.389 9.36674 106.661 9.36674C105.933 9.36674 105.241 9.48981 104.583 9.73598C103.95 9.98223 103.385 10.3291 102.893 10.7767C102.4 11.202 102.001 11.7279 101.695 12.3546C101.39 12.9812 101.202 13.6639 101.132 14.4024H112.26Z" fill="white"/>
<path d="M128.489 23.6014C127.996 23.8252 127.315 24.0825 126.447 24.3735C125.578 24.6421 124.65 24.7764 123.664 24.7764C123.054 24.7764 122.479 24.698 121.939 24.5413C121.399 24.3847 120.917 24.1496 120.495 23.8364C120.095 23.523 119.779 23.1201 119.544 22.6278C119.309 22.1131 119.191 21.4976 119.191 20.7814V9.80359H116.762V6.95003H119.191V1.17578H123.066V6.95003H127.081V9.80359H123.066V19.6064C123.112 20.2331 123.313 20.6918 123.664 20.9828C124.04 21.2513 124.498 21.3856 125.038 21.3856C125.578 21.3856 126.094 21.2961 126.588 21.1171C127.081 20.9381 127.445 20.7926 127.679 20.6807L128.489 23.6014Z" fill="white"/>
<path d="M146.81 24.5079H142.936V14.6716C142.936 13.0602 142.63 11.874 142.02 11.1131C141.433 10.3297 140.577 9.93808 139.45 9.93808C138.909 9.93808 138.369 10.0387 137.829 10.2402C137.289 10.4416 136.772 10.7325 136.28 11.1131C135.81 11.4711 135.388 11.9075 135.011 12.4223C134.636 12.9147 134.355 13.463 134.167 14.0673V24.5079H130.293V0.000976562H134.167V10.4752C134.871 9.2666 135.822 8.32664 137.02 7.6552C138.24 6.9838 139.567 6.64808 140.999 6.64808C142.149 6.64808 143.089 6.84952 143.816 7.25236C144.568 7.63285 145.167 8.14758 145.612 8.79664C146.058 9.44565 146.364 10.2066 146.528 11.0794C146.716 11.93 146.81 12.8364 146.81 13.7988V24.5079Z" fill="white"/>
<path d="M150.426 24.5079V6.9502H154.3V24.5079H150.426ZM150.426 4.06308V0.000976562H154.3V4.06308H150.426Z" fill="white"/>
<path d="M156.875 15.7116C156.875 14.4808 157.098 13.317 157.544 12.2203C157.99 11.1236 158.624 10.1613 159.445 9.33318C160.291 8.50507 161.301 7.85602 162.474 7.38602C163.648 6.89364 164.963 6.64746 166.419 6.64746C168.32 6.64746 169.952 7.0503 171.314 7.85602C172.699 8.63935 173.732 9.69121 174.413 11.0117L170.645 12.1532C170.199 11.4146 169.6 10.8439 168.849 10.441C168.098 10.0158 167.264 9.80314 166.348 9.80314C165.574 9.80314 164.846 9.94867 164.165 10.2396C163.507 10.5305 162.932 10.9446 162.439 11.4817C161.946 11.9964 161.558 12.6119 161.277 13.3281C160.995 14.0443 160.854 14.8389 160.854 15.7116C160.854 16.5622 160.995 17.3566 161.277 18.0952C161.582 18.8114 161.982 19.4381 162.474 19.9752C162.991 20.5124 163.578 20.9376 164.235 21.2509C164.916 21.5419 165.632 21.6873 166.383 21.6873C166.853 21.6873 167.323 21.6314 167.792 21.5195C168.262 21.3852 168.684 21.2061 169.06 20.9824C169.46 20.7586 169.8 20.5012 170.081 20.2102C170.387 19.9192 170.61 19.6059 170.751 19.2702L174.554 20.3445C173.944 21.665 172.922 22.7505 171.49 23.6009C170.058 24.429 168.367 24.843 166.419 24.843C164.986 24.843 163.683 24.5969 162.51 24.1045C161.336 23.6121 160.326 22.9519 159.481 22.1237C158.659 21.2733 158.013 20.2997 157.544 19.2031C157.098 18.1064 156.875 16.9426 156.875 15.7116Z" fill="white"/>
<path d="M183.558 24.843C182.078 24.843 180.599 24.6193 179.12 24.1716C177.665 23.7017 176.407 23.0414 175.352 22.1909L176.901 19.8409C178.005 20.6019 179.097 21.1838 180.177 21.5867C181.257 21.9671 182.36 22.1573 183.486 22.1573C184.637 22.1573 185.541 21.9447 186.198 21.5195C186.879 21.0943 187.22 20.49 187.22 19.7067C187.22 18.9681 186.844 18.431 186.093 18.0952C185.342 17.7595 184.168 17.3903 182.571 16.9874C181.421 16.6965 180.434 16.4167 179.612 16.1481C178.791 15.8796 178.122 15.5662 177.605 15.2081C177.089 14.85 176.713 14.436 176.479 13.966C176.244 13.496 176.126 12.9253 176.126 12.2538C176.126 11.3586 176.302 10.5641 176.655 9.87026C177.03 9.17644 177.535 8.59458 178.168 8.12458C178.826 7.6322 179.589 7.26292 180.458 7.01674C181.327 6.77057 182.265 6.64746 183.275 6.64746C184.661 6.64746 185.952 6.8489 187.15 7.25174C188.346 7.65458 189.415 8.23648 190.354 8.9975L188.698 11.2131C186.985 9.91504 185.166 9.26598 183.24 9.26598C182.254 9.26598 181.421 9.46746 180.74 9.87026C180.082 10.2508 179.753 10.8662 179.753 11.7167C179.753 12.0748 179.824 12.3769 179.965 12.6231C180.106 12.8693 180.329 13.0819 180.634 13.261C180.963 13.44 181.373 13.6079 181.867 13.7645C182.383 13.8988 183.018 14.0555 183.769 14.2346C185.013 14.5255 186.081 14.8164 186.973 15.1074C187.889 15.3984 188.64 15.7453 189.227 16.1481C189.814 16.5286 190.248 16.9874 190.53 17.5246C190.812 18.0393 190.953 18.6659 190.953 19.4045C190.953 21.0831 190.283 22.4148 188.946 23.3995C187.631 24.3619 185.834 24.843 183.558 24.843Z" fill="white"/>
<path d="M90.3915 20.4235C90.3915 22.8956 88.2889 24.8996 85.6955 24.8996C83.1021 24.8996 81 22.8956 81 20.4235C81 17.9514 83.1021 15.9473 85.6955 15.9473C88.2889 15.9473 90.3915 17.9514 90.3915 20.4235Z" fill="#D62C2C"/>
</svg>
