<svg width="96" height="33" viewBox="0 0 96 33" fill="none" xmlns="http://www.w3.org/2000/svg">
<g clip-path="url(#clip0_966_505)">
<path d="M21.1952 17.884C21.7984 16.9765 22.2756 16.1846 22.8248 15.455C22.9688 15.2682 23.3559 15.2148 23.635 15.2059C25.2376 15.1792 26.8311 15.1703 28.4337 15.2059C28.9919 15.2148 29.352 15.028 29.5771 14.5386C29.6761 14.3073 29.8292 14.1026 29.9552 13.8891C30.4354 13.0528 30.3003 12.3439 29.5501 11.7627C25.5887 8.71089 20.3759 10.4103 19.2055 15.1703C18.3862 18.4979 20.0428 22.3593 23.608 23.2224C26.6511 23.9608 29.1269 23.4092 30.8645 20.8468C32.5301 18.4 34.0156 15.8198 35.4741 13.2485C36.9596 10.6149 38.8593 8.43508 41.7223 7.22505C47.6553 4.72491 54.3626 8.3728 55.524 14.7077C56.4513 19.7969 53.9665 24.5303 49.4289 26.3186C45.3685 27.9112 40.3088 26.5143 37.9049 23.1601C37.3107 22.3237 37.2117 21.5764 37.7789 20.6777C38.6702 19.2809 39.4355 17.8039 40.3268 16.407C40.5429 16.06 41.056 15.6953 41.4342 15.6864C44.018 15.6241 46.6109 15.6508 49.1948 15.6597C49.3119 15.6597 49.4289 15.7042 49.798 15.7842C49.2308 16.6651 48.7987 17.5103 48.1865 18.1954C47.9524 18.4623 47.3042 18.4178 46.836 18.4267C45.4405 18.4534 44.0451 18.4534 42.6496 18.4267C42.1274 18.4178 41.7763 18.5869 41.5422 19.0406C41.4071 19.3075 41.2451 19.5656 41.092 19.8236C40.3808 21.0247 40.3718 21.1938 41.4972 22.0568C43.4689 23.5604 45.6836 23.8985 48.0244 23.0444C50.2662 22.2259 51.5266 20.5265 51.9408 18.2488C52.616 14.4941 50.5633 11.2199 47.0791 10.3747C44.4412 9.73408 41.5512 10.8373 39.8406 13.382C38.4541 15.4372 37.2657 17.6349 36.0413 19.7969C34.8619 21.87 33.5204 23.8007 31.4947 25.162C25.0665 29.486 16.7387 25.9182 15.5413 18.32C14.713 13.0795 18.0081 7.98132 23.1489 6.7179C26.8762 5.80148 30.0272 7.02931 32.7552 9.52944C32.9622 9.71629 33.1603 9.91203 33.3494 10.1167C34.1056 10.9441 34.1597 11.4513 33.6015 12.4033C32.6831 13.9603 31.7378 15.5084 30.8465 17.0743C30.4864 17.706 30.0362 18.0085 29.262 17.9908C26.9032 17.9463 24.5444 17.973 22.1855 17.973C21.9245 17.973 21.6634 17.9285 21.2132 17.884H21.1952Z" fill="white"/>
<path d="M63.524 21.4955C63.9472 21.8069 64.1632 21.9582 64.3793 22.1183C66.45 23.5864 68.7008 23.8355 70.9786 22.8212C73.2383 21.8247 74.2557 19.8851 74.4988 17.5006C74.9039 13.5057 72.329 11.1747 70.0062 10.5341C65.9548 9.4308 61.7054 11.9932 61.7414 16.5753C61.7684 20.588 61.7594 24.6007 61.7324 28.6133C61.7324 29.0849 61.5703 29.6098 61.3183 30.0102C60.7961 30.8643 60.2109 31.6918 59.5536 32.4569C59.3016 32.7506 58.8064 32.8217 58.4193 32.9997C58.2842 32.6616 58.0231 32.3324 58.0231 31.9943C58.0051 26.5492 57.9781 21.1129 58.0591 15.6678C58.1222 11.228 62.1645 7.09081 66.6031 6.43241C71.8879 5.64945 77.1547 9.22616 78.154 14.8225C79.0093 19.5559 76.6775 24.7074 71.7438 26.4869C69.259 27.3855 66.7741 27.2609 64.3793 26.0776C63.7761 25.784 63.461 25.3925 63.515 24.6629C63.587 23.6842 63.533 22.6877 63.533 21.4955H63.524Z" fill="white"/>
<path d="M15.7929 7.07287C15.2977 7.66899 14.9646 8.10495 14.6045 8.51423C12.6238 10.8008 10.6341 13.0785 8.65345 15.3562C7.84317 16.2905 7.82517 16.3082 8.65345 17.198C11.2463 19.9828 13.8482 22.7588 16.4501 25.5436C16.5852 25.686 16.7022 25.8461 16.9453 26.1308C16.5852 26.2376 16.3241 26.3711 16.063 26.38C15.1537 26.4067 14.2354 26.3622 13.3261 26.3978C12.5518 26.4333 11.9576 26.1664 11.4444 25.6148C9.26566 23.2748 7.06891 20.9348 4.88115 18.6037C4.74611 18.4525 4.62907 18.2745 4.46701 18.1678C4.31396 18.0699 4.07088 17.9453 3.93583 17.9987C3.80979 18.0521 3.74676 18.3101 3.71075 18.4881C3.67474 18.6838 3.70175 18.8885 3.70175 19.0842C3.70175 21.2195 3.69275 23.346 3.70175 25.4813C3.70175 26.1397 3.49468 26.4689 2.77443 26.4067C2.27026 26.3622 1.75708 26.4067 1.25291 26.4067C0.412617 26.4067 -0.00752712 26.0033 -0.00752712 25.1966C-0.00752712 18.2745 -0.00752712 11.3525 -0.00752712 4.43038C-0.00752712 4.30582 -0.0345364 4.17236 -0.00752712 4.05669C0.10051 3.68301 0.145526 3.26484 0.352597 2.94453C0.883779 2.12598 1.50499 1.35192 2.05418 0.542269C2.3963 0.0885081 2.85546 -0.00936197 3.2696 0.177481C3.48567 0.275351 3.62972 0.738009 3.62972 1.03162C3.65673 5.29342 3.62972 9.55521 3.65673 13.8259C3.65673 14.2352 3.8638 14.6534 3.97184 15.0626C4.29595 14.8135 4.66508 14.6 4.92617 14.3064C6.74479 12.2511 8.56342 10.1958 10.346 8.09606C11.0303 7.28641 11.7775 6.79706 12.8849 6.91272C13.5331 6.9839 14.1994 6.91272 14.8656 6.93051C15.0997 6.93051 15.3428 7.00169 15.7929 7.07287Z" fill="white"/>
<path d="M95.9982 7.05579C95.296 8.11457 94.7468 9.00429 94.1256 9.85843C93.9995 10.0364 93.6484 10.1165 93.3963 10.1254C92.7661 10.1609 92.1269 10.152 91.4967 10.1254C91.0375 10.1076 90.8484 10.2944 90.8574 10.7393C90.8755 11.3621 90.8574 11.9938 90.8574 12.6166C90.8574 16.8339 90.8574 21.0423 90.8574 25.2596C90.8574 26.0011 90.4703 26.3718 89.696 26.3718C89.1108 26.3718 88.5256 26.354 87.9495 26.3718C87.4273 26.3896 87.2022 26.1493 87.2112 25.6511C87.2112 25.4465 87.2112 25.2507 87.2112 25.0461C87.2112 17.1186 87.2112 9.19114 87.2112 1.26366C87.2112 0.403592 87.6463 -0.0264426 88.5166 -0.0264426C89.0478 -0.0264426 89.579 -0.00864807 90.1192 -0.0264426C90.6864 -0.0531345 90.8845 0.204887 90.8755 0.738723C90.8575 2.42031 90.8755 4.10189 90.8755 5.78348C90.8755 6.53085 91.2416 6.90454 91.9738 6.90454C92.9912 6.90454 93.9995 6.90454 95.0169 6.90454C95.278 6.90454 95.5391 6.96682 96.0072 7.0291L95.9982 7.05579Z" fill="white"/>
<path d="M84.3214 16.6464C84.3214 19.5825 84.3034 22.5097 84.3304 25.4369C84.3304 26.1487 84.1233 26.4512 83.3761 26.3978C82.7459 26.3533 82.1066 26.3622 81.4764 26.3978C80.8732 26.4245 80.6391 26.1576 80.6661 25.5882C80.6661 25.4636 80.6661 25.339 80.6661 25.2145C80.6661 19.5024 80.6661 13.7904 80.6661 8.07832C80.6661 6.92168 80.6661 6.92168 81.8636 6.92168C82.3947 6.92168 82.9349 6.95727 83.4571 6.92168C84.1323 6.86829 84.3394 7.13521 84.3304 7.78471C84.3034 10.7386 84.3214 13.7014 84.3214 16.6553V16.6464Z" fill="white"/>
<path d="M84.3217 1.87686C84.3217 3.08096 83.7034 3.68301 82.467 3.68301C81.2306 3.68301 80.6304 3.08689 80.6664 1.89466C80.6664 -0.258484 80.5224 0.0173318 82.494 0.0173318C84.5557 0.0173318 84.3037 -0.231792 84.3217 1.88576V1.87686Z" fill="white"/>
</g>
<defs>
<clipPath id="clip0_966_505">
<rect width="96" height="33" fill="white"/>
</clipPath>
</defs>
</svg>
