<svg width="76" height="103" viewBox="0 0 76 103" fill="none" xmlns="http://www.w3.org/2000/svg">
<path d="M76 51.7963L71.1071 38.8199L74.7239 30.4924L74.9901 30.2889L71.0758 29.5062L73.6827 26.3756L66.4256 16.5845L67.7252 12.0451L67.8191 11.7164L57.0548 8.06138L52.1698 0.117399V0H52.1228L51.9897 0.101746L43.6209 3.72545L38.0078 0.0469595L32.2695 3.72545L24.2765 0.195665L24.0964 0.117399H23.9164C23.9164 0.117399 23.8459 0.148705 23.8224 0.180011L23.7676 0.234798L23.5328 0.6183C23.5328 0.6183 23.4858 0.68874 23.4623 0.735699L23.384 0.868751L23.2822 1.02528L22.93 1.5888C22.8908 1.65924 22.8517 1.72968 22.8047 1.80011L22.609 2.121L22.5229 2.26971L22.3976 2.45755L22.2019 2.77844C22.1706 2.83322 22.1393 2.88801 22.1001 2.9428L21.7087 3.57675C21.6539 3.67067 21.5991 3.76459 21.5365 3.85068L21.192 4.42202L21.0276 4.6803L20.6283 5.3299C20.597 5.38469 20.5657 5.43948 20.5266 5.49426L20.37 5.75254C20.323 5.83863 20.2682 5.9169 20.2134 6.00299L20.0647 6.24562L19.9238 6.48041L19.7829 6.69956L19.6576 6.91087L19.5402 7.10654L19.4227 7.28655L19.321 7.45091L19.2427 7.58396L19.2192 7.63875V7.74832L19.1487 7.86572V7.9205L8.47837 11.4425L8.34528 11.5051L8.25917 11.552L9.71529 16.5454L2.37989 26.4226L5.01813 29.5532L2.17635 30.1245L1.59703 30.2263L1.70663 30.4298L4.83807 38.7651L0 51.7494V51.8746L6.59168 62.1196V62.1822L6.77956 62.3466L6.84219 62.4483L15.8529 70.721L16.0016 70.8306L16.166 70.9636L21.9827 75.8709L23.2274 65.0311H28.9345L33.7021 70.8228V70.9089H42.5093V70.8619L47.3317 65.0076H52.8117L54.0564 75.8474L59.787 71.0106L60.061 70.7836L69.3614 62.2214L69.4631 62.1118L76 51.7963ZM56.3424 8.21009L47.6135 19.6056L52.0993 1.33052L56.3424 8.21009ZM67.96 60.9534L68.6098 62.0413L60.1158 69.8679L57.4932 43.2575L67.96 60.9534ZM47.2377 64.358L44.7717 59.5447H49.054L51.7079 55.2244L52.7569 64.3424L47.2377 64.358ZM37.7338 56.6723V58.8403H33.4438L37.7338 56.6723ZM23.3057 64.358L24.3469 55.24L27.0087 59.5603H31.3222L28.8171 64.358H23.3057ZM38.0626 15.8332L32.7079 4.29679L38.0078 0.876578L43.2138 4.29679L38.0626 15.8332ZM37.7338 32.7464V44.1576H35.4714L37.7338 32.7464ZM19.6733 41.2931L29.6391 33.4665L24.0729 53.0956L19.6733 41.2931ZM18.5694 43.2184L16.0878 68.4904L15.9468 69.8601L7.47631 62.0413L18.5694 43.2184ZM9.17511 12.4364L27.9637 21.1474L11.8525 21.9301L10.4668 16.9602L9.17511 12.4364ZM23.4936 29.0366L19.2192 40.1034L14.295 27.7061H14.2011L12.1735 22.7049L23.4936 29.0366ZM24.4174 28.7705L13.2616 22.5093L28.9188 21.7892L29.5451 28.747L24.4174 28.7705ZM29.8974 31.9012L25.5838 29.5532H29.686L29.8974 31.9012ZM30.5237 31.9012L30.3593 29.4514L29.6782 21.9379L37.4363 28.6844L30.5237 31.9012ZM24.0886 29.5532H24.1434L29.6782 32.6056L19.8925 40.2365L24.0886 29.5532ZM3.26452 26.4226L9.90317 17.422L11.2967 22.384L13.4887 27.8626L5.73836 29.3732L3.26452 26.4226ZM19.3445 42.4279L23.7363 54.1678L16.8706 67.7861L19.3445 42.4279ZM24.6992 53.4791L30.555 32.809V32.6838L37.6007 29.4201L34.6337 44.4237L24.6992 53.4791ZM34.8764 45.2064L37.726 51.1076V55.8036L31.6432 58.8794H27.3923L24.6992 54.5122L34.8764 45.2064ZM37.5146 16.2871L29.686 20.7091L32.4104 5.29077L37.5146 16.2871ZM37.726 16.9446V27.9018L30.101 21.2805L33.9291 19.1282C36.2855 17.8133 37.3033 17.2185 37.7338 16.9524H37.726V16.9446ZM3.20972 30.6176L13.8644 28.4966L18.6477 40.5887L3.20972 30.6176ZM7.47631 60.6013L6.97528 61.4387L0.712402 51.6946L18.6242 41.7157L7.47631 60.6013ZM37.7103 44.9481V49.3231L35.6592 44.9403H37.7103V44.9481ZM42.611 58.8481H38.4932V56.7662L42.611 58.8481ZM38.4932 49.3075V44.9403H40.5756L38.4932 49.3075ZM38.4932 55.8896V51.1154L41.288 45.2611L51.3791 54.4261L48.6391 58.8794H44.4116L38.4932 55.8896ZM40.7948 44.1498H38.4932V32.6838L40.7948 44.1498ZM61.6032 28.3322L56.8747 40.1347L52.5925 29.0992L63.8344 22.838L61.611 28.3166V28.3322H61.6032ZM50.5336 29.5062L46.22 31.8542L46.4314 29.5062H50.5336ZM51.9662 29.5062H52.021L56.1858 40.2365L46.4392 32.5586L51.9662 29.5062ZM62.9262 22.5171L51.6687 28.8175H46.4627L47.0968 21.7736L62.9262 22.5171ZM45.625 31.9481L38.7907 28.6453L46.3766 21.9771L45.7425 28.9427L45.625 31.9481ZM41.7108 44.5411L38.6889 29.4358L45.5546 32.7699L51.2382 53.1973L41.7108 44.5411ZM57.4619 40.6278L62.3469 28.4966L73.2365 30.5941L57.4619 40.6278ZM70.3243 29.3184L62.574 27.8079L64.719 22.5093L66.1908 17.3985L72.7981 26.4226L70.3243 29.3184ZM64.1867 21.8753L51.3791 21.3118L48.2476 21.1553L66.8171 12.6947L64.1867 21.8753ZM46.7915 19.7465L44.0437 4.32028L51.3869 1.05659L46.7915 19.7465ZM38.595 16.3184L43.4878 5.29077L46.22 20.6309L38.595 16.3184ZM38.5167 27.8783V17.0698L46.0008 21.2883L38.5167 27.8783ZM56.4207 41.3948L51.9662 53.3304L46.4862 33.4821L56.4207 41.3948ZM56.7338 42.8506L59.1842 67.7547L52.4281 54.3948L56.7338 42.8506ZM58.7536 40.5887L73.6749 31.1968L70.4965 38.5225L58.7536 40.5887ZM58.0412 41.4105L70.5043 39.1799L74.8022 50.685L58.0412 41.4105ZM57.5715 41.9427L75.2328 51.7181L69.0639 61.4543L57.5715 41.9427ZM47.5509 20.6935L56.7965 8.71099L66.5822 12.0295L47.5509 20.6935ZM31.8937 4.3281L29.1459 19.6917L24.5661 1.08007L31.8937 4.3281ZM9.5274 11.826L19.2192 8.6249L28.3552 20.5448L9.5274 11.826ZM17.7709 41.4105L1.15863 50.685L5.43304 39.1877L17.7709 41.4105ZM17.4891 40.6278L5.5035 38.4911L2.70869 31.1185L17.4891 40.6278ZM16.581 70.408L16.6514 69.6644L23.5562 56.054L21.4425 74.4934L16.581 70.408ZM32.0346 59.5916H37.7338V70.1732H34.0466L29.4747 64.6163L32.0346 59.5916ZM38.5167 70.1419V59.6229H43.9967L46.6584 64.8041L42.2274 70.1732L38.5167 70.1419ZM19.7281 8.124L23.9164 1.37748L28.3473 19.3786L19.7281 8.124ZM54.6358 74.4934L52.5142 56.1636L59.4112 69.774L59.4817 70.4471L54.6358 74.4934ZM11.8525 87.7986V99.382H16.487V102.653H7.97734V87.783L11.8525 87.7986ZM28.6996 98.3332H21.2625C21.2625 98.9437 21.4817 99.5307 21.8809 99.9925C22.288 100.345 22.8204 100.517 23.3527 100.478C23.752 100.478 24.1512 100.384 24.5113 100.212C24.7775 100.055 24.9967 99.8203 25.1376 99.5463H28.5509C28.3395 100.329 27.9246 101.033 27.3453 101.597C26.2414 102.591 24.7775 103.092 23.2901 102.974C21.7713 103.045 20.2839 102.497 19.1644 101.464C18.1858 100.454 17.6535 99.0924 17.6926 97.6914C17.6613 96.2592 18.2171 94.8739 19.2192 93.8564C20.3309 92.8468 21.8026 92.3224 23.2979 92.4085C24.6992 92.3537 26.077 92.839 27.1339 93.7625C28.2143 94.8817 28.7857 96.4001 28.6996 97.9576V98.3332ZM25.4194 96.2826C25.3255 95.8835 25.122 95.5157 24.8401 95.2182C24.4409 94.8504 23.9085 94.6626 23.3684 94.6782C22.8282 94.6469 22.3037 94.8426 21.9201 95.2182C21.6382 95.5078 21.4503 95.8835 21.3877 96.2826H25.4194ZM40.7792 101.346C38.2192 103.538 34.4458 103.538 31.8859 101.346C29.8583 99.3585 29.8269 96.1105 31.8154 94.0834C31.8389 94.0599 31.8624 94.0364 31.8859 94.0129C33.0836 92.9016 34.6807 92.3067 36.3168 92.3615C37.9609 92.3067 39.5657 92.9016 40.7792 94.0129C41.789 94.96 42.3605 96.2827 42.3449 97.668C42.3527 99.0611 41.7812 100.392 40.7635 101.346H40.7792ZM34.7198 96.0792C33.8117 96.9401 33.7804 98.3802 34.6415 99.2881C35.0721 99.7342 35.6671 99.9925 36.2855 99.9925C36.8727 99.9846 37.4363 99.742 37.8513 99.3272C38.2818 98.9202 38.5323 98.3567 38.5402 97.7619C38.5402 96.5096 37.5225 95.4922 36.2699 95.4843C35.6984 95.4922 35.1504 95.7035 34.7198 96.0792ZM47.911 86.4525V93.6921C48.6704 92.8546 49.7507 92.385 50.878 92.4007C52.1776 92.3772 53.4458 92.8546 54.4009 93.739C55.4499 94.7721 56.0371 96.1809 56.0293 97.6523C56.0684 99.1315 55.4969 100.564 54.4635 101.62C53.5319 102.536 52.2715 103.037 50.9642 102.998C49.7899 103.037 48.6704 102.505 47.9501 101.573V102.661H44.349V86.4133L47.911 86.4525ZM51.6766 99.335C52.1071 98.928 52.3576 98.3645 52.3733 97.7697C52.3733 97.1357 52.1228 96.5331 51.6766 96.0792C51.2616 95.6565 50.698 95.4217 50.1108 95.4296C49.5002 95.4217 48.9052 95.6644 48.4825 96.1026C48.0832 96.5488 47.8484 97.1123 47.8171 97.7071C47.8327 98.3567 48.1145 98.9672 48.5999 99.3976C49.0305 99.7811 49.5863 99.9924 50.1656 100C50.745 99.969 51.2851 99.7185 51.6766 99.2959V99.335ZM59.8574 86.5855C60.9691 86.5855 61.8694 87.4777 61.8772 88.5891C61.885 89.7005 60.9848 90.6005 59.8731 90.6084C58.7614 90.6084 57.8611 89.7161 57.8533 88.6048C57.8533 88.6048 57.8533 88.5969 57.8533 88.5891C57.8298 87.4856 58.6988 86.5699 59.8026 86.5464C59.8183 86.5464 59.8418 86.5464 59.8574 86.5464V86.5855ZM61.6424 92.7372V102.653H58.0725V92.6981L61.6424 92.7372ZM68.0148 95.6565V102.7H64.4528V95.6565H63.3099V92.7372H64.4528V89.4579H68.0148V92.7372H70.0424V95.6565H68.0148Z" fill="black"/>
</svg>
