<svg width="1041" height="298" viewBox="0 0 1041 298" fill="none" xmlns="http://www.w3.org/2000/svg">
<g clip-path="url(#clip0_2065_239)">
<path d="M26.1167 246.274L0.00195312 205.071L19.1517 153.714L5.98093 120.248L20.4891 117.346L9.4629 104.288L37.9287 65.3543L32.7928 46.0539L74.5719 32.7108L93.7228 1.08293L126.226 15.5862L148.566 0.878906L170.911 15.5571L203.405 1.04892L222.556 32.6768L264.339 46.0312L259.116 65.1752L287.557 104.347L276.531 117.404L291.039 120.306L277.982 153.68L297.132 205.037L271.018 246.24L234.747 279.609L213.273 297.894L208.514 256.4L184.257 256.394L165.107 279.607L132.028 279.636L112.894 256.429H88.6181L83.8594 297.923L62.3873 279.643L26.1167 246.274Z" fill="#57B12D"/>
<path d="M93.7273 115.41L116.65 115.082L113.749 84.322L44.3994 87.5496L74.2829 162.99L117.811 128.463L93.7273 115.41Z" fill="#57B12D"/>
<path d="M0.00195312 205.071L26.1167 246.274L62.3873 279.643L62.6763 275.871L74.2829 162.99L0.00195312 205.071Z" fill="#57B12D"/>
<path d="M93.7228 1.08293L74.5719 32.7108L113.749 84.322L93.7228 1.08293Z" fill="#57B12D"/>
<path d="M93.7273 115.41L117.811 128.467L116.65 115.082L93.7273 115.41Z" fill="#1FA135"/>
<path d="M74.5719 32.7108L32.7928 46.0539L113.749 84.322L74.5719 32.7108Z" fill="#1FA135"/>
<path d="M5.98093 120.248L19.1517 153.714L74.2829 162.99L5.98093 120.248Z" fill="#1FA135"/>
<path d="M62.6763 275.871L93.4326 214.639L74.2829 162.99L62.6763 275.871Z" fill="#1FA135"/>
<path d="M93.4326 214.639L117.808 128.461L74.2829 162.99L93.4326 214.639Z" fill="#B2D17C"/>
<path d="M74.2829 162.99L44.3994 87.5496L37.9287 65.3543L9.4629 104.288L20.4891 117.346L5.98093 120.248L74.2829 162.99Z" fill="#B2D17C"/>
<path d="M32.7928 46.0539L37.9287 65.3543L44.3994 87.5496L113.749 84.322L32.7928 46.0539Z" fill="#42A932"/>
<path d="M19.1517 153.714L0.00195312 205.071L74.2829 162.99L19.1517 153.714Z" fill="#42A932"/>
<path d="M170.911 15.5571L148.566 0.878906L126.226 15.5862L148.566 64.0187L170.911 15.5571Z" fill="#57B12D"/>
<path d="M172.941 234.631L124.192 234.667L112.894 256.429L132.028 279.636L165.107 279.607L184.257 256.394L172.941 234.631Z" fill="#57B12D"/>
<path d="M252.737 87.517L183.384 84.2993L180.482 115.057L203.409 115.376L179.326 128.4L222.846 162.963L252.737 87.517Z" fill="#57B12D"/>
<path d="M222.846 162.963L234.452 275.837L234.747 279.609L271.018 246.24L297.132 205.037L222.846 162.963Z" fill="#57B12D"/>
<path d="M179.326 128.4L148.564 112.762V112.791L117.806 128.46L93.4326 214.639L136.087 176.337L148.564 119.755V119.726L161.041 176.308L203.695 214.61L179.326 128.4Z" fill="#57B12D"/>
<path d="M203.405 1.04892L222.556 32.6768L183.384 84.2993L203.405 1.04892Z" fill="#57B12D"/>
<path d="M203.409 115.376L179.326 128.4L180.482 115.057L203.409 115.376Z" fill="#1FA135"/>
<path d="M172.941 234.631L172.069 233.187L148.566 222.161L125.063 233.216L124.192 234.667L172.941 234.631Z" fill="#1FA135"/>
<path d="M222.556 32.6768L264.339 46.0312L183.384 84.2993L222.556 32.6768Z" fill="#1FA135"/>
<path d="M291.039 120.306L277.982 153.68L222.846 162.963L291.039 120.306Z" fill="#1FA135"/>
<path d="M234.452 275.837L203.695 214.612L222.846 162.963L234.452 275.837Z" fill="#1FA135"/>
<path d="M161.041 176.308L136.087 176.337L148.564 202.133L161.041 176.308Z" fill="#1FA135"/>
<path d="M203.7 214.617L179.326 128.4L222.846 162.963L203.7 214.617Z" fill="#B2D17C"/>
<path d="M170.911 15.5571L148.568 64.0146L148.566 64.0187L126.226 15.5862L93.7228 1.08293L113.749 84.322L148.568 67.4966L183.384 84.2993L203.405 1.04892L170.911 15.5571Z" fill="#B2D17C"/>
<path d="M291.039 120.306L276.531 117.404L287.557 104.347L259.116 65.1752L252.737 87.517L222.846 162.963L291.039 120.306Z" fill="#B2D17C"/>
<path d="M234.747 279.609L234.452 275.837L203.697 214.617L161.041 176.308L148.564 202.133L136.087 176.337L93.4326 214.639L62.6763 275.871L62.3873 279.643L83.8594 297.923L88.6181 256.429H112.894L124.192 234.667L125.063 233.216L148.566 222.161L172.069 233.187L172.941 234.631L184.256 256.4H208.514L213.273 297.894L234.747 279.609Z" fill="#B2D17C"/>
<path d="M161.041 176.308L148.567 119.733V119.762L136.087 176.337L161.041 176.308Z" fill="#42A932"/>
<path d="M148.568 67.4966L113.749 84.322L116.65 115.082L117.806 128.433L148.564 112.764V112.735L179.326 128.4L180.482 115.057L183.384 84.2993L148.568 67.4966Z" fill="#42A932"/>
<path d="M264.339 46.0312L259.116 65.1752L252.737 87.517L183.384 84.2993L264.339 46.0312Z" fill="#42A932"/>
<path d="M277.982 153.68L297.132 205.037L222.846 162.963L277.982 153.68Z" fill="#42A932"/>
</g>
<path d="M442.479 78.4745V194.542H488.867V227.309H403.79V78.4745H442.479Z" fill="#191919"/>
<path d="M581.489 161.972C580.305 156.971 577.87 152.958 574.185 149.931C570.501 146.904 566.027 145.391 560.763 145.391C555.236 145.391 550.696 146.838 547.143 149.734C543.721 152.629 541.55 156.708 540.629 161.972H581.489ZM539.642 182.698C539.642 198.095 546.879 205.793 561.355 205.793C569.119 205.793 574.975 202.635 578.923 196.318H613.467C606.492 219.479 589.056 231.06 561.157 231.06C552.604 231.06 544.774 229.809 537.668 227.309C530.561 224.677 524.442 220.992 519.31 216.255C514.309 211.518 510.427 205.859 507.664 199.279C504.9 192.699 503.519 185.33 503.519 177.171C503.519 168.749 504.834 161.182 507.466 154.471C510.098 147.628 513.849 141.838 518.718 137.1C523.587 132.363 529.443 128.744 536.286 126.244C543.26 123.612 551.09 122.296 559.776 122.296C568.329 122.296 576.028 123.612 582.871 126.244C589.714 128.744 595.504 132.429 600.241 137.298C604.979 142.167 608.598 148.154 611.098 155.261C613.598 162.235 614.849 170.131 614.849 178.948V182.698H539.642Z" fill="#191919"/>
<path d="M670.999 176.184C670.999 179.606 671.591 182.764 672.776 185.659C674.092 188.423 675.737 190.857 677.711 192.963C679.816 195.068 682.251 196.713 685.014 197.897C687.909 199.082 690.936 199.674 694.094 199.674C697.253 199.674 700.214 199.082 702.977 197.897C705.872 196.713 708.307 195.068 710.281 192.963C712.386 190.857 714.031 188.423 715.215 185.659C716.531 182.764 717.189 179.671 717.189 176.382C717.189 173.223 716.531 170.262 715.215 167.499C714.031 164.604 712.386 162.103 710.281 159.998C708.307 157.892 705.872 156.247 702.977 155.063C700.214 153.879 697.253 153.287 694.094 153.287C690.936 153.287 687.909 153.879 685.014 155.063C682.251 156.247 679.816 157.892 677.711 159.998C675.737 162.103 674.092 164.538 672.776 167.302C671.591 170.065 670.999 173.026 670.999 176.184ZM633.297 175.789C633.297 168.288 634.81 161.314 637.837 154.866C640.864 148.286 645.075 142.627 650.47 137.89C655.866 133.021 662.248 129.205 669.618 126.441C677.118 123.678 685.277 122.296 694.094 122.296C702.78 122.296 710.807 123.678 718.176 126.441C725.677 129.073 732.126 132.823 737.521 137.693C743.048 142.43 747.325 148.154 750.352 154.866C753.378 161.446 754.892 168.749 754.892 176.776C754.892 184.804 753.312 192.173 750.154 198.884C747.127 205.464 742.916 211.189 737.521 216.058C732.126 220.795 725.611 224.48 717.979 227.112C710.478 229.744 702.319 231.06 693.502 231.06C684.817 231.06 676.789 229.744 669.42 227.112C662.051 224.48 655.668 220.729 650.273 215.86C645.009 210.991 640.864 205.201 637.837 198.49C634.81 191.647 633.297 184.08 633.297 175.789Z" fill="#191919"/>
<path d="M858.167 176.974C858.167 173.815 857.575 170.855 856.39 168.091C855.206 165.196 853.561 162.696 851.456 160.59C849.35 158.485 846.916 156.84 844.152 155.655C841.389 154.339 838.362 153.681 835.072 153.681C831.914 153.681 828.953 154.274 826.189 155.458C823.426 156.642 820.991 158.287 818.886 160.393C816.912 162.498 815.267 164.999 813.951 167.894C812.766 170.657 812.174 173.618 812.174 176.776C812.174 179.935 812.766 182.896 813.951 185.659C815.135 188.423 816.78 190.857 818.886 192.963C820.991 194.937 823.426 196.582 826.189 197.897C829.084 199.082 832.111 199.674 835.269 199.674C838.428 199.674 841.389 199.082 844.152 197.897C846.916 196.713 849.284 195.068 851.258 192.963C853.364 190.857 855.009 188.423 856.193 185.659C857.509 182.896 858.167 180 858.167 176.974ZM813.161 63.4727V136.113C821.583 127.296 832.111 122.888 844.744 122.888C852.245 122.888 859.088 124.336 865.273 127.231C871.59 129.994 876.919 133.81 881.262 138.679C885.736 143.417 889.224 149.076 891.724 155.655C894.224 162.103 895.474 169.012 895.474 176.382C895.474 183.883 894.158 190.923 891.526 197.503C889.026 204.082 885.473 209.807 880.867 214.676C876.261 219.545 870.8 223.427 864.484 226.322C858.299 229.086 851.587 230.467 844.349 230.467C831.19 230.467 820.794 225.664 813.161 216.058V227.309H777.433V63.4727H813.161Z" fill="#191919"/>
<path d="M953.542 126.046V227.309H917.814V126.046H953.542ZM915.445 87.1598C915.445 84.3963 915.971 81.8302 917.024 79.4615C918.077 76.9612 919.524 74.7899 921.367 72.9475C923.209 71.1052 925.315 69.6576 927.683 68.6049C930.184 67.5521 932.816 67.0257 935.579 67.0257C938.343 67.0257 940.909 67.5521 943.278 68.6049C945.778 69.6576 947.949 71.1052 949.792 72.9475C951.634 74.7899 953.081 76.9612 954.134 79.4615C955.187 81.8302 955.713 84.3963 955.713 87.1598C955.713 89.9234 955.187 92.5553 954.134 95.0556C953.081 97.4243 951.634 99.5298 949.792 101.372C947.949 103.215 945.778 104.662 943.278 105.715C940.909 106.768 938.343 107.294 935.579 107.294C932.816 107.294 930.184 106.768 927.683 105.715C925.315 104.662 923.209 103.215 921.367 101.372C919.524 99.5298 918.077 97.4243 917.024 95.0556C915.971 92.5553 915.445 89.9234 915.445 87.1598Z" fill="#191919"/>
<path d="M1019.8 155.853V227.309H984.076V155.853H972.233V126.046H984.076V95.6478H1019.8V126.046H1040.14V155.853H1019.8Z" fill="#191919"/>
<defs>
<clipPath id="clip0_2065_239">
<rect width="297.128" height="297.041" fill="white" transform="translate(0 0.878906)"/>
</clipPath>
</defs>
</svg>
