<svg width="154" height="44" viewBox="0 0 154 44" fill="none" xmlns="http://www.w3.org/2000/svg">
<g clip-path="url(#clip0_966_532)">
<path d="M28.3253 43.537C19.3372 43.537 10.3457 43.537 1.35754 43.537C0.974115 43.537 0.590687 43.537 0.210713 43.5473C0.0414517 43.5541 0 43.4924 0 43.3312C0.00345431 35.8064 0.00690862 28.2816 0.00690862 20.7567C0.00690862 13.9213 0.00690862 7.08239 0.00345431 0.246941C0 0.037727 0.0621775 0 0.269436 0C1.48881 0.0137189 2.70472 0.0137189 3.92409 0C4.13826 0 4.19008 0.0720243 4.18662 0.264089C4.17971 0.936316 4.17971 1.60854 4.17971 2.2842C4.17971 14.5421 4.18317 26.7999 4.18662 39.0578C4.18662 39.5928 4.18662 39.5894 4.73931 39.5894C17.9244 39.5894 31.1061 39.5894 44.2912 39.5894C48.2187 39.5894 52.1497 39.5894 56.0773 39.5894C56.5286 39.5894 56.7543 39.8066 56.7543 40.241C56.7543 41.2699 56.7578 42.2989 56.7681 43.3278C56.7681 43.4753 56.7198 43.5164 56.5816 43.5164C56.2085 43.5164 55.832 43.5336 55.4589 43.5336C46.4156 43.5336 37.3687 43.5336 28.3253 43.5336V43.537Z" fill="white"/>
<path d="M53.3 14.8477C53.4071 14.8477 53.49 14.8477 53.5729 14.8477C54.7508 14.8477 55.9322 14.8477 57.1101 14.8477C57.4487 14.8477 57.4487 14.8477 57.4487 15.1941C57.4487 17.7526 57.4487 20.3112 57.4487 22.8732C57.4487 26.7248 57.4487 30.573 57.4487 34.4246C57.4487 34.5789 57.4038 34.6475 57.2345 34.6475C55.8528 34.6441 54.471 34.6406 53.0893 34.6475C52.813 34.6475 52.6506 34.5583 52.509 34.3011C51.5591 32.5794 50.5711 30.8782 49.6246 29.1565C48.2222 26.5979 46.7852 24.0565 45.5866 21.395C45.4104 21.0006 45.2239 20.6096 45.0408 20.2152C45.0166 20.1637 44.9751 20.1191 44.8992 20.0128C44.8819 20.1843 44.8577 20.2906 44.8646 20.3901C45.0857 23.4631 45.0615 26.5396 45.0546 29.6161C45.0511 31.1629 45.0546 32.7097 45.0581 34.2565C45.0581 34.5995 45.0546 34.5926 44.7126 34.5926C43.5554 34.5926 42.4017 34.5995 41.2445 34.5995C40.9267 34.5995 40.9336 34.5995 40.9336 34.2736C40.9336 32.4936 40.9336 30.717 40.9336 28.937C40.9336 26.7797 40.9371 24.6224 40.9371 22.4651C40.9371 20.1054 40.9371 17.7492 40.9371 15.3896C40.9371 15.2455 40.9371 15.098 40.9371 14.9231C41.0925 14.9231 41.2134 14.9231 41.3343 14.9231C42.8507 14.9231 44.3637 14.93 45.8802 14.9231C46.1565 14.9231 46.3051 15.0191 46.4432 15.2627C47.3586 16.8883 48.2913 18.5037 49.2274 20.1157C50.5884 22.4685 51.8734 24.8625 52.965 27.3525C53.1411 27.7572 53.3 28.1687 53.4727 28.5734C53.5177 28.6832 53.5867 28.7792 53.6904 28.8753C53.2102 24.2177 53.3 19.5532 53.3 14.8511V14.8477Z" fill="white"/>
<path d="M74.5378 19.0079C74.486 19.0799 74.4031 19.1451 74.3858 19.2274C74.2511 19.7899 74.1682 20.3695 73.9989 20.9217C73.3633 23.0001 72.7105 25.0716 72.0472 27.1398C71.6293 28.4431 71.1802 29.7361 70.7381 31.0325C70.3892 32.058 70.0299 33.0801 69.6776 34.1021C69.6603 34.1536 69.643 34.205 69.6258 34.2565C69.4876 34.7229 69.4876 34.7161 69.0074 34.7161C68.1784 34.7161 67.3528 34.716 66.5238 34.7332C66.3373 34.7366 66.244 34.692 66.1887 34.5068C65.712 32.9086 65.2353 31.3103 64.7448 29.7121C64.0954 27.5925 63.4322 25.4764 62.7862 23.3534C62.1679 21.3367 61.5634 19.3131 60.952 17.293C60.762 16.6722 60.5651 16.0549 60.3751 15.4341C60.3544 15.3621 60.3406 15.2901 60.3164 15.1975C60.4028 15.1872 60.4615 15.1734 60.5202 15.1734C61.5496 15.1734 62.5824 15.1734 63.6118 15.1666C63.8087 15.1666 63.8916 15.2249 63.9434 15.4238C64.4305 17.2999 64.9417 19.1725 65.4322 21.0486C66.0436 23.3808 66.6516 25.713 67.2388 28.0521C67.4772 29.0021 67.6534 29.9693 67.8641 30.9262C67.8952 31.0668 67.9539 31.1971 67.9988 31.3343C68.023 31.3343 68.0471 31.3343 68.0713 31.3378C68.1093 31.252 68.1646 31.1731 68.1819 31.084C68.5273 29.3588 69.0558 27.6851 69.5843 26.0148C70.1957 24.0839 70.8313 22.1598 71.4531 20.2323C71.9643 18.6443 72.4756 17.0529 72.9834 15.465C73.0421 15.2763 73.1284 15.1597 73.3564 15.1632C74.1993 15.1734 75.0421 15.1734 75.885 15.17C76.0404 15.17 76.0957 15.2283 76.1406 15.3689C76.6898 17.149 77.246 18.9256 77.7987 20.7056C78.3099 22.3519 78.828 23.9947 79.3255 25.6444C79.74 27.0197 80.1303 28.4053 80.5138 29.791C80.6208 30.1682 80.6692 30.5626 80.7486 30.9502C80.7763 31.0874 80.8246 31.2212 80.8661 31.3583C80.8972 31.3583 80.9283 31.3618 80.9594 31.3652C81.0043 31.2349 81.0664 31.108 81.0941 30.9776C81.2806 30.0482 81.4326 29.1084 81.6537 28.1858C81.9231 27.054 82.2409 25.9291 82.5518 24.8076C82.7901 23.9433 83.0458 23.0858 83.2979 22.2284C83.7988 20.5238 84.2997 18.8193 84.8006 17.1147C84.9698 16.5351 85.1425 15.9589 85.3083 15.3792C85.3498 15.2318 85.4292 15.1666 85.5916 15.17C86.6313 15.1769 87.6676 15.1769 88.7074 15.1803C88.7454 15.1803 88.7834 15.1906 88.8386 15.1975C88.8317 15.2558 88.8386 15.3106 88.8214 15.3552C87.6434 18.953 86.4621 22.5474 85.2876 26.1452C84.4309 28.7655 83.5846 31.3926 82.7349 34.013C82.6761 34.1947 82.6312 34.3868 82.5449 34.5583C82.5069 34.6337 82.386 34.7161 82.2996 34.7161C81.3704 34.7298 80.4412 34.7229 79.512 34.7332C79.3427 34.7332 79.2564 34.668 79.2046 34.5137C78.7417 33.0698 78.2754 31.6293 77.8125 30.1854C77.246 28.4294 76.6518 26.6768 76.1164 24.9105C75.6294 23.2985 75.1976 21.6694 74.7554 20.0437C74.6691 19.7213 74.6414 19.3783 74.5896 19.0456C74.5689 19.0353 74.5482 19.0216 74.5309 19.0113L74.5378 19.0079Z" fill="white"/>
<path d="M150.288 17.7459V6.11914H153.867V6.78451C153.867 14.3471 153.86 21.9096 153.874 29.4722C153.874 31.1184 153.953 32.7647 153.995 34.411C154.002 34.7265 154.005 34.7162 153.687 34.7162C152.813 34.7162 151.939 34.7162 151.066 34.7334C150.851 34.7368 150.775 34.6751 150.768 34.4659C150.744 33.5158 150.706 32.5658 150.672 31.6157C150.668 31.5197 150.651 31.4271 150.63 31.2591C150.53 31.3962 150.464 31.4683 150.413 31.5506C149.608 32.9122 148.471 33.8999 147.007 34.5104C145.566 35.1106 144.064 35.2718 142.53 35.0009C139.915 34.5379 138.039 33.07 136.792 30.772C136.039 29.383 135.628 27.8911 135.535 26.3237C135.459 25.089 135.456 23.8543 135.68 22.6264C135.918 21.3128 136.354 20.0644 137.055 18.9292C137.918 17.5401 139.038 16.398 140.537 15.6538C141.691 15.081 142.917 14.7964 144.198 14.7792C145.78 14.7586 147.259 15.1359 148.568 16.0482C149.117 16.4323 149.601 16.8954 149.977 17.4578C150.05 17.5676 150.14 17.667 150.223 17.7734C150.243 17.7665 150.268 17.7562 150.288 17.7494V17.7459ZM139.072 25.7475C139.072 26.3991 139.197 27.38 139.549 28.3266C139.846 29.1223 140.226 29.8597 140.799 30.5045C141.532 31.3277 142.399 31.9244 143.487 32.1268C144.399 32.2983 145.318 32.3051 146.236 32.0685C146.924 31.8936 147.542 31.6089 148.091 31.1836C149.442 30.1375 150.105 28.7211 150.188 27.0542C150.247 25.9121 150.199 24.7666 150.205 23.621C150.205 23.2404 150.271 22.8562 150.247 22.4755C150.178 21.4569 149.898 20.5069 149.276 19.6666C147.908 17.8214 145.932 17.1663 143.742 17.6087C141.887 17.9826 140.682 19.1898 139.881 20.8327C139.176 22.2766 139.003 23.8131 139.072 25.7475Z" fill="white"/>
<path d="M37.9577 24.6594C37.9543 26.6349 37.5881 28.5349 36.6382 30.291C35.5121 32.3762 33.7987 33.7996 31.5327 34.5335C29.8815 35.0686 28.1855 35.1955 26.4687 34.9074C24.555 34.585 22.8624 33.8064 21.5221 32.39C20.3718 31.1724 19.5946 29.7388 19.1697 28.1234C18.7725 26.6177 18.7034 25.0812 18.8692 23.5447C18.9521 22.7833 19.1525 22.0288 19.3563 21.2879C19.7846 19.7308 20.6205 18.3898 21.7536 17.2408C22.4928 16.4897 23.3425 15.8827 24.3201 15.454C24.8763 15.2104 25.4428 15.0218 26.0335 14.8743C27.505 14.5074 28.9834 14.4765 30.4653 14.744C32.6795 15.1453 34.5 16.2154 35.8817 17.9885C36.8351 19.2129 37.4223 20.602 37.709 22.1076C37.8679 22.9479 37.9232 23.8054 38.0234 24.6559L37.9577 24.6628V24.6594ZM33.2668 24.5256C33.2495 24.2341 33.2495 23.9357 33.208 23.6476C33.101 22.8896 32.949 22.1454 32.6761 21.4217C32.2028 20.1595 31.4256 19.1615 30.189 18.5682C29.3876 18.1806 28.524 18.1291 27.6501 18.2492C26.8279 18.3589 26.1094 18.6985 25.5084 19.261C24.5999 20.1115 24.099 21.1953 23.8089 22.3786C23.5533 23.4212 23.5014 24.481 23.5636 25.5545C23.6362 26.8372 23.8952 28.0616 24.5516 29.1866C25.3322 30.5208 26.448 31.3645 28.0335 31.4948C28.7036 31.5497 29.3772 31.5325 30.0059 31.2582C30.8004 30.9117 31.4671 30.4007 31.9541 29.6839C33.0112 28.1234 33.2737 26.3605 33.2668 24.5325V24.5256Z" fill="white"/>
<path d="M132.276 24.855C132.248 26.0451 132.127 27.2215 131.785 28.3636C131.042 30.8467 129.578 32.7742 127.25 34.0089C125.446 34.9658 123.512 35.3568 121.484 35.1408C118.365 34.8081 115.964 33.3196 114.369 30.6101C113.591 29.2896 113.173 27.8697 113.08 26.3435C113.011 25.222 113.011 24.1005 113.156 22.9892C113.277 22.0838 113.567 21.2195 113.937 20.3792C114.32 19.508 114.828 18.7158 115.446 17.9955C116.265 17.0421 117.246 16.2841 118.386 15.7491C119.066 15.4301 119.771 15.1934 120.517 15.0322C121.685 14.7784 122.849 14.7201 124.023 14.8539C124.548 14.9122 125.08 14.9911 125.585 15.142C126.88 15.5261 128.065 16.1298 129.08 17.0386C129.941 17.8103 130.635 18.7021 131.143 19.7378C131.668 20.8045 131.989 21.9294 132.137 23.099C132.21 23.682 132.231 24.2685 132.272 24.855H132.276ZM116.583 24.9785C116.666 25.661 116.711 26.3469 116.842 27.0192C117.111 28.4219 117.698 29.6841 118.659 30.7713C119.581 31.8105 120.756 32.3592 122.113 32.5376C122.78 32.6233 123.453 32.5719 124.099 32.3558C124.417 32.2495 124.745 32.1603 125.039 32.006C126.749 31.1143 127.716 29.6292 128.265 27.8663C128.635 26.6762 128.752 25.4312 128.649 24.1759C128.504 22.3581 127.999 20.6742 126.769 19.2611C126.141 18.5374 125.381 18.0024 124.472 17.6766C123.74 17.4125 122.97 17.409 122.203 17.4468C120.365 17.5359 118.99 18.4551 118.009 19.9265C117.001 21.4458 116.641 23.171 116.579 24.9819L116.583 24.9785Z" fill="white"/>
<path d="M109.905 24.9853C109.946 26.7619 109.573 28.5282 108.73 30.1779C107.711 32.174 106.133 33.5836 104.032 34.4274C102.485 35.0516 100.879 35.3088 99.224 35.1476C96.7783 34.9075 94.6885 33.9335 93.0822 32.0574C91.9872 30.7781 91.2756 29.3102 90.9682 27.6502C90.8024 26.7585 90.6607 25.8668 90.6918 24.9579C90.754 23.1744 91.0338 21.4287 91.8801 19.827C92.5917 18.4825 93.5623 17.337 94.8335 16.4659C95.59 15.9445 96.3983 15.533 97.2895 15.262C98.7265 14.823 100.184 14.6755 101.673 14.847C102.55 14.9465 103.407 15.1386 104.226 15.4815C106.029 16.2361 107.452 17.4125 108.447 19.0999C109.507 20.9005 109.943 22.8486 109.905 24.9887V24.9853ZM100.018 17.4262C99.1065 17.3919 97.9908 17.7143 96.9994 18.4448C96.2187 19.021 95.6487 19.7653 95.2273 20.6261C94.7126 21.6722 94.4259 22.78 94.3292 23.9358C94.2428 24.951 94.2774 25.9559 94.4777 26.9574C94.7852 28.4939 95.3897 29.8761 96.5261 31.0148C97.3828 31.8688 98.4018 32.3661 99.5867 32.5204C100.219 32.6027 100.847 32.5753 101.487 32.421C102.274 32.2323 102.968 31.8894 103.576 31.392C104.709 30.466 105.456 29.2759 105.87 27.8869C106.226 26.6933 106.336 25.4723 106.26 24.2239C106.181 22.8829 105.867 21.6139 105.203 20.4409C104.139 18.5614 102.599 17.4193 100.018 17.4262Z" fill="white"/>
<path d="M14.938 14.8683C14.938 15.4857 14.938 16.103 14.938 16.7204C14.938 22.4343 14.9345 28.1482 14.931 33.8622C14.931 34.0714 14.9172 34.2806 14.9414 34.4864C14.969 34.7024 14.8827 34.7505 14.6858 34.7505C13.836 34.747 12.9828 34.7504 12.1331 34.7573C11.7738 34.7573 11.4146 34.7573 11.0553 34.7779C10.8273 34.7916 10.7513 34.723 10.7582 34.4932C10.7721 33.845 10.7721 33.1934 10.7721 32.5451C10.7721 27.0095 10.7721 21.4705 10.7721 15.935C10.7721 15.6263 10.779 15.3176 10.7721 15.0055C10.7721 14.8786 10.8101 14.8271 10.9482 14.8271C12.254 14.8374 13.5562 14.8409 14.862 14.8443C14.8827 14.8443 14.9069 14.8546 14.9345 14.8614L14.938 14.8683Z" fill="white"/>
<path d="M12.1366 10.6318C11.4492 9.97674 10.786 9.33538 10.1055 8.68716C10.4854 8.29274 10.8551 7.90518 11.2247 7.52105C11.7635 6.96201 12.3024 6.40296 12.8413 5.84392C12.8896 5.79247 12.938 5.74445 12.9933 5.69644C13.2385 5.48379 13.2282 5.49065 12.9933 5.25743C12.1504 4.43087 11.3145 3.59744 10.4751 2.76745C10.3784 2.67142 10.2816 2.57195 10.178 2.46563C10.596 2.04721 11.014 1.62878 11.4285 1.21378C11.6426 0.997708 11.8603 0.788495 12.0606 0.562133C12.1781 0.431803 12.2575 0.448952 12.3646 0.562133C13.3871 1.60477 14.4095 2.64741 15.432 3.68662C16.0331 4.30054 16.6376 4.91446 17.2317 5.52495C15.5391 7.22267 13.8499 8.91695 12.1435 10.6318H12.1366Z" fill="white"/>
<path d="M93.7308 42.6114C93.793 42.3987 93.862 42.1895 93.9139 41.9734C94.0589 41.3595 94.1971 40.7422 94.3422 40.1248C94.4838 39.5143 94.6358 38.9073 94.774 38.2968C94.8051 38.1596 94.8569 38.091 95.002 38.091C95.2818 38.091 95.565 38.0841 95.8448 38.1013C95.9104 38.1047 96.0141 38.187 96.0279 38.2488C96.3526 39.5383 96.6704 40.8279 96.9813 42.1175C97.0227 42.2958 97.0331 42.481 97.1091 42.6731C97.1678 42.457 97.2334 42.2444 97.2818 42.0249C97.5616 40.773 97.8379 39.5212 98.1108 38.2693C98.1419 38.1287 98.1937 38.0635 98.3561 38.0704C98.6808 38.0876 99.009 38.0738 99.3751 38.0738C99.2853 38.458 99.2162 38.7872 99.1368 39.113C98.7741 40.5844 98.4079 42.0523 98.0452 43.5237C97.9485 43.925 97.9554 43.9284 97.5443 43.925C97.2473 43.925 96.9502 43.9318 96.6531 43.9112C96.5806 43.9078 96.4666 43.8221 96.4493 43.7535C96.1833 42.7623 95.9277 41.7677 95.679 40.7696C95.5823 40.3855 95.5063 39.9979 95.4199 39.6104C95.3958 39.6104 95.3716 39.6104 95.3474 39.6104C95.2645 39.9911 95.1747 40.3683 95.0952 40.749C94.8811 41.7368 94.6704 42.728 94.4596 43.7157C94.4286 43.8632 94.3526 43.925 94.2006 43.925C93.8482 43.925 93.4993 43.925 93.147 43.9284C92.995 43.9284 92.9294 43.8632 92.8948 43.7192C92.6185 42.5874 92.3421 41.4521 92.0554 40.3203C91.8862 39.6481 91.7066 38.9759 91.5235 38.3036C91.4751 38.1219 91.4855 38.0464 91.71 38.0738C91.9484 38.1013 92.1936 38.0978 92.4354 38.0841C92.6116 38.0738 92.6979 38.1527 92.7325 38.3071C92.7808 38.5094 92.8223 38.7152 92.8707 38.9176C93.109 39.9396 93.3508 40.9617 93.5822 41.9872C93.6272 42.1861 93.6341 42.3919 93.6617 42.5942C93.6859 42.5942 93.7101 42.6011 93.7342 42.6011L93.7308 42.6114Z" fill="white"/>
<path d="M74.2765 40.9718C74.3145 41.5446 74.2282 42.0968 73.9657 42.6147C73.6271 43.2835 73.1055 43.7225 72.3663 43.8939C71.7065 44.0483 71.0502 44.0346 70.4043 43.8254C69.4129 43.503 68.9258 42.7587 68.7358 41.795C68.5769 40.989 68.6529 40.1898 68.9914 39.4319C69.3818 38.5607 70.0934 38.108 71.0295 38.0154C71.7549 37.9434 72.463 38.036 73.0952 38.4475C73.8517 38.938 74.1971 39.6582 74.2696 40.5294C74.2834 40.6769 74.2696 40.8243 74.2696 40.9684L74.2765 40.9718ZM73.0157 41.1502C72.9846 40.7763 72.9777 40.4882 72.9294 40.2104C72.8395 39.7131 72.5977 39.2947 72.0865 39.1301C71.8274 39.0477 71.5373 39.0443 71.2575 39.0477C70.6979 39.0546 70.3352 39.3324 70.1832 39.8709C70.007 40.5054 69.9517 41.1502 70.1003 41.7984C70.1901 42.1825 70.2868 42.5735 70.653 42.8102C71.4129 43.3006 72.5425 42.9371 72.8326 42.0899C72.9432 41.7675 72.9639 41.4143 73.0088 41.1536L73.0157 41.1502Z" fill="white"/>
<path d="M111.988 41.5578C111.988 42.1649 111.988 42.7342 111.988 43.3036C111.988 43.451 111.985 43.5985 111.985 43.7426C111.985 43.8763 111.926 43.9381 111.784 43.9346C111.519 43.9278 111.253 43.9209 110.99 43.9278C110.848 43.9278 110.8 43.8798 110.803 43.7391C110.807 42.1546 110.807 40.5701 110.807 38.9855C110.807 38.7454 110.793 38.5054 110.807 38.2653C110.81 38.2001 110.893 38.0801 110.938 38.0801C111.726 38.0904 112.513 38.1041 113.301 38.1452C113.512 38.1555 113.726 38.2378 113.93 38.3099C115.066 38.7214 115.094 40.4706 114.223 40.9611C114.123 41.0194 114.033 41.1017 113.93 41.1531C113.75 41.2389 113.764 41.3383 113.864 41.4824C114.382 42.2369 114.89 42.9949 115.432 43.794C114.987 43.794 114.579 43.7974 114.171 43.7906C114.127 43.7906 114.068 43.7288 114.037 43.6808C113.657 43.0669 113.273 42.4598 112.914 41.8356C112.793 41.623 112.648 41.5338 112.41 41.5613C112.289 41.575 112.161 41.5613 111.992 41.5613L111.988 41.5578ZM111.964 39.8635C111.964 39.8635 111.985 39.8635 111.992 39.8635C111.981 40.0796 111.974 40.2957 111.957 40.5118C111.947 40.6421 112.002 40.7038 112.133 40.6901C112.465 40.6489 112.797 40.6249 113.125 40.5563C113.418 40.4946 113.598 40.2991 113.622 39.9904C113.65 39.6543 113.581 39.3662 113.246 39.1879C112.876 38.989 112.475 39.0198 112.082 39.0335C112.04 39.0335 111.971 39.1502 111.968 39.2187C111.954 39.4348 111.961 39.6509 111.961 39.867L111.964 39.8635Z" fill="white"/>
<path d="M107.473 43.9247C107.062 43.9247 106.696 43.9316 106.333 43.9179C106.271 43.9179 106.188 43.815 106.164 43.743C106.046 43.4 105.953 43.0501 105.836 42.7072C105.815 42.6489 105.725 42.5803 105.663 42.5803C105.048 42.5734 104.43 42.5837 103.815 42.5837C103.663 42.5837 103.608 42.6386 103.573 42.7895C103.497 43.129 103.393 43.4583 103.29 43.791C103.273 43.8424 103.203 43.911 103.155 43.9144C102.751 43.9247 102.347 43.9213 101.922 43.9213C101.939 43.8493 101.95 43.791 101.967 43.7361C102.481 42.2956 103 40.8551 103.511 39.4146C103.649 39.0202 103.77 38.6224 103.912 38.2279C103.936 38.1628 104.032 38.0839 104.098 38.0839C104.471 38.077 104.848 38.0908 105.221 38.0976C105.404 38.0976 105.501 38.1696 105.563 38.3651C105.908 39.4146 106.278 40.4538 106.644 41.4965C106.9 42.227 107.159 42.9541 107.414 43.6812C107.438 43.7498 107.452 43.8253 107.476 43.9247H107.473ZM103.943 41.4622C104.043 41.4725 104.146 41.4931 104.254 41.4931C104.564 41.4931 104.879 41.4931 105.19 41.4896C105.438 41.4873 105.52 41.3707 105.435 41.1398C105.418 41.0952 105.407 41.0506 105.393 41.006C105.214 40.4401 105.041 39.8708 104.855 39.3083C104.823 39.2157 104.748 39.1368 104.668 39.0168C104.416 39.8674 104.184 40.6459 103.943 41.4656V41.4622Z" fill="white"/>
<path d="M119.974 42.9337C120.257 42.9337 120.526 42.9337 120.799 42.9337C121.158 42.9337 121.518 42.9406 121.877 42.9269C122.053 42.92 122.119 42.9886 122.112 43.1532C122.105 43.3556 122.105 43.5545 122.105 43.7569C122.105 43.8769 122.06 43.9421 121.922 43.9386C120.924 43.9352 119.922 43.9318 118.923 43.9386C118.737 43.9386 118.727 43.8426 118.727 43.7054C118.727 42.3678 118.73 41.0302 118.733 39.6926C118.733 39.2365 118.733 38.7803 118.727 38.3242C118.727 38.1527 118.771 38.0807 118.965 38.0841C119.932 38.0978 120.903 38.0978 121.87 38.091C122.043 38.091 122.108 38.1355 122.101 38.3105C122.091 38.4888 122.095 38.6672 122.112 38.8421C122.129 39.0136 122.077 39.0787 121.898 39.0753C121.366 39.0684 120.837 39.0753 120.305 39.0856C119.984 39.089 119.987 39.0959 119.987 39.4011C119.987 39.6652 119.991 39.9293 119.97 40.19C119.956 40.3614 120.012 40.406 120.174 40.406C120.696 40.3992 121.221 40.4129 121.742 40.4026C121.936 40.3992 122.008 40.4643 121.994 40.6564C121.981 40.8416 121.984 41.0268 121.994 41.212C122.005 41.3732 121.946 41.4315 121.784 41.4281C121.262 41.4212 120.737 41.4315 120.215 41.4247C120.036 41.4247 119.967 41.4624 119.977 41.6579C119.994 42.0729 119.984 42.4913 119.984 42.9406L119.974 42.9337Z" fill="white"/>
<path d="M65.5973 38.3237C65.4626 38.6324 65.3521 38.8691 65.2519 39.1126C65.2035 39.2326 65.1414 39.2532 65.017 39.2086C64.7545 39.116 64.4885 39.0028 64.2156 38.9719C63.9462 38.9411 63.6595 38.9822 63.39 39.0337C63.1724 39.0783 63.0688 39.2669 63.0411 39.483C63.0135 39.6956 63.1309 39.8431 63.3002 39.9391C63.542 40.0797 63.8045 40.1861 64.0429 40.3335C64.4332 40.5736 64.8236 40.8103 65.1828 41.0915C65.321 41.1978 65.435 41.4139 65.4419 41.5854C65.4626 41.9832 65.4522 42.3914 65.3797 42.7824C65.2933 43.2488 64.9479 43.5403 64.5265 43.7358C63.7527 44.0925 62.9617 44.0308 62.1706 43.8044C61.6801 43.6638 61.6836 43.657 61.6836 43.1562C61.6836 43.0156 61.6836 42.8784 61.6836 42.7378C61.6836 42.5766 61.7354 42.5491 61.8978 42.5972C62.3745 42.7378 62.8546 42.8613 63.3382 42.9744C63.4626 43.0053 63.6007 42.9813 63.732 42.9744C63.9738 42.9573 64.1741 42.8784 64.2536 42.6246C64.34 42.3537 64.2778 42.0999 64.0222 41.9284C63.6767 41.6917 63.3071 41.4928 62.9444 41.2767C62.7855 41.1807 62.6266 41.0847 62.4608 40.9921C61.6732 40.5496 61.5627 39.044 62.3468 38.4643C62.8166 38.1145 63.3486 37.8607 63.9531 37.9465C64.4954 38.0253 65.0239 38.1865 65.5939 38.3203L65.5973 38.3237Z" fill="white"/>
<path d="M79.665 38.0868C80.1555 38.0868 80.6495 38.0936 81.14 38.0833C81.323 38.0799 81.3714 38.1451 81.3645 38.3097C81.3541 38.5018 81.3576 38.6973 81.3645 38.8893C81.3645 39.0231 81.3196 39.0848 81.1745 39.0814C80.6115 39.0745 80.0519 39.0814 79.4888 39.0711C79.2815 39.0677 79.1952 39.1122 79.2056 39.3386C79.2228 39.6782 79.209 40.0177 79.1952 40.3572C79.1848 40.539 79.2436 40.6076 79.4301 40.6042C79.9448 40.5973 80.4595 40.611 80.9742 40.5973C81.1641 40.5939 81.2263 40.6556 81.216 40.834C81.2056 41.0192 81.2056 41.2044 81.216 41.3896C81.2263 41.5611 81.1641 41.6194 80.988 41.6159C80.4664 41.6057 79.9413 41.6159 79.4197 41.6057C79.2436 41.6022 79.1952 41.6571 79.1986 41.832C79.2125 42.4562 79.1986 43.0839 79.2125 43.7115C79.2125 43.8864 79.1503 43.9447 78.981 43.9413C78.715 43.9379 78.4491 43.9413 78.1865 43.9516C78.0414 43.9585 78 43.9001 78 43.763C78 41.9383 78 40.1137 78 38.2891C78 38.1108 78.0449 38.0593 78.2418 38.0696C78.715 38.0936 79.1952 38.0765 79.6684 38.0765C79.6684 38.0799 79.6684 38.0833 79.6684 38.0868H79.665Z" fill="white"/>
<path d="M87.2939 39.0786V43.9282H86.0089V39.0992C85.843 39.0923 85.7049 39.082 85.5667 39.0786C85.2385 39.0752 84.9104 39.0717 84.5822 39.0752C84.4441 39.0752 84.3853 39.0306 84.3957 38.8831C84.4095 38.6739 84.4026 38.4647 84.4026 38.2589C84.4026 38.1526 84.4233 38.084 84.558 38.084C85.9639 38.0908 87.3698 38.0943 88.7723 38.0977C88.793 38.0977 88.8172 38.108 88.8828 38.1286C88.8828 38.4029 88.8897 38.6842 88.8725 38.9689C88.8725 39.01 88.7516 39.0752 88.6859 39.0752C88.2334 39.0855 87.7809 39.0786 87.2904 39.0786H87.2939Z" fill="white"/>
</g>
<defs>
<clipPath id="clip0_966_532">
<rect width="154" height="44" fill="white"/>
</clipPath>
</defs>
</svg>
