<svg width="218" height="89" viewBox="0 0 218 89" fill="none" xmlns="http://www.w3.org/2000/svg">
<path d="M10.9712 16.6218C10.9328 15.4693 10.9136 14.3163 10.9136 13.1627C10.9125 12.699 10.8881 12.6421 10.8404 12.9919C10.8341 13.0351 10.817 13.0417 10.789 13.0117C10.7142 12.9314 10.6291 12.8787 10.5336 12.8536C10.3748 12.8128 10.2897 12.7901 10.2782 12.7853C9.42285 12.4283 8.56279 12.0881 7.69805 11.7646C7.60774 11.7311 7.53507 11.7263 7.48005 11.7503C7.40323 11.7838 7.34718 11.8503 7.31188 11.9497C7.08454 10.7482 7.10167 9.5502 7.36327 8.35583L7.9472 6.58404C7.9541 6.56289 7.95618 6.54073 7.95301 6.52182C7.94985 6.50292 7.94168 6.48859 7.93007 6.48161C7.91242 6.47083 7.89218 6.46664 7.86934 6.46904C8.82854 5.08539 9.82459 3.76943 10.8575 2.52115C10.9374 2.42531 10.9774 2.44388 10.9774 2.57685L10.9712 16.6218Z" fill="#0086DA"/>
<path d="M65.1993 6.28883C65.137 6.27805 65.1204 6.30201 65.1495 6.36071C65.7972 7.68685 66.1035 9.11542 66.0682 10.6464L66.0292 11.0957C66.0614 10.9112 66.036 10.7632 65.9529 10.6518C65.9382 10.6325 65.9186 10.6165 65.8953 10.6047C65.8721 10.593 65.8456 10.5858 65.8175 10.5835C65.5372 10.5656 65.259 10.5805 64.9828 10.6284C64.5448 10.7051 64.2697 10.7482 64.1575 10.7578C63.462 10.8165 63.0167 10.8806 62.8215 10.9501C62.6357 11.016 62.4587 11.0052 62.2905 10.9178C62.2532 10.8986 62.2386 10.9124 62.2469 10.9591C62.2635 11.0597 62.2526 11.1502 62.2142 11.2304L62.208 2.55837C62.208 2.43618 62.2443 2.41941 62.317 2.50806C63.3094 3.71321 64.2702 4.97347 65.1993 6.28883Z" fill="#0086DA"/>
<path d="M65.1991 6.28962C65.9559 7.45763 66.5258 8.55437 66.9088 9.57982C68.7442 14.4975 68.835 19.4319 67.1813 24.3831C66.6488 25.9775 66.2626 27.2114 66.0228 28.0848C65.9803 28.1447 65.9372 28.204 65.8936 28.2627C65.85 28.3202 65.8157 28.3842 65.7908 28.4549C65.5302 29.1821 65.2422 29.8949 64.9266 30.5933L64.1869 32.0308C63.8849 32.1015 63.6233 32.2369 63.4022 32.437C63.3648 32.4705 63.3243 32.4969 63.2807 32.516C62.6381 32.7987 62.13 32.9988 61.7562 33.1162C61.667 33.1449 61.5694 33.2013 61.4635 33.2851C61.3701 33.3594 61.2694 33.4163 61.1614 33.4558C60.8583 33.5672 60.7041 33.6241 60.6989 33.6265C60.4384 33.7607 60.1789 33.8967 59.9204 34.0344C59.6567 34.1746 59.3904 34.2926 59.1216 34.3884C57.9599 34.8041 57.253 35.0851 57.0007 35.2312C56.6322 35.4456 56.3203 35.602 56.0649 35.7002C55.7908 35.8044 55.5635 35.9087 55.3829 36.0129C55.1618 36.1411 54.9323 36.2465 54.6946 36.3291C54.5669 36.3735 54.4309 36.4525 54.2866 36.5663C54.1548 36.6706 54.0136 36.7496 53.8631 36.8035C53.4655 36.9485 53.2485 37.0293 53.2122 37.0461C52.8229 37.2378 52.4217 37.3929 52.0085 37.5115C51.9182 37.5379 51.7324 37.6715 51.4511 37.9122C51.2705 38.0656 51.081 38.183 50.8827 38.2644C50.0149 38.6214 49.1574 39.009 48.3103 39.4271C47.8681 39.6463 47.417 39.835 46.9572 39.9931C46.6104 40.1129 46.3867 40.2141 46.286 40.2968C46.04 40.4968 45.7701 40.6304 45.4763 40.6975C45.4255 40.7083 45.3798 40.7322 45.3393 40.7694C45.0528 41.0293 44.7346 41.2162 44.3848 41.33L44.7741 39.6679C45.3824 37.2719 45.9938 34.8772 46.6084 32.4837C46.6572 32.2932 46.6644 32.0973 46.6302 31.8961L46.7859 31.5367C46.8357 31.5762 46.8866 31.5577 46.9385 31.481C49.9116 27.0617 53.7883 24.3028 58.5688 23.2043C59.256 23.0461 59.6048 22.9659 59.6152 22.9635C60.5713 22.7311 61.1531 22.5975 61.3607 22.5627C62.8431 22.3184 64.0645 21.5415 65.0247 20.2321C66.1303 18.7239 66.7728 16.9814 66.9524 15.0048C67.0843 13.5433 66.9991 12.1039 66.6971 10.6867C66.6763 10.5921 66.6566 10.4669 66.6379 10.3112C66.5798 9.84278 66.4567 9.78587 66.2688 10.1405C66.2616 10.1525 66.219 10.2129 66.1412 10.322C66.0799 10.4046 66.0555 10.513 66.068 10.6472C66.1033 9.11621 65.797 7.68764 65.1493 6.3615C65.1202 6.3028 65.1368 6.27884 65.1991 6.28962Z" fill="#009EFC"/>
<path d="M7.86981 6.4694C7.89264 6.46701 7.91289 6.4712 7.93053 6.48198C7.94215 6.48896 7.95032 6.50328 7.95348 6.52219C7.95664 6.5411 7.95457 6.56326 7.94766 6.58441L7.36373 8.3562C7.33674 8.33224 7.30716 8.32205 7.27498 8.32565C7.25534 8.32842 7.23533 8.34064 7.21718 8.36095C7.19904 8.38125 7.18347 8.40885 7.17221 8.44065C6.63343 9.95488 6.31889 11.4841 6.22858 13.0283C6.06871 15.7764 6.75333 18.2058 8.28245 20.3167C8.78696 21.0139 9.40411 21.5619 10.1339 21.9609C10.573 22.2005 11.308 22.4383 12.3388 22.6743C13.9063 23.0312 14.9029 23.2636 15.3285 23.3715C19.7072 24.482 23.3338 27.1403 26.2083 31.3463C26.2913 31.4673 26.364 31.5458 26.4263 31.5817L26.6334 32.1657L26.6599 32.6149L26.5166 32.6599C26.4949 32.6669 26.4722 32.6669 26.4512 32.6599C26.4301 32.6529 26.4118 32.6391 26.3983 32.6203C26.3121 32.5041 26.1709 32.4089 25.9747 32.3346C19.5603 29.9147 13.0499 27.4559 6.44346 24.9582C6.41933 24.9489 6.39772 24.9325 6.38079 24.9108C6.36386 24.889 6.35219 24.8626 6.34692 24.8342C6.32512 24.7192 6.25764 24.6922 6.14449 24.7533C5.26626 22.3238 4.82715 19.853 4.82715 17.3409C4.82819 13.3649 5.84241 9.74104 7.86981 6.4694Z" fill="#00A6FC"/>
<path d="M7.36391 8.35547C7.10231 9.54984 7.08518 10.7478 7.31252 11.9494C7.68312 14.1584 8.7233 15.8356 10.433 16.9808C10.6375 17.1174 10.8171 17.1922 10.9718 17.2054C13.5567 18.4789 15.5021 19.3959 16.808 19.9565C19.1634 20.97 21.1488 22.4974 22.7641 24.5388C23.0547 24.9065 23.2655 25.1449 23.3963 25.2539C23.4274 25.4121 23.4871 25.5492 23.5753 25.6654C23.7175 25.8523 23.7907 25.9488 23.7949 25.9547C24.861 27.711 25.7382 29.5864 26.4265 31.581C26.3642 31.545 26.2915 31.4666 26.2085 31.3456C23.334 27.1395 19.7074 24.4812 15.3287 23.3707C14.9031 23.2629 13.9065 23.0305 12.339 22.6735C11.3082 22.4375 10.5732 22.1997 10.1341 21.9601C9.40429 21.5612 8.78714 21.0131 8.28262 20.3159C6.75351 18.2051 6.06889 15.7757 6.22875 13.0275C6.31907 11.4834 6.63361 9.95415 7.17238 8.43993C7.18364 8.40812 7.19921 8.38053 7.21736 8.36022C7.2355 8.33992 7.25551 8.3277 7.27515 8.32492C7.30733 8.32133 7.33692 8.33151 7.36391 8.35547Z" fill="#5CD2FF"/>
<path d="M46.7861 31.5365C47.5979 29.2867 48.6251 27.1777 49.8677 25.2095C49.9778 25.1196 50.1174 24.9639 50.2866 24.7423C51.2375 23.4916 52.3332 22.4242 53.5737 21.5401C54.1935 21.0993 55.1277 20.5806 56.3766 19.984C58.2711 19.0795 60.1729 18.1954 62.0819 17.3317C62.139 17.3053 62.1832 17.2634 62.2143 17.2059C62.3347 17.2119 62.4915 17.1556 62.6846 17.037C63.5887 16.4835 64.3014 15.7761 64.8225 14.9148C65.2211 14.2847 65.5196 13.5958 65.7179 12.8483C65.8944 12.2817 65.9982 11.6977 66.0293 11.0963L66.0682 10.647C66.0558 10.5129 66.0802 10.4045 66.1414 10.3218C66.2193 10.2128 66.2618 10.1523 66.2691 10.1403C66.457 9.78571 66.58 9.84261 66.6381 10.311C66.6568 10.4667 66.6766 10.5919 66.6973 10.6866C66.9994 12.1038 67.0845 13.5431 66.9527 15.0046C66.7731 16.9813 66.1305 18.7237 65.0249 20.2319C64.0647 21.5413 62.8434 22.3182 61.361 22.5626C61.1534 22.5973 60.5715 22.7309 59.6154 22.9633C59.6051 22.9657 59.2563 23.046 58.569 23.2041C53.7886 24.3026 49.9118 27.0615 46.9387 31.4808C46.8868 31.5575 46.836 31.5761 46.7861 31.5365Z" fill="#54D5FF"/>
<path d="M66.0289 11.0957C65.9977 11.697 65.8939 12.281 65.7174 12.8477C65.5887 12.6153 65.4439 12.5104 65.283 12.5332C64.3902 12.6602 63.498 12.7914 62.6063 12.9267C62.4921 12.9435 62.4189 12.8902 62.3867 12.7668C62.3774 12.7273 62.3696 12.7273 62.3634 12.7668L62.3011 13.2107C62.2917 13.2789 62.2855 13.2771 62.2824 13.2053C62.2699 12.865 62.2471 12.9854 62.2139 13.5664V11.2304C62.2523 11.1502 62.2632 11.0597 62.2466 10.9591C62.2383 10.9124 62.2528 10.8986 62.2902 10.9178C62.4583 11.0052 62.6353 11.016 62.8212 10.9501C63.0163 10.8806 63.4617 10.8165 64.1572 10.7578C64.2693 10.7482 64.5444 10.7051 64.9825 10.6284C65.2586 10.5805 65.5368 10.5656 65.8171 10.5835C65.8452 10.5858 65.8717 10.593 65.895 10.6047C65.9182 10.6165 65.9378 10.6325 65.9526 10.6518C66.0356 10.7632 66.061 10.9112 66.0289 11.0957Z" fill="#007ACA"/>
<path d="M10.9718 16.6218V17.2058C10.8171 17.1927 10.6375 17.1178 10.433 16.9812C8.72327 15.836 7.6831 14.1588 7.3125 11.9498C7.3478 11.8504 7.40385 11.7839 7.48067 11.7503C7.53569 11.7264 7.60836 11.7312 7.69867 11.7647C8.5634 12.0882 9.42347 12.4284 10.2789 12.7854C10.2903 12.7902 10.3754 12.8129 10.5342 12.8536C10.6297 12.8788 10.7149 12.9315 10.7896 13.0118C10.8176 13.0417 10.8348 13.0351 10.841 12.992C10.8887 12.6422 10.9131 12.6991 10.9142 13.1627C10.9142 14.3164 10.9334 15.4694 10.9718 16.6218Z" fill="#0070BD"/>
<path d="M65.7175 12.8478C65.5192 13.5953 65.2208 14.2841 64.8221 14.9143C64.8159 14.6136 64.71 14.4788 64.5045 14.51C63.9418 14.5962 63.3787 14.6813 62.815 14.7651C62.8004 14.7675 62.7356 14.7879 62.6203 14.8262C62.5259 14.8586 62.4542 14.8292 62.4054 14.7382C62.3816 14.6926 62.3634 14.6944 62.3509 14.7436C62.2471 15.1772 62.2015 15.6235 62.2139 16.0823V13.5666C62.2471 12.9855 62.27 12.8652 62.2824 13.2054C62.2855 13.2773 62.2918 13.2791 62.3011 13.2108L62.3634 12.7669C62.3696 12.7274 62.3774 12.7274 62.3868 12.7669C62.4189 12.8903 62.4921 12.9436 62.6063 12.9269C63.498 12.7915 64.3903 12.6603 65.283 12.5333C65.4439 12.5106 65.5888 12.6154 65.7175 12.8478Z" fill="#0073C1"/>
<path d="M64.8221 14.9146C64.301 15.7759 63.5884 16.4833 62.6842 17.0367C62.4911 17.1553 62.3343 17.2117 62.2139 17.2057V16.0826C62.2015 15.6238 62.2471 15.1775 62.3509 14.7438C62.3634 14.6947 62.3816 14.6929 62.4054 14.7385C62.4542 14.8295 62.5259 14.8589 62.6203 14.8265C62.7356 14.7882 62.8004 14.7678 62.815 14.7654C63.3787 14.6816 63.9418 14.5965 64.5045 14.5102C64.71 14.4791 64.8159 14.6139 64.8221 14.9146Z" fill="#006CB8"/>
<path d="M26.6599 32.6141L28.4631 39.6222L28.7293 40.783L28.7029 40.7992C28.6925 40.8057 28.6826 40.8108 28.6739 40.8139C28.6652 40.8171 28.658 40.8182 28.653 40.8172C27.6886 40.5692 26.7538 40.2158 25.8486 39.757C25.587 39.624 24.8806 39.3659 23.7293 38.9825C23.5591 38.925 23.3214 38.8148 23.0162 38.6519C22.7805 38.5249 22.5361 38.4272 22.2828 38.359C21.7731 38.2224 21.4403 38.1218 21.2846 38.0571C20.0327 37.53 18.7673 37.052 17.4883 36.6231C17.206 36.5285 16.9246 36.4302 16.6443 36.3284C16.4658 36.2637 16.1907 36.1439 15.8191 35.969C15.3602 35.7534 14.8874 35.5845 14.4005 35.4623C14.3611 35.4527 14.318 35.4246 14.2713 35.3778C14.2339 35.3395 14.1908 35.3113 14.142 35.2934C13.023 34.8621 11.9034 34.4332 10.7833 34.0068C10.6089 33.9409 10.464 33.9558 10.3488 34.0517C10.108 33.6911 9.87026 33.3287 9.63565 32.9645C9.63046 32.9561 9.54637 32.8064 9.38339 32.5153C9.28788 32.3452 9.17421 32.1918 9.04237 32.0553C9.00737 32.0194 8.95911 31.9996 8.9069 31.9996C8.72108 32.0032 8.5799 31.9511 8.48336 31.8432C8.4335 31.7879 8.37267 31.7475 8.30616 31.7256C8.23966 31.7037 8.16952 31.7009 8.10186 31.7175C7.8849 31.769 7.73853 31.7522 7.66275 31.6671C7.62726 31.6262 7.58485 31.5992 7.54129 31.5899L7.00719 31.4839C7.42866 29.8989 7.36585 28.3428 6.81877 26.8154C6.57482 26.1361 6.35007 25.4485 6.14453 24.7525C6.25768 24.6914 6.32516 24.7184 6.34696 24.8334C6.35222 24.8618 6.3639 24.8882 6.38083 24.91C6.39776 24.9317 6.41937 24.948 6.4435 24.9573C13.0499 27.4551 19.5604 29.9139 25.9747 32.3338C26.1709 32.4081 26.3121 32.5033 26.3983 32.6195C26.4118 32.6383 26.4302 32.6521 26.4512 32.6591C26.4722 32.6661 26.4949 32.6661 26.5166 32.6591L26.6599 32.6141Z" fill="#0193FB"/>
<path d="M49.8679 25.209C48.6253 27.1772 47.5981 29.2863 46.7863 31.536L46.6306 31.8954L42.1274 43.0365L40.1747 47.881L37.8717 53.5486L36.5995 56.7382L35.9642 55.1209L32.9278 47.6187L31.8767 45.0131L28.5024 36.7472L26.6338 32.165L26.4267 31.581C25.7384 29.5863 24.8612 27.7109 23.7951 25.9547C23.791 25.9487 23.7178 25.8523 23.5756 25.6654C23.4873 25.5492 23.4276 25.412 23.3965 25.2539C26.4703 27.064 29.7694 28.256 33.2937 28.8298C35.0751 29.1197 36.7848 29.1856 38.4229 29.0275C42.4642 28.6358 46.2792 27.3629 49.8679 25.209Z" fill="#403061"/>
<path d="M143.432 46.4635C143.57 47.9071 143.634 49.3554 143.625 50.8085C143.613 52.5456 143.608 54.3557 143.608 56.2389C143.608 56.2573 143.605 56.2755 143.598 56.2925C143.592 56.3096 143.583 56.325 143.572 56.338C143.561 56.351 143.547 56.3614 143.533 56.3684C143.518 56.3754 143.502 56.3791 143.486 56.3791H139.301C139.256 56.3791 139.212 56.3584 139.181 56.3217C139.149 56.285 139.131 56.2352 139.131 56.1832V26.8643C139.131 26.8314 139.142 26.7998 139.162 26.7766C139.182 26.7533 139.209 26.7403 139.237 26.7403L143.471 26.7295C143.507 26.7295 143.541 26.7461 143.567 26.7757C143.593 26.8053 143.607 26.8455 143.608 26.8876C143.62 31.2446 143.621 35.5645 143.611 39.8472C143.609 40.8858 143.545 41.9011 143.419 42.893C143.417 42.9108 143.418 42.929 143.422 42.9462C143.427 42.9635 143.434 42.9795 143.445 42.9931C143.455 43.0068 143.467 43.0177 143.482 43.0252C143.496 43.0328 143.511 43.0367 143.527 43.0368H145.305C145.341 43.0367 145.377 43.027 145.41 43.0083C145.443 42.9896 145.471 42.9625 145.493 42.9289L150.35 35.5974C150.363 35.5778 150.38 35.5619 150.399 35.551C150.418 35.5401 150.439 35.5345 150.461 35.5345L155.35 35.5453C155.448 35.5453 155.466 35.589 155.405 35.6765C153.535 38.3407 151.695 40.9924 149.884 43.6315C149.723 43.8687 149.389 44.2209 148.885 44.6882C148.877 44.6948 148.871 44.7033 148.867 44.7131C148.863 44.7228 148.861 44.7336 148.861 44.7446C148.86 44.7556 148.862 44.7665 148.866 44.7766C148.87 44.7868 148.876 44.7958 148.883 44.8032C149.371 45.3015 149.751 45.7795 150.022 46.2371C151.965 49.5291 153.941 52.8361 155.95 56.158C156.035 56.2982 156.004 56.3683 155.856 56.3683H151.054C151.03 56.3682 151.006 56.3613 150.985 56.3481C150.964 56.3349 150.947 56.3159 150.934 56.2928L145.445 46.4402C145.432 46.416 145.414 46.3961 145.392 46.3822C145.371 46.3684 145.346 46.3612 145.322 46.3611L143.499 46.3701C143.489 46.3702 143.48 46.3727 143.471 46.3776C143.462 46.3824 143.455 46.3895 143.448 46.3983C143.442 46.4071 143.437 46.4175 143.434 46.4287C143.431 46.4399 143.431 46.4518 143.432 46.4635Z" fill="white"/>
<path d="M81.6679 54.5929C80.8882 53.5447 80.499 52.2832 80.5 50.8085C80.5031 42.9918 80.5047 35.1338 80.5047 27.2344C80.5047 27.2077 80.5139 27.1821 80.5302 27.1633C80.5466 27.1444 80.5688 27.1338 80.5919 27.1338H84.9815C85.0021 27.1338 85.0219 27.1433 85.0365 27.1601C85.0511 27.177 85.0593 27.1998 85.0593 27.2236C85.0593 34.4114 85.0593 41.5992 85.0593 48.787C85.0593 49.3656 85.0827 49.813 85.1294 50.1293C85.2374 50.8672 85.5342 51.3907 86.0201 51.6998C86.3056 51.8819 86.795 51.9783 87.4885 51.9891C90.2747 52.0311 93.1393 52.0412 96.0823 52.0197C96.119 52.0192 96.1545 52.0351 96.1814 52.0642C96.2084 52.0933 96.2247 52.1333 96.2271 52.176L96.4296 55.8903C96.4322 55.9336 96.4201 55.9763 96.3959 56.0093C96.3718 56.0422 96.3374 56.0628 96.3003 56.0664C93.4996 56.3347 90.692 56.4569 87.8777 56.433C87.8674 56.433 87.3909 56.4431 86.4483 56.4635C85.7362 56.4791 85.0266 56.4216 84.3197 56.291C83.7913 56.1928 83.2998 55.9999 82.8451 55.7124C82.4091 55.4345 82.0167 55.0613 81.6679 54.5929Z" fill="white"/>
<path d="M66.023 28.084C65.915 28.7668 65.887 29.4533 65.9389 30.1433C65.9067 30.1984 65.8854 30.2571 65.8751 30.3194C65.8688 30.3529 65.8745 30.4134 65.8922 30.5009C65.9275 30.6818 65.8263 30.7327 65.5885 30.6536C65.5644 30.6458 65.539 30.6447 65.5144 30.6503C65.4897 30.656 65.4666 30.6682 65.4468 30.686C65.1884 30.9172 65.015 30.886 64.9268 30.5925C65.2423 29.8941 65.5304 29.1813 65.791 28.4542C65.8159 28.3835 65.8501 28.3194 65.8937 28.2619C65.9373 28.2032 65.9804 28.1439 66.023 28.084Z" fill="#025FCC"/>
<path d="M65.9384 30.1436C66.144 31.3523 66.4964 32.5029 66.9957 33.5955C66.9075 33.6949 66.8141 33.7896 66.7154 33.8794C66.6023 33.9824 66.4917 34.0363 66.3838 34.0411C66.0879 34.0567 65.9265 33.8333 65.8995 33.3709C65.8988 33.356 65.8951 33.3416 65.8884 33.3286C65.8818 33.3156 65.8724 33.3044 65.861 33.2957C65.8496 33.2869 65.8364 33.281 65.8224 33.2781C65.8083 33.2753 65.7937 33.2757 65.7796 33.2792L65.3109 33.4014C65.2946 33.4059 65.2737 33.4038 65.2502 33.3954C65.2266 33.3869 65.201 33.3724 65.1754 33.3529C65.1111 33.305 65.0482 33.3074 64.987 33.3601C64.9745 33.3716 64.9634 33.3913 64.9548 33.4176C64.9461 33.4439 64.9401 33.4759 64.9372 33.511C64.9299 33.5985 64.8853 33.653 64.8033 33.6745C64.7912 33.6777 64.7805 33.6838 64.7724 33.6918C64.7643 33.6998 64.7593 33.7095 64.7581 33.7195L64.7503 33.759C64.747 33.7801 64.7386 33.7999 64.7259 33.816C64.7133 33.8322 64.697 33.8442 64.6787 33.8507L64.3408 33.9675C64.3238 33.9735 64.3055 33.9721 64.2896 33.9634C64.2737 33.9547 64.2614 33.9395 64.2551 33.9207L64.0013 33.1858C63.9943 33.1662 63.9795 33.1482 63.9587 33.1337C63.9379 33.1191 63.9117 33.1086 63.883 33.1031C63.7522 33.0792 63.7107 32.9761 63.7584 32.794L64.1866 32.0303L64.9263 30.5928C65.0145 30.8863 65.1879 30.9174 65.4464 30.6862C65.4661 30.6684 65.4893 30.6562 65.5139 30.6506C65.5385 30.645 65.5639 30.6461 65.5881 30.6539C65.8258 30.733 65.927 30.682 65.8917 30.5011C65.8741 30.4137 65.8683 30.3532 65.8746 30.3197C65.885 30.2574 65.9062 30.1987 65.9384 30.1436Z" fill="#1863D7"/>
<path d="M7.00669 31.4844L7.54079 31.5904C7.58435 31.5998 7.62676 31.6267 7.66224 31.6677C7.73802 31.7527 7.88439 31.7695 8.10136 31.718C8.16901 31.7014 8.23916 31.7042 8.30566 31.7261C8.37216 31.7481 8.433 31.7884 8.48286 31.8438C8.5794 31.9516 8.72058 32.0037 8.9064 32.0001C8.95861 32.0001 9.00687 32.0199 9.04187 32.0558C9.17371 32.1924 9.28738 32.3457 9.38288 32.5158C9.54587 32.8069 9.62995 32.9567 9.63514 32.9651C9.86975 33.3292 10.1075 33.6916 10.3483 34.0522L11.5613 35.9462C11.5198 35.9821 11.5048 36.0247 11.5162 36.0738C11.518 36.0817 11.5182 36.0902 11.5169 36.0982C11.5156 36.1063 11.5128 36.1138 11.5087 36.1199C11.5047 36.1261 11.4995 36.1306 11.4937 36.1333C11.4879 36.1359 11.4817 36.1364 11.4757 36.1349L10.4962 35.842C10.4494 35.8279 10.3987 35.8298 10.3499 35.8474C10.2025 35.9025 10.0571 35.8881 9.91387 35.8042C9.89626 35.7933 9.87551 35.7896 9.85455 35.7938C9.83359 35.798 9.81348 35.8098 9.79708 35.8276C9.74933 35.8803 9.71144 35.8851 9.68341 35.842C9.64933 35.7876 9.61223 35.7492 9.57909 35.7341L8.75847 35.3406C8.74907 35.3362 8.73463 35.3223 8.71676 35.3004C8.69889 35.2785 8.67829 35.2495 8.65726 35.2166C8.62923 35.1723 8.5877 35.1507 8.53268 35.1519C8.52246 35.152 8.51228 35.15 8.50285 35.146C8.49342 35.142 8.48495 35.1362 8.47802 35.1288C8.47108 35.1215 8.46584 35.1129 8.46265 35.1035C8.45945 35.0942 8.45838 35.0844 8.4595 35.0747C8.46884 35.0052 8.49428 34.9429 8.5358 34.8878C8.54039 34.8818 8.54362 34.8745 8.54518 34.8666C8.54673 34.8588 8.54656 34.8507 8.54468 34.8431C8.5428 34.8355 8.53928 34.8287 8.53445 34.8233C8.52962 34.8179 8.52365 34.8141 8.51711 34.8123C8.33233 34.7644 8.30898 34.6608 8.44704 34.5014C8.61937 34.3014 8.60535 34.1726 8.405 34.1151C8.392 34.1112 8.37199 34.1111 8.34656 34.1149C8.32114 34.1186 8.29102 34.1261 8.25863 34.1367L8.10759 34.187C8.08919 34.1935 8.06748 34.1913 8.04508 34.1808C8.02268 34.1703 8.00058 34.1518 7.98146 34.1277C7.89426 34.0175 7.77747 33.9612 7.6311 33.9588C7.6081 33.9583 7.58485 33.9651 7.5634 33.9786C7.54195 33.992 7.52295 34.0118 7.50809 34.036C7.37729 34.2481 7.21482 34.4152 7.0207 34.5374C6.9966 34.5527 6.96836 34.5572 6.94137 34.5499C6.91438 34.5426 6.89051 34.5241 6.87433 34.4978C6.76844 34.3265 6.64595 34.2493 6.50684 34.266C6.3231 34.2876 6.20891 34.2103 6.16427 34.0342C6.16138 34.0228 6.16186 34.0046 6.16567 33.9814C6.16948 33.9582 6.1765 33.9306 6.18607 33.9013C6.2006 33.8569 6.17569 33.83 6.11133 33.8204L7.00669 31.4844Z" fill="#2276EC"/>
<path d="M46.6302 31.8955C46.6645 32.0968 46.6572 32.2926 46.6084 32.4831C45.9939 34.8766 45.3824 37.2714 44.7741 39.6673L44.4502 39.5379C44.4376 39.5325 44.4265 39.5261 44.4182 39.5194C44.4099 39.5127 44.4048 39.506 44.4035 39.5002C44.4014 39.4858 44.4035 39.4708 44.4097 39.4553C44.4243 39.4229 44.418 39.4091 44.391 39.4139C44.2758 39.4319 44.1979 39.4984 44.1575 39.6134C44.1477 39.6408 44.1332 39.6645 44.1155 39.6817C44.0979 39.6989 44.0779 39.7089 44.0578 39.7104C43.8398 39.7224 43.7936 39.6032 43.9192 39.3528C43.9514 39.2893 43.9618 39.2438 43.9504 39.2163C43.9223 39.1528 43.8896 39.1695 43.8523 39.2666L42.3481 43.1264L42.127 43.0366L46.6302 31.8955Z" fill="#046BDD"/>
<path d="M64.1868 32.0303L63.7586 32.794L62.3696 34.8605C62.1693 34.7778 61.9845 34.788 61.8153 34.891C61.6523 34.9892 61.5651 35.0408 61.5537 35.0455C61.3399 35.1438 61.1291 35.2492 60.9215 35.3618C60.7492 35.4541 60.5353 35.5481 60.28 35.6439C59.9768 35.7577 59.5523 35.9422 59.0062 36.1974C54.1427 38.4603 49.2917 40.7568 44.4532 43.0869C44.3255 43.1492 44.1812 43.1396 44.0203 43.0581C43.9987 43.0472 43.9812 43.0278 43.9711 43.0036C43.9611 42.9795 43.9592 42.9522 43.9658 42.9269L44.3846 41.3295C44.7345 41.2157 45.0527 41.0288 45.3392 40.7688C45.3797 40.7317 45.4253 40.7077 45.4762 40.6969C45.77 40.6298 46.0399 40.4963 46.2859 40.2962C46.3866 40.2136 46.6103 40.1123 46.957 39.9925C47.4169 39.8344 47.868 39.6457 48.3102 39.4265C49.1573 39.0084 50.0148 38.6209 50.8826 38.2639C51.0809 38.1824 51.2703 38.065 51.451 37.9117C51.7323 37.6709 51.9181 37.5373 52.0084 37.511C52.4216 37.3924 52.8228 37.2372 53.2121 37.0455C53.2484 37.0288 53.4654 36.9479 53.863 36.803C54.0135 36.749 54.1547 36.67 54.2865 36.5658C54.4308 36.452 54.5668 36.3729 54.6945 36.3286C54.9322 36.2459 55.1616 36.1405 55.3827 36.0123C55.5634 35.9081 55.7907 35.8039 56.0648 35.6996C56.3201 35.6014 56.6321 35.4451 57.0006 35.2306C57.2529 35.0845 57.9598 34.8036 59.1214 34.3879C59.3903 34.292 59.6566 34.174 59.9203 34.0339C60.1787 33.8961 60.4383 33.7601 60.6988 33.626C60.704 33.6236 60.8582 33.5667 61.1613 33.4552C61.2693 33.4157 61.37 33.3588 61.4634 33.2845C61.5693 33.2007 61.6669 33.1444 61.7561 33.1156C62.1298 32.9982 62.638 32.7982 63.2806 32.5154C63.3242 32.4963 63.3647 32.4699 63.402 32.4364C63.6231 32.2363 63.8847 32.101 64.1868 32.0303Z" fill="#1A89FB"/>
<path d="M26.6338 32.165L28.5024 36.7472C28.4868 36.9078 28.5081 37.0605 28.5662 37.2055C28.887 38.0069 29.1989 38.8125 29.502 39.6224C29.3775 39.7493 29.2597 39.7829 29.1486 39.723C28.8974 39.5876 28.669 39.5541 28.4634 39.6224L26.6603 32.6143L26.6338 32.165Z" fill="#046BDD"/>
<path d="M63.7584 32.7939C63.7106 32.976 63.7521 33.0791 63.8829 33.103C63.9117 33.1085 63.9378 33.119 63.9586 33.1336C63.9795 33.1481 63.9942 33.1661 64.0013 33.1857L64.2551 33.9206C64.2613 33.9394 64.2736 33.9546 64.2895 33.9633C64.3054 33.972 64.3237 33.9734 64.3407 33.9673L64.6786 33.8505C64.6969 33.8441 64.7132 33.8321 64.7259 33.8159C64.7385 33.7998 64.7469 33.78 64.7503 33.7589L64.758 33.7194C64.7593 33.7094 64.7643 33.6997 64.7723 33.6917C64.7804 33.6837 64.7912 33.6776 64.8032 33.6744C64.8852 33.6529 64.9298 33.5984 64.9371 33.5109C64.94 33.4758 64.946 33.4438 64.9547 33.4175C64.9634 33.3912 64.9744 33.3715 64.9869 33.36C65.0482 33.3073 65.111 33.3049 65.1754 33.3528C65.2009 33.3723 65.2265 33.3868 65.2501 33.3953C65.2737 33.4037 65.2945 33.4058 65.3108 33.4013L65.7795 33.2791C65.7936 33.2756 65.8082 33.2752 65.8223 33.278C65.8364 33.2808 65.8495 33.2868 65.861 33.2956C65.8724 33.3043 65.8817 33.3155 65.8884 33.3285C65.895 33.3415 65.8988 33.3559 65.8994 33.3708C65.9264 33.8332 66.0878 34.0566 66.3837 34.041C66.4917 34.0362 66.6022 33.9823 66.7154 33.8793C66.814 33.7895 66.9074 33.6948 66.9957 33.5954L68.2414 36.8299C67.9569 36.879 67.672 36.9233 67.3865 36.9629C67.0626 37.0072 66.7787 37.0611 66.5347 37.1246C64.8779 37.557 63.2538 38.1177 61.6624 38.8065C61.5047 38.743 61.3811 38.6101 61.2918 38.4076C61.2836 38.3888 61.272 38.3723 61.2579 38.3589C61.2438 38.3455 61.2275 38.3357 61.21 38.33C61.1924 38.3242 61.174 38.3227 61.156 38.3256C61.1379 38.3284 61.1206 38.3355 61.105 38.3465C60.9555 38.4519 60.9228 38.4124 61.0069 38.2279C61.0775 38.0722 61.1398 37.835 61.1937 37.5163C61.2321 37.2899 61.1704 37.2444 61.0084 37.3797C60.8942 37.4768 60.7588 37.454 60.602 37.3115C60.594 37.3042 60.5875 37.2951 60.5827 37.2847C60.578 37.2742 60.5751 37.2627 60.5744 37.2507C60.5737 37.2388 60.5751 37.2267 60.5785 37.2152C60.5819 37.2037 60.5872 37.1931 60.5942 37.1839L62.3694 34.8604L63.7584 32.7939Z" fill="#2D69E6"/>
<path d="M6.11196 33.8203C6.17632 33.8299 6.20123 33.8568 6.1867 33.9012C6.17713 33.9305 6.17011 33.9581 6.1663 33.9813C6.16249 34.0045 6.16201 34.0227 6.1649 34.0341C6.20954 34.2102 6.32373 34.2875 6.50747 34.266C6.64658 34.2492 6.76907 34.3264 6.87496 34.4978C6.89114 34.524 6.91501 34.5425 6.942 34.5498C6.96899 34.5571 6.99723 34.5527 7.02133 34.5373C7.21545 34.4151 7.37791 34.248 7.50871 34.0359C7.52358 34.0117 7.54258 33.9919 7.56403 33.9785C7.58548 33.965 7.60873 33.9582 7.63173 33.9587C7.7781 33.9611 7.89489 34.0174 7.98209 34.1276C8.00121 34.1517 8.02331 34.1702 8.04571 34.1807C8.0681 34.1912 8.08982 34.1934 8.10821 34.1869L8.25926 34.1366C8.29165 34.126 8.32177 34.1185 8.34719 34.1148C8.37262 34.111 8.39263 34.1111 8.40563 34.115C8.60598 34.1725 8.62 34.3013 8.44767 34.5014C8.30961 34.6607 8.33296 34.7643 8.51774 34.8122C8.52428 34.814 8.53025 34.8178 8.53508 34.8232C8.53991 34.8286 8.54343 34.8355 8.54531 34.843C8.54719 34.8506 8.54736 34.8587 8.54581 34.8666C8.54425 34.8744 8.54102 34.8817 8.53643 34.8877C8.4949 34.9428 8.46947 35.0051 8.46013 35.0746C8.45901 35.0843 8.46008 35.0941 8.46328 35.1035C8.46647 35.1128 8.47171 35.1214 8.47865 35.1287C8.48558 35.1361 8.49405 35.1419 8.50348 35.1459C8.51291 35.1499 8.52308 35.1519 8.53331 35.1518C8.58833 35.1506 8.62986 35.1722 8.65789 35.2165C8.67892 35.2494 8.69951 35.2784 8.71739 35.3003C8.73526 35.3222 8.7497 35.3361 8.7591 35.3405L9.57971 35.7341C9.61285 35.7491 9.64996 35.7875 9.68404 35.8419C9.71207 35.885 9.74996 35.8802 9.79771 35.8275C9.81411 35.8098 9.83422 35.7979 9.85518 35.7938C9.87613 35.7896 9.89689 35.7932 9.9145 35.8041C10.0578 35.888 10.2031 35.9024 10.3505 35.8473C10.3993 35.8297 10.4501 35.8278 10.4969 35.8419L11.4763 36.1348C11.4824 36.1363 11.4886 36.1358 11.4943 36.1332C11.5001 36.1306 11.5053 36.126 11.5094 36.1198C11.5134 36.1137 11.5162 36.1062 11.5175 36.0982C11.5188 36.0901 11.5186 36.0817 11.5168 36.0737C11.5054 36.0246 11.5204 35.982 11.562 35.9461L12.6987 37.0836C12.7319 37.1171 12.7392 37.1105 12.7205 37.0638C12.6779 36.9584 12.7298 36.9302 12.8762 36.9793C14.1499 37.413 15.4164 37.8718 16.6756 38.3558C18.4258 39.0303 19.4115 39.4088 19.6326 39.4915C24.4349 41.2872 27.6 42.4804 29.1281 43.071C29.2049 43.1009 29.2646 43.0896 29.3072 43.0368L29.6575 44.3845C28.5436 44.0359 27.4386 43.6538 26.3424 43.2381C24.6305 42.5888 22.9208 41.9341 21.2131 41.274C20.6609 41.0596 19.6716 40.696 18.2452 40.1833C16.7296 39.6382 15.2301 39.0392 13.7466 38.3863C13.7051 38.3684 13.6641 38.3342 13.6236 38.2839C13.5582 38.2025 13.4804 38.1456 13.39 38.1132C13.2115 38.0509 13.1196 38.018 13.1144 38.0144C12.8186 37.8694 12.5113 37.7784 12.1926 37.7412C12.1646 37.7377 12.1345 37.7293 12.1023 37.7161C11.9839 37.667 11.9627 37.7065 12.0384 37.8347C12.0717 37.8922 12.0587 37.9191 11.9995 37.9155C11.8656 37.9096 11.768 37.8557 11.7068 37.7538C11.5967 37.5741 11.5692 37.5885 11.6242 37.7969L11.7862 38.4241C11.7939 38.4532 11.796 38.4839 11.7921 38.514C11.7883 38.544 11.7787 38.5725 11.764 38.5972C11.7494 38.6219 11.7302 38.6421 11.7078 38.6564C11.6855 38.6706 11.6606 38.6784 11.6351 38.6792C11.4576 38.684 11.2884 38.6403 11.1275 38.5481C10.8223 38.3744 10.5 38.2683 10.1605 38.23C9.89062 38.2001 9.42348 38.0353 8.7591 37.7359C8.13001 37.4519 7.10541 37.177 5.6853 36.9111C5.67596 36.9099 5.57059 36.9027 5.3692 36.8895C5.23425 36.8799 5.1076 36.8326 4.98926 36.7475L6.11196 33.8203Z" fill="#3580F9"/>
<path d="M28.7291 40.7833L29.3068 43.0367C29.2643 43.0894 29.2046 43.1008 29.1278 43.0708C27.5997 42.4803 24.4345 41.2871 19.6323 39.4913C19.4112 39.4087 18.4255 39.0301 16.6753 38.3557C15.4161 37.8717 14.1496 37.4129 12.8759 36.9792C12.7295 36.9301 12.6776 36.9582 12.7202 37.0637C12.7388 37.1104 12.7316 37.117 12.6984 37.0834L11.5616 35.946L10.3486 34.052C10.4639 33.9561 10.6087 33.9412 10.7831 34.0071C11.9032 34.4335 13.0228 34.8624 14.1418 35.2937C14.1906 35.3116 14.2337 35.3398 14.2711 35.3781C14.3178 35.4249 14.3609 35.453 14.4003 35.4626C14.8872 35.5848 15.36 35.7537 15.8189 35.9693C16.1905 36.1442 16.4656 36.264 16.6442 36.3287C16.9244 36.4305 17.2058 36.5288 17.4881 36.6234C18.7671 37.0523 20.0325 37.5303 21.2844 38.0574C21.4402 38.1221 21.7729 38.2227 22.2826 38.3593C22.5359 38.4275 22.7803 38.5252 23.016 38.6522C23.3212 38.8151 23.5589 38.9253 23.7292 38.9828C24.8804 39.3661 25.5868 39.6243 25.8484 39.7573C26.7537 40.2161 27.6885 40.5695 28.6528 40.8175C28.6578 40.8185 28.665 40.8174 28.6737 40.8142C28.6824 40.8111 28.6923 40.806 28.7027 40.7995L28.7291 40.7833Z" fill="#2887FB"/>
<path d="M62.3695 34.8609L60.5944 37.1843C60.5874 37.1935 60.582 37.2041 60.5786 37.2156C60.5752 37.2271 60.5738 37.2392 60.5745 37.2512C60.5753 37.2631 60.5781 37.2746 60.5828 37.2851C60.5876 37.2955 60.5942 37.3046 60.6022 37.3119C60.7589 37.4544 60.8944 37.4772 61.0086 37.3802C61.1705 37.2448 61.2323 37.2903 61.1939 37.5167C61.1399 37.8354 61.0776 38.0726 61.007 38.2283C60.9229 38.4128 60.9556 38.4524 61.1051 38.3469C61.1207 38.336 61.138 38.3288 61.1561 38.326C61.1742 38.3232 61.1926 38.3246 61.2101 38.3304C61.2276 38.3361 61.244 38.346 61.2581 38.3593C61.2721 38.3727 61.2837 38.3893 61.292 38.408C61.3812 38.6105 61.5048 38.7435 61.6626 38.807C60.8653 39.1448 60.0779 39.5108 59.3004 39.9049C59.235 39.9384 59.1057 40.0385 58.9127 40.205C58.7953 40.3056 58.6511 40.3847 58.4798 40.4422C58.2898 40.5069 58.0822 40.6219 57.8569 40.7872C57.6223 40.9609 57.4214 41.0867 57.2543 41.1645C52.6618 43.3005 48.0682 45.4335 43.4736 47.5635C43.1819 47.6988 42.9514 47.7449 42.7822 47.7018C42.8019 47.4946 42.7827 47.4437 42.7246 47.5491C42.7154 47.5652 42.7023 47.578 42.6868 47.586C42.6714 47.5939 42.6543 47.5967 42.6374 47.594C42.5159 47.5724 42.437 47.6222 42.4007 47.7432C42.392 47.7728 42.3782 47.7987 42.3613 47.8176C42.3444 47.8365 42.325 47.8475 42.3057 47.8492C42.2331 47.8552 42.2118 47.8156 42.2419 47.7306C42.3083 47.5365 42.3452 47.3472 42.3524 47.1627C42.3556 47.0873 42.3327 47.0747 42.2839 47.125C42.1158 47.3023 42.0286 47.3179 42.0223 47.1717C42.0109 46.8746 42.1204 46.4464 42.3509 45.8869C42.3528 45.8822 42.3533 45.877 42.3525 45.8721C42.3516 45.8673 42.3494 45.863 42.3462 45.86C42.1905 45.7174 42.1448 45.5377 42.2092 45.3209C42.2147 45.3015 42.2261 45.2802 42.2427 45.2582C42.2593 45.2363 42.2807 45.2142 42.3057 45.1933C42.3877 45.125 42.4241 45.0238 42.4147 44.8896C42.4095 44.8237 42.4163 44.7662 42.435 44.7171C42.5845 44.3218 42.5185 44.2146 42.2372 44.3954C42.203 44.417 42.1677 44.4577 42.1313 44.5176C42.0545 44.6446 41.986 44.5829 41.9258 44.3326L42.3478 43.1268L43.852 39.267C43.8893 39.1699 43.922 39.1532 43.9501 39.2167C43.9615 39.2442 43.9511 39.2897 43.9189 39.3532C43.7933 39.6036 43.8395 39.7228 44.0575 39.7108C44.0776 39.7092 44.0976 39.6993 44.1152 39.6821C44.1329 39.6649 44.1474 39.6412 44.1572 39.6138C44.1977 39.4988 44.2755 39.4323 44.3907 39.4143C44.4177 39.4095 44.424 39.4233 44.4094 39.4556C44.4032 39.4712 44.4011 39.4862 44.4032 39.5006C44.4045 39.5064 44.4096 39.5131 44.4179 39.5198C44.4262 39.5265 44.4373 39.5329 44.4499 39.5383L44.7738 39.6677L44.3845 41.3299L43.9656 42.9273C43.959 42.9526 43.9609 42.9799 43.971 43.004C43.981 43.0282 43.9985 43.0476 44.0201 43.0585C44.181 43.14 44.3253 43.1496 44.453 43.0873C49.2916 40.7572 54.1426 38.4607 59.0061 36.1978C59.5521 35.9426 59.9767 35.7581 60.2798 35.6443C60.5352 35.5485 60.749 35.4544 60.9214 35.3622C61.129 35.2496 61.3397 35.1442 61.5536 35.0459C61.565 35.0412 61.6522 34.9896 61.8152 34.8914C61.9844 34.7884 62.1692 34.7782 62.3695 34.8609Z" fill="#3280FA"/>
<path d="M121.994 41.7056C121.961 41.7274 121.933 41.7588 121.914 41.7967C121.895 41.8345 121.885 41.8775 121.885 41.9212V56.2015C121.885 56.2487 121.869 56.2939 121.84 56.3273C121.811 56.3607 121.772 56.3794 121.731 56.3794H117.534C117.501 56.3794 117.469 56.3641 117.445 56.3368C117.421 56.3095 117.408 56.2725 117.408 56.2339V35.6822C117.408 35.6431 117.422 35.6056 117.446 35.578C117.47 35.5504 117.502 35.5348 117.536 35.5348H120.934C120.968 35.5349 121.001 35.5494 121.027 35.5756C121.053 35.6017 121.07 35.6377 121.074 35.6768L121.39 38.5537C121.405 38.6951 121.46 38.7208 121.555 38.631C122.874 37.3839 124.33 36.4201 125.921 35.7397C127.617 35.0161 129.282 34.843 130.916 35.2204C132.668 35.6253 133.745 36.8682 134.147 38.949C134.201 39.227 134.244 39.5858 134.274 40.0254C134.293 40.3117 134.303 40.6729 134.303 41.109C134.303 46.1392 134.303 51.1761 134.303 56.2195C134.303 56.2404 134.3 56.2611 134.293 56.2804C134.286 56.2997 134.276 56.3172 134.263 56.3319C134.251 56.3466 134.236 56.3583 134.219 56.3661C134.203 56.3739 134.185 56.3778 134.168 56.3776L129.932 56.3471C129.912 56.347 129.892 56.3372 129.878 56.3198C129.863 56.3023 129.855 56.2785 129.854 56.2536C129.84 51.3096 129.818 46.365 129.787 41.4198C129.783 40.8041 129.594 40.3165 129.219 39.9571C128.94 39.69 128.54 39.5193 128.019 39.445C127.22 39.3324 126.464 39.4252 125.748 39.7235C124.429 40.2758 123.177 40.9365 121.994 41.7056Z" fill="white"/>
<path d="M169.511 51.5978C169.683 51.1582 169.73 50.7005 169.651 50.2249C169.531 49.511 169.14 49.0431 168.478 48.8215C166.604 48.1962 164.713 47.6493 162.805 47.1809C161.554 46.8742 160.491 46.3729 159.616 45.6769C158.856 45.0695 158.353 44.1794 158.108 43.0066C157.747 41.2696 157.809 39.6212 158.293 38.0614C158.427 37.6325 158.642 37.2348 158.939 36.8682C159.191 36.558 159.513 36.2866 159.903 36.0542C160.739 35.5571 161.678 35.2642 162.721 35.1755C163.994 35.0677 165.176 35.0252 166.267 35.0479C167.108 35.0659 168.144 35.1216 169.377 35.2151C170.669 35.3133 171.957 35.4804 173.24 35.7164C173.285 35.7245 173.325 35.7517 173.352 35.7922C173.38 35.8326 173.393 35.8834 173.388 35.9338L173.123 38.9707C173.119 39.0149 173.1 39.0557 173.071 39.0853C173.042 39.1148 173.004 39.131 172.964 39.1306C171.728 39.115 170.546 39.0851 169.417 39.0408C167.498 38.9653 165.694 38.9647 164.006 39.039C163.759 39.0497 163.506 39.0971 163.248 39.1809C162.962 39.2732 162.747 39.4163 162.601 39.6104C162.45 39.8128 162.354 40.0488 162.313 40.3184C162.286 40.5017 162.269 40.7562 162.26 41.0821C162.24 41.9254 162.591 42.5095 163.313 42.8341C163.484 42.912 163.656 42.988 163.827 43.0623C163.994 43.1342 164.168 43.1959 164.35 43.2474C165.929 43.6918 167.511 44.1171 169.096 44.5232C169.769 44.6969 170.428 44.9198 171.074 45.1917C171.897 45.5379 172.558 46.08 173.056 46.8179C173.49 47.4612 173.776 48.2944 173.914 49.3175C174.078 50.531 174.032 51.7535 173.776 52.985C173.54 54.1123 173.018 54.9707 172.211 55.5601C171.708 55.9254 171.113 56.1884 170.425 56.3489C168.859 56.7143 167.278 56.885 165.68 56.8611C163.244 56.8251 160.826 56.6023 158.428 56.1926C158.385 56.1849 158.345 56.1584 158.318 56.1185C158.291 56.0787 158.279 56.0286 158.284 55.9787L158.553 52.9132C158.556 52.877 158.571 52.8435 158.595 52.8195C158.618 52.7954 158.649 52.7827 158.681 52.7838C161.297 52.8293 163.863 52.8329 166.381 52.7946C166.744 52.7886 167.107 52.7784 167.471 52.764C167.95 52.7449 168.397 52.6209 168.811 52.3921C169.139 52.2112 169.372 51.9464 169.511 51.5978Z" fill="white"/>
<path d="M181.926 47.9009C181.97 49.009 182.216 50.0045 182.662 50.8874C182.968 51.4924 183.435 51.9189 184.064 52.1668C184.823 52.4687 185.598 52.6406 186.387 52.6826C186.609 52.6945 187.391 52.6724 188.732 52.6161C190.242 52.5526 191.748 52.4178 193.249 52.2118C193.273 52.209 193.297 52.2165 193.316 52.2329C193.335 52.2492 193.348 52.2732 193.352 52.2998L193.775 55.3906C193.779 55.4166 193.775 55.4433 193.764 55.4666C193.754 55.4899 193.737 55.5086 193.716 55.5199C193.44 55.6793 193.217 55.7859 193.047 55.8398C190.059 56.7778 187.074 57.0773 184.093 56.7383C183.401 56.6592 182.7 56.4867 181.991 56.2207C181.235 55.9368 180.595 55.5792 180.071 55.148C178.967 54.2387 178.209 53.0132 177.796 51.4714C177.425 50.0842 177.212 48.6346 177.156 47.1228C177.11 45.8721 177.132 44.676 177.221 43.5343C177.323 42.2381 177.554 41.0126 177.913 39.8578C178.454 38.1231 179.401 36.8802 180.755 36.1291C181.504 35.7146 182.413 35.4217 183.483 35.2504C185.337 34.9545 187.188 34.9767 189.035 35.3169C189.95 35.4858 190.817 35.8164 191.636 36.3088C192.72 36.9605 193.472 38.0237 193.894 39.4984C194.246 40.7311 194.335 42.0171 194.162 43.3564C194.021 44.4346 193.752 45.2881 193.353 45.9171C192.855 46.7041 192.156 47.2264 191.256 47.484C190.494 47.7032 189.663 47.8104 188.765 47.8057C186.51 47.7949 184.255 47.7961 181.999 47.8092C181.989 47.8092 181.979 47.8116 181.97 47.8162C181.961 47.8209 181.953 47.8277 181.946 47.8362C181.939 47.8448 181.934 47.8549 181.93 47.8661C181.927 47.8772 181.925 47.889 181.926 47.9009ZM182.726 40.2441C182.463 40.6155 182.267 41.1084 182.137 41.723C181.927 42.7209 181.834 43.6272 181.86 44.4418C181.861 44.4656 181.87 44.4883 181.885 44.505C181.901 44.5217 181.921 44.5312 181.943 44.5316C183.983 44.57 186.023 44.5837 188.064 44.573C188.426 44.5706 188.749 44.4711 189.034 44.2747C189.294 44.095 189.487 43.8051 189.61 43.4049C189.888 42.5137 189.889 41.596 189.613 40.652C189.392 39.8949 188.957 39.4133 188.307 39.2073C187.397 38.9186 186.465 38.8233 185.509 38.9216C184.818 38.9922 184.319 39.0869 184.011 39.2055C183.509 39.3972 183.081 39.7434 182.726 40.2441Z" fill="white"/>
<path d="M202.2 38.6254C202.209 38.7104 202.242 38.7254 202.3 38.6703C204.022 37.0099 205.972 35.8749 208.151 35.2651C209.312 34.9404 210.552 34.9524 211.873 35.301C213.284 35.6748 214.233 36.6098 214.721 38.1061C214.987 38.9219 215.118 39.8467 215.116 40.8805C215.107 46.0054 215.086 51.1303 215.053 56.2552C215.052 56.2798 215.044 56.3033 215.029 56.3207C215.015 56.3382 214.995 56.3482 214.975 56.3486L210.716 56.3702C210.686 56.3702 210.658 56.3562 210.637 56.3313C210.616 56.3063 210.604 56.2725 210.604 56.2372C210.604 51.4502 210.604 46.7056 210.604 42.0036C210.604 41.6478 210.545 41.2333 210.428 40.7601C210.329 40.3624 210.148 40.0522 209.884 39.8293C209.685 39.6604 209.396 39.5436 209.017 39.4789C208.042 39.316 207.087 39.446 206.152 39.8689C204.987 40.3948 203.847 41.0207 202.732 41.7467C202.711 41.7602 202.693 41.7802 202.681 41.8046C202.669 41.8289 202.662 41.8567 202.662 41.885L202.653 56.2768C202.653 56.3011 202.645 56.3244 202.631 56.3416C202.616 56.3587 202.597 56.3684 202.577 56.3684L198.291 56.3792C198.263 56.3792 198.236 56.3661 198.217 56.3429C198.197 56.3196 198.186 56.2881 198.186 56.2552V35.6532C198.186 35.6218 198.196 35.5916 198.216 35.5694C198.235 35.5471 198.261 35.5346 198.288 35.5346L201.751 35.5454C201.782 35.5453 201.811 35.5586 201.834 35.5828C201.857 35.607 201.872 35.6403 201.876 35.6766L202.2 38.6254Z" fill="white"/>
<path d="M103.574 56.3859C103.386 56.3751 103.17 56.3685 102.927 56.3662C102.428 56.3614 102.033 56.1799 101.742 55.8217C101.589 55.6324 101.413 55.2239 101.214 54.5962C99.2286 48.3296 97.2318 42.0295 95.2241 35.6959C95.2184 35.6777 95.2165 35.6582 95.2187 35.6389C95.2208 35.6197 95.227 35.6014 95.2366 35.5855C95.2463 35.5697 95.2591 35.5567 95.274 35.5478C95.2889 35.5388 95.3054 35.5342 95.3222 35.5342H99.8364C99.868 35.5342 99.8987 35.5458 99.9242 35.5671C99.9496 35.5884 99.9685 35.6184 99.9781 35.6528C101.217 40.0816 102.443 44.4758 103.656 48.8352C104.009 50.105 104.306 51.3922 104.547 52.6968C104.552 52.7247 104.563 52.7501 104.579 52.7698C104.595 52.7896 104.615 52.803 104.637 52.8082C104.843 52.8561 104.977 52.7621 105.039 52.5261C106.541 46.9124 108.074 41.2898 109.639 35.6582C109.648 35.6223 109.668 35.5909 109.694 35.5687C109.721 35.5464 109.752 35.5343 109.785 35.5342H114.344C114.36 35.5344 114.375 35.5388 114.389 35.547C114.402 35.5552 114.414 35.5671 114.423 35.5815C114.432 35.5959 114.437 35.6126 114.439 35.63C114.441 35.6474 114.44 35.6651 114.435 35.6815C112.445 42.0164 110.455 48.335 108.465 54.6375C107.874 56.5087 107.393 57.9163 107.023 58.8603C106.218 60.9028 105.083 62.468 103.619 63.5557C102.167 64.6315 100.533 65.0957 98.7152 64.9484C98.6789 64.9457 98.6444 64.9283 98.6178 64.8992C98.5911 64.87 98.5738 64.8309 98.5689 64.7884L98.231 62.0086C98.2253 61.9621 98.2344 61.915 98.2565 61.8762C98.2787 61.8375 98.3122 61.8097 98.3509 61.7983C100.917 61.0436 102.69 59.2964 103.669 56.5566C103.675 56.5382 103.678 56.5182 103.676 56.4984C103.674 56.4786 103.669 56.4595 103.659 56.4428C103.65 56.4261 103.637 56.4122 103.622 56.4023C103.608 56.3924 103.591 56.3868 103.574 56.3859Z" fill="white"/>
<path d="M4.98908 36.7471C5.10743 36.8321 5.23407 36.8794 5.36903 36.889C5.57042 36.9022 5.67578 36.9094 5.68513 36.9106C7.10524 37.1765 8.12984 37.4515 8.75893 37.7354C9.42331 38.0349 9.89045 38.1996 10.1604 38.2295C10.4998 38.2679 10.8221 38.3739 11.1273 38.5476C11.2882 38.6399 11.4575 38.6836 11.635 38.6788C11.6604 38.678 11.6853 38.6701 11.7076 38.6559C11.73 38.6417 11.7492 38.6214 11.7639 38.5967C11.7785 38.572 11.7881 38.5435 11.7919 38.5135C11.7958 38.4835 11.7938 38.4527 11.786 38.4236L11.6241 37.7965C11.5691 37.588 11.5966 37.5737 11.7066 37.7534C11.7678 37.8552 11.8654 37.9091 11.9993 37.9151C12.0585 37.9187 12.0715 37.8917 12.0383 37.8342C11.9625 37.706 11.9838 37.6665 12.1021 37.7156C12.1343 37.7288 12.1644 37.7372 12.1924 37.7408C12.5111 37.7779 12.8184 37.869 13.1143 38.0139C13.1194 38.0175 13.2113 38.0505 13.3899 38.1127C13.4802 38.1451 13.558 38.202 13.6234 38.2835C13.6639 38.3338 13.7049 38.3679 13.7465 38.3859C15.2299 39.0388 16.7294 39.6378 18.245 40.1828C19.6714 40.6956 20.6607 41.0591 21.213 41.2736C22.9206 41.9337 24.6304 42.5883 26.3422 43.2376C27.4384 43.6533 28.5435 44.0355 29.6573 44.3841L30.3643 47.1316L30.9934 49.7228C31.0401 49.9145 30.983 49.9798 30.8221 49.9187C22.5152 46.7656 14.3309 43.6755 6.26906 40.6482C6.05625 40.568 5.84396 40.5524 5.63218 40.6015C5.61314 40.6059 5.59214 40.6032 5.57116 40.5938C5.55018 40.5844 5.52991 40.5685 5.51228 40.5476C5.47076 40.4997 5.42197 40.4907 5.36591 40.5207L4.83337 39.8468C4.44201 38.7782 4.49391 37.745 4.98908 36.7471Z" fill="#477CFA"/>
<path d="M28.502 36.7471L31.8763 45.013C31.785 45.0286 31.7071 45.0735 31.6428 45.1478L31.3703 44.5189L29.5017 39.6222C29.1986 38.8124 28.8866 38.0067 28.5658 37.2053C28.5077 37.0603 28.4864 36.9076 28.502 36.7471Z" fill="#4DB9F7"/>
<path d="M68.2421 36.8301C68.6449 37.6878 68.7207 38.5887 68.4695 39.5327C67.9992 40.3293 67.4194 41.0032 66.7301 41.5542C66.6803 41.5279 66.6289 41.5231 66.576 41.5399C66.5712 41.5412 66.5663 41.541 66.5617 41.5394C66.557 41.5377 66.5527 41.5346 66.5492 41.5304C66.5456 41.5261 66.5429 41.5208 66.5414 41.5149C66.5398 41.5091 66.5394 41.5028 66.5402 41.4967C66.5464 41.444 66.5069 41.4368 66.4218 41.4752C63.1394 42.9583 61.0481 43.91 60.1481 44.3305C54.123 47.1445 48.0148 49.9975 41.8236 52.8894C41.5548 53.0152 41.4608 52.9193 41.5418 52.6019L42.7828 47.7016C42.952 47.7447 43.1825 47.6986 43.4742 47.5632C48.0688 45.4332 52.6624 43.3003 57.2549 41.1643C57.422 41.0864 57.6229 40.9607 57.8575 40.7869C58.0828 40.6216 58.2904 40.5066 58.4804 40.4419C58.6517 40.3844 58.796 40.3054 58.9133 40.2047C59.1064 40.0382 59.2356 39.9382 59.301 39.9046C60.0785 39.5105 60.8659 39.1445 61.6632 38.8067C63.2546 38.1179 64.8787 37.5572 66.5355 37.1248C66.7794 37.0613 67.0634 37.0074 67.3872 36.9631C67.6727 36.9235 67.9577 36.8792 68.2421 36.8301Z" fill="#4874F9"/>
<path d="M68.4692 39.5332C68.1359 41.8093 67.8525 43.6362 67.619 45.0139C67.374 46.4598 67.0423 47.977 66.6239 49.5655C66.2274 51.0678 65.7156 52.5155 65.0886 53.9088C64.2197 55.8411 62.9117 57.5673 61.1646 59.0876C59.2493 60.7539 57.2432 62.2604 55.1462 63.6069C54.7995 63.8297 54.4544 64.0561 54.1107 64.2861C53.7007 64.5604 53.3753 64.8216 53.1344 65.0696C52.2178 66.0172 51.5954 67.184 51.2674 68.57C51.092 69.314 51.0032 69.6901 51.0011 69.6985C50.1582 72.6119 48.6296 74.9462 46.4153 76.7012C44.9599 77.8548 43.5025 79.0049 42.0429 80.1513C41.9505 80.1513 41.9344 80.1154 41.9946 80.0435C43.2154 78.5748 43.9042 76.7815 44.0609 74.6635C44.0983 74.3748 44.1134 74.0004 44.1061 73.5404C44.0781 71.8261 44.0931 69.8195 44.1513 67.5206C44.3973 64.7857 45.3051 62.488 46.8747 60.6275C47.1 60.3604 47.8874 59.5799 49.2369 58.2861C50.1348 57.4248 51.0328 56.5622 51.9307 55.6985L56.4465 51.3104C56.8233 50.9893 57.6377 50.2346 58.8896 49.0462C61.5098 46.5581 64.1232 44.0609 66.7298 41.5548C67.4191 41.0037 67.9989 40.3298 68.4692 39.5332Z" fill="#403061"/>
<path d="M29.5015 39.6222L31.3701 44.5189L30.9917 44.6393C30.9735 44.6452 30.9572 44.6595 30.9452 44.6802C30.9332 44.7008 30.926 44.7268 30.9247 44.7543C30.9227 44.831 30.8946 44.8795 30.8406 44.8999C30.8161 44.9095 30.7945 44.9241 30.7785 44.942C30.7625 44.9598 30.7527 44.9801 30.7503 45.0005C30.7275 45.1922 30.7394 45.382 30.7862 45.5701C30.7875 45.5765 30.7903 45.5823 30.7944 45.5871C30.7984 45.5919 30.8035 45.5956 30.8094 45.5978C30.8152 45.6001 30.8216 45.6009 30.8281 45.6001C30.8346 45.5994 30.841 45.5971 30.8469 45.5935C30.8666 45.5827 30.8858 45.5773 30.9045 45.5773C30.924 45.5778 30.9427 45.5903 30.9569 45.6123C30.9711 45.6344 30.9796 45.6643 30.9808 45.6959C30.9901 45.9032 30.9948 46.1098 30.9948 46.3159C30.9948 46.4165 30.9564 46.4686 30.8796 46.4722C30.8583 46.4733 30.8382 46.4823 30.8233 46.4972C30.8083 46.5122 30.7995 46.5321 30.7986 46.553L30.7862 47.0238C30.7859 47.0325 30.7837 47.0409 30.7796 47.0482C30.7756 47.0556 30.77 47.0617 30.7632 47.0659C30.7564 47.0702 30.7487 47.0725 30.7407 47.0727C30.7328 47.0729 30.7248 47.0709 30.7176 47.067C30.6003 47.0011 30.4825 47.0227 30.3642 47.1317L29.6572 44.3841L29.3069 43.0364L28.7292 40.7831L28.4629 39.6222C28.6684 39.5539 28.8968 39.5875 29.148 39.7229C29.2591 39.7828 29.3769 39.7492 29.5015 39.6222Z" fill="#2D69E6"/>
<path d="M4.83301 39.8477L5.36555 40.5215L16.3107 50.9959L21.1706 55.6608C23.117 57.5547 24.4655 58.8462 25.216 59.535C27.151 61.3128 28.3485 63.5452 28.8083 66.2322C28.9298 66.9426 28.9952 68.1364 29.0045 69.8135C29.0139 71.4451 29.0409 73.0768 29.0855 74.7084C29.1987 76.4802 29.7125 78.0261 30.6271 79.3463C30.8337 79.6458 30.9665 79.8644 31.0257 80.0022C28.8229 78.3131 27.3078 77.1139 26.4804 76.4047C24.263 74.5023 22.7843 72.0393 22.0441 69.0157C21.8126 68.0693 21.6325 67.4487 21.5038 67.154C20.9328 65.8506 20.0676 64.839 18.908 64.119C16.7955 62.8084 14.7717 61.3409 12.8367 59.7165C11.8017 58.848 11.0029 58.0836 10.4403 57.4236C8.99317 55.7308 7.90525 53.7416 7.17651 51.4559C6.52666 49.4218 5.99983 47.1882 5.59601 44.7551C5.2389 42.612 4.98457 40.9761 4.83301 39.8477Z" fill="#403061"/>
<path d="M30.3646 47.1321C30.4829 47.0231 30.6008 47.0016 30.7181 47.0675C30.7253 47.0714 30.7332 47.0734 30.7411 47.0732C30.7491 47.073 30.7568 47.0707 30.7636 47.0664C30.7704 47.0621 30.7761 47.0561 30.7801 47.0487C30.7841 47.0414 30.7863 47.033 30.7866 47.0243L30.799 46.5535C30.7999 46.5325 30.8087 46.5126 30.8237 46.4977C30.8387 46.4827 30.8587 46.4738 30.88 46.4727C30.9568 46.4691 30.9952 46.417 30.9952 46.3163C30.9952 46.1103 30.9906 45.9036 30.9812 45.6964C30.9801 45.6648 30.9715 45.6349 30.9573 45.6128C30.9431 45.5908 30.9244 45.5782 30.9049 45.5778C30.8862 45.5778 30.867 45.5832 30.8473 45.594C30.8415 45.5976 30.8351 45.5998 30.8286 45.6006C30.8221 45.6013 30.8156 45.6006 30.8098 45.5983C30.8039 45.5961 30.7988 45.5924 30.7948 45.5876C30.7908 45.5828 30.7879 45.577 30.7866 45.5706C30.7399 45.3825 30.7279 45.1926 30.7508 45.001C30.7531 44.9806 30.7629 44.9603 30.7789 44.9424C30.795 44.9246 30.8165 44.91 30.8411 44.9003C30.8951 44.88 30.9231 44.8315 30.9252 44.7548C30.9264 44.7273 30.9336 44.7013 30.9456 44.6806C30.9576 44.66 30.9739 44.6457 30.9921 44.6398L31.3705 44.5194L31.643 45.1483L32.6287 47.709C33.6045 50.2271 34.5216 52.7728 35.3801 55.346L36.6321 59.1717L36.548 61.4556C36.5293 61.3478 36.4805 61.2855 36.4016 61.2687C36.3155 61.2507 36.2688 61.24 36.2615 61.2364C35.2784 60.8386 34.6623 60.6122 34.4132 60.5571C34.191 60.508 34.0701 60.3319 34.0503 60.0288C34.0483 59.9981 34.0335 59.9697 34.009 59.9499C33.9845 59.93 33.9523 59.9203 33.9195 59.9228L33.6299 59.9426C33.6125 59.9441 33.5961 59.952 33.5839 59.9648C33.5716 59.9777 33.5642 59.9946 33.563 60.0126C33.5609 60.045 33.5531 60.0737 33.5396 60.0989C33.5294 60.1192 33.5114 60.1342 33.4888 60.1414C33.4661 60.1486 33.4401 60.1475 33.415 60.1384C31.262 59.3789 29.1209 58.5781 26.9918 57.7359C26.7915 57.6568 26.5636 57.591 26.3082 57.5383C25.947 57.4616 25.7191 57.3861 25.6246 57.3118C25.0371 56.841 24.4371 56.393 23.8246 55.9677C21.4505 54.2786 19.0426 52.6548 16.601 51.0962C16.5958 51.0926 16.5678 51.0687 16.5169 51.0243C16.4609 50.9764 16.3923 50.9668 16.3114 50.9956L5.36621 40.5212C5.42227 40.4912 5.47106 40.5002 5.51258 40.5481C5.53021 40.569 5.55048 40.5849 5.57146 40.5943C5.59244 40.6038 5.61344 40.6064 5.63248 40.602C5.84425 40.5529 6.05654 40.5685 6.26935 40.6488C14.3312 43.676 22.5155 46.7662 30.8224 49.9192C30.9833 49.9803 31.0404 49.915 30.9937 49.7233L30.3646 47.1321Z" fill="#5D6EF9"/>
<path d="M66.73 41.5544C64.1233 44.0606 61.5099 46.5577 58.8897 49.0459C57.6378 50.2343 56.8234 50.989 56.4466 51.3101C56.3147 51.3508 56.104 51.4646 55.8144 51.6515C53.2773 53.2891 51.1762 54.7153 49.5111 55.93L46.7316 57.9785C46.6878 58.0114 46.6382 58.0295 46.5883 58.0306C46.3194 58.0366 46.089 58.0851 45.8969 58.1762C42.9508 59.5814 39.9938 60.9561 37.0259 62.3002C37.0176 62.305 36.9553 62.3265 36.839 62.3649C36.6646 62.4212 36.5717 62.5673 36.5603 62.8033L36.5479 61.4556L36.6319 59.1717C36.7036 59.016 36.7446 58.8488 36.7549 58.6703L38.3386 53.7287L40.4921 47.9785L41.9262 44.3325C41.9864 44.5829 42.0549 44.6446 42.1318 44.5176C42.1681 44.4577 42.2034 44.417 42.2377 44.3954C42.519 44.2145 42.5849 44.3217 42.4354 44.7171C42.4167 44.7662 42.41 44.8237 42.4152 44.8896C42.4245 45.0238 42.3882 45.125 42.3062 45.1933C42.2811 45.2142 42.2597 45.2363 42.2431 45.2582C42.2265 45.2801 42.2151 45.3014 42.2096 45.3208C42.1453 45.5377 42.1909 45.7174 42.3467 45.8599C42.3499 45.863 42.3521 45.8672 42.3529 45.8721C42.3537 45.877 42.3532 45.8822 42.3513 45.8869C42.1209 46.4463 42.0113 46.8746 42.0228 47.1717C42.029 47.3179 42.1162 47.3023 42.2844 47.125C42.3332 47.0747 42.356 47.0872 42.3529 47.1627C42.3456 47.3472 42.3088 47.5365 42.2423 47.7305C42.2122 47.8156 42.2335 47.8551 42.3062 47.8491C42.3255 47.8475 42.3448 47.8365 42.3617 47.8176C42.3787 47.7987 42.3924 47.7728 42.4011 47.7431C42.4375 47.6221 42.5164 47.5724 42.6378 47.594C42.6547 47.5967 42.6718 47.5939 42.6873 47.5859C42.7027 47.578 42.7158 47.5652 42.725 47.5491C42.7832 47.4436 42.8024 47.4945 42.7827 47.7018L41.5416 52.6021C41.4606 52.9195 41.5546 53.0154 41.8234 52.8896C48.0146 49.9977 54.1228 47.1447 60.1479 44.3307C61.0479 43.9102 63.1392 42.9585 66.4216 41.4754C66.5068 41.437 66.5462 41.4442 66.54 41.4969C66.5392 41.503 66.5396 41.5093 66.5412 41.5151C66.5428 41.521 66.5454 41.5263 66.549 41.5306C66.5525 41.5348 66.5568 41.5379 66.5615 41.5396C66.5662 41.5412 66.5711 41.5414 66.5758 41.5401C66.6287 41.5233 66.6801 41.5281 66.73 41.5544Z" fill="#5965F7"/>
<path d="M42.1265 43.0371L42.3476 43.127L41.9256 44.3327L40.4915 47.9787C40.424 47.8218 40.3181 47.7894 40.1738 47.8817L42.1265 43.0371Z" fill="#4DB9F7"/>
<path d="M31.8761 45.0137L32.9272 47.6192L32.6282 47.7091L31.6426 45.1484C31.7069 45.0742 31.7848 45.0292 31.8761 45.0137Z" fill="#4DB9F7"/>
<path d="M32.9269 47.6191L35.9633 55.1214L35.3794 55.346C34.5209 52.7728 33.6037 50.2271 32.6279 47.709L32.9269 47.6191Z" fill="#89BCFD"/>
<path d="M40.4918 47.9783L38.3382 53.7286C38.2521 53.6974 38.2157 53.6399 38.2292 53.5561C38.2309 53.5459 38.2307 53.5354 38.2288 53.5254C38.2269 53.5154 38.2233 53.5063 38.2182 53.4987C38.2132 53.4911 38.2069 53.4853 38.1999 53.4819C38.1928 53.4784 38.1853 53.4774 38.1778 53.4788L37.8711 53.5489L40.1741 47.8813C40.3184 47.7891 40.4243 47.8214 40.4918 47.9783Z" fill="#73BFFD"/>
<path d="M16.3115 50.9957C16.3925 50.9669 16.461 50.9765 16.5171 51.0244C16.5679 51.0687 16.596 51.0927 16.6012 51.0963C19.0428 52.6548 21.4506 54.2787 23.8247 55.9678C23.7458 55.9726 23.7303 55.9942 23.778 56.0325C23.8787 56.1116 23.8476 56.1403 23.6846 56.1187C23.6514 56.114 23.6171 56.102 23.5818 56.0828C23.3856 55.9762 23.1822 55.9115 22.9714 55.8887C22.714 55.8612 22.5095 55.8229 22.3579 55.7737C22.0257 55.6683 21.6551 55.6042 21.2461 55.5815C21.1932 55.5791 21.1683 55.6054 21.1714 55.6605L16.3115 50.9957Z" fill="#504AD5"/>
<path d="M56.4465 51.3096L51.9308 55.6977C51.856 55.615 51.7688 55.5791 51.6692 55.5899C51.0048 55.6618 50.3518 55.8019 49.7103 56.0104C49.5525 56.0619 49.486 56.0349 49.511 55.9295C51.1761 54.7148 53.2772 53.2886 55.8143 51.651C56.1039 51.4641 56.3146 51.3503 56.4465 51.3096Z" fill="#4D43D7"/>
<path d="M38.338 53.7289L36.7543 58.6705C36.5426 58.0452 36.4907 57.4013 36.5986 56.7388L37.8708 53.5492L38.1776 53.4791C38.185 53.4777 38.1926 53.4788 38.1996 53.4822C38.2066 53.4857 38.2129 53.4915 38.2179 53.499C38.223 53.5066 38.2266 53.5158 38.2285 53.5258C38.2304 53.5357 38.2306 53.5463 38.229 53.5564C38.2155 53.6403 38.2518 53.6978 38.338 53.7289Z" fill="#8BAEFE"/>
<path d="M35.9638 55.1211L36.5991 56.7383C36.4912 57.4008 36.5431 58.0447 36.7548 58.6701C36.7445 58.8486 36.7035 59.0157 36.6318 59.1714L35.3799 55.3457L35.9638 55.1211Z" fill="#9EB1FE"/>
<path d="M23.8245 55.9675C24.437 56.3928 25.037 56.8409 25.6246 57.3117C25.7191 57.3859 25.9469 57.4614 26.3082 57.5381C26.5635 57.5908 26.7914 57.6567 26.9918 57.7357C29.1209 58.5779 31.262 59.3787 33.415 60.1383C33.44 60.1474 33.466 60.1484 33.4887 60.1412C33.5114 60.134 33.5293 60.119 33.5395 60.0987C33.553 60.0736 33.5608 60.0448 33.5629 60.0125C33.5641 59.9945 33.5715 59.9775 33.5838 59.9647C33.5961 59.9518 33.6124 59.9439 33.6299 59.9424L33.9195 59.9226C33.9523 59.9201 33.9844 59.9298 34.0089 59.9497C34.0334 59.9695 34.0483 59.9979 34.0503 60.0286C34.07 60.3317 34.1909 60.5078 34.4131 60.5569C34.6622 60.6121 35.2784 60.8385 36.2614 61.2362C36.2687 61.2398 36.3154 61.2506 36.4016 61.2685C36.4805 61.2853 36.5293 61.3476 36.5479 61.4554L36.5604 62.8031V70.7995L36.5542 77.1895C36.5542 77.2161 36.549 77.2417 36.5392 77.2636C36.5293 77.2854 36.5151 77.3026 36.4981 77.3135L36.4374 77.3512C33.8608 77.2637 31.495 76.4174 29.3399 74.8121C29.2621 74.7534 29.1775 74.7187 29.0861 74.7079C29.0415 73.0763 29.0145 71.4446 29.0051 69.813C28.9958 68.1359 28.9304 66.9421 28.8089 66.2317C28.3491 63.5447 27.1516 61.3123 25.2166 59.5345C24.4661 58.8457 23.1176 57.5542 21.1712 55.6603C21.168 55.6052 21.193 55.5788 21.2459 55.5812C21.6549 55.604 22.0255 55.6681 22.3577 55.7735C22.5093 55.8226 22.7138 55.8609 22.9712 55.8885C23.1819 55.9112 23.3854 55.9759 23.5816 56.0826C23.6169 56.1017 23.6512 56.1137 23.6844 56.1185C23.8474 56.1401 23.8785 56.1113 23.7778 56.0322C23.7301 55.9939 23.7456 55.9723 23.8245 55.9675Z" fill="#7957F7"/>
<path d="M51.9311 55.6986C51.0332 56.5623 50.1352 57.4248 49.2373 58.2861C47.8877 59.5799 47.1003 60.3604 46.8751 60.6276C45.3055 62.488 44.3977 64.7857 44.1516 67.5206C43.8983 67.5626 43.5817 67.6788 43.2018 67.8693C41.492 68.7222 39.3551 69.7075 36.791 70.8252C36.7557 70.8408 36.7157 70.8749 36.6711 70.9277C36.6067 71.0043 36.5699 70.9618 36.5605 70.8001V62.8037C36.572 62.5677 36.6649 62.4215 36.8393 62.3652C36.9555 62.3269 37.0178 62.3053 37.0261 62.3005C39.994 60.9564 42.9511 59.5817 45.8972 58.1765C46.0892 58.0855 46.3197 58.037 46.5885 58.031C46.6384 58.0298 46.6881 58.0118 46.7318 57.9789L49.5113 55.9304C49.4864 56.0358 49.5528 56.0627 49.7106 56.0112C50.3522 55.8028 51.0051 55.6626 51.6695 55.5907C51.7692 55.58 51.8564 55.6159 51.9311 55.6986Z" fill="#6D4DF4"/>
<path d="M44.1516 67.5205C44.0935 69.8194 44.0784 71.826 44.1064 73.5403C44.1137 74.0003 44.0986 74.3747 44.0613 74.6634C41.7609 76.4351 39.2196 77.3312 36.4375 77.3516L36.4982 77.3139C36.5152 77.303 36.5294 77.2858 36.5393 77.264C36.5491 77.2421 36.5543 77.2165 36.5543 77.1899L36.5605 70.7999C36.5699 70.9617 36.6067 71.0042 36.6711 70.9275C36.7157 70.8748 36.7557 70.8407 36.791 70.8251C39.3551 69.7074 41.492 68.7221 43.2017 67.8691C43.5817 67.6786 43.8983 67.5624 44.1516 67.5205Z" fill="#7E46F4"/>
<path d="M44.061 74.6631C43.9042 76.7811 43.2155 78.5744 41.9947 80.0431C41.9344 80.115 41.9505 80.151 42.0429 80.151L36.6692 84.4906C36.6463 84.509 36.6194 84.5191 36.592 84.5194C36.5647 84.5197 36.5384 84.5103 36.5166 84.4924L31.0261 80.0018C30.967 79.864 30.8341 79.6454 30.6275 79.3459C29.7129 78.0258 29.1991 76.4798 29.0859 74.708C29.1773 74.7188 29.2619 74.7535 29.3398 74.8122C31.4948 76.4175 33.8607 77.2639 36.4372 77.3513C39.2193 77.3309 41.7606 76.4349 44.061 74.6631Z" fill="#743DD2"/>
</svg>
