<svg width="356" height="146" viewBox="0 0 356 146" fill="none" xmlns="http://www.w3.org/2000/svg">
<path d="M184.721 11.5538C184.471 11.7625 184.351 12.0535 184.233 12.3417C183.623 13.8324 182.979 15.3065 182.303 16.7697C181.694 18.0902 181.146 19.4381 180.564 20.7695C180.127 21.7688 179.68 22.7653 179.233 23.759C178.615 25.1344 177.982 26.5015 177.372 27.8796C177.142 28.4012 176.958 28.942 176.76 29.4773C176.695 29.6558 176.928 29.8726 177.134 29.8424C178.876 29.5871 180.613 29.2906 182.35 28.9969C184.035 28.7114 185.747 28.5714 187.413 28.1679C188.461 28.1981 189.455 27.7945 190.5 27.7835C190.808 27.7808 191.112 27.6765 191.419 27.627C191.727 27.5776 192.034 27.5227 192.344 27.5035C192.915 27.4706 193.483 27.4404 194.04 27.2811C194.334 27.196 194.658 27.2125 194.965 27.1741C195.324 27.1274 195.684 27.0698 196.043 27.0204C196.403 26.9709 196.759 26.8996 197.122 26.8776C197.643 26.8502 198.156 26.82 198.664 26.6772C198.911 26.6086 199.174 26.5811 199.432 26.5729C200.212 26.5509 200.988 26.5097 201.748 26.3011C201.993 26.2325 202.264 26.2572 202.522 26.2407C203.765 26.1584 204.984 25.8509 206.235 25.8619C206.938 25.6368 207.673 25.6779 208.392 25.5956C209.629 25.4528 210.859 25.2689 212.107 25.2469C212.964 24.9724 213.853 25.0163 214.733 24.9779C214.942 24.9697 215.159 24.9752 215.351 24.912C216.111 24.6732 216.89 24.7007 217.67 24.6787C218.345 24.6595 219.023 24.6732 219.676 24.4536C219.725 24.4371 219.777 24.4289 219.829 24.4289C221.393 24.4728 222.919 24.0555 224.481 24.0555C225.156 24.0555 225.822 24.0061 226.492 23.8661C227.044 23.7508 227.628 23.77 228.199 23.7508C229.028 23.7206 229.854 23.7206 230.677 23.5284C231.173 23.4131 231.709 23.4543 232.23 23.4379C233.059 23.4104 233.887 23.4186 234.708 23.221C235.155 23.1139 235.638 23.1441 236.105 23.1304C237.142 23.1002 238.179 23.1222 239.206 22.8861C239.653 22.7817 240.136 22.8312 240.602 22.8147C241.587 22.7817 242.573 22.8229 243.547 22.5786C243.942 22.4798 244.373 22.521 244.79 22.5045C246.886 22.4304 248.898 21.9417 250.852 21.206C251.236 21.0632 251.587 20.8217 251.93 20.5883C252.8 20.0008 253.511 19.2377 254.139 18.4059C254.383 18.0819 254.534 17.6756 254.677 17.2886C254.91 16.6544 255.102 16.0066 255.313 15.3642C255.478 14.8646 255.72 14.4088 256.101 14.0355C256.406 13.739 256.732 13.4974 257.166 13.4288C257.319 13.4041 257.476 13.3794 257.621 13.3272C258.757 12.9154 259.767 13.2366 260.725 13.8516C261.128 14.1096 261.419 14.4692 261.608 14.914C261.757 15.2599 261.817 15.6085 261.724 15.9764C261.584 16.5309 261.444 17.0827 261.304 17.6372C261.101 18.4443 261.312 19.1992 261.682 19.8938C262.009 20.5087 262.574 20.9232 263.241 21.1181C264.034 21.3515 264.836 21.5766 265.683 21.5629C266.88 21.5437 268.074 21.5711 269.27 21.5711C285.126 21.5711 300.978 21.5711 316.834 21.5711C317.767 21.5711 318.7 21.5382 319.627 21.7523C320.075 21.8539 320.557 21.8072 321.024 21.8099C327.157 21.8292 333.293 21.8456 339.426 21.8621C340.622 21.8648 341.816 21.8676 343.013 21.8758C343.688 21.8813 344.363 21.8594 345.024 22.0598C345.219 22.1201 345.436 22.1449 345.642 22.1339C346.794 22.0707 347.916 22.3233 349.041 22.4962C351.256 22.8312 353.41 23.4077 355.479 24.2724C355.556 24.3053 355.625 24.4097 355.652 24.492C355.68 24.5799 355.589 24.6457 355.457 24.6485C354.938 24.6567 354.417 24.6677 353.899 24.6677C348.858 24.6677 343.814 24.6677 338.773 24.6705C334.251 24.6705 329.728 24.6732 325.206 24.6787C324.479 24.6787 323.757 24.6787 323.035 24.8407C322.585 24.9422 322.105 24.9148 321.639 24.9175C319.092 24.9285 316.546 24.9285 313.996 24.934C308.225 24.9505 302.457 24.9697 296.686 24.9889C296.011 24.9889 295.342 25.0081 294.672 25.1454C294.17 25.2497 293.638 25.2305 293.122 25.2332C289.848 25.2579 286.572 25.2717 283.298 25.2936C282.469 25.2991 281.64 25.2854 280.817 25.4803C280.37 25.5846 279.887 25.5462 279.42 25.5489C276.822 25.5736 274.223 25.5901 271.624 25.6121C271.002 25.6176 270.381 25.6176 269.764 25.7576C269.363 25.8481 268.938 25.8454 268.526 25.8509C267.278 25.8674 266.029 25.9085 264.783 25.8646C263.776 25.8317 262.821 26.0815 261.861 26.2737C261.068 26.4329 260.442 26.9407 260.036 27.6408C259.674 28.2694 259.402 28.9475 259.089 29.6036C258.919 30.6303 258.466 31.5802 258.318 32.6206C258.217 33.3343 257.951 34.0234 257.747 34.7234C257.103 36.969 256.587 39.2503 255.862 41.4712C255.541 42.4567 255.272 43.4614 254.987 44.4607C254.844 44.9603 254.712 45.4627 254.57 45.9623C253.963 48.0569 253.357 50.1515 252.748 52.2461C252.487 53.1438 252.218 54.0387 251.968 54.9392C251.883 55.2384 251.839 55.5486 251.776 55.8533C251.488 56.18 251.411 56.6055 251.318 57.0008C250.967 58.4668 250.448 59.886 250.039 61.3355C249.573 62.9854 249.073 64.6243 248.607 66.2742C248.184 67.773 247.693 69.2527 247.24 70.7461C246.969 71.641 246.716 72.5415 246.458 73.4392C245.629 76.3354 244.732 79.2096 243.95 82.1195C243.464 83.9259 242.902 85.7103 242.394 87.5084C241.788 89.6579 241.148 91.7964 240.591 93.9596C240.177 95.5683 239.71 97.1633 239.269 98.7665C239.145 99.2167 239.03 99.6697 238.906 100.12C237.597 104.984 236.363 109.868 235.183 114.766C234.502 117.59 233.83 120.421 233.201 123.257C232.809 125.03 232.513 126.823 232.159 128.601C231.794 130.433 231.41 132.261 231.036 134.089C230.715 135.665 230.4 137.243 230.084 138.819C230.043 139.022 229.996 139.234 230.007 139.437C230.062 140.335 229.812 141.194 229.65 142.056C229.442 143.159 228.882 144.093 227.933 144.746C227.634 144.952 227.329 145.155 227.008 145.325C226.659 145.509 226.292 145.49 225.979 145.246C225.147 144.601 224.481 143.807 223.965 142.89C223.94 142.846 223.913 142.8 223.893 142.75C223.454 141.575 223.111 140.381 223.188 139.105C223.196 138.948 223.21 138.792 223.235 138.641C223.421 137.567 223.608 136.494 223.803 135.423C223.989 134.402 224.198 133.386 224.382 132.365C224.761 130.273 225.158 128.184 225.576 126.101C226.072 123.608 226.621 121.124 227.126 118.634C227.612 116.243 228.149 113.865 228.679 111.482C229.096 109.607 229.522 107.735 229.928 105.86C230.413 103.628 230.91 101.399 231.437 99.1783C231.676 98.168 231.871 97.1496 232.128 96.1421C232.23 95.7468 232.189 95.3185 232.214 94.904C232.343 94.8436 232.359 94.7887 232.257 94.764C232.238 94.7585 232.203 94.8299 232.175 94.8656C231.352 95.0275 230.592 95.3377 229.873 95.7742C228.896 96.3672 227.902 96.93 226.906 97.49C225.095 98.5057 223.298 99.5489 221.517 100.62C219.914 101.583 218.276 102.484 216.652 103.411C215.345 104.158 214.036 104.908 212.728 105.651C212.502 105.781 212.272 105.899 212.041 106.022C210.302 106.955 208.496 107.763 206.784 108.756C206.249 109.067 205.642 109.256 205.085 109.536C203.178 110.489 201.243 111.373 199.257 112.152C198.966 112.265 198.694 112.421 198.409 112.547C197.27 113.055 196.139 113.582 194.987 114.055C193.445 114.686 191.817 115.043 190.198 115.422C189.005 115.468 187.811 115.575 186.628 115.306C186.477 115.271 186.326 115.213 186.173 115.205C185.146 115.15 184.293 114.639 183.434 114.151C183.215 114.024 183.014 113.838 182.852 113.64C182.155 112.784 181.629 111.825 181.406 110.738C181.168 109.569 180.934 108.394 181.049 107.186C181.08 106.876 181.088 106.56 181.162 106.261C181.371 105.402 181.357 104.507 181.617 103.656C181.661 103.513 181.629 103.346 181.626 103.192C181.623 102.86 181.244 102.613 180.964 102.761C180.827 102.835 180.679 102.895 180.564 102.997C179.441 104.004 178.196 104.855 176.991 105.756C174.787 107.403 172.578 109.045 170.314 110.607C168.479 111.875 166.643 113.151 164.714 114.282C163.819 114.807 162.966 115.402 162.068 115.93C160.545 116.825 159.028 117.728 157.45 118.521C156.473 119.01 155.493 119.49 154.519 119.982C152.376 121.066 150.115 121.84 147.818 122.499C146.729 122.812 145.598 123.037 144.44 122.979C143.974 122.957 143.504 122.979 143.038 122.971C141.263 122.938 140.003 122.06 139.108 120.574C138.398 119.394 138.046 117.862 137.983 116.407C137.937 115.317 137.978 114.222 137.989 113.132C137.992 112.874 138.016 112.611 138.063 112.358C138.228 111.438 138.436 110.527 138.573 109.605C138.711 108.674 138.99 107.785 139.229 106.881C139.83 104.622 140.566 102.404 141.183 100.15C141.567 98.7473 142.014 97.3637 142.456 95.9774C142.599 95.5244 142.703 95.0769 142.676 94.602C142.711 94.5691 142.747 94.5361 142.783 94.5059C142.758 94.4812 142.736 94.4593 142.711 94.4346C142.679 94.4702 142.648 94.5059 142.615 94.5416C141.537 94.9122 140.467 95.2883 139.49 95.906C138.524 96.5154 137.509 97.0453 136.515 97.608C135.475 98.1955 134.432 98.7775 133.392 99.3677C133.211 99.4693 133.052 99.6065 132.871 99.7109C130.668 100.985 128.461 102.247 126.263 103.529C123.659 105.048 121.019 106.494 118.316 107.831C117.992 107.99 117.691 108.199 117.372 108.377C117.101 108.528 116.826 108.677 116.544 108.808C115.885 109.113 115.207 109.382 114.56 109.709C112.795 110.596 110.984 111.381 109.156 112.125C108.723 112.3 108.314 112.528 107.886 112.718C106.744 113.217 105.608 113.733 104.45 114.192C103.095 114.73 101.67 115.037 100.257 115.37C99.9581 115.441 99.6399 115.455 99.3298 115.463C98.8633 115.477 98.3939 115.444 97.9274 115.468C96.978 115.515 96.0725 115.241 95.1642 115.048C94.4068 114.886 93.7262 114.461 93.0731 114.024C92.9441 113.939 92.829 113.827 92.7329 113.706C91.9618 112.767 91.3938 111.727 91.188 110.516C91.0234 109.544 90.8065 108.581 90.8367 107.584C90.8422 107.362 90.587 107.227 90.3839 107.321C90.2906 107.365 90.1836 107.386 90.0985 107.439C88.8555 108.191 87.6206 108.959 86.3665 109.695C85.3375 110.302 84.2864 110.87 83.2464 111.458C82.4781 111.891 81.7126 112.331 80.9442 112.767C79.6353 113.511 78.3262 114.258 77.02 115.002C76.8856 115.079 76.7484 115.153 76.6112 115.227C75.198 115.995 73.7491 116.712 72.377 117.549C70.865 118.469 69.2213 119.141 67.7477 120.122C65.6594 121.173 63.5849 122.257 61.4747 123.262C60.1136 123.91 58.6509 124.313 57.2048 124.731C56.5627 124.917 55.8766 124.953 55.2098 125.052C55.1083 125.066 55.0013 125.057 54.8998 125.041C54.4388 124.964 53.9695 124.92 53.5222 124.794C51.9608 124.349 50.6657 123.386 50.2897 121.2C50.2184 120.791 50.1717 120.38 50.0921 119.973C50.0015 119.507 49.9632 119.034 50.0839 118.581C50.3254 117.676 50.35 116.737 50.5668 115.825C50.9784 114.107 51.4339 112.402 52.0706 110.755C52.7456 109.012 53.4839 107.293 54.2001 105.566C54.34 105.231 54.5073 104.908 54.672 104.581C55.926 102.069 57.1746 99.5544 58.4451 97.0507C58.8677 96.2189 59.3534 95.4173 59.8007 94.5965C60.2233 93.8224 60.5691 93.0043 61.0822 92.2796C61.1426 92.1945 61.1838 92.0984 61.2332 92.0078C62.2568 90.0806 63.283 88.1563 64.3039 86.2264C64.6688 85.5373 64.9981 84.8318 65.4345 84.1812C65.665 83.838 65.8652 83.4674 65.8954 83.0364C66.0271 82.9733 66.0436 82.9184 65.9393 82.8964C65.9229 82.8937 65.8899 82.9678 65.8652 83.0062C65.5469 82.9705 65.2396 83.02 64.9569 83.1627C63.1486 84.0714 61.3238 84.9444 59.5621 85.9491C58.1187 86.7727 56.6834 87.6045 55.2674 88.472C53.6292 89.474 52.0267 90.5309 50.479 91.6701C49.6037 92.3152 48.7036 92.9329 47.8337 93.5863C46.1762 94.8326 44.4722 96.0158 42.8916 97.3637C42.5376 97.6657 42.1424 97.9182 41.772 98.201C40.5783 99.1151 39.39 100.035 38.1963 100.949C38.1551 100.982 38.1113 101.009 38.0729 101.045C36.8573 102.179 35.4989 103.14 34.2338 104.208C33.7536 104.611 33.2515 104.973 32.7329 105.314C32.0359 105.772 31.2729 106.099 30.4607 106.313C30.1506 106.393 29.846 106.404 29.5414 106.308C29.1956 106.198 28.8416 106.104 28.5068 105.964C27.5052 105.544 26.9537 104.779 26.8823 103.694C26.8302 102.912 26.9208 102.151 27.1705 101.394C27.9169 99.1261 28.5096 96.8147 29.1792 94.5224C29.7609 92.5294 30.2301 90.5089 30.7652 88.5049C30.9134 87.9449 31.0013 87.3903 30.9903 86.8166C31.0233 86.7782 31.0644 86.7452 31.0864 86.7013C31.0919 86.6931 31.0232 86.6244 31.015 86.6299C30.9738 86.6574 30.9381 86.6958 30.9024 86.7315C30.7103 86.8056 30.4827 86.8358 30.3318 86.9593C29.1655 87.9092 27.8647 88.6943 26.7972 89.7677C25.8917 90.3854 25.17 91.2227 24.322 91.898C22.5658 93.2953 21.0675 94.9561 19.4732 96.5182C18.9162 97.0645 18.3481 97.5998 17.9365 98.2751C17.8843 98.363 17.8103 98.4426 17.7335 98.5112C16.6304 99.5434 15.7111 100.74 14.7314 101.882C14.1579 102.552 13.5899 103.23 13.0493 103.925C10.9172 106.673 8.81512 109.443 6.75703 112.246C5.83501 113.5 4.89378 114.741 3.9498 115.979C3.44489 116.638 2.92346 117.286 2.3911 117.923C2.2292 118.118 2.0097 118.266 1.81213 118.43C1.70511 118.518 1.46911 118.466 1.39502 118.345C1.31544 118.214 1.2112 118.09 1.15906 117.947C0.684329 116.621 0.333024 115.276 0.344 113.846C0.37693 109.355 0.201301 110.579 1.23034 106.461C1.55964 105.146 2.01245 103.875 2.43505 102.593C3.18694 100.323 3.80439 98.0171 4.452 95.7166C5.02826 93.6659 5.59628 91.6097 6.36189 89.6194C7.52265 86.5997 9.03192 83.7667 11.0269 81.1971C11.5702 80.4971 12.1383 79.8245 12.7584 79.1986C13.5625 78.386 14.3746 77.5789 15.1924 76.7801C15.3762 76.6017 15.5958 76.4616 15.8071 76.3134C15.9553 76.2091 16.2545 76.3079 16.3423 76.4864C16.4109 76.6264 16.4904 76.7664 16.5206 76.9146C16.5618 77.1177 16.5727 77.3264 16.5754 77.535C16.5891 78.2625 16.581 78.9927 16.6002 79.7202C16.6331 80.8787 16.4136 81.9932 16.0624 83.0886C15.7139 84.1784 15.3433 85.2573 14.9344 86.3279C14.3252 87.9284 13.7463 89.5426 13.3539 91.2199C13.2222 91.7827 13.1288 92.3372 13.1343 92.9137C13.1398 93.589 13.1398 94.2671 13.1618 94.9424C13.1727 95.2554 13.2633 95.5546 13.4718 95.8072C13.5459 95.895 13.642 95.9581 13.7435 95.9005C14.103 95.6946 14.479 95.5052 14.7946 95.2471C15.3187 94.8216 15.8044 94.3522 16.3779 93.9871C17.4536 92.8533 18.7406 91.9556 19.8437 90.8548C20.6532 90.045 21.471 89.2461 22.2887 88.4472C22.8458 87.9037 23.3698 87.3245 24.0476 86.9127C24.2233 86.8056 24.3633 86.6436 24.5142 86.4981C26.2128 84.8757 28.1502 83.569 30.093 82.2678C31.3471 81.6364 32.5984 81.005 33.8552 80.3818C33.9924 80.3132 34.1515 80.2912 34.3024 80.2583C34.5851 80.1924 34.9803 80.3708 35.1065 80.6179C35.1531 80.7112 35.2107 80.7991 35.2464 80.8952C35.7129 82.1772 35.9928 83.4839 35.9159 84.862C35.872 85.6471 35.6471 86.3966 35.5016 87.1597C35.2739 88.3319 34.8952 89.4712 34.4534 90.583C33.858 92.0874 33.4764 93.6494 33.1938 95.2334C32.988 96.3809 33.1883 97.5064 33.6109 98.5908C33.6713 98.7445 33.9814 98.8983 34.1351 98.8653C34.9583 98.6869 35.7074 98.33 36.4291 97.9155C37.7326 97.1606 38.9977 96.3452 40.1831 95.4119C40.345 95.2828 40.5069 95.1511 40.666 95.0165C41.5304 94.2698 42.3646 93.4875 43.2619 92.7847C44.2032 92.0517 45.1197 91.2885 46.1021 90.605C47.8913 89.3587 49.6448 88.0602 51.4175 86.7919C52.5591 85.9766 53.7033 85.1695 54.8558 84.3706C55.4952 83.9259 56.1757 83.5388 56.7657 83.0255C56.881 82.9239 57.021 82.847 57.1527 82.7619C58.1598 82.1168 59.1696 81.4799 60.1712 80.832C61.568 79.9288 62.9976 79.0888 64.4547 78.2817C65.8186 77.5268 67.1851 76.7773 68.5874 76.0993C68.9606 75.9181 69.3366 75.7369 69.7208 75.5832C70.3519 75.3334 71.0077 75.1824 71.6965 75.2016C72.3194 75.2181 72.9423 75.2153 73.5679 75.2318C73.9466 75.2428 74.2732 75.4047 74.5422 75.6655C74.7288 75.8467 74.9209 76.0279 75.0663 76.2393C75.4039 76.7279 75.5602 77.2358 75.3516 77.8507C75.0168 78.8363 74.6546 79.7888 74.0976 80.6893C72.1904 83.7831 70.3217 86.9044 68.4776 90.0367C67.6078 91.5136 66.7242 92.9823 65.8817 94.4757C64.4767 96.9656 63.1074 99.472 61.8232 102.025C61.1948 103.277 60.5088 104.504 59.7925 105.709C58.6483 107.634 57.6577 109.64 56.7439 111.677C56.2582 112.762 55.9124 113.92 55.6023 115.07C55.2785 116.27 54.908 117.467 54.9162 118.735C54.9162 118.938 54.8339 119.141 54.79 119.345C54.6501 119.962 54.6692 120.583 54.7296 121.206C54.7598 121.513 55.0973 121.785 55.3937 121.714C56.0989 121.541 56.807 121.371 57.4985 121.156C59.584 120.511 61.6229 119.745 63.6288 118.872C65.2039 118.186 66.7462 117.439 68.2637 116.646C69.5973 115.949 70.8897 115.172 72.2014 114.431C72.2453 114.406 72.2892 114.373 72.3331 114.348C73.8862 113.506 75.4367 112.663 76.9899 111.823C78.8614 110.81 80.7576 109.835 82.5907 108.751C82.769 108.644 82.9556 108.55 83.1395 108.457C84.6652 107.672 86.1361 106.794 87.6152 105.926C88.6909 105.295 89.7885 104.704 90.8806 104.1C91.2182 103.914 91.402 103.647 91.509 103.263C92.0112 101.46 92.6012 99.6861 93.3284 97.9594C93.8937 96.617 94.5276 95.3103 95.2822 94.0612C95.713 93.3502 96.1439 92.6392 96.5802 91.9309C97.3705 90.6434 98.3336 89.4849 99.2419 88.2825C99.4285 88.0355 99.6536 87.8158 99.8731 87.5935C100.899 86.5613 101.937 85.5373 102.955 84.4969C103.984 83.4455 105.219 82.6741 106.475 81.9438C107.194 81.5266 107.952 81.1724 108.712 80.8403C110.103 80.2308 111.549 79.841 113.089 79.8904C113.402 79.9014 113.714 79.9179 114.024 79.8904C115.35 79.7586 116.472 80.2967 117.529 80.983C118.632 81.6995 119.252 82.7646 119.466 84.0576C119.499 84.258 119.477 84.4749 119.441 84.6753C119.241 85.8173 118.805 86.8742 118.182 87.8405C117.507 88.8865 116.876 89.9681 115.964 90.8438C115.742 91.0579 115.589 91.338 115.388 91.5768C115.188 91.8156 114.996 92.0682 114.76 92.2686C112.847 93.8663 110.935 95.4585 108.759 96.7076C107.765 97.2759 106.763 97.8221 105.754 98.3575C104.974 98.772 104.217 99.225 103.462 99.6861C103.199 99.8481 102.968 100.068 102.743 100.282C102.291 100.71 101.852 101.155 101.41 101.594C100.438 102.566 99.7304 103.708 99.2667 104.995C98.8084 106.266 98.4049 107.551 98.2924 108.916C98.2403 109.533 98.0208 110.126 98.0153 110.76C98.0044 111.957 98.1553 112.18 99.3353 111.804C100.521 111.425 101.734 111.125 102.93 110.785C103.278 110.686 103.63 110.585 103.97 110.458C106.066 109.687 108.16 108.918 110.216 108.04C112.946 106.876 115.58 105.522 118.198 104.142C119.85 103.269 121.524 102.423 123.149 101.503C124.823 100.554 126.568 99.7438 128.25 98.8159C130.3 97.6876 132.402 96.6609 134.449 95.5354C135.634 94.8848 136.831 94.2589 138.019 93.6192C139.528 92.8066 141.027 91.9721 142.528 91.143C142.917 90.9289 142.939 90.9289 143.312 91.2995C143.386 91.3709 143.45 91.4725 143.54 91.5027C143.614 91.5301 143.779 91.5027 143.801 91.456C143.949 91.1266 144.081 90.7862 144.196 90.443C145.76 85.7597 147.294 81.0654 148.897 76.3958C149.654 74.1859 150.417 71.976 151.268 69.7963C151.814 68.3935 152.286 66.9605 152.81 65.5467C153.315 64.1823 153.844 62.8289 154.357 61.4673C154.429 61.2751 154.462 61.0665 154.511 60.8661C154.802 60.2759 155.027 59.6609 155.173 59.0186C155.45 58.7687 155.458 58.4201 155.521 58.0907C155.891 57.6377 156.084 57.1134 156.122 56.5314C156.311 56.3667 156.38 56.1471 156.396 55.9082C156.816 55.1917 157.11 54.4203 157.39 53.6379C157.582 53.0999 157.793 52.5701 158.004 52.0402C158.273 51.3649 158.55 50.6951 158.822 50.0197C158.979 49.6354 159.121 49.2456 159.28 48.8613C159.618 48.0459 159.964 47.2361 160.307 46.4235C160.449 46.0831 160.482 45.7207 160.493 45.3556C160.721 45.1635 160.919 44.9493 161.015 44.6638C161.155 44.2493 161.284 43.8293 161.418 43.412C161.69 43.154 161.819 42.8136 161.945 42.4786C162.809 40.1617 163.858 37.9243 164.804 35.6403C165.551 33.834 166.371 32.0551 167.142 30.257C167.263 29.9769 167.301 29.664 167.376 29.3648C167.535 29.1012 167.724 28.8487 167.853 28.5714C168.462 27.2564 169.071 25.9415 169.648 24.6101C170.468 22.7104 171.283 20.8052 172.192 18.9439C172.51 18.2906 172.787 17.6235 172.957 16.9152C173.333 16.5364 173.487 16.0285 173.72 15.5701C174.609 13.8131 175.441 12.026 176.481 10.3487C177.463 8.76194 178.489 7.20815 179.738 5.81358C179.875 5.6626 179.971 5.47592 180.089 5.30297C180.232 5.15473 180.377 5.00923 180.514 4.8555C181.096 4.19116 181.692 3.54329 182.424 3.03543C182.68 2.85973 182.91 2.64286 183.13 2.42599C183.796 1.76439 184.603 1.28124 185.327 0.696505C185.445 0.600423 185.602 0.553754 185.742 0.485124C185.92 0.397277 186.208 0.474143 186.291 0.633365C186.337 0.723957 186.4 0.811804 186.431 0.910632C186.919 2.41501 187.081 3.91939 186.733 5.50063C186.351 7.23286 185.783 8.89371 185.094 10.5189C184.954 10.851 184.853 11.1997 184.735 11.5428L184.721 11.5538ZM241.533 27.1549V27.1851C239.974 27.1851 238.412 27.1823 236.854 27.1851C236.439 27.1851 236.006 27.1549 235.613 27.2564C234.842 27.4541 234.069 27.4376 233.289 27.4486C232.406 27.4623 231.522 27.4651 230.638 27.4816C229.911 27.4925 229.187 27.4843 228.471 27.6792C228.128 27.7725 227.749 27.7506 227.387 27.7616C226.607 27.7835 225.828 27.7808 225.049 27.8055C224.686 27.8165 224.31 27.8137 223.965 27.9043C223.35 28.0663 222.733 28.0718 222.11 28.091C221.539 28.1075 220.949 28.0635 220.4 28.1871C219.629 28.36 218.858 28.3902 218.079 28.4204C217.818 28.4314 217.546 28.4094 217.305 28.4836C216.149 28.8295 214.915 28.6153 213.768 28.9969C212.933 29.0024 212.121 29.1781 211.301 29.3044C209.657 29.5514 208.032 29.8809 206.416 30.257C204.8 30.6331 203.203 31.1025 201.565 31.3825C200.596 31.55 199.646 31.8409 198.65 31.8657C198.395 31.8711 198.14 31.9535 197.885 31.9947C197.525 32.0523 197.168 32.1072 196.809 32.1539C196.499 32.1923 196.175 32.1731 195.881 32.261C195.272 32.4422 194.652 32.4476 194.029 32.4751C193.615 32.4943 193.187 32.4751 192.792 32.5794C192.125 32.7551 191.455 32.7524 190.78 32.7826C190.314 32.8018 189.831 32.7743 189.383 32.8841C188.664 33.0598 187.943 33.0708 187.216 33.0873C186.384 33.1092 185.555 33.079 184.738 33.3124C184.444 33.3947 184.12 33.3728 183.807 33.3865C182.822 33.4222 181.829 33.3645 180.868 33.661C179.776 33.6748 178.703 33.9026 177.622 33.9877C176.684 34.0618 175.778 34.2814 174.853 34.4022C174.582 34.4379 174.392 34.6301 174.261 34.8662C174.211 34.9568 174.181 35.0583 174.143 35.1544C173.712 36.1564 173.295 37.1639 172.85 38.1604C172.235 39.5358 171.569 40.8892 170.989 42.281C170.57 43.2885 170.095 44.2713 169.653 45.2678C169.082 46.5498 168.545 47.8455 167.987 49.133C167.617 49.9923 167.247 50.8515 166.865 51.7026C166.248 53.0779 165.619 54.4478 164.999 55.8204C164.936 55.9631 164.881 56.1086 164.821 56.2541C164.376 57.3055 163.943 58.3652 163.479 59.4084C162.87 60.7865 162.236 62.1536 161.613 63.5262C161.55 63.6689 161.487 63.8117 161.424 63.9544C160.825 65.3353 160.224 66.7189 159.626 68.0997C159.503 68.3852 159.363 68.6652 159.239 68.9507C158.751 70.0982 158.273 71.2485 157.777 72.3932C157.258 73.5847 156.709 74.7624 156.191 75.9538C155.323 77.955 154.476 79.9673 153.611 81.9685C152.848 83.7337 152.066 85.4879 151.306 87.2558C150.875 88.2578 150.477 89.2736 150.055 90.2783C149.468 91.6674 148.943 93.0784 148.416 94.4895C147.67 96.4852 146.932 98.4837 146.238 100.496C145.645 102.217 145.085 103.947 144.498 105.671C144.265 106.36 144.001 107.038 143.74 107.716C143.2 109.121 142.632 110.519 142.204 111.965C141.894 113.014 141.661 114.066 141.68 115.18C141.696 116.056 141.984 116.803 142.429 117.519C142.624 117.832 142.884 118.098 143.208 118.268C143.804 118.584 144.405 118.9 145.022 119.169C146.002 119.594 147.05 119.674 148.084 119.509C149.108 119.347 150.121 119.095 151.067 118.642C152.615 117.903 154.152 117.143 155.573 116.168C156.989 115.197 158.465 114.329 159.991 113.538C160.96 113.036 161.909 112.498 162.837 111.924C164.867 110.667 166.893 109.396 168.896 108.095C171.206 106.596 173.517 105.097 175.869 103.669C177.822 102.484 179.776 101.292 181.837 100.301C182.422 100.021 182.883 99.6916 183.083 99.0108C183.256 98.4179 183.569 97.8633 183.829 97.2978C184.131 96.6362 184.397 95.9527 184.762 95.3267C185.857 93.4408 186.927 91.5384 188.267 89.8061C189.062 88.7794 189.842 87.7417 190.786 86.8413C191.389 86.2675 191.971 85.6746 192.55 85.0761C193.497 84.1016 194.562 83.2753 195.7 82.5423C196.093 82.2897 196.496 82.0509 196.902 81.8203C197.901 81.2548 198.963 80.8265 200.039 80.4422C200.914 80.1292 201.822 79.8849 202.777 79.9124C203.192 79.9234 203.609 79.9261 204.026 79.9069C205.206 79.852 206.282 80.1896 207.302 80.7552C208.62 81.4826 209.391 82.5944 209.643 84.0686C209.668 84.2196 209.671 84.3843 209.643 84.5326C209.451 85.5593 209.171 86.5558 208.573 87.437C208.428 87.6511 208.279 87.8653 208.15 88.0904C207.451 89.3175 206.6 90.4238 205.593 91.4148C205.148 91.8541 204.704 92.2905 204.27 92.738C203.326 93.7126 202.25 94.5279 201.139 95.2965C199.512 96.4221 197.819 97.4351 196.043 98.308C195.25 98.6979 194.476 99.1206 193.741 99.6175C192.435 100.501 191.279 101.545 190.467 102.901C189.392 104.699 188.601 106.612 188.483 108.748C188.47 109.006 188.42 109.264 188.352 109.514C188.17 110.178 188.181 110.851 188.225 111.526C188.247 111.856 188.546 112.062 188.892 111.985C188.994 111.963 189.093 111.93 189.194 111.902C190.594 111.507 191.999 111.136 193.39 110.711C194.781 110.285 196.139 109.767 197.503 109.256C199.062 108.671 200.601 108.043 202.091 107.31C205.17 105.797 208.263 104.315 211.243 102.607C212.774 101.729 214.412 101.042 215.919 100.112C218.537 98.8379 221.075 97.4104 223.655 96.0625C225.543 95.0742 227.42 94.0639 229.299 93.0647C229.436 92.9906 229.574 92.9165 229.705 92.8314C230.712 92.1835 231.777 91.6317 232.88 91.1732C233.38 90.9646 233.605 90.6215 233.723 90.1438C233.898 89.4383 234.049 88.7273 234.25 88.0272C235.048 85.2299 235.729 82.4023 236.486 79.5939C237.433 76.0856 238.355 72.5689 239.282 69.0551C240.224 65.489 241.17 61.9257 242.112 58.3625C242.721 56.0537 243.368 53.7532 243.936 51.4335C244.123 50.6759 244.282 49.9127 244.504 49.166C245.394 46.1792 246.047 43.1265 246.889 40.1287C247.298 38.6793 247.644 37.2133 248.022 35.7556C248.401 34.2979 248.763 32.8347 249.178 31.388C249.427 30.5178 249.416 29.6393 249.372 28.7581C249.345 28.1871 249.021 27.778 248.505 27.5584C247.88 27.2921 247.229 27.1384 246.538 27.1439C244.875 27.1604 243.209 27.1494 241.546 27.1494L241.533 27.1549ZM107.397 91.9776C107.34 92.6941 107.562 92.8863 107.924 92.7572C109.31 92.2686 110.539 91.4999 111.722 90.6517C112.013 90.443 112.265 90.1657 112.493 89.883C113.701 88.3786 114.296 86.6327 114.475 84.7302C114.486 84.6177 114.258 84.4557 114.134 84.4969C113.791 84.6122 113.429 84.6973 113.113 84.8647C112.471 85.2051 111.851 85.584 111.231 85.9656C111.011 86.1001 110.819 86.2813 110.627 86.457C110.323 86.7397 110.045 87.0527 109.733 87.3245C108.887 88.0629 108.347 89.0018 107.93 90.0202C107.633 90.7422 107.472 91.5027 107.397 91.9748V91.9776ZM197.978 92.7023C198.156 92.6639 198.321 92.6611 198.455 92.598C199.155 92.2631 199.849 91.9172 200.541 91.5631C201.238 91.2062 201.759 90.6077 202.404 90.1767C202.489 90.1218 202.555 90.034 202.618 89.9516C203.236 89.1171 203.784 88.2496 204.13 87.2558C204.405 86.4679 204.46 85.6389 204.657 84.8373C204.709 84.6259 204.484 84.442 204.262 84.5161C203.919 84.6287 203.562 84.7192 203.247 84.8894C202.61 85.2299 201.962 85.5703 201.381 85.9958C200.461 86.6711 199.687 87.5139 198.949 88.3841C198.883 88.461 198.842 88.5598 198.787 88.6476C198.162 89.6771 197.772 90.7944 197.577 91.9803C197.553 92.1258 197.577 92.3043 197.646 92.4278C197.712 92.5458 197.868 92.6172 197.978 92.7023Z" fill="black"/>
<path d="M310.497 92.6826C310.187 92.7979 309.88 92.9105 309.57 93.0258C309.424 93.0533 309.262 93.0505 309.133 93.1136C308.554 93.3964 307.915 93.5392 307.369 93.8933C306.194 94.0909 305.064 94.4725 303.909 94.7498C302.701 95.0408 301.488 95.2906 300.27 95.5294C298.445 95.8891 296.626 96.2844 294.798 96.6248C292.441 97.0613 290.224 97.926 288.017 98.8209C286.665 99.3672 285.43 100.152 284.302 101.061C283.3 101.871 282.367 102.777 281.635 103.867C280.913 104.94 280.128 105.967 279.305 106.969C278.745 107.65 278.169 108.311 277.584 108.967C276.967 109.662 276.393 110.398 275.803 111.114C275.277 111.443 274.895 111.932 274.453 112.355C273.937 112.846 273.463 113.384 272.845 113.766C272.675 113.873 272.532 114.027 272.379 114.161C271.772 114.705 271.166 115.248 270.559 115.792C269.078 116.786 267.626 117.832 265.985 118.57C265.894 118.611 265.793 118.663 265.733 118.74C265.642 118.858 265.584 119.001 265.51 119.133C264.264 119.179 263.019 119.212 261.776 119.276C261.029 119.311 260.327 119.155 259.652 118.869C259.031 118.608 258.425 118.309 257.83 117.991C257.561 117.845 257.316 117.637 257.097 117.423C256.433 116.777 255.727 115.317 255.601 114.397C255.544 113.986 255.489 113.576 255.409 113.167C255.28 112.495 255.242 111.811 255.393 111.155C255.557 110.436 255.59 109.717 255.598 108.989C255.607 108.465 255.76 107.965 255.818 107.455C255.953 106.26 256.246 105.107 256.553 103.954C256.943 102.5 257.39 101.061 258.044 99.6967C258.178 99.4167 258.288 99.1229 258.408 98.8374C258.551 98.5025 258.677 98.1594 258.848 97.8409C259.899 95.8698 261.065 93.9674 262.352 92.1391C263.076 91.3924 263.592 90.4728 264.344 89.748C264.456 89.641 264.572 89.5311 264.66 89.4049C265.579 88.0625 266.838 87.0412 267.952 85.8828C268.167 85.6604 268.422 85.4737 268.663 85.2788C268.864 85.1141 269.1 84.9851 269.272 84.7956C270.087 83.9117 271.078 83.2336 271.995 82.4732C273.12 81.5371 274.398 80.8508 275.823 80.45C276.229 80.3347 276.629 80.2578 277.046 80.2578C277.93 80.2578 278.814 80.2606 279.695 80.2715C280.584 80.2825 281.429 80.5653 282.299 80.7135C283.117 80.8535 283.912 81.0896 284.73 81.2379C285.866 81.441 286.92 81.9187 287.875 82.5528C288.89 83.2254 289.664 84.145 290.045 85.3255C290.284 86.0612 290.484 86.8161 290.506 87.6068C290.526 88.3425 290.463 89.0535 290.205 89.748C290.043 90.1845 289.85 90.6182 289.878 91.1014C289.464 91.6999 289.494 92.3203 289.798 92.9489C289.82 92.9929 289.861 93.0258 289.894 93.0642C290.007 93.2289 290.111 93.4019 290.235 93.5584C290.674 94.1074 291.231 94.3902 291.95 94.2886C291.999 94.2804 292.051 94.2831 292.101 94.2776C292.918 94.2968 293.734 94.3325 294.532 94.0854C294.82 93.9976 295.138 94.0196 295.443 93.9784C295.797 93.929 296.151 93.8851 296.497 93.8082C297.194 93.6572 297.891 93.4925 298.582 93.3168C298.725 93.2811 298.851 93.1795 298.986 93.1082C300.056 93.0395 301.057 92.6744 302.084 92.4164C302.336 92.3862 302.591 92.3752 302.838 92.323C303.733 92.1391 304.622 91.9414 305.517 91.7465C306.502 91.5077 307.523 91.4693 308.511 91.2277C308.851 91.1453 309.218 91.17 309.572 91.1453C309.883 91.1398 310.195 91.1316 310.506 91.1261C311.268 91.1453 312.034 91.1673 312.797 91.1893C312.838 91.1893 312.901 91.2222 312.915 91.2551C312.961 91.3704 312.915 91.4555 312.808 91.5077C312.212 91.7959 311.614 92.0814 311.021 92.3752C310.843 92.463 310.673 92.5783 310.5 92.6799L310.497 92.6826ZM264.994 111.759C264.983 112.012 264.97 112.264 264.967 112.517C264.967 112.618 264.986 112.717 264.994 112.819C265.022 113.096 265.291 113.264 265.535 113.162C266.152 112.909 266.677 112.52 267.19 112.105C267.426 112.003 267.678 111.932 267.889 111.792C268.754 111.224 269.602 110.631 270.43 110.01C271.309 109.354 272.096 108.621 272.788 107.776C273.397 107.317 273.932 106.793 274.363 106.162C274.555 105.991 274.794 105.851 274.936 105.646C275.696 104.534 276.448 103.419 277.167 102.283C277.48 101.789 277.365 101.445 276.695 101.264C276.448 101.198 276.185 101.16 275.93 101.157C274.687 101.146 273.441 101.099 272.2 101.163C271.012 101.223 269.846 101.484 268.724 101.901C267.494 102.357 266.619 103.205 266.037 104.358C265.807 104.816 265.609 105.302 265.56 105.829C265.214 106.411 265.233 107.059 265.239 107.702C265.192 107.984 265.145 108.27 265.101 108.553C265.066 108.789 265.033 109.025 264.997 109.261C264.997 109.887 264.992 110.51 264.989 111.136C264.989 111.345 264.994 111.55 264.994 111.759ZM276.912 96.4656V96.482C277.326 96.482 277.743 96.4656 278.158 96.4848C279.321 96.5369 280.416 96.2295 281.514 95.8973C282.897 95.48 283.827 94.5384 284.486 93.3113C285.109 92.1528 285.397 90.8873 285.545 89.5888C285.597 89.1249 285.663 88.6664 285.745 88.2052C285.929 87.162 285.625 86.2589 284.815 85.5451C284.494 85.2651 284.121 85.0866 283.72 84.9686C283.322 84.8533 282.919 84.7435 282.51 84.6804C282.153 84.6255 281.777 84.5815 281.426 84.6364C280.762 84.7407 280.092 84.856 279.467 85.1251C278.119 85.7016 276.854 86.3906 275.872 87.5271C275.466 87.9993 275.024 88.4358 274.695 88.9711C274.396 89.457 274.069 89.9265 273.737 90.3904C272.73 91.8069 272.17 93.4293 271.591 95.0435C271.575 95.0929 271.572 95.1451 271.558 95.1945C271.495 95.4388 271.624 95.7463 271.855 95.8506C272.091 95.9549 272.332 96.084 272.579 96.1114C273.199 96.18 273.814 96.2487 274.42 96.4024C274.667 96.4655 274.936 96.4546 275.194 96.4573C275.765 96.4656 276.336 96.4573 276.909 96.4573L276.912 96.4656Z" fill="black"/>
</svg>
