<svg width="205" height="146" viewBox="0 0 205 146" fill="none" xmlns="http://www.w3.org/2000/svg">
<path d="M34.6858 132.693C32.6869 134.337 29.7153 135.16 25.775 135.16C22.0529 135.16 19.0967 134.233 16.9063 132.387C14.7159 130.537 13.2609 127.644 12.5449 123.702L0.635742 124.844C1.43223 131.533 3.8867 136.62 7.99553 140.117C12.1044 143.607 17.9863 145.354 25.6525 145.354C30.9178 145.354 35.3138 144.63 38.8406 143.171C42.3674 141.715 45.0976 139.493 47.0276 136.501C48.9575 133.513 49.9225 130.303 49.9225 126.878C49.9225 123.101 49.1183 119.925 47.5062 117.359C45.8941 114.792 43.6616 112.765 40.805 111.283C37.9521 109.804 33.5485 108.368 27.5939 106.981C21.6394 105.594 17.8904 104.261 16.3472 102.985C15.1334 101.978 14.5283 100.771 14.5283 99.3575C14.5283 97.8098 15.1755 96.5687 16.4736 95.6454C18.484 94.205 21.2679 93.481 24.8253 93.481C28.3827 93.481 30.8565 94.1553 32.5796 95.4999C34.3028 96.8445 35.4247 99.0548 35.9493 102.127L48.1879 101.595C47.9965 96.1052 45.9745 91.715 42.1299 88.4243C38.2853 85.1336 32.5567 83.4902 24.9517 83.4902C20.2953 83.4902 16.3167 84.1836 13.0235 85.5742C9.73034 86.9571 7.20674 88.9761 5.45676 91.627C3.70677 94.2779 2.83366 97.1241 2.83366 100.17C2.83366 104.901 4.69472 108.912 8.41679 112.198C11.0628 114.539 15.6657 116.508 22.2252 118.109C27.3258 119.362 30.5922 120.232 32.0243 120.722C34.1189 121.457 35.5894 122.32 36.428 123.312C37.2705 124.304 37.6879 125.507 37.6879 126.916C37.6879 129.123 36.6886 131.046 34.6897 132.69L34.6858 132.693Z" fill="black"/>
<path d="M97.946 84.5146H49.7773V94.628H67.7634V144.295H80.0018V94.628H97.946V84.5146Z" fill="black"/>
<path d="M125.214 145.312C134.117 145.312 141.228 142.585 146.547 137.137C151.866 131.686 154.527 124.135 154.527 114.485C154.527 104.836 151.847 97.1547 146.486 91.6882C141.125 86.2254 133.979 83.4902 125.046 83.4902C120.114 83.4902 115.756 84.2795 111.98 85.8578C109.143 87.0262 106.527 88.8189 104.145 91.24C101.76 93.6611 99.8795 96.3924 98.501 99.4379C96.6553 103.568 95.7324 108.682 95.7324 114.773C95.7324 124.285 98.3901 131.755 103.713 137.179C109.032 142.604 116.2 145.316 125.214 145.316V145.312ZM112.976 98.9284C116.062 95.5151 120.129 93.8104 125.172 93.8104C130.215 93.8104 134.263 95.4961 137.307 98.8672C140.351 102.238 141.875 107.352 141.875 114.202C141.875 121.051 140.309 126.33 137.184 129.801C134.056 133.264 130.05 134.999 125.172 134.999C120.293 134.999 116.269 133.256 113.098 129.763C109.928 126.265 108.342 121.14 108.342 114.37C108.342 107.601 109.885 102.345 112.972 98.936L112.976 98.9284Z" fill="black"/>
<path d="M16.9102 35.1286L41.3449 74.1112H53.6253V14.3311H42.2562V54.252L17.4462 14.3311H5.54102V74.1112H16.9102V35.1286Z" fill="black"/>
<path d="M86.7938 13.3105C81.8617 13.3105 77.5039 14.0998 73.7282 15.6742C70.8907 16.8426 68.2753 18.6392 65.8935 21.0565C63.5079 23.4775 61.6278 26.2089 60.2492 29.2544C58.4035 33.3878 57.4805 38.4982 57.4805 44.5853C57.4805 54.1011 60.1381 61.5713 65.4608 66.9919C70.7797 72.4164 77.9481 75.1285 86.9623 75.1285C95.9764 75.1285 102.976 72.4048 108.295 66.9536C113.614 61.5023 116.275 53.9518 116.275 44.302C116.275 34.6521 113.595 26.9713 108.234 21.5086C102.873 16.0458 95.7275 13.3144 86.7938 13.3144V13.3105ZM98.9288 59.6137C95.8003 63.0767 91.7948 64.8122 86.9163 64.8122C82.0378 64.8122 78.0133 63.0653 74.8426 59.5716C71.6719 56.0817 70.0866 50.9483 70.0866 44.1793C70.0866 37.4102 71.6298 32.1581 74.7162 28.7449C77.8026 25.3316 81.8694 23.6269 86.9125 23.6269C91.9557 23.6269 96.0032 25.3164 99.0475 28.6837C102.092 32.0548 103.616 37.165 103.616 44.0184C103.616 50.8717 102.05 56.1469 98.9251 59.6176L98.9288 59.6137Z" fill="black"/>
<path d="M119.347 14.3311V74.1112H130.716V35.1286L155.151 74.1112H167.431V14.3311H156.062V54.252L131.252 14.3311H119.347Z" fill="black"/>
<path d="M189.385 27.3665C196.883 27.3665 202.983 21.352 202.983 13.9547C202.983 6.55736 196.883 0.542969 189.385 0.542969C181.887 0.542969 175.787 6.5612 175.787 13.9547C175.787 21.3482 181.887 27.3665 189.385 27.3665ZM189.385 24.5087C186.957 24.5087 184.713 23.7042 182.913 22.3557L189.385 15.9735L195.856 22.3557C194.057 23.7042 191.817 24.5087 189.385 24.5087ZM200.088 13.9547C200.088 16.3489 199.272 18.5631 197.905 20.333L191.434 13.9547L197.905 7.57257C199.276 9.34624 200.088 11.5566 200.088 13.9547ZM189.385 3.40075C191.813 3.40075 194.057 4.20527 195.856 5.55371L189.385 11.9358L182.913 5.55371C184.713 4.20143 186.953 3.40075 189.385 3.40075ZM180.865 7.5764L187.336 13.9585L180.865 20.3369C179.498 18.5632 178.682 16.3528 178.682 13.9585C178.682 11.5643 179.498 9.35007 180.865 7.5764Z" fill="black"/>
<path d="M200.904 91.2646C198.561 88.2574 195.654 86.3114 192.181 85.4112C189.922 84.8136 185.07 84.5146 177.63 84.5146H157.989V144.295H170.228V121.746H178.208C183.745 121.746 187.98 121.463 190.902 120.892C193.05 120.429 195.168 119.482 197.247 118.057C199.326 116.628 201.042 114.663 202.394 112.162C203.745 109.664 204.419 106.576 204.419 102.907C204.419 98.1486 203.248 94.2679 200.904 91.2683V91.2646ZM190.423 107.718C189.501 109.051 188.225 110.028 186.598 110.652C184.97 111.281 181.746 111.591 176.921 111.591H170.224V94.628H176.136C180.544 94.628 183.481 94.7621 184.944 95.0341C186.927 95.3865 188.566 96.2714 189.864 97.685C191.159 99.0985 191.806 100.895 191.806 103.067C191.806 104.833 191.346 106.385 190.419 107.718H190.423Z" fill="black"/>
<path d="M191.067 144.295V137.963H188.658V136.859H194.732V137.963H192.308V144.295H191.067ZM195.563 144.295V136.859H197.385L199.265 142.797L201.08 136.859H202.869V144.295H201.739V138.055L199.824 144.295H198.702L196.704 137.963V144.295H195.563Z" fill="black"/>
</svg>
