<svg width="111" height="105" viewBox="0 0 111 105" fill="none" xmlns="http://www.w3.org/2000/svg">
<path d="M3.84067 51.1093C3.76716 51.5748 3.6079 51.5626 3.28938 51.5442L1.00458 51.4094C0.686052 51.4094 0.52679 51.3849 0.508414 50.9133V50.7908H0.281772V51.5932L0.214391 52.0342C0.214391 52.169 0.18989 52.3098 0.177639 52.4446L0.153137 52.8366H0.367528L0.373654 52.7263C0.447159 52.2608 0.600296 52.2731 0.924946 52.2915L1.89277 52.3466L1.79476 54.0433L0.826938 53.9881C0.508414 53.9698 0.349152 53.9636 0.330775 53.492V53.3695H0.116384V54.1719L0.0673801 54.6006C0.0673801 54.7354 0.0428783 54.8763 0.0306273 55.011L0 55.4153H0.214391L0.238893 55.3112C0.312399 54.8456 0.465535 54.8579 0.790185 54.8763L3.07498 55.011C3.39351 55.0294 3.55277 55.0355 3.57115 55.5072V55.6297H3.79779V54.8212L3.82229 54.3679C3.82229 54.2331 3.84679 54.0923 3.85904 53.9575L3.88967 53.5655H3.67528L3.6569 53.688C3.5834 54.1535 3.42414 54.1413 3.10561 54.1168L2.07041 54.0555L2.19904 52.3527L3.23425 52.414C3.55277 52.4323 3.71203 52.4385 3.73041 52.9101V53.0326H3.9448V52.2302L3.9693 51.7769C3.9693 51.6422 3.9938 51.5013 4.00606 51.3666L4.03668 50.9745H3.82229L3.84067 51.1093ZM4.33071 44.7575L1.07196 45.3578L1.01683 45.6334L3.57115 47.3546C3.93868 47.5996 4.22657 47.7772 4.21432 48.2427L4.42259 48.2795C4.44709 48.0835 4.47772 47.8936 4.5206 47.7037L4.69211 46.9197L4.47772 46.8768L4.42871 47.0054C4.35521 47.1892 4.30008 47.3239 4.06119 47.2811C3.90192 47.2321 3.74879 47.1463 3.62015 47.0422L3.49764 46.9626L3.74266 45.713L3.92642 45.6763C4.11019 45.6211 4.3062 45.6028 4.49609 45.6273C4.69211 45.664 4.65536 45.8662 4.6431 45.9948V46.1418L4.85137 46.1785L4.94938 45.5966L5.08414 44.9168L5.23115 44.2614L5.02288 44.2246C4.91875 44.6534 4.64923 44.6962 4.33071 44.7575ZM3.25262 46.8033L2.03366 46.0009L3.45476 45.7559L3.25262 46.8033ZM8.37964 37.9096L8.45315 37.6891L7.1668 37.248L7.05041 37.5788C6.98916 37.7442 6.93403 37.7626 6.75639 37.7074L4.37971 36.8744C4.07344 36.7642 3.9203 36.7213 4.03668 36.2619L4.06119 36.1394L3.85904 36.0659L3.73654 36.4334L3.61403 36.8254L3.47927 37.2419C3.43639 37.3644 3.38738 37.493 3.33225 37.6094C3.28325 37.7197 3.24037 37.8544 3.19749 37.9769L3.39963 38.0504L3.44864 37.9402C3.65078 37.5114 3.79779 37.5727 4.10406 37.6768L6.40724 38.4792C6.73801 38.5895 6.66451 38.7058 6.60325 38.8773L6.26635 39.8512C6.2051 40.0227 6.19285 40.1575 5.86207 40.035L3.54665 39.2632C3.2465 39.153 3.08724 39.1101 3.20362 38.6507L3.23425 38.5282L3.03211 38.4547L2.9096 38.8222L2.78709 39.2142L2.64008 39.643L2.49307 40.0289L2.3583 40.3964L2.56045 40.4699L2.60945 40.3596C2.81159 39.9309 2.9586 39.9921 3.26487 40.0962L5.42104 40.8558C5.72731 40.966 5.88045 41.0089 5.76406 41.4683L5.73344 41.5908L5.93558 41.6643L6.19285 40.8986L7.01366 38.5956C7.17292 38.1056 7.38119 37.7564 8.37964 37.9218V37.9096ZM5.53742 32.893C5.78857 32.4888 5.92945 32.5684 6.21735 32.7093L8.26938 33.7261C8.5634 33.8731 8.70429 33.9343 8.53278 34.3753L8.4899 34.4917L8.67979 34.5897L8.8513 34.2222C8.90643 34.0875 8.96156 33.965 9.02281 33.8547L9.22495 33.4504L9.42097 33.0829L9.59861 32.7338L9.40872 32.6358L9.34134 32.746C9.09019 33.1503 8.95543 33.0768 8.66141 32.9298L6.60938 31.913C6.32148 31.766 6.17447 31.7048 6.34598 31.2637L6.38886 31.1474L6.19897 31.0494L6.02746 31.4169L5.85595 31.7844L5.65381 32.1887L5.46392 32.5562L5.28628 32.9053L5.47617 33.0033L5.53742 32.893ZM9.48222 28.9484C10.4255 29.5365 11.6751 29.2486 12.2632 28.2992C12.2693 28.2869 12.2816 28.2747 12.2877 28.2563C12.9064 27.313 12.9125 26.0451 11.8834 25.353C10.9952 24.7711 9.78237 24.9242 9.03506 26.0512C8.37351 27.068 8.5144 28.2992 9.4761 28.9423H9.48222V28.9484ZM9.24333 26.2166C9.4516 25.8981 10.0335 25.3468 11.2954 26.1737C12.4286 26.9088 12.4041 27.5825 12.0855 28.0848C11.865 28.4155 11.277 28.9178 10.0029 28.0848C8.72879 27.2518 9.04732 26.5229 9.24333 26.2166ZM12.741 21.439C13.0901 21.1205 13.2004 21.2307 13.4393 21.439L15.1483 22.9641C15.3872 23.1785 15.5158 23.2827 15.234 23.6624L15.1605 23.7604L15.3198 23.9074L15.5771 23.6134L15.8405 23.2949L16.1406 22.958L16.4224 22.6579L16.6858 22.37L16.5265 22.223L16.4346 22.3088C16.0855 22.6273 15.9752 22.517 15.7363 22.3088L14.9645 21.6227L16.0977 20.3487L16.8695 21.0408C17.1084 21.2552 17.2371 21.3593 16.9553 21.7391L16.8818 21.8371L17.0411 21.9841L17.2983 21.6901L17.5678 21.3716L17.868 21.0347L18.1498 20.7346L18.4132 20.4467L18.2478 20.2936L18.1559 20.3793C17.8067 20.6978 17.6965 20.5876 17.4576 20.3793L15.7486 18.8664C15.5097 18.652 15.381 18.5479 15.6628 18.1681L15.7363 18.0701L15.5771 17.9231L15.3198 18.2171L15.0564 18.5356L14.7563 18.8725L14.4745 19.1727L14.2111 19.4605L14.3703 19.6076L14.4622 19.5218C14.8114 19.2033 14.9216 19.3135 15.1605 19.5218L15.8956 20.1649L14.7501 21.4206L14.0151 20.7775C13.7762 20.557 13.6475 20.4589 13.9293 20.0792L14.0028 19.9812L13.8436 19.8342L13.5863 20.1282L13.3229 20.4467L13.0227 20.7836L12.741 21.0837L12.4776 21.3716L12.6368 21.5186L12.741 21.439ZM20.2263 18.3886L20.3672 18.5479C20.5081 18.407 20.649 18.2784 20.8021 18.1559L21.4208 17.6536L21.2799 17.4882L21.1635 17.5617C20.992 17.6597 20.8695 17.7332 20.698 17.5372C20.6061 17.3964 20.5387 17.2432 20.4958 17.0779L20.4529 16.937L21.4208 16.1162L21.5861 16.1958C21.7699 16.2632 21.9292 16.3735 22.0639 16.5143C22.1926 16.6613 22.0394 16.8022 21.9537 16.8819L21.8495 16.9921L21.9904 17.1514L22.4315 16.7593L22.6765 16.5511L22.9521 16.3122L23.4667 15.8896L23.3258 15.7242C22.9889 15.9876 22.7439 15.8467 22.4621 15.6997L19.5464 14.1745L19.332 14.3583L20.2753 17.3106C20.4101 17.721 20.5264 18.0334 20.2263 18.3886ZM21.1635 15.9753L20.3611 16.6675L19.92 15.2893L21.1635 15.9753ZM24.4529 10.8118C24.8571 10.6097 25.096 10.7444 25.4636 11.4305C25.776 11.9327 25.9659 12.5024 26.0149 13.0965C26.0394 13.464 25.9352 13.5375 25.9046 13.562C25.8433 13.5865 25.7698 13.5988 25.7025 13.5865C25.6045 13.5743 25.5064 13.5926 25.4207 13.6478C25.2553 13.7396 25.194 13.9479 25.2921 14.1133C25.2982 14.1194 25.2982 14.1255 25.3043 14.1316C25.4391 14.3215 25.7025 14.3644 25.8924 14.2358C25.8985 14.2297 25.9107 14.2235 25.9169 14.2174C26.1374 14.0704 26.2905 13.8438 26.3334 13.5804C26.4926 12.8454 26.0761 11.8225 25.5983 10.9649L25.3472 10.5239C25.3227 10.4749 25.2737 10.3708 25.4329 10.2667L25.874 9.97266C25.9414 9.92978 25.9965 9.89916 26.0822 10.0278L27.4972 12.239C27.6687 12.5146 27.7606 12.6432 27.387 12.9372L27.289 13.0107L27.4053 13.1945L27.7361 12.9801L28.0791 12.7474L28.4467 12.5024L28.8142 12.288C28.949 12.2206 29.0347 12.1532 29.145 12.0797L29.0286 11.896L28.9183 11.9572C28.4957 12.1777 28.416 12.0368 28.2384 11.7673L26.9949 9.82565C26.8234 9.55002 26.7315 9.42139 27.1052 9.12739L27.2032 9.05388L27.0868 8.87013L26.756 9.09064L26.413 9.32339L25.0409 10.2115L24.2569 10.6954L24.3732 10.8792L24.4529 10.8118ZM30.3394 7.33884C30.6518 7.21633 30.7989 7.22858 30.9826 7.6206L31.9566 9.70928C32.1403 10.1013 32.0546 10.2238 31.7544 10.383L31.6809 10.4198L31.7728 10.6158L32.661 10.187L33.5676 9.77665C34.1679 9.50102 34.9213 9.00488 34.517 8.13511C34.3394 7.7431 33.9412 7.49809 33.5124 7.52259C33.151 7.54709 32.8019 7.65122 32.4834 7.82885L32.1342 8.00036L31.7667 7.24083C31.5829 6.84882 31.6687 6.72632 31.9688 6.56707L32.0423 6.53031L31.9504 6.33431L31.3318 6.64057L31.0561 6.76307L30.7805 6.8917L30.1557 7.16733L30.2476 7.36334L30.3394 7.33884ZM32.514 8.11061C32.6916 8.00035 32.906 7.9636 33.102 8.01873C33.3348 8.11061 33.5186 8.29436 33.6104 8.53325C33.9045 9.15801 33.5859 9.45815 33.3225 9.58065C33.1265 9.67865 32.8815 9.59902 32.7835 9.40302C32.7713 9.37852 32.7651 9.35402 32.7529 9.33564L32.2445 8.22699C32.3302 8.19636 32.4343 8.15348 32.514 8.11061ZM36.8998 4.53351C37.3654 4.43551 37.4021 4.59476 37.5001 4.90102L38.1739 7.09383C38.2719 7.40621 38.3209 7.55322 37.886 7.73697L37.7696 7.78597L37.8309 7.99423L38.1984 7.87173L38.5904 7.73697L39.0254 7.60222L39.4235 7.49197L39.791 7.38171L39.7298 7.17346L39.6073 7.19796C39.1417 7.29596 39.105 7.13671 39.007 6.83045L38.7252 5.8443L40.3485 5.34816L40.6547 6.34656C40.7527 6.65894 40.8017 6.80595 40.3607 6.9897L40.2504 7.0387L40.3117 7.24696L40.6792 7.12446L41.0713 6.9897L41.5062 6.85495L41.9043 6.7447L42.2719 6.63444L42.2106 6.42619L42.0881 6.45069C41.6226 6.54869 41.5858 6.38944 41.4878 6.08318L40.814 3.89037C40.716 3.57798 40.667 3.43098 41.1019 3.24722L41.2183 3.19822L41.157 2.98997L40.7895 3.11247L40.3975 3.24722L39.9626 3.38198L39.5644 3.49223L39.1969 3.60248L39.2581 3.81074L39.3806 3.78624C39.8462 3.68824 39.8829 3.84749 39.9809 4.15375L40.2627 5.07865L38.6456 5.57479L38.3577 4.64989C38.2597 4.3375 38.2107 4.1905 38.6456 4.00675L38.762 3.95774L38.7007 3.74949L38.3332 3.86587L37.9411 4.00062L37.5062 4.13537L37.1081 4.24563L36.7406 4.35588L36.8018 4.56414L36.8998 4.53351ZM44.7955 2.40808C45.2672 2.38358 45.2856 2.54283 45.3346 2.86134L45.6776 5.12765C45.7266 5.44616 45.7511 5.60541 45.3101 5.71567L45.1876 5.74629L45.2243 5.96067L45.5919 5.89942L45.9961 5.82592L46.4617 5.75242L46.866 5.70342L47.2519 5.65442L47.2151 5.44003H47.0926C46.8169 5.45841 46.6271 5.46454 46.5658 5.07253V5.00515L48.0727 2.87971L48.3544 4.72339C48.4034 5.0419 48.4279 5.20115 47.9869 5.31141L47.8644 5.34203L47.9012 5.55641L48.2687 5.49516L48.673 5.42166L49.114 5.35428L49.5244 5.30528L49.9103 5.25628L49.8736 5.0419H49.751C49.2794 5.0664 49.261 4.90715 49.212 4.58864L48.869 2.32232C48.82 2.00382 48.7955 1.84456 49.2365 1.73431L49.359 1.70368L49.3223 1.48318L48.9547 1.54443L48.5505 1.61793L48.1033 1.68531L47.6929 1.73431L47.307 1.78331L47.3437 1.99769H47.4663C47.7419 1.97931 47.9318 1.96706 47.9992 2.40195V2.44483L46.4923 4.57026L46.2105 2.72658C46.1615 2.40808 46.137 2.24882 46.5781 2.13857L46.7006 2.10794L46.6638 1.89356L46.2963 1.95481L45.892 2.02832L45.4448 2.09569L45.0406 2.14469L44.6547 2.1937L44.6914 2.40808H44.7955ZM55.2885 0.987037C56.0051 0.987037 56.3727 0.656278 56.3727 0.380645C56.3849 0.190765 56.2379 0.0253852 56.048 0.0131348H56.0419C55.8826 0.000884511 55.7418 0.111138 55.7234 0.270392C55.7234 0.313268 55.7418 0.356144 55.7663 0.38677C55.7969 0.423521 55.8398 0.460272 55.8398 0.503148C55.8398 0.613401 55.6376 0.766531 55.2946 0.766531C54.9516 0.766531 54.7494 0.607276 54.7494 0.497023C54.7494 0.454147 54.7923 0.417396 54.8229 0.380645C54.8474 0.343894 54.8597 0.307143 54.8658 0.264267C54.8474 0.105012 54.7066 -0.0113658 54.5473 0.000884511C54.3574 0.000884511 54.2043 0.160139 54.2043 0.343894C54.2043 0.350019 54.2043 0.356144 54.2043 0.362269C54.2104 0.650152 54.5779 0.987037 55.2885 0.987037ZM53.7081 5.0174H54.9638V4.80302H54.8413C54.5657 4.77852 54.3758 4.75402 54.3758 4.34363V4.27625L56.1828 2.40808V4.2885C56.1828 4.61314 56.1828 4.76627 55.7173 4.81527H55.5947V5.02352H57.659V4.83364H57.5426C57.071 4.79077 57.0771 4.62539 57.0771 4.30688V2.02219C57.0771 1.69756 57.0771 1.54443 57.5426 1.49543H57.6652V1.25042H55.6254V1.47093H55.7479C56.0235 1.49543 56.2134 1.50768 56.2134 1.94869V1.99156L54.4064 3.87199V1.99769C54.4064 1.67306 54.4064 1.51993 54.8719 1.47093H54.9944V1.25042H52.9302V1.47093H53.0527C53.5243 1.51993 53.5182 1.67918 53.5182 1.99769V4.28238C53.5182 4.60701 53.5182 4.76014 53.0527 4.80914H52.9302V5.02352H53.7142L53.7081 5.0174ZM65.4322 6.15668C66.0938 6.30368 66.5042 5.74017 66.9452 5.20728L67.7722 4.20888C68.446 3.40035 68.6359 3.14922 68.9789 3.1921L69.0279 2.98384L68.3418 2.84909L67.7722 2.70208L67.7232 2.91034C68.0478 2.95934 68.1091 3.12472 68.0907 3.23497C68.0723 3.34523 67.8824 3.58411 67.0187 4.62539L66.5838 3.20435C66.5532 3.10022 66.541 2.98384 66.5532 2.87359C66.59 2.68983 66.7737 2.72046 66.9207 2.73884H67.0126L67.0616 2.53058L66.1305 2.3407L65.2424 2.12632L65.1934 2.33457C65.4261 2.43258 65.5976 2.62858 65.6528 2.87359L66.3878 5.30528L66.2714 5.44003C66.1673 5.55641 66.0325 5.73404 65.9039 5.69729C65.8304 5.69729 65.7875 5.59929 65.7263 5.52579C65.6773 5.44616 65.5915 5.38491 65.4996 5.36653C65.3036 5.29916 65.0953 5.40328 65.0341 5.59929C65.028 5.61154 65.028 5.62992 65.0218 5.64217C64.9912 5.85655 65.1015 6.08318 65.4322 6.15668ZM71.619 7.72472L72.0416 7.88398L72.4091 8.03711C72.5194 8.08611 72.6542 8.13511 72.7767 8.18411L72.8502 7.98198L72.7399 7.92685C72.3173 7.7186 72.3724 7.55934 72.4888 7.27146L72.8563 6.29756L74.4489 6.89783L74.0814 7.8656C73.9711 8.16573 73.9221 8.31886 73.4627 8.19636L73.3402 8.15961L73.2667 8.36174L73.6342 8.49649L74.0263 8.63125L74.4489 8.7905L74.8165 8.94363C74.9267 8.99263 75.0615 9.04163 75.184 9.09064L75.2575 8.8885L75.1472 8.83338C74.7246 8.62512 74.7797 8.46587 74.8961 8.17799L75.6985 6.03418C75.8088 5.73404 75.8578 5.58091 76.3172 5.70342L76.4397 5.74017L76.5132 5.53804L76.1457 5.40328L75.7537 5.26853L75.331 5.10928L74.9635 4.95615L74.5959 4.80914L74.5224 5.01127L74.6327 5.0664C75.0554 5.27466 75.0002 5.43391 74.8838 5.72179L74.5531 6.64669L72.9604 6.04643L73.2973 5.1399C73.4076 4.83977 73.4566 4.68664 73.916 4.80914L74.0385 4.84589L74.112 4.64376L73.7445 4.50901L73.3525 4.37426L72.9298 4.215L72.5623 4.06187C72.452 4.01287 72.3173 3.96387 72.1948 3.92099L72.1213 4.12312L72.2315 4.17825C72.6542 4.38651 72.599 4.54576 72.4827 4.83364L71.6802 6.97745C71.57 7.27759 71.521 7.43072 71.0615 7.30821L70.939 7.27146L70.8655 7.47359L71.2331 7.60834L71.619 7.72472ZM78.6449 10.7444L79.0492 10.9527L79.4167 11.1548L79.7597 11.3386L79.8577 11.1487L79.7475 11.0813C79.3493 10.8241 79.4289 10.6832 79.5821 10.4014L80.6418 8.37399C80.7888 8.08611 80.8623 7.94523 81.2972 8.12286L81.4075 8.17186L81.5055 7.98198L81.1563 7.80435L80.7888 7.6206L80.3845 7.40009L79.674 7.00808L79.576 7.19796L79.6801 7.26534C80.0782 7.52259 79.9986 7.66347 79.8516 7.94523L78.7919 9.97266C78.6449 10.2605 78.5714 10.4014 78.1365 10.2238L78.0262 10.1748L77.9282 10.3647L78.651 10.7322V10.7444H78.6449Z" fill="black"/>
<path d="M85.3453 14.3578C85.572 14.3088 85.7741 14.1802 85.9089 13.9903C86.2764 13.4268 85.8721 12.7898 85.4372 12.459C86.0559 12.7591 86.5459 12.606 86.7481 12.2753C86.8522 12.116 86.8951 11.92 86.8644 11.7301C86.7909 11.2523 86.2764 10.9032 86.0191 10.7195L85.1738 10.1682L84.4939 9.69043L84.3714 9.86806L84.4694 9.95381C84.8369 10.2539 84.745 10.3826 84.5552 10.6521L83.2749 12.5325C83.0912 12.802 83.0115 12.9368 82.595 12.7101L82.4847 12.6489L82.3622 12.8265L83.1463 13.3349C83.8017 13.7882 84.6287 14.5171 85.3453 14.3578ZM85.4801 10.8542C85.5414 10.7685 85.5659 10.7195 85.6822 10.793L85.7802 10.8542C86.0804 11.0318 86.1723 11.4177 85.9946 11.7117C85.9763 11.7362 85.9579 11.7669 85.9395 11.7914C85.7802 12.1037 85.4005 12.2324 85.0819 12.0792C85.0268 12.0547 84.9778 12.018 84.9349 11.9751L84.7879 11.871L85.4801 10.8542ZM84.0039 13.0348L84.6287 12.1099L84.8369 12.2569C85.2106 12.4223 85.3698 12.8633 85.2045 13.2308C85.1738 13.3043 85.1309 13.3655 85.0758 13.4207C84.6715 14.0087 84.2428 13.7637 84.1264 13.684C83.9181 13.5677 83.8446 13.2982 83.961 13.0899C83.9732 13.0654 83.9855 13.047 84.0039 13.0286V13.0348ZM90.2886 18.9517L90.5091 18.6761C90.6684 18.48 90.846 18.3024 91.0298 18.1309L90.8644 17.9839C90.5152 18.3392 89.9517 18.3392 89.5964 17.9962C89.578 17.9778 89.5658 17.9655 89.5535 17.9472C89.186 17.6286 89.1003 17.402 89.5535 16.8753L90.0497 16.3117L90.16 16.4036C90.4233 16.5996 90.4785 16.9733 90.2825 17.2366C90.2641 17.2611 90.2457 17.2856 90.2212 17.304L90.3866 17.451L90.8828 16.863L91.3973 16.2995L91.2319 16.1525C91.0236 16.4097 90.65 16.4465 90.3927 16.2382C90.3805 16.226 90.3682 16.2199 90.356 16.2076L90.2457 16.1096L90.9808 15.2521C91.1645 15.0438 91.1707 15.0316 91.3483 15.2031L91.4463 15.2827C91.7342 15.54 92.1814 15.9687 91.7771 16.5506L91.9608 16.7099L92.5856 15.9259L90.8154 14.3946C90.6071 14.2108 90.8154 14.3701 90.2273 13.8494L90.0803 14.0087L90.1661 14.1006C90.4907 14.4497 90.3805 14.5599 90.1661 14.7988L88.6531 16.52C88.4387 16.765 88.3407 16.8875 87.9548 16.6057L87.8506 16.5322L87.7036 16.6915L88.3223 17.206L90.2886 18.9517ZM92.7265 21.414L93.0083 21.7141L93.3084 22.051L93.5902 22.3879L93.8659 22.7064L94.0251 22.5594L93.9516 22.4614C93.6086 21.9959 93.8046 21.8979 94.0006 21.7264L94.7357 21.071L94.9684 21.3344C95.9485 22.443 96.5978 22.0326 96.8122 21.8305C97.143 21.5365 97.3512 20.924 96.6039 20.0971L95.9056 19.3314C95.7525 19.1661 95.63 19.0007 95.287 18.5964L95.1277 18.7434L95.2012 18.8414C95.4769 19.2089 95.3544 19.3192 95.1155 19.5397L93.3942 21.0526C93.1492 21.267 93.0267 21.3773 92.6959 21.0526L92.604 20.9669L92.4447 21.1139L92.7265 21.414ZM95.9424 20.0236C96.0772 19.9011 96.1139 19.9133 96.2548 20.0726C96.5366 20.3237 96.5611 20.7525 96.3099 21.0281C96.2732 21.071 96.2303 21.1077 96.1874 21.1384C95.8995 21.4263 95.434 21.4324 95.1461 21.1445C95.1093 21.1077 95.0787 21.071 95.0542 21.0342C95.0174 20.9914 94.9807 20.9424 94.9501 20.8995L95.9424 20.0236ZM98.7785 28.6662L98.5702 28.9418L98.7111 29.1501L99.2624 28.7826L99.7769 28.4518L99.636 28.2436C99.1338 28.5437 98.4906 28.4212 98.1353 27.9557C97.9025 27.6065 97.6208 26.8103 98.8152 26.0018C99.8933 25.2667 100.585 25.6097 100.861 26.0201C101.063 26.3019 101.106 26.6694 100.965 26.9879C100.904 27.1594 100.8 27.3248 100.671 27.4534L100.818 27.6617L101.786 26.9267L101.645 26.7184L101.327 26.8286C101.351 26.4366 101.247 26.0446 101.014 25.72C100.445 24.7951 99.2379 24.5133 98.313 25.083C98.2823 25.1014 98.2517 25.1197 98.2211 25.1442C97.3451 25.6832 97.0695 26.8348 97.6085 27.7107C97.6453 27.7719 97.6881 27.8271 97.731 27.8822C97.9699 28.2558 98.3436 28.5314 98.7724 28.6539L98.7785 28.6662ZM103.268 31.0305L101.204 32.0289C100.91 32.1698 100.775 32.2433 100.524 31.8452L100.457 31.7349L100.261 31.8268L100.438 32.1759L100.628 32.5434L100.831 32.9477L101.002 33.3152L101.167 33.6827L101.363 33.5847L101.321 33.4683C101.223 33.2111 101.161 33.0273 101.529 32.8497L101.59 32.8191L104.059 33.6276L102.368 34.4484C102.074 34.5892 101.939 34.6627 101.688 34.2646L101.627 34.1543L101.431 34.2524L101.608 34.6015L101.798 34.969L101.994 35.3733L102.166 35.7408L102.331 36.1083L102.527 36.0103L102.484 35.8939C102.325 35.4529 102.466 35.3855 102.76 35.2446L104.824 34.2462C105.118 34.1053 105.253 34.0318 105.504 34.43L105.566 34.5402L105.762 34.4484L105.584 34.0992L105.394 33.7317L105.192 33.3275L105.02 32.9599L104.855 32.5924L104.659 32.6843L104.702 32.8007C104.8 33.0579 104.867 33.2356 104.469 33.4255L104.432 33.4438L101.951 32.6414L103.648 31.8207C103.942 31.6798 104.077 31.6063 104.328 32.0044L104.389 32.1147L104.585 32.0167L104.408 31.6675L104.218 31.3L103.997 30.8958L103.826 30.5283L103.66 30.1607L103.464 30.2526L103.507 30.369C103.679 30.8161 103.532 30.8835 103.256 31.0244L103.268 31.0305ZM107.483 40.1938C107.685 40.8185 107.513 41.1554 107.158 41.3392L107.048 41.4004L107.121 41.6209L108.138 41.2534L107.734 40.0345L107.403 38.981L107.036 37.7621L105.988 38.05L106.062 38.2705H106.184C106.588 38.2215 106.919 38.393 107.115 39.0055C107.176 39.1892 107.115 39.1954 106.968 39.2444L104.555 40.01C104.249 40.108 104.095 40.157 103.912 39.7283L103.863 39.618L103.654 39.6854L103.777 40.0529L103.912 40.4449L104.046 40.8737L104.157 41.2718L104.267 41.6393L104.475 41.5719L104.451 41.4494C104.353 40.99 104.506 40.9472 104.818 40.843L107.232 40.0774C107.379 40.0284 107.422 39.9916 107.489 40.1876L107.483 40.1938ZM106.895 48.2361C106.405 48.2974 105.951 47.9544 105.89 47.4643C105.89 47.446 105.884 47.4215 105.884 47.4031C105.798 46.9253 105.86 46.7048 106.558 46.5701L107.293 46.4353L107.317 46.5762C107.397 46.8947 107.201 47.2193 106.882 47.299C106.858 47.3051 106.833 47.3112 106.815 47.3112L106.852 47.5317L107.587 47.3786L108.322 47.2561L108.285 47.0356C107.967 47.1152 107.642 46.9192 107.562 46.6007C107.556 46.5762 107.55 46.5456 107.55 46.5149L107.526 46.3741L108.634 46.1658C108.91 46.1168 108.922 46.1046 108.965 46.3618L108.99 46.4843C109.063 46.8518 109.149 47.4827 108.475 47.6848L108.518 47.9237L109.498 47.6971L109.057 45.4063C109.008 45.1306 109.057 45.3818 108.928 44.6161L108.72 44.6529V44.7754C108.757 45.247 108.604 45.2715 108.285 45.3267L106.037 45.7432C105.719 45.8044 105.565 45.8412 105.431 45.3757L105.394 45.2532L105.186 45.2899L105.345 46.0801L105.798 48.6159L106.141 48.5424C106.386 48.4872 106.631 48.4566 106.876 48.4382L106.895 48.2361ZM110.141 53.8406L110.08 52.732L110.025 51.458H108.941V51.6907H109.063C109.467 51.7397 109.743 51.9908 109.774 52.6524C109.774 52.8545 109.725 52.8361 109.565 52.8422L107.042 52.9892C106.717 52.9892 106.564 53.026 106.49 52.5544L106.472 52.4319H106.258C106.258 52.5605 106.258 52.6891 106.288 52.8239C106.319 52.9586 106.319 53.0995 106.325 53.2342L106.35 53.6875V54.4899H106.564V54.3674C106.582 53.8958 106.742 53.8896 107.066 53.8713L109.59 53.7304C109.749 53.7304 109.804 53.6998 109.81 53.9019C109.847 54.5573 109.602 54.8329 109.21 54.937L109.088 54.9677V55.2004L110.166 55.0902L110.141 53.8406ZM95.5504 56.3091C95.5687 33.989 77.4864 15.8768 55.159 15.8585C32.8317 15.8401 14.7248 33.9216 14.7126 56.2478C14.7065 61.8401 15.8642 67.3711 18.1061 72.4918L18.4981 71.1749C10.2716 50.9434 20.005 27.8699 40.2435 19.6438C60.4821 11.4177 83.5506 21.1506 91.7771 41.3882C95.6361 50.8822 95.6606 61.5032 91.8445 71.0095L92.2487 72.3203C94.4355 67.267 95.5626 61.8156 95.5504 56.3091ZM91.9915 72.8593L91.5994 71.5914L90.5397 68.1368L90.0436 69.4537C87.7526 75.5299 83.9181 80.9016 78.9258 85.0484L78.5583 85.3546L78.7666 85.6058L80.3531 87.5107C65.6397 99.4425 44.5804 99.4425 29.8731 87.5107L31.4657 85.5935L31.674 85.3424L31.3065 85.0361C26.3755 80.9323 22.5838 75.6279 20.2868 69.6375L19.7906 68.3267L18.7431 71.769L18.3756 73.0369L18.0081 74.2681L12.1828 71.0585L12.6483 72.2835C14.1368 76.2343 16.1766 79.9584 18.6941 83.3456L16.4583 85.0423L16.7524 85.4098C32.7766 106.609 62.9445 110.799 84.1447 94.7813C87.6791 92.1107 90.8276 88.9624 93.4983 85.4343L93.7924 85.0668L91.5566 83.3701C94.0802 79.9767 96.1139 76.2465 97.6024 72.2835L98.0679 71.0462L92.4141 74.2558L91.9915 72.8593ZM55.1162 103.577C40.4947 103.62 26.694 96.8332 17.7937 85.2383L22.7002 81.5264C24.2254 83.4865 25.9161 85.3118 27.766 86.9717C43.3369 100.919 66.9077 100.919 82.4847 86.9717C84.3224 85.3179 86.013 83.4987 87.5321 81.5448L89.8904 83.3395L90.3621 83.707L92.4264 85.275C83.5261 96.8516 69.7376 103.62 55.1345 103.583H55.1162V103.577ZM30.1916 85.6548L29.5485 86.4265L29.1442 86.8921C27.8395 85.765 26.6082 84.5645 25.4567 83.2843L27.1779 84.246C28.1396 84.7421 29.1197 85.1893 30.1304 85.5874L30.2345 85.6241L30.1916 85.6548ZM80.0346 85.6303L80.1509 85.5874L83.1034 84.2582L84.8247 83.2966C83.667 84.5767 82.4296 85.7834 81.1126 86.9043L80.7267 86.4388L80.0836 85.667L80.0346 85.6303ZM18.9514 74.311L19.3189 73.0859L19.8825 71.2422C21.9039 75.9893 24.8564 80.283 28.5623 83.8662L27.864 83.5232C26.8655 83.0271 25.8977 82.4697 24.9666 81.8633C24.3418 81.459 23.7354 81.018 23.1596 80.5525L22.884 80.185L22.6512 80.3626L19.4476 82.7882C17.2485 79.8297 15.4231 76.6079 14.0204 73.2023L18.5349 75.7075L18.9514 74.311ZM90.4724 82.5616L87.3545 80.2034L87.0972 80.5403C86.5214 81.0119 85.915 81.4468 85.2902 81.851C84.3591 82.4636 83.3913 83.0209 82.3929 83.5232L81.6946 83.8662C85.4495 80.2401 88.4264 75.8851 90.4417 71.0707L91.0114 72.9144L91.3789 74.1456L91.8445 75.6707L96.2058 73.2023C94.8031 76.614 92.9777 79.8359 90.7725 82.7882L90.4724 82.5616ZM13.4997 64.8721C13.4936 64.9884 13.4569 65.0987 13.3956 65.1967C13.3037 65.3376 13.267 65.503 13.2915 65.6683C13.316 65.9868 13.6039 66.2257 13.9224 66.2012C13.9347 66.2012 13.9408 66.2012 13.953 66.1951C14.3389 66.1216 14.5901 65.748 14.5166 65.3682C14.5104 65.3498 14.5104 65.3315 14.5043 65.3131C14.4369 64.8721 14.1919 64.4801 13.8244 64.2289C12.8014 63.4633 10.9393 63.3836 9.2793 63.5307L8.4156 63.6042C8.3176 63.6042 8.12158 63.6042 8.08483 63.2856L7.96232 62.4098C7.94394 62.275 7.93782 62.1709 8.19509 62.1341L12.5564 61.5094C13.1016 61.4358 13.365 61.3868 13.5549 62.1647L13.6039 62.373L13.9714 62.324C13.9408 62.1035 13.9101 61.883 13.8673 61.6686L13.7509 60.9765L13.6406 60.2169C13.6039 59.9903 13.5794 59.7514 13.561 59.5187C13.5365 59.2859 13.5059 59.0777 13.4752 58.8633L13.1077 58.9123V59.1205C13.1445 59.9229 12.8811 59.9474 12.3359 60.0271L8.50136 60.5783C7.9562 60.6518 7.6928 60.7008 7.50291 59.9229L7.45391 59.7147L7.08638 59.7637C7.12313 59.9842 7.14763 60.2047 7.19051 60.4191C7.23339 60.6457 7.27627 60.8785 7.3069 61.1112L7.69893 63.843L7.89494 65.3927L8.26247 65.3437V65.1783C8.23797 64.4066 8.63 64.137 9.92247 64.0697C11.5825 63.9655 12.2808 64.1677 12.8749 64.3882C13.463 64.6148 13.4997 64.8108 13.512 64.8782L13.4997 64.8721ZM7.3804 57.3442C7.44166 56.7807 7.56417 56.5602 8.30535 56.6092L12.2011 56.7562C12.9362 56.7868 13.0465 57.0135 13.0648 57.577V57.7117H13.4324L13.4691 56.0396L13.561 54.3735C13.6039 53.2649 13.4446 51.7397 11.8275 51.6723C11.0986 51.6295 10.4186 52.046 10.1246 52.7136C9.88572 53.2771 9.76933 53.8835 9.78771 54.496V55.1514L8.3666 55.0963C7.63155 55.0657 7.52129 54.839 7.50904 54.2755V54.1408H7.14151V55.3046L7.12313 55.8129C7.10476 55.9845 7.12313 56.1437 7.10476 56.3213C7.10476 56.646 7.05575 57.1666 7.03125 57.479H7.39878L7.3804 57.3442ZM10.2287 54.6675C10.192 54.3184 10.3084 53.9693 10.5473 53.7059C10.8658 53.4241 11.2884 53.2894 11.7111 53.3384C12.8749 53.3813 13.0832 54.0734 13.0648 54.5818C13.0587 54.9615 12.7524 55.2617 12.3727 55.2556C12.3298 55.2556 12.2869 55.2494 12.2501 55.2433L10.2226 55.1698L10.2532 54.6737L10.2287 54.6675Z" fill="black"/>
<path d="M13.4638 50.4117L13.8313 50.4852L14.1376 48.9356C14.4316 47.6248 15.0442 45.873 14.3398 44.844C14.1192 44.5132 13.7762 44.2866 13.3903 44.2008C12.2632 43.9558 11.522 45.0093 11.2893 45.9097C11.375 44.746 10.836 44.1028 10.1806 43.9619C9.86204 43.9007 9.53126 43.9558 9.24949 44.1212C8.53893 44.5377 8.31842 45.5729 8.20816 46.0935C8.09178 46.6141 8.00602 47.2022 7.87738 47.7718C7.71812 48.4639 7.77938 48.1393 7.55273 49.1377L7.92026 49.2112L7.98152 49.0091C8.22654 48.2434 8.48381 48.3108 9.02285 48.4272L12.8145 49.248C13.3474 49.3582 13.6169 49.4072 13.5251 50.2096L13.4638 50.4117ZM10.885 46.9878L10.8176 47.2818L8.75333 46.8224C8.58181 46.7856 8.48993 46.7734 8.53281 46.5468L8.56956 46.363C8.65532 45.7811 9.20049 45.383 9.77628 45.4687C9.83753 45.481 9.89879 45.4932 9.96004 45.5116C11.1239 45.7811 10.9524 46.6631 10.885 46.9878ZM13.0963 47.7779L11.2525 47.3798L11.3444 46.9571C11.6384 45.579 12.6736 45.7689 13.0289 45.8485C14.2111 46.1058 14.0886 46.9571 14.0457 47.1654C13.9906 47.5697 13.6231 47.8514 13.2188 47.8024C13.1759 47.7963 13.1392 47.7902 13.0963 47.7779ZM15.2708 42.9819L15.2157 43.184L15.5587 43.3127L15.7792 42.6879L16.0059 42.0264L16.2754 41.3097L16.5388 40.6605L16.7777 40.0418L16.4347 39.9132L16.3428 40.1031C15.9753 40.8197 15.7425 40.7217 15.2341 40.5257L11.6078 39.1598C11.0933 38.9699 10.8421 38.8842 11.0443 38.1063L11.0994 37.9042L10.7564 37.7755L10.5358 38.4003L10.3092 39.0618L10.0397 39.7968L9.77628 40.4461L9.53126 41.0647L9.87429 41.1934L9.96617 41.0035C10.3337 40.2868 10.5665 40.3848 11.0749 40.5808L14.7012 41.9468C15.2218 42.1244 15.4913 42.2101 15.2708 42.9819ZM15.6016 31.5769C15.3137 31.4237 14.9829 31.387 14.6644 31.4605C13.8681 31.6565 13.3536 32.5691 13.0963 33.0469L12.2938 34.5598L11.5955 35.7787L11.9141 35.9563L12.0366 35.7726C12.4899 35.1111 12.7165 35.2581 13.2004 35.5153L16.5939 37.3958C17.0717 37.6591 17.3106 37.7816 16.9921 38.5044L16.9063 38.7004L17.2248 38.8781L17.9599 37.4754C18.6215 36.3055 19.7179 34.7987 19.3381 33.6165C19.2156 33.2368 18.9522 32.9121 18.6031 32.7223C17.5985 32.171 16.5817 32.9611 16.0978 33.7452C16.5388 32.6733 16.208 31.9015 15.62 31.5769H15.6016ZM15.4178 34.6946L15.2708 34.9641L13.4271 33.9289C13.28 33.8432 13.1882 33.8064 13.2984 33.6043L13.3903 33.4328C13.6353 32.906 14.2662 32.6733 14.7992 32.9244C14.8604 32.955 14.9155 32.9856 14.9707 33.0224C16.0059 33.6043 15.5893 34.3883 15.424 34.6823L15.4178 34.6946ZM17.8006 34.2229C18.8603 34.8109 18.4989 35.5766 18.3887 35.7787C18.2233 36.1523 17.7823 36.3177 17.4147 36.1462C17.378 36.1278 17.3412 36.1095 17.3045 36.085L15.6567 35.1723L15.865 34.8048C16.551 33.5492 17.4821 34.0392 17.8006 34.2168V34.2229ZM18.0334 25.6354C16.8267 27.0136 16.9615 29.1084 18.3397 30.3212C18.3826 30.3579 18.4254 30.3947 18.4744 30.4314C20.0242 31.6871 21.9047 31.3992 23.142 29.8802C23.6321 29.3105 23.8955 28.5816 23.8771 27.8344L24.4284 28.0365L24.6918 27.7057L23.7913 27.0075L22.9889 26.3337L22.7255 26.6645C23.2952 27.2892 23.724 28.3428 23.0012 29.2432C22.5601 29.7883 21.3902 30.6213 19.5096 29.09C17.8068 27.7057 17.9967 26.4256 18.5296 25.7702C18.891 25.3047 19.4606 25.0597 20.0426 25.1209C20.355 25.1393 20.6674 25.2189 20.9491 25.3598L21.2248 25.029L19.5832 23.8101L19.3198 24.1409L19.6628 24.6064C19.0135 24.7595 18.4377 25.127 18.0273 25.6599V25.6354H18.0334ZM22.7194 20.8701L22.3519 21.2008L21.4575 21.9358L21.6964 22.2115L21.8067 22.1318C22.26 21.7888 22.505 21.7337 22.9889 22.2911L25.531 25.2434C26.0088 25.8069 25.923 26.0336 25.531 26.4317L25.433 26.5297L25.6719 26.8053L26.9215 25.6967L28.2078 24.6248C29.047 23.8898 30.0516 22.7382 28.998 21.5132C28.5325 20.9558 27.7668 20.7414 27.0746 20.9803C26.4988 21.1886 25.9781 21.5193 25.5432 21.9481L25.0654 22.3891L24.1037 21.3172C23.626 20.7537 23.7117 20.527 24.1037 20.1289L24.2018 20.0309L23.9812 19.7553L23.1237 20.5393L22.7194 20.8701ZM25.6719 22.3952C25.9046 22.1318 26.2354 21.9787 26.5846 21.9726C27.0133 22.0093 27.4054 22.2298 27.6626 22.5729C28.4222 23.4488 28.0302 24.0919 27.6626 24.4165C27.387 24.6738 26.9521 24.6493 26.7009 24.3737C26.6703 24.343 26.6458 24.3063 26.6274 24.2756L25.2982 22.726C25.4575 22.6157 25.5739 22.4932 25.6964 22.3952H25.6719ZM28.4651 16.2578L27.8893 16.5824L28.073 16.9009L28.2629 16.8152C28.998 16.4844 29.1205 16.7172 29.3961 17.1827L31.3502 20.5393C31.6258 21.0109 31.7728 21.2376 31.1235 21.7092L30.952 21.8317L31.1358 22.1441L31.7055 21.8011L32.3057 21.4336L32.9673 21.0477L33.586 20.7169L34.1618 20.3923L33.978 20.0799L33.7881 20.1657C33.0531 20.4964 32.9305 20.2637 32.6549 19.7982L31.7238 18.1872L32.0179 18.0157C32.367 17.8136 32.6978 17.7585 33.3348 18.2485L34.1311 18.8733C34.6457 19.2775 35.3317 19.8227 36.3792 19.204C36.9121 18.9223 37.1939 18.3159 37.0652 17.7278L36.6671 17.7707C36.6671 17.9545 36.6426 18.1199 36.4894 18.2117C36.2077 18.3771 35.7789 18.1015 35.589 17.9851C34.2169 17.1643 33.488 17.0112 32.8019 17.2501V17.2256C32.9489 17.0051 33.0653 16.6927 32.9489 15.7739C32.8999 15.4064 32.7774 14.849 33.0837 14.6653C33.2246 14.6163 33.3716 14.604 33.5125 14.6224C33.6288 14.6163 33.7452 14.5856 33.8432 14.5244C34.1434 14.3774 34.272 14.016 34.125 13.7159C34.1189 13.7036 34.1128 13.6852 34.1005 13.673C33.9167 13.3483 33.5492 13.1768 33.0286 13.477C32.0791 14.016 32.22 14.9899 32.3302 15.7249C32.4528 16.5273 32.5691 17.1276 31.8647 17.5441L31.4666 17.7768L30.6886 16.4354C30.413 15.9638 30.266 15.7372 30.9153 15.2655L31.0868 15.143L30.903 14.8306L30.3333 15.1736L29.733 15.5412L29.0715 15.927L28.4651 16.2578ZM38.6824 11.0575L38.419 16.2639C38.3822 16.9989 38.3822 17.5747 37.6839 17.9728L37.8064 18.3159C38.1066 18.175 38.4128 18.0525 38.7314 17.9483L40.0177 17.5196L39.8952 17.1766L39.6686 17.2133C39.3378 17.2685 39.0866 17.3113 38.9335 16.9009C38.8661 16.6192 38.8539 16.3313 38.8906 16.0495V15.7984L40.9182 15.0634L41.1325 15.29C41.3776 15.5105 41.5736 15.7739 41.7022 16.074C41.8125 16.3926 41.4939 16.5151 41.3041 16.6192L41.0835 16.7294L41.2061 17.0725L42.1371 16.7049L43.2213 16.3191L44.2994 15.9515L44.1769 15.6085C43.4786 15.829 43.1784 15.4615 42.8232 15.0573L39.1479 10.9105L38.6824 11.0575ZM38.9335 15.3145L39.0315 12.8645L40.6241 14.7081L38.9335 15.3145ZM55.1047 8.52172L55.3253 8.47884L55.2946 8.11133C55.0741 8.11133 54.8536 8.14808 54.6331 8.17258L53.9348 8.24608L48.869 8.65034L48.1707 8.68709L47.5092 8.72385L47.5398 9.09136H47.7542C48.5566 9.09136 48.5627 9.37311 48.6117 9.91825L48.9058 13.7894C48.9425 14.3345 48.9793 14.5979 48.1891 14.7388L47.9808 14.7755L48.0114 15.143C48.232 15.143 48.4525 15.1063 48.673 15.0818L49.3713 15.0083L50.137 14.947L50.8353 14.9103L51.4968 14.8735L51.4723 14.506H51.2579C50.4555 14.506 50.4494 14.2242 50.4126 13.6791L50.0941 9.58749C50.0512 8.99948 50.2779 9.03623 50.578 9.01173L52.3238 8.87697C52.63 8.85247 52.8444 8.77897 52.8934 9.37311L53.2058 13.4647C53.2426 14.0099 53.2793 14.2732 52.4892 14.4141L52.2809 14.4509L52.3115 14.8184C52.532 14.8184 52.7526 14.7816 52.9731 14.7571L53.6714 14.6836L54.4371 14.6224L55.1354 14.5856L55.7969 14.5489L55.7724 14.1814H55.558C54.7556 14.1814 54.7495 13.8996 54.7127 13.3545L54.4187 9.48337C54.3697 8.91985 54.3452 8.65647 55.1292 8.51559L55.1047 8.52172ZM60.5196 15.1675C62.4002 15.4125 64.3787 14.4754 64.6482 12.4173C64.881 10.6471 63.7539 8.88922 61.4752 8.58909C59.4416 8.31958 57.6529 9.43437 57.3957 11.3944C57.1384 13.3545 58.6453 14.9164 60.5196 15.1675ZM59.1108 11.5598C59.4354 9.09136 60.7708 8.94435 61.3956 9.02398C62.0204 9.10361 63.3067 9.58749 62.976 12.1233C62.6819 14.3958 61.6529 14.8735 60.6422 14.7388C59.9622 14.653 58.7739 14.114 59.1108 11.5659V11.5598ZM68.6604 10.543L68.8074 10.6165C69.5057 10.9473 69.5731 11.4067 69.0463 12.6072C68.3847 14.1201 67.8763 14.6591 67.4108 15.0756C66.9453 15.4922 66.737 15.4432 66.6757 15.4064C66.6084 15.3697 66.5042 15.2594 66.4368 15.1614C66.3572 15.0144 66.2225 14.9041 66.0693 14.849C65.7753 14.7265 65.4323 14.8674 65.3159 15.1614C65.3098 15.1736 65.3098 15.1798 65.3036 15.192C65.1934 15.5657 65.4016 15.9638 65.7814 16.074C65.7998 16.0802 65.8182 16.0863 65.8427 16.0863C66.2653 16.2272 66.7247 16.1904 67.1168 15.9822C68.2622 15.4309 69.1872 13.8077 69.8242 12.2642L70.155 11.4618C70.1918 11.376 70.2836 11.2045 70.596 11.3148L71.4291 11.6027C71.5577 11.6456 71.6496 11.6884 71.57 11.9334L70.1244 16.1047C69.9467 16.6192 69.8671 16.8764 69.0892 16.6927L68.8809 16.6437L68.7645 16.9928C68.9728 17.0663 69.1811 17.1398 69.3893 17.2011C69.616 17.2685 69.8365 17.3358 70.057 17.4093L70.792 17.6605C71.0126 17.734 71.2331 17.8197 71.4475 17.9055C71.6557 17.9851 71.8579 18.0586 72.0723 18.1321L72.1887 17.783L71.9988 17.6972C71.2637 17.3665 71.374 17.1153 71.5455 16.5886L72.8135 12.9257C72.9911 12.4112 73.0707 12.1539 73.8487 12.3377L74.0569 12.3867L74.1733 12.0376C73.965 11.9641 73.7568 11.8906 73.5485 11.8293C73.3219 11.7619 73.1014 11.6946 72.8808 11.6211L70.2775 10.7207L68.8013 10.1816L68.6604 10.543ZM75.9619 13.3912L76.1396 13.5076C76.8011 13.9486 76.6725 14.1814 76.4152 14.6653L74.5898 18.0892C74.3326 18.567 74.2223 18.8242 73.4811 18.5057L73.2851 18.4261L73.1136 18.7446L73.7016 19.0448L74.3264 19.3571L75.0064 19.7246L75.6189 20.0738L76.2008 20.3923L76.3724 20.0738L76.1947 19.9574C75.5332 19.5164 75.6618 19.2836 75.9191 18.7997L77.7445 15.3758C78.0017 14.898 78.112 14.6408 78.8532 14.9593L79.0492 15.0389L79.2207 14.7204L78.6326 14.4203L78.0079 14.1079L77.3279 13.7404L76.7215 13.3912L76.1396 13.0727L75.9619 13.3912ZM79.9374 21.3294C79.6127 21.7705 79.4596 21.991 78.7735 21.5806L78.5898 21.4703L78.3693 21.7643L78.9083 22.1318L79.4841 22.5361L80.1028 22.9894L80.6541 23.4181L81.1808 23.8224L81.4014 23.5284L81.2421 23.3875C80.6418 22.8546 80.8133 22.6525 81.1318 22.1992L83.6678 18.7507C83.827 18.5302 83.8577 18.4384 84.1333 18.6405C85.0215 19.2959 85.1318 19.9145 84.8255 20.5332L84.7275 20.7231L85.046 20.9558L86.069 19.4306L84.311 18.175L82.8102 17.0663L81.089 15.7617L79.9435 17.195L80.262 17.4277L80.4152 17.2807C80.9113 16.8152 81.5239 16.7294 82.4304 17.3787C82.7 17.5808 82.6203 17.636 82.4672 17.8565L79.9374 21.3294ZM87.5391 22.5667L84.7336 25.2496C84.3416 25.6171 84.1517 25.8192 83.5453 25.2986L83.386 25.1577L83.1287 25.4088L84.0904 26.3705L87.0858 29.5372L87.5023 29.1145C87.8025 28.8083 88.121 28.5265 88.464 28.2754L88.2068 28.0059C87.1838 28.8267 86.363 28.1223 85.9955 27.7547C85.4258 27.1545 85.3094 26.7747 86.167 25.9478L87.0919 25.078L87.2573 25.2496C87.6738 25.6171 87.7167 26.2541 87.3492 26.6767C87.3124 26.7135 87.2757 26.7502 87.2389 26.787L87.4962 27.0565L88.4089 26.1316L89.3706 25.2557L89.1133 24.9862C88.7397 25.3966 88.0965 25.4272 87.6861 25.0535C87.6493 25.0168 87.6126 24.98 87.582 24.9433L87.4166 24.7718L88.8071 23.4365C89.144 23.1119 89.1746 23.069 89.4686 23.3997L89.6156 23.5468C90.0628 24.0184 90.7672 24.8085 90.0015 25.7212L90.2833 26.0152L91.4533 24.784L88.6968 21.942C88.3721 21.6051 88.6968 21.9052 87.7719 20.9374L87.5146 21.1886L87.6493 21.3539C88.1639 21.9787 87.9434 22.1563 87.5513 22.5361L87.5391 22.5667ZM91.784 31.0991C89.6217 30.7867 88.8071 30.9521 88.1761 30.2354L87.876 30.4376L88.4518 31.24C88.6723 31.5523 89.1072 32.2445 89.2726 32.514L89.5727 32.3119L89.4992 32.1771C89.3522 31.8954 89.2665 31.6749 89.4992 31.5156C89.5789 31.4666 89.8668 31.2767 91.4349 31.5156L91.6186 31.5462L91.1286 33.0898C91.0918 33.2919 90.9938 33.4818 90.8468 33.6349C90.5896 33.8064 90.4303 33.5124 90.2465 33.298L90.1301 33.1571L89.83 33.3593L90.4119 34.1678L90.7304 34.6211L91.098 35.1662C91.3185 35.5031 91.539 35.84 91.7473 36.1891L92.0474 35.987C91.7534 35.4786 91.9433 35.1111 92.0842 34.6946L93.0643 31.7177C94.908 31.9321 95.882 31.7177 96.568 32.5017L96.8682 32.2996L96.0964 31.191C95.9003 30.9153 95.6369 30.4804 95.4838 30.2232L95.1837 30.4253L95.2694 30.5846C95.3429 30.7255 95.5696 31.0501 95.2694 31.2461C95.0795 31.3747 94.6997 31.4176 93.5727 31.3135L93.2235 31.2767L93.6278 30.0762C93.8238 29.5065 93.9769 29.3412 94.0811 29.286C94.32 29.1268 94.4792 29.433 94.6262 29.6168L94.712 29.727L95.0121 29.5249L94.32 28.5449L93.9524 28.012L93.6768 27.5832C93.5175 27.3444 93.3093 26.9768 93.1439 26.738L92.8437 26.9401C93.0826 27.5281 92.9417 27.7854 92.758 28.306L91.784 31.0991ZM92.5252 36.8506L92.4272 36.6669L92.0964 36.8077L92.3537 37.4141L92.6355 38.0573L92.9295 38.7678L93.1806 39.4232L93.4257 40.0418L93.7564 39.901L93.6952 39.6988C93.4624 38.9332 93.7135 38.8413 94.2158 38.6269L95.8391 37.9531L96.9478 40.6176L95.3245 41.2914C94.8223 41.4996 94.5895 41.6099 94.1975 40.9239L94.0994 40.7401L93.7626 40.881L94.0198 41.4874L94.3016 42.1305L94.5956 42.841L94.8468 43.4964L95.0918 44.1151L95.4226 43.9742L95.3613 43.7721C95.1285 43.0064 95.3797 42.9145 95.882 42.7002L99.4654 41.224C99.9677 41.0157 100.2 40.9055 100.592 41.5915L100.69 41.7753L101.021 41.6344L100.764 41.028L100.482 40.3848L100.188 39.6743L99.937 39.0189L99.692 38.4003L99.3612 38.5412L99.4225 38.7433C99.6553 39.5089 99.4041 39.6008 98.9018 39.8152L97.3827 40.44L96.274 37.7755L97.7931 37.1508C98.2954 36.9425 98.5282 36.8322 98.9202 37.5183L99.0182 37.702L99.349 37.5611L99.0917 36.9547L98.8038 36.3239L98.5098 35.6133L98.2586 34.9579L98.0136 34.3393L97.6828 34.4802L97.7441 34.6823C97.9769 35.448 97.7257 35.5398 97.2234 35.7542L93.64 37.2304C93.1377 37.4509 92.8927 37.5611 92.5191 36.8567L92.5252 36.8506ZM97.0826 47.3982L100.862 46.5345C101.395 46.412 101.652 46.3446 101.909 47.1042L101.977 47.3063L102.344 47.2267L102.185 46.5835L102.007 45.9036L101.836 45.1686L101.695 44.4826L101.56 43.8333L101.193 43.9129L101.223 44.1212C101.328 44.9113 101.064 44.9665 100.525 45.089L96.7457 45.9526C96.2127 46.0751 95.9555 46.1425 95.6982 45.383L95.6308 45.1808L95.2633 45.2605L95.4226 45.9036L95.6002 46.5835L95.7717 47.3185L95.9126 48.0046L96.0473 48.6538L96.4149 48.5742L96.3843 48.3659C96.2801 47.5697 96.5435 47.5268 97.0826 47.3982Z" fill="black"/>
<path d="M101.596 53.7564C100.824 53.5114 100.23 53.3521 100.174 52.5375L100.138 52.0781L101.687 51.9678C102.233 51.9311 102.496 51.9004 102.631 52.7028L102.668 52.9111L103.035 52.8866C103.035 52.6661 103.004 52.4456 102.98 52.2251L102.906 51.5268L102.851 50.7612L102.821 50.0629L102.784 49.4014L102.416 49.4259V49.6341C102.392 50.4365 102.128 50.4426 101.583 50.4794L97.712 50.755C97.1668 50.7918 96.9035 50.8224 96.7626 50.02L96.7258 49.8118L96.3583 49.8363C96.3583 50.0568 96.3889 50.2773 96.4134 50.4978L96.4808 51.196L96.5359 51.9617L96.5666 52.66L96.6033 53.3215L96.9708 53.297V53.101C96.9953 52.2986 97.2587 52.2924 97.8039 52.2557L99.6477 52.1271L99.6722 52.4701C99.7028 52.8743 99.6109 53.2051 98.882 53.5481L97.9693 53.9891C97.3812 54.2709 96.5911 54.6445 96.6768 55.8573C96.6952 56.4576 97.1056 56.9782 97.6936 57.1252L97.8284 56.7577C97.6569 56.6719 97.5282 56.5862 97.516 56.3902C97.4915 56.0655 97.9203 55.8022 98.1224 55.6797C99.4639 54.816 99.9294 54.2219 100.027 53.5175H100.058C100.193 53.7502 100.426 53.9952 101.295 54.2893C101.663 54.4056 102.202 54.5465 102.226 54.8956C102.226 55.0304 102.141 55.1529 102.073 55.2999C102.024 55.404 102.006 55.5204 102.012 55.6368C102.012 55.9737 102.275 56.2432 102.612 56.2493C102.631 56.2493 102.643 56.2493 102.661 56.2493C103.029 56.2248 103.354 55.9675 103.311 55.3734C103.231 54.3015 102.294 53.9891 101.583 53.7625L101.596 53.7564ZM97.2097 57.5723L96.8422 57.5356C96.8299 57.8664 96.8054 58.191 96.7626 58.5217L96.5849 59.8632L96.9525 59.8999L97.0137 59.6794C97.1056 59.3609 97.1852 59.1159 97.614 59.1649C97.8958 59.2261 98.1592 59.3425 98.3981 59.5018L98.6186 59.6243L98.3797 61.762L98.0857 61.8538C97.7855 61.9763 97.4547 62.0315 97.1301 62.0192C96.7993 61.9825 96.8238 61.6517 96.8177 61.4312V61.1801L96.4502 61.1433L96.3705 62.1417L96.3093 62.6746L96.2358 63.2871L96.0826 64.3958L96.4502 64.4325C96.5604 63.6975 97.0137 63.6056 97.5589 63.4648L102.943 61.9702L102.992 61.5047L98.4348 58.9811C97.7794 58.632 97.2832 58.3809 97.2158 57.5968L97.2097 57.5723ZM99.0535 59.857L101.21 61.0269L98.8391 61.6395L99.0535 59.857ZM25.0823 86.5138L24.6046 86.0544L24.1268 85.5582C24.0778 85.5766 24.0349 85.6134 24.0104 85.6562C24.0716 85.7236 24.1207 85.7971 24.1697 85.8768C24.237 85.987 24.2064 86.0483 24.0961 86.1585L23.4101 86.8568L22.5403 87.6959C22.479 87.7694 22.3749 87.7878 22.2953 87.7388C22.2095 87.6837 22.1237 87.6163 22.038 87.5489C22.0135 87.5489 21.9277 87.6224 21.9277 87.6592L22.4545 88.1614L23.404 89.1476C23.5265 89.2701 23.5877 89.2885 23.6245 89.2701C23.9063 89.166 24.1697 89.0312 24.4147 88.8658C24.4147 88.8107 24.3902 88.7556 24.3473 88.7127C24.1452 88.7923 23.9308 88.8536 23.7164 88.8903C23.6 88.9271 23.4775 88.8903 23.3978 88.8046C23.2141 88.6392 23.0487 88.4616 22.9017 88.2656C22.8833 88.2043 22.8956 88.1431 22.9384 88.0941L23.8021 87.2059L24.5127 86.526C24.6107 86.4403 24.6474 86.4096 24.7516 86.4648C24.819 86.5138 24.8863 86.5628 24.9537 86.6179C24.9905 86.6118 25.0823 86.5383 25.0823 86.5138ZM27.9858 89.1721L27.4652 88.7433L26.9567 88.2839C26.9077 88.3084 26.871 88.3513 26.8526 88.4003C26.9261 88.4677 26.9874 88.5412 27.0425 88.6208C27.0976 88.7066 27.067 88.7678 26.9996 88.8658C26.8649 89.0496 26.6811 89.264 26.3809 89.6009L25.5785 90.5258C25.4683 90.636 25.4131 90.6605 25.2906 90.5931L25.0823 90.4706C25.0517 90.4706 24.9721 90.5564 24.9843 90.587L25.5479 91.0464L26.0624 91.5058C26.1053 91.4813 26.1482 91.4445 26.1727 91.4016L25.9889 91.175C25.9032 91.0586 25.9522 90.9729 26.0257 90.881L26.7607 90.0051L27.4162 89.2701C27.5387 89.1476 27.5693 89.1231 27.6734 89.166C27.7469 89.2088 27.8204 89.2517 27.8939 89.3007C27.9368 89.2701 27.9674 89.2272 27.9858 89.1782V89.1721ZM31.0241 91.4935L29.5723 90.4522C29.4559 90.3665 29.3518 90.2624 29.2722 90.146C29.2722 90.146 29.2232 90.1215 29.2232 90.146C29.0455 90.3604 28.8556 90.5625 28.6596 90.7646C28.6596 90.8014 28.7515 90.8994 28.7699 90.8994C28.8985 90.8014 29.0333 90.7218 29.1803 90.6483C29.2599 90.587 29.3702 90.587 29.4498 90.6483C29.6091 90.7524 29.7622 90.8565 29.9092 90.979V91.0219L28.6045 92.8227C28.4697 92.9942 28.3962 93.0432 28.2553 92.9819C28.1512 92.9391 28.0532 92.8901 27.9613 92.8288C27.9246 92.8288 27.8633 92.9146 27.8694 92.9513L28.531 93.4046L29.1374 93.864C29.1742 93.864 29.2477 93.7782 29.2477 93.7537C29.1619 93.6802 29.0823 93.6006 29.0088 93.5148C28.9353 93.4291 28.9598 93.3433 29.0333 93.2208L30.3625 91.3465C30.3686 91.3343 30.387 91.3282 30.4054 91.3282L30.9015 91.6957C30.9689 91.7508 30.9996 91.8427 30.9689 91.9284C30.926 92.0693 30.8587 92.2102 30.779 92.3327C30.8158 92.3756 30.8648 92.4123 30.9199 92.4307C31.1037 92.2102 31.2997 92.008 31.508 91.812C31.5141 91.7937 31.5141 91.7753 31.508 91.763C31.3303 91.7079 31.1649 91.616 31.0241 91.4935ZM35.1649 93.9252C34.9934 93.8946 34.828 93.8272 34.681 93.7292L33.1312 92.8349C33.0026 92.7676 32.8923 92.6696 32.8004 92.5593H32.7453L32.243 93.2331C32.243 93.2698 32.3472 93.3556 32.3655 93.3556C32.4819 93.2453 32.6044 93.1473 32.7331 93.0616C32.8066 92.9942 32.9168 92.9881 33.0026 93.0371C33.1373 93.1045 33.413 93.2637 33.4865 93.3188V93.3617L32.3778 95.2789C32.2614 95.4626 32.194 95.5239 32.047 95.4688C31.9429 95.4381 31.8387 95.3953 31.7346 95.3463C31.6979 95.3463 31.6489 95.4443 31.6611 95.481L32.3594 95.8485L33.0148 96.2405C33.0516 96.2405 33.1128 96.1425 33.1067 96.118C33.0148 96.0507 32.9291 95.9833 32.8433 95.9036C32.7698 95.824 32.7821 95.7383 32.8433 95.6096L33.9765 93.6128C33.9827 93.6006 33.9949 93.5883 34.0133 93.5883L34.5462 93.8946C34.6197 93.9436 34.6565 94.0355 34.6381 94.1212C34.6075 94.2682 34.5584 94.4091 34.4911 94.5439C34.5339 94.5867 34.5829 94.6174 34.6442 94.6235C34.8035 94.3907 34.975 94.1641 35.1649 93.9497C35.1649 93.9314 35.1649 93.9191 35.1526 93.9068L35.1649 93.9252ZM37.9887 95.3585L37.0944 94.9542L36.4696 94.6541C36.439 94.6541 36.39 94.7582 36.4022 94.7889C36.4757 94.8317 36.5492 94.8807 36.6227 94.9359C36.7085 95.0094 36.7085 95.0584 36.6595 95.2054C36.6105 95.3524 36.4451 95.7015 36.292 96.0752L35.7958 97.1593C35.7162 97.3186 35.6549 97.3431 35.5508 97.3247C35.4283 97.3002 35.2996 97.2634 35.1832 97.2267C35.1526 97.2696 35.1342 97.3186 35.122 97.3676L35.8938 97.6983L37.1005 98.268C37.3088 98.366 37.3455 98.3476 37.3884 98.3047C37.5661 98.1393 37.7314 97.9556 37.8723 97.7596C37.8417 97.7106 37.7988 97.6677 37.7498 97.6371C37.6212 97.7535 37.4864 97.8576 37.3333 97.9433C37.1924 98.0107 37.125 98.0168 36.929 97.9433C36.7207 97.8576 36.5186 97.7535 36.3287 97.631C36.2797 97.5758 36.2675 97.4962 36.3042 97.4288L36.6717 96.5835C36.6717 96.5835 36.7085 96.5468 36.7146 96.5529L37.3333 96.8408C37.4068 96.8837 37.4435 96.9633 37.4313 97.0429C37.4313 97.1042 37.4313 97.1164 37.3884 97.2451C37.4374 97.2818 37.4925 97.3063 37.5538 97.3124L37.7376 96.8837C37.8049 96.7428 37.8785 96.6019 37.9581 96.4672C37.9152 96.4243 37.8601 96.3937 37.7988 96.3814L37.6886 96.5284C37.6579 96.5652 37.566 96.6387 37.4619 96.6019L36.8249 96.3263C36.8126 96.314 36.8126 96.2957 36.8249 96.2773L37.2291 95.3646C37.2291 95.3401 37.2904 95.2973 37.3272 95.3034C37.5477 95.3953 37.7682 95.4933 37.9826 95.6035C38.0806 95.6403 38.1357 95.7383 38.1173 95.8424C38.1112 95.9588 38.0867 96.069 38.05 96.1732C38.099 96.2099 38.1541 96.2283 38.2092 96.2344C38.3134 96.02 38.4359 95.8179 38.5768 95.6219V95.5851C38.3807 95.5178 38.1909 95.4381 38.001 95.3524L37.9887 95.3585ZM42.154 97.729C42.2949 97.3247 42.0928 96.9021 41.5292 96.7122L40.7023 96.4488L40.1142 96.2283C40.0836 96.2283 40.0469 96.3385 40.0469 96.3753C40.1265 96.412 40.2061 96.4549 40.2858 96.4978C40.3838 96.559 40.396 96.6264 40.3593 96.7612L40.0224 97.778L39.6548 98.8131C39.5997 98.9417 39.5385 99.0214 39.4221 99.003L39.1832 98.9662C39.1525 98.9662 39.1219 99.0887 39.1342 99.1132L39.7773 99.3154L40.4328 99.5543C40.4634 99.5543 40.5063 99.4256 40.494 99.4072L40.249 99.2725C40.1755 99.2296 40.1387 99.15 40.1877 99.0091L40.4573 98.1883C40.4573 98.1883 40.4573 98.1638 40.4818 98.1883C40.5063 98.2128 40.6655 98.2435 40.7084 98.2618C40.7574 98.2863 40.7942 98.3292 40.8125 98.3782L41.1066 99.4869C41.1372 99.591 41.1985 99.6829 41.2658 99.7625C41.5109 99.934 41.7865 100.063 42.0805 100.13C42.105 100.13 42.1663 100.008 42.154 99.9891C41.9641 99.9279 41.811 99.7809 41.7436 99.5971C41.566 99.1867 41.4312 98.758 41.3393 98.3231V98.2925C41.7069 98.2986 42.0376 98.072 42.154 97.729ZM41.1372 98.0965C40.9412 98.0842 40.7452 98.0352 40.5675 97.9556V97.9188L40.9534 96.8102C40.9657 96.7857 40.9841 96.7612 41.0086 96.7489C41.0576 96.7551 41.1127 96.7612 41.1617 96.7796C41.5047 96.8653 41.713 97.2083 41.6334 97.5513C41.6211 97.5942 41.6089 97.6371 41.5905 97.6738C41.468 97.9678 41.3148 98.072 41.1372 98.0965ZM44.2244 97.5146C44.1877 97.5574 44.1754 97.6064 44.1816 97.6616C44.2734 97.6922 44.3653 97.729 44.445 97.778C44.5307 97.827 44.5368 97.9005 44.5185 98.0168C44.4817 98.2373 44.4082 98.513 44.3041 98.9601L44.0039 100.142C43.9549 100.289 43.9182 100.338 43.7773 100.326L43.5261 100.32C43.4894 100.363 43.4771 100.418 43.4894 100.473L44.1999 100.632L44.8615 100.816C44.8921 100.773 44.9105 100.724 44.9105 100.669L44.6471 100.547C44.5123 100.479 44.5246 100.387 44.5491 100.265L44.8064 99.1561L45.0514 98.1945C45.1004 98.023 45.1249 97.9862 45.2351 97.9801C45.3209 97.9801 45.4067 97.9862 45.4924 98.0046C45.523 97.9617 45.5353 97.9066 45.5292 97.8515L44.8676 97.7044L44.2183 97.5207L44.2244 97.5146ZM47.0483 98.9662C46.9748 99.4379 47.2565 99.7196 47.6486 100.044C48.0406 100.363 48.1692 100.553 48.1264 100.828C48.0957 101.067 47.8752 101.239 47.6302 101.202C47.6179 101.202 47.5996 101.196 47.5873 101.196C47.4219 101.177 47.2688 101.104 47.1463 100.994C46.9748 100.798 46.8768 100.553 46.8645 100.295C46.8094 100.283 46.7481 100.289 46.6991 100.32C46.6807 100.577 46.6869 100.834 46.7298 101.092C46.938 101.233 47.1769 101.324 47.4281 101.361C48.1631 101.471 48.6164 101.116 48.696 100.626C48.745 100.302 48.598 99.9769 48.3285 99.7931L47.814 99.3644C47.6424 99.2419 47.5506 99.0459 47.5751 98.8376C47.6118 98.5926 47.8446 98.4272 48.0896 98.464C48.0957 98.464 48.1019 98.464 48.108 98.4701C48.2489 98.4823 48.3775 98.5436 48.4755 98.6355C48.5858 98.7274 48.6103 98.8805 48.598 99.1806C48.598 99.1806 48.7328 99.2174 48.7512 99.1806C48.8063 98.9479 48.8675 98.7212 48.941 98.4946C48.6899 98.4088 48.4388 98.3415 48.1815 98.2925C47.6424 98.1883 47.134 98.4211 47.0483 98.9662ZM55.2013 101.582C55.0971 101.698 55.042 101.729 54.8337 101.729C54.6071 101.729 54.3805 101.716 54.1599 101.68C54.0926 101.649 54.0497 101.582 54.0558 101.508V100.577C54.0558 100.577 54.0558 100.534 54.0864 100.534L54.7664 100.559C54.846 100.565 54.9134 100.626 54.9317 100.706C54.9317 100.767 54.9318 100.779 54.9685 100.908C55.0298 100.926 55.091 100.926 55.1523 100.908V100.442C55.1523 100.289 55.1768 100.075 55.189 99.9708C55.1278 99.9524 55.0665 99.9524 55.0053 99.9708C55.0053 100.038 54.9685 100.106 54.9624 100.155C54.9562 100.204 54.8889 100.302 54.7786 100.308H54.0864C54.0864 100.308 54.0558 100.289 54.0558 100.271L54.0742 99.2664C54.0742 99.2419 54.0987 99.1806 54.1354 99.1745C54.1722 99.1684 54.7419 99.1745 54.8705 99.1745C54.9746 99.1745 55.0665 99.2419 55.091 99.3399C55.1278 99.444 55.1523 99.5604 55.1584 99.6706C55.2135 99.689 55.2748 99.689 55.3299 99.6706C55.3422 99.4317 55.3728 99.199 55.4218 98.9662C55.4218 98.9662 55.4218 98.9417 55.4034 98.9417C55.2074 98.954 55.0114 98.954 54.8154 98.9417L53.8353 98.9234C53.578 98.9234 53.2963 98.8927 53.137 98.8866C53.1125 98.9356 53.1125 98.9907 53.137 99.0397C53.2227 99.052 53.3085 99.0704 53.3943 99.0887C53.5045 99.1255 53.529 99.1622 53.5351 99.3276V100.289L53.4984 101.478C53.4861 101.655 53.4433 101.698 53.3391 101.723C53.2166 101.747 53.0941 101.765 52.9716 101.772C52.9593 101.821 52.9593 101.876 52.9716 101.925H53.8108L55.1523 101.968C55.385 101.968 55.4095 101.943 55.434 101.894C55.532 101.674 55.6117 101.441 55.6668 101.202C55.6178 101.165 55.5627 101.147 55.5075 101.141C55.4279 101.306 55.3238 101.453 55.2013 101.588V101.582ZM59.777 98.6539C59.6177 98.7274 59.4462 98.7641 59.2747 98.7641L57.4922 98.8989C57.3513 98.9111 57.2043 98.8989 57.0634 98.8621C57.045 98.856 57.0267 98.8682 57.0144 98.8866L56.9777 99.7196C56.9777 99.7503 57.1308 99.7625 57.1492 99.7564C57.1859 99.5971 57.2349 99.444 57.3023 99.297C57.3268 99.199 57.4126 99.1316 57.5106 99.1255C57.6943 99.101 57.8842 99.0887 58.0741 99.0826C58.0741 99.0826 58.0986 99.1071 58.0986 99.1194L58.2456 101.331C58.2456 101.551 58.2456 101.631 58.0864 101.674C57.9822 101.704 57.872 101.729 57.7678 101.747C57.7433 101.796 57.7433 101.851 57.7678 101.9C57.9149 101.9 58.1599 101.857 58.5642 101.827L59.3237 101.79C59.3482 101.741 59.3482 101.686 59.3237 101.637C59.2135 101.637 59.0971 101.625 58.9868 101.606C58.8766 101.582 58.8398 101.502 58.8214 101.367L58.6377 99.0826C58.6377 99.0642 58.6438 99.052 58.656 99.0397C58.754 99.0397 59.0787 99.003 59.2686 98.9969C59.3605 98.9907 59.4401 99.0459 59.4707 99.1316C59.5259 99.2725 59.5687 99.4134 59.5871 99.5604C59.6422 99.5788 59.7035 99.5788 59.7586 99.5604C59.7586 99.2786 59.777 98.9907 59.8076 98.709C59.8015 98.6906 59.7892 98.6722 59.777 98.66V98.6539ZM66.7171 99.8605L65.4492 97.9556L65.3144 97.7106L65.1184 97.7657C65.0326 97.7902 64.9591 97.8025 64.9101 97.8025C64.9224 97.9127 64.9224 98.023 64.9101 98.1332L64.6222 100.4C64.5671 100.767 64.512 100.822 64.1812 100.951C64.1751 101.006 64.1873 101.055 64.218 101.104L64.7325 100.963L65.345 100.828C65.3573 100.773 65.3512 100.718 65.3205 100.675H65.0755C64.9346 100.675 64.9163 100.614 64.8979 100.54C64.8918 100.295 64.9101 100.044 64.953 99.8054C64.953 99.7809 64.9714 99.7503 64.9898 99.7441L65.3818 99.6461L65.7922 99.5481C65.7922 99.5481 65.8351 99.5481 65.8412 99.5726C65.9637 99.7503 66.1904 100.087 66.2761 100.259C66.3067 100.295 66.3006 100.351 66.2639 100.375L66.2577 100.381C66.1842 100.424 66.1046 100.461 66.025 100.498C66.025 100.522 66.025 100.626 66.0617 100.645L66.7355 100.467L67.3787 100.326C67.3909 100.271 67.3787 100.216 67.3542 100.173C66.9805 100.197 66.9499 100.173 66.7171 99.8605ZM65.6513 99.3092C65.6023 99.3092 65.4676 99.3582 65.3328 99.3889L65.002 99.4624C64.953 99.4685 64.9775 99.4624 64.9775 99.4318L65.0755 98.3843H65.1L65.6636 99.2725C65.6513 99.2847 65.6513 99.3031 65.6513 99.3092ZM71.1826 98.6355C70.7906 98.4272 70.4231 98.1761 70.0739 97.9005V97.8698C70.3557 97.6555 70.4721 97.2879 70.3618 96.9511C70.2148 96.5468 69.8105 96.3385 69.2531 96.5345L68.4445 96.8347L67.8442 97.0246C67.8197 97.0246 67.8442 97.1471 67.881 97.1716C67.9667 97.1471 68.0525 97.1348 68.1444 97.1226C68.2546 97.1226 68.3098 97.1593 68.3649 97.2879L68.7324 98.2986L69.1 99.3337C69.1612 99.4624 69.1367 99.5665 69.0326 99.6278L68.8243 99.738C68.8243 99.7625 68.8488 99.8728 68.8733 99.885L69.4981 99.6461L70.1597 99.4318C70.178 99.4073 70.1352 99.2847 70.1229 99.2847L69.8473 99.3276C69.7615 99.3399 69.688 99.297 69.639 99.1561L69.345 98.3476V98.317L69.5655 98.2373C69.6206 98.2251 69.6757 98.2373 69.7186 98.268L70.6252 98.9601C70.711 99.0214 70.8151 99.0581 70.9192 99.0765C71.2194 99.0642 71.5134 98.9907 71.789 98.8682C71.8013 98.8131 71.7952 98.758 71.7645 98.709C71.5808 98.7825 71.3603 98.7519 71.1826 98.6355ZM69.786 97.8637C69.6206 97.974 69.443 98.0597 69.247 98.1026C69.247 98.1026 69.2225 98.1026 69.2102 98.0781L68.8427 96.9694C68.8304 96.9449 68.8304 96.9143 68.8427 96.8898C68.8856 96.8592 68.9346 96.8347 68.9836 96.8224C69.3021 96.6754 69.6819 96.8224 69.8289 97.1409C69.8473 97.1838 69.8595 97.2206 69.8718 97.2696C69.9698 97.4656 69.9453 97.6983 69.7983 97.8637H69.786ZM74.4659 97.4288C74.3556 97.4288 74.2944 97.3859 74.227 97.2634L73.2591 95.1809C73.253 95.1686 73.253 95.1503 73.2591 95.138L73.8104 94.8807C73.8901 94.8501 73.9881 94.8685 74.0493 94.9359C74.1535 95.0461 74.2392 95.1686 74.3066 95.3034C74.3617 95.2973 74.4169 95.2728 74.4597 95.2299C74.3617 94.9665 74.276 94.6909 74.2147 94.4152C74.1963 94.4091 74.178 94.4091 74.1657 94.4152C74.0432 94.5377 73.8901 94.6296 73.7308 94.6909L72.1076 95.4259C71.9789 95.4871 71.838 95.5239 71.6972 95.5423C71.6726 95.5423 71.6543 95.5729 71.6604 95.579L71.9177 96.3692C71.9422 96.3937 72.0769 96.3692 72.0892 96.3385C72.0769 96.1793 72.0769 96.02 72.0892 95.8608C72.0831 95.7628 72.1382 95.6709 72.2239 95.628C72.3893 95.5423 72.5608 95.4626 72.7324 95.3891C72.7324 95.3891 72.763 95.3891 72.7691 95.4136L73.6941 97.4411C73.7798 97.6493 73.7859 97.7351 73.6573 97.8086C73.5715 97.876 73.4797 97.9372 73.3817 97.9923C73.3817 98.0475 73.4062 98.1026 73.449 98.1332L74.1841 97.7841L74.8824 97.4839C74.9008 97.4594 74.8579 97.3431 74.8334 97.3369C74.717 97.3737 74.6006 97.4043 74.4781 97.4227L74.4659 97.4288ZM77.9023 95.6219C77.7614 95.6648 77.7001 95.5851 77.6389 95.4871L77.0692 94.501L76.5914 93.6373C76.5118 93.4781 76.5056 93.4475 76.5914 93.3556C76.6527 93.3005 76.72 93.2453 76.7935 93.1963C76.7813 93.1473 76.7568 93.0983 76.7139 93.0616L76.132 93.4046L75.5317 93.7292C75.5378 93.7843 75.5623 93.8333 75.5991 93.8701C75.6848 93.8272 75.7767 93.7966 75.8747 93.7721C75.9727 93.7476 76.0217 93.7966 76.0891 93.8946L76.5791 94.7276L77.1672 95.7995C77.2346 95.9465 77.2407 96.0017 77.1304 96.0935L76.9467 96.2405C76.9467 96.265 76.9957 96.3692 77.0202 96.3753L77.645 96.0078L78.2514 95.6831C78.2453 95.6341 78.2208 95.5851 78.1901 95.5423L77.9023 95.6219ZM80.2973 92.3327C80.2973 92.3327 80.2728 92.3327 80.2973 92.3082C80.4933 92.0877 80.524 91.7569 80.3647 91.5058C80.04 91.028 79.5561 91.2301 79.2192 91.4568L78.5454 91.9345L78.0125 92.2776C78.0248 92.3266 78.0554 92.3756 78.0983 92.4062C78.1779 92.3572 78.2637 92.3143 78.3494 92.2898C78.429 92.2653 78.4903 92.2898 78.5699 92.3878L79.1947 93.2943L79.8011 94.2009C79.8747 94.3234 79.8808 94.403 79.8011 94.4765C79.7338 94.5561 79.6541 94.6357 79.5684 94.7031C79.5806 94.7521 79.6113 94.8011 79.6541 94.8256L80.6955 94.1457C80.9282 93.9987 81.1242 93.8088 81.2835 93.5822C81.5163 93.2821 81.5285 92.8594 81.3141 92.5471C81.0814 92.2163 80.6403 92.1306 80.2973 92.3327ZM79.5132 92.7859L78.962 91.959C78.962 91.9345 78.9436 91.8978 78.962 91.8855C78.9926 91.8488 79.0293 91.8182 79.0722 91.7875C79.305 91.567 79.6725 91.5732 79.8992 91.8059C79.9359 91.8427 79.9604 91.8794 79.9849 91.9223C80.0952 92.057 80.1197 92.2408 80.0584 92.4001C79.9849 92.5042 79.893 92.5838 79.7828 92.6512C79.7093 92.7002 79.6296 92.7492 79.55 92.7921C79.5316 92.8043 79.5194 92.8043 79.5132 92.7859ZM80.769 93.8578C80.6648 93.9314 80.5485 93.9681 80.4198 93.9742C80.3524 93.9681 80.2912 93.9313 80.2483 93.8823C80.1135 93.7108 79.8195 93.2698 79.6358 92.9942C79.6296 92.9819 79.6296 92.9697 79.6358 92.9574C79.6848 92.9146 79.7399 92.8778 79.795 92.8411C80.2238 92.5471 80.6158 92.5961 80.867 92.9636C81.0936 93.1902 81.0875 93.5577 80.8609 93.7843C80.8302 93.8088 80.7996 93.8333 80.769 93.8578ZM83.6663 88.8046C83.5928 88.5412 83.5561 88.4371 83.6296 88.2901C83.6663 88.2227 83.7153 88.1553 83.7704 88.1002C83.7521 88.0512 83.7214 88.0083 83.6724 87.9838L83.262 88.3513C83.0415 88.5412 82.8578 88.6698 82.7904 88.7188C82.8026 88.774 82.8333 88.8168 82.8761 88.8536C82.9558 88.7985 83.0415 88.7495 83.1334 88.7005C83.262 88.6392 83.3355 88.7005 83.3968 88.8597C83.5499 89.2272 83.9481 90.4278 84.0216 90.7034L84.0032 90.7279L82.1595 89.6927C82.0982 89.656 82.0737 89.607 82.1043 89.5519C82.1472 89.4783 82.2023 89.4048 82.2575 89.3375C82.2575 89.313 82.1839 89.215 82.1533 89.2272C82.1227 89.2395 81.8716 89.4845 81.6388 89.6805L81.112 90.097C81.112 90.097 81.1671 90.2134 81.1978 90.2195C81.259 90.1766 81.3264 90.1399 81.3999 90.1154C81.5469 90.0419 81.651 90.0786 81.9512 90.2379L83.5744 91.1444L84.1809 91.5119C84.2666 91.4262 84.3585 91.3465 84.4565 91.2791C84.3952 91.1383 84.3095 90.9116 84.2054 90.5809L83.6541 88.7985L83.6663 88.8046ZM86.6433 87.0589L85.9879 87.2243C85.7796 87.2978 85.5468 87.2427 85.3937 87.0834C85.2099 86.9119 85.2038 86.6301 85.3753 86.4464C85.3815 86.4403 85.3876 86.4341 85.3937 86.428C85.4856 86.3239 85.6081 86.2565 85.7429 86.2259C85.8776 86.1953 86.0185 86.2626 86.2574 86.4464C86.2819 86.4464 86.3677 86.3606 86.3554 86.3361C86.2023 86.1585 86.0553 85.9686 85.9266 85.7726C85.7122 85.9258 85.504 86.0911 85.3141 86.2688C84.9282 86.6546 84.8179 87.1998 85.2038 87.5857C85.5897 87.9716 85.9389 87.8613 86.4289 87.7327C86.9128 87.604 87.164 87.6102 87.3416 87.8062C87.5254 87.9654 87.5376 88.2472 87.3783 88.4248C87.3661 88.4371 87.3539 88.4493 87.3416 88.4616C87.2252 88.5841 87.0782 88.6637 86.9189 88.7005C86.6617 88.725 86.3983 88.6637 86.1839 88.5167C86.1594 88.5167 86.092 88.6331 86.1104 88.6637C86.3064 88.8291 86.5208 88.9761 86.7474 89.0925C86.9863 89.0067 87.2007 88.8658 87.3783 88.6882C87.8929 88.1737 87.8806 87.5795 87.5254 87.2365C87.2987 87.016 86.9496 86.9425 86.6433 87.0589Z" fill="black"/>
<path d="M33.4827 30.479C33.7838 30.479 34.0278 30.2349 34.0278 29.9338C34.0278 29.6327 33.7838 29.3887 33.4827 29.3887C33.1816 29.3887 32.9375 29.6327 32.9375 29.9338C32.9375 30.2349 33.1816 30.479 33.4827 30.479Z" fill="black"/>
<path d="M77.1578 30.3339C77.3772 30.1276 77.3877 29.7826 77.1815 29.5633C76.9752 29.3439 76.6302 29.3333 76.4108 29.5396C76.1915 29.7459 76.1809 30.0909 76.3872 30.3102C76.5934 30.5296 76.9385 30.5401 77.1578 30.3339Z" fill="black"/>
<path d="M18.396 63.0363L18.4328 63.2506H20.0866V56.3782H17.7835V57.1806L18.2796 56.7702V62.485L18.396 63.0363ZM18.6839 56.7702H19.7007V62.8647H18.6839V56.7702ZM20.7849 55.2328H17.7957L17.7773 56.0536H20.7849V55.2328ZM26.8247 63.2506V56.3782H23.5598V63.2506H26.8247ZM25.4219 56.7702H26.4388V62.8647H25.4219V56.7702ZM24.3438 57.3888L25.0238 56.7702V62.8647H24.3438V57.3888ZM22.9901 55.2328H27.5291V56.0536H22.9901V55.2328ZM19.3761 67.085H20.6012V66.7971H21.6731L18.6778 64.3715L18.8922 65.2964L20.0009 66.203H19.1372L19.3761 67.085ZM85.868 63.2506V56.3782H82.6032V63.2506H85.868ZM84.4653 56.7702H85.4821V62.8647H84.4653V56.7702ZM83.3933 57.3827L83.9446 56.7641H84.0671V62.8586H83.3872L83.3933 57.3827ZM82.0335 55.2328H86.5725V56.0536H82.0335V55.2328ZM91.9016 62.8586H91.2033V56.7641H92.2079V60.7822C92.3855 59.3122 92.4774 57.836 92.4835 56.3537H89.335V63.2261H91.8404L91.9016 62.8586ZM90.7929 62.8586H90.113V57.3827L90.6765 56.7641H90.799L90.7929 62.8586ZM92.4774 56.0536L92.4529 55.2328H88.7654V56.0536H92.4774ZM92.3059 52.6602H78.7809V52.3662H92.2875L92.1466 51.2576H84.0304L84.9002 50.3878H92.018L91.9323 49.9223H79.4669L79.8344 47.6498L79.1423 47.5763V46.6698H78.836L80.9922 42.0392H81.617V40.4283H78.6645V37.3902H79.0014V36.6552H78.4011V36.3305H77.3046V36.6552H76.6492V36.7899H69.8928V36.6552H69.2925V36.3305H68.1838V36.6552H67.5835V36.7899H63.5285C63.5285 36.4408 63.4917 35.5526 63.3263 35.6384C62.7812 35.8283 62.187 35.816 61.6418 35.6077C61.6418 35.6077 61.1763 33.9417 60.1656 33.9968C59.7 34.4195 58.5485 34.6951 58.5485 34.6951C58.3096 34.6706 58.089 34.5542 57.942 34.3643C58.4137 33.9785 58.5975 32.8147 57.5745 32.9372C56.9007 33.1516 57.1151 33.8988 57.1151 33.8988C57.1151 33.8988 56.8027 34.0091 56.4352 34.6645C56.6434 33.7212 55.498 32.6493 55.2101 32.5758C55.0937 32.1532 55.9635 31.6693 54.7813 31.1915C53.7645 31.6448 54.4566 32.0368 54.4138 32.5084C54.181 32.3369 53.5256 31.8224 53.2683 32.0307C53.011 32.2389 52.9314 32.9188 52.9314 32.9188C52.9314 32.9188 53.3602 35.081 53.207 35.1667C53.1029 34.8421 52.8089 34.6155 52.472 34.5971C52.4046 34.4378 53.1519 33.6293 52.325 33.2863C51.302 33.2863 51.7431 34.542 51.7431 34.542C51.7431 34.542 50.8181 35.0381 50.6343 34.983C50.4506 34.9279 49.6849 33.5681 49.4338 33.6538C48.9743 33.8131 49.201 34.6155 48.7538 35.3321C48.2087 35.6506 47.5839 35.8038 46.9529 35.7731C46.6222 35.7731 46.6222 36.4714 46.6344 36.7715H42.5794V36.6307H41.9791V36.306H40.8704V36.6307H40.2701V36.7654H33.4524V36.6307H32.8521V36.306H31.7434V36.6307H31.137V37.3657H31.4739V40.0607H30.9777V40.4283H27.8782V42.0392H28.454L31.2595 46.6576H30.3529V47.7662L31.2411 49.1199V49.9223H18.3348L18.249 50.3878H31.2472L31.2227 51.2576H18.1265L17.9856 52.3662H31.2044V52.6602H17.9672C17.9672 52.8134 17.9427 52.9726 17.9305 53.1257H31.2105L30.8062 68.8368H30.3223V69.3329L29.2993 69.6821L28.65 70.6315H29.3851V73.2102H32.8031V73.6389H28.7481V74.5454H26.9288V68.3406H27.3576V66.8032H28.405L25.3974 64.3777L22.0407 66.7849H23.1739V68.3406H23.5782V75.3478H28.7419V77.3263H25.2749L25.8385 78.1103H28.7419V78.8453H26.4204L26.6348 79.1209H28.7419V80.7257H28.0069L28.2519 81.0014H28.7481V81.522L29.4831 82.2938V81.8466H33.0543V84.3457H31.7618L32.0926 84.6213H33.0726V87.6104C46.0157 96.7676 63.2651 96.9819 76.4287 88.1556V84.6275H78.1622L78.493 84.3518H76.4287V81.8528H80.3612V82.6797L80.398 82.6429L80.692 82.3612L81.8252 81.1913V81.1116H81.8987L82.3214 80.6461H81.8252V79.1332H83.6077L83.8221 78.8576H81.8252V78.1225H84.404L84.9737 77.3324H81.8375L82.6215 75.3601H86.2723L86.7501 74.5699H85.9354V68.359H86.3642V66.8216H87.4239L84.4163 64.3899L81.8007 66.2642V53.1012H92.312C92.3243 52.9542 92.3181 52.8072 92.3059 52.6602ZM25.379 65.1127L26.745 66.2213H23.8661L25.379 65.1127ZM23.572 67.9486V67.0911H26.9533V67.9486H23.572ZM25.0483 74.5577H24.497V69.1369L25.0605 68.3713L25.0483 74.5577ZM26.5245 74.5577H25.4526V68.3713H26.5245V74.5577ZM75.7365 56.7886V51.5148H74.8728L75.3935 50.9942H76.7166L76.5512 57.3582H71.8652L72.4349 56.7886H75.7365ZM72.5696 56.0107V52.2988H74.9586V56.0107H72.5696ZM76.9922 51.0799H77.8192V68.7817H76.5267L76.9922 51.0799ZM71.9693 56.4211L71.6263 56.758V51.3249L71.9693 50.9819V56.4211ZM72.2205 57.8237H76.5267L76.3429 64.4267H75.4302C75.2894 63.3548 74.4012 62.5462 73.3231 62.5034C72.637 62.5095 72 62.8586 71.6202 63.4283V58.4179L72.2205 57.8237ZM75.761 69.3513L75.467 69.4554V65.1862H76.3552L76.2572 68.8H75.7794L75.761 69.3513ZM79.2709 69.8781V70.1721H75.0137L75.075 70.0863L75.7671 69.8781H79.2709ZM73.7641 65.3944V63.3486C74.3583 63.5936 74.7381 64.1817 74.7136 64.8248V65.4067L73.7641 65.3944ZM74.7197 66.1785V69.7678L74.3522 70.2946H73.7702V66.1785H74.7197ZM72.735 65.3944V65.2719C72.735 64.2735 73.0719 63.7958 73.2986 63.5875V65.4067L72.735 65.3944ZM73.2986 66.1785V70.3007H72.735V66.1785H73.2986ZM74.8177 70.6988V71.0357H70.2542L69.8193 70.6988H74.8177ZM74.6155 71.5135V72.7814H74.248V71.5135H74.6155ZM73.8009 71.5135V72.7814H73.4517V71.5135H73.8009ZM72.9801 71.5135V72.7814H72.6309V71.5135H72.9801ZM72.1592 71.5135V72.7814H71.8101V71.5135H72.1592ZM70.8606 71.5135H71.3384V72.7814H70.8606V71.5257V71.5135ZM70.6769 73.2714H79.7732L80.1775 73.6389H70.291L70.6769 73.2714ZM79.7732 72.7753H75.3016V70.9806H79.7732V72.7753ZM79.2648 69.2165V69.4738H76.1653V69.2165H79.2648ZM78.7012 49.7263H76.9922V49.0464L76.2082 47.7723H79.0504L78.7012 49.7263ZM76.8942 36.9185H78.7012V37.1268H76.8942V36.9185ZM78.3705 37.4024V40.0975H77.2618V37.4024H78.3705ZM76.6124 37.4024H77.0045V39.1848H76.6124V37.4024ZM75.8958 37.2493H76.3368V39.1665H75.8958V37.2493ZM75.1791 37.2493H75.6201V39.1665H75.1791V37.2493ZM74.5175 37.2493H74.9035V39.1665L74.5175 39.4789V37.2493ZM72.7228 37.3902H73.8315V40.0852H72.7228V37.3902ZM72.0674 37.2493H72.4349V39.1665H72.0674V37.2493ZM71.3445 37.2493H71.7856V39.1665H71.3445V37.2493ZM70.6279 37.2493H71.0689V39.1665H70.6279V37.2493ZM69.9663 37.2493H70.3522V39.1665L69.9663 39.4789V37.2493ZM68.1654 37.3902H69.2741V40.0852H68.1654V37.3902ZM60.4167 37.3902H60.7536V37.2432H67.5406V37.3779H67.8775V40.073H60.4228L60.4167 37.3902ZM59.0569 37.3902H60.1656V40.0852H59.0569V37.3902ZM51.3081 37.3902H51.6389V37.2432H58.4443V37.3779H58.7751V40.073H51.3143L51.3081 37.3902ZM49.9422 37.3902H51.0509V40.0852H49.9422V37.3902ZM42.1996 37.3902H42.5365V37.2432H49.3235V37.3779H49.6604V40.073H42.2118L42.1996 37.3902ZM40.8336 37.3902H41.9423V40.0852H40.8336V37.3902ZM40.1598 37.2493H40.2272V37.384H40.5641V39.1665H40.1598V37.2493ZM39.4615 37.2493H39.9025V39.1665H39.4676L39.4615 37.2493ZM38.7203 37.2493H39.1613V39.1665H38.7264L38.7203 37.2493ZM38.071 37.2493H38.4385V39.1787L38.071 39.4727V37.2493ZM36.2824 37.3902H37.3911V40.0852H36.2824V37.3902ZM35.6147 37.2493H36.0067V39.1665H35.6392L35.6147 37.2493ZM34.898 37.2493H35.3391V39.1665H34.898V37.2493ZM34.1813 37.2493H34.6224V39.1665H34.1936L34.1813 37.2493ZM33.5198 37.2493H33.9363V39.1665L33.5504 39.4789L33.5198 37.2493ZM31.3881 37.1145V36.9063H33.2013V37.1145H31.3881ZM32.8154 37.3902V40.0852H31.7067V37.3902H32.8154ZM31.1492 40.2751H78.3582V40.4466H31.1492V40.2751ZM28.1355 41.7758V40.7161H81.3352V41.7758H28.1355ZM78.7502 44.7281V46.6882H31.3024V44.7281H78.7502ZM30.6163 46.9516H78.8727V47.5028H30.6163V46.9516ZM62.0828 84.5662V84.0885H63.5591V82.7899H62.0828L62.8485 82.0243H63.994V91.8613H62.089V88.321H63.5652V84.5785L62.0828 84.5662ZM60.9986 79.3292L60.9619 79.4027L59.6327 78.7044L57.9972 79.4027L57.9604 79.3292C57.648 78.7412 57.2192 78.2144 56.6986 77.7979L58.3096 76.285H61.0109L62.3156 77.8285C61.7827 78.245 61.3355 78.7596 61.0109 79.3537L60.9986 79.3292ZM57.9972 89.6562V87.4022H60.9496V89.6991L57.9972 89.6562ZM60.9496 90.0482V91.8368H57.9972V90.0482H60.9496ZM57.9972 87.0959V84.5968H60.9496V87.0959H57.9972ZM57.9972 84.3273V81.8283H60.9496V84.3273H57.9972ZM57.9972 81.5526V79.709L59.6204 79.0168L60.9496 79.7151V81.5588L57.9972 81.5526ZM55.1794 84.554V84.0762H56.6557V82.7777H55.1794V82.0182H57.3969V91.8552H55.1856V88.3271H56.6618V84.5846L55.1794 84.554ZM52.6803 81.3138L53.3602 80.6339H57.3846V81.3138H52.6803ZM48.5027 89.6807V87.396H51.4552V89.693L48.5027 89.6807ZM51.4552 90.0727V91.8613H48.5027V90.0727H51.4552ZM48.5027 87.1265V84.6275H51.4552V87.1265H48.5027ZM48.5027 84.3518V81.8528H51.4552V84.3518H48.5027ZM48.5027 81.5771V79.7335L49.9973 79.0352L51.4552 79.7335V81.5771H48.5027ZM50.0096 78.7289L48.5027 79.4395L48.4659 79.366C48.1413 78.7473 47.688 78.2083 47.1367 77.7734L48.6864 76.2972H51.3878L52.7476 77.902C52.2453 78.3002 51.8227 78.7841 51.498 79.3415L51.4613 79.415L50.0096 78.7289ZM45.6788 84.5846V84.1068H47.1367V82.8083H45.6788V82.0427H47.8901V91.8797H45.6788V88.321H47.1367V84.5785L45.6788 84.5846ZM43.1797 81.3383L43.8596 80.6584H47.884V81.3383H43.1797ZM48.5272 56.7825V51.5087H47.6696L48.1964 50.988H49.3786L49.2132 57.3521H44.6681L45.2378 56.7886L48.5272 56.7825ZM45.3542 56.0046V52.2927H47.7493V56.0046H45.3542ZM57.599 56.7825V51.5087H56.7414L57.2621 50.988H58.4443L58.2789 57.3521H53.7338L54.3035 56.7886H57.599V56.7825ZM54.4321 56.0046V52.2927H56.8027V56.0046H54.4321ZM58.7322 50.6022V50.1734H60.4535V50.6022H58.7322ZM52.1596 73.6267L52.5884 73.1979H60.0186V73.6267H52.1596ZM55.7062 74.4107L55.1243 77.1241C55.0386 77.1241 54.9528 77.0996 54.867 77.0996C54.7813 77.0996 54.6833 77.0996 54.5853 77.1241L54.0034 74.4107H55.7062ZM52.7231 71.4767H53.2009V72.7875H52.7415V71.4829L52.7231 71.4767ZM53.6787 72.7875V71.4951H54.0279V72.8059L53.6787 72.7875ZM54.4873 72.7875V71.4951H54.8548V72.8059L54.4873 72.7875ZM55.3081 72.7875V71.4951H55.6572V72.8059L55.3081 72.7875ZM56.1289 72.7875V71.4951H56.478V72.8059L56.1289 72.7875ZM57.0048 72.7875V70.9071H60.0124V72.7875H57.0048ZM56.7476 70.1414L56.8027 70.0618L57.5377 69.8229H60.0186V70.1476L56.7476 70.1414ZM57.2866 69.3391L57.3295 65.1556H58.0645L57.9665 68.8H57.5377V69.2717L57.2866 69.3391ZM57.8746 69.4677V69.1492H60.0124V69.4677H57.8746ZM58.2422 68.8062L58.7077 51.0554H60.0063V68.8062H58.2422ZM58.72 49.6895V49.0157L57.9359 47.7417H60.4596V49.6834L58.72 49.6895ZM53.8502 56.4211L53.5072 56.758V51.3249L53.8502 50.9819V56.4211ZM54.0952 57.8237H58.2728L58.1013 64.4328H57.3111C57.1702 63.3609 56.282 62.5524 55.2039 62.5095C54.5118 62.5095 53.8625 62.8586 53.4766 63.4344V58.424L54.0952 57.8237ZM55.645 65.3944V63.3425C56.2392 63.5875 56.6189 64.1755 56.5944 64.8187V65.4006L55.645 65.3944ZM56.5883 66.1785L56.5515 69.6453L56.1105 70.2946H55.645V66.1723L56.5883 66.1785ZM54.5975 65.3883V65.2719C54.5975 64.2735 54.9344 63.7958 55.1672 63.5875V65.4067L54.5975 65.3883ZM55.1611 66.1723V70.2946H54.5853V66.1723H55.1611ZM56.6006 70.6988V71.0357H52.1167L51.6818 70.6988H56.6006ZM53.7277 74.4352L54.3158 77.1854C53.8318 77.2773 53.3724 77.4672 52.9682 77.7489L51.5164 76.04H48.5639L46.8856 77.6203C46.5119 77.3814 46.0954 77.2283 45.6543 77.1731L46.2424 74.4536L53.7277 74.4352ZM47.6819 70.166L47.7431 70.0802L48.4782 69.8413H50.9651V70.166H47.6819ZM50.9529 70.9316V72.812H47.9514V70.9316H50.9529ZM48.2577 69.3819V65.1862H49.0111L48.9192 68.8307H48.4598V69.3329L48.2577 69.3819ZM48.8151 69.4983V69.1798H50.9529V69.4983H48.8151ZM49.1826 68.8368L49.642 51.0861H50.9406V68.8368H49.1826ZM49.6481 50.6144V50.1856H51.3694V50.6144H49.6481ZM51.3817 49.7201H49.6543V49.0464L48.8702 47.7723H51.3878L51.3817 49.7201ZM44.7416 56.4272L44.3925 56.7641V51.3249L44.7416 50.9758V56.4272ZM44.9928 57.8299H49.1765L49.005 64.4389H48.2087C48.0678 63.367 47.1796 62.5585 46.1015 62.5156C45.4154 62.5279 44.7723 62.877 44.3925 63.4528V58.4179L44.9928 57.8299ZM46.5425 65.4006V63.3486C47.1367 63.5936 47.5165 64.1817 47.492 64.8248V65.4067L46.5425 65.4006ZM47.4981 66.1785V69.6024L47.0203 70.3007H46.5548V66.1723L47.4981 66.1785ZM45.5135 65.4006V65.2781C45.5135 64.2797 45.8504 63.8019 46.0831 63.5936V65.4128L45.5135 65.4006ZM46.077 66.1785V70.3007H45.5135V66.1723L46.077 66.1785ZM47.5165 70.705V71.0419H43.051L42.6161 70.705H47.5165ZM47.394 71.5135V72.8243H47.0264V71.5012L47.394 71.5135ZM46.5793 71.5135V72.8243H46.2301V71.5012L46.5793 71.5135ZM45.7646 71.5135V72.8243H45.4155V71.5012L45.7646 71.5135ZM44.9499 71.5135V72.8243H44.5946V71.5012L44.9499 71.5135ZM43.6452 71.5135H44.123V72.8243H43.6513V71.5196L43.6452 71.5135ZM43.5104 73.2285H50.9406V73.6573H43.0816L43.5104 73.2285ZM45.9667 74.4474L45.3848 77.1425H45.3603C45.1949 77.1425 45.0295 77.1548 44.8642 77.1793L44.2761 74.4474H45.9667ZM52.5761 88.3393H54.0524V84.5846H52.5761V84.1068H54.0524V82.8083H52.5761L53.3418 82.0427H54.4873V91.8797H52.5822L52.5761 88.3393ZM61.1518 76.0461H58.1993L56.4719 77.6693C56.135 77.4426 55.7614 77.2834 55.3632 77.2038L55.9513 74.4474H63.4366L64.0185 77.167C63.4917 77.2283 62.9833 77.412 62.5423 77.6999L61.1518 76.0461ZM66.6831 56.7947V51.5209H65.8255L66.3523 51.0003H67.5345L67.3691 57.3643H62.8118L63.3814 56.8008L66.6831 56.7947ZM63.5101 56.0107V52.2988H65.899V56.0107H63.5101ZM65.8316 70.166L65.8929 70.0802L66.6279 69.8413H69.1149V70.166H65.8316ZM69.1026 70.9316V72.812H66.095V70.9316H69.1026ZM66.4074 69.3636V65.1984H67.1425L67.0445 68.8429H66.6034V69.3207L66.4074 69.3636ZM66.9587 69.4983V69.1798H69.0965V69.4983H66.9587ZM67.3324 68.8368L67.7979 51.0861H69.0965V68.8368H67.3324ZM62.9037 56.4272L62.5545 56.7641V51.3311L62.9037 50.9819V56.4272ZM63.1548 57.8299H67.3385L67.167 64.4389H66.3952C66.2543 63.367 65.3661 62.5585 64.288 62.5156C63.5958 62.5279 62.9588 62.877 62.579 63.4528V58.4301L63.1548 57.8299ZM64.6984 65.4006V63.3486C65.2926 63.5936 65.6724 64.1817 65.6479 64.8248V65.4067L64.6984 65.4006ZM65.6479 66.1785V69.5963L65.1701 70.2946H64.7107V66.1723H65.6479V66.1785ZM63.6632 65.4006V65.2781C63.6632 64.2797 64.0001 63.8019 64.2268 63.5936V65.4128L63.6632 65.4006ZM64.2268 66.1785V70.3007H63.6755V66.1785H64.2268ZM65.6662 70.705V71.0419H61.2008L60.7659 70.705H65.6662ZM65.5437 71.5135V72.8243H65.1946V71.5135H65.5437ZM64.729 71.5135V72.8243H64.3615V71.5135H64.729ZM63.9082 71.5135V72.8243H63.5591V71.5135H63.9082ZM63.0935 71.5135V72.8243H62.7444V71.5135H63.0935ZM61.7949 71.5135H62.2727V72.8243H61.8011V71.5196L61.7949 71.5135ZM63.7306 74.4474H65.4335L64.8454 77.1854C64.6923 77.1548 64.533 77.1425 64.3799 77.1425H64.3064L63.7306 74.4474ZM61.2437 73.6573L61.6724 73.2285H69.1026V73.6573H61.2437ZM67.8224 50.6205V50.1918H69.5437V50.6205H67.8224ZM67.8224 49.7263V49.0464L67.0383 47.7723H69.5559V49.714L67.8224 49.7263ZM39.4676 56.7886V51.5148H38.6101L39.1307 50.9942H40.3129L40.1414 57.3582H35.5902L36.1415 56.7886H39.4676ZM36.2946 56.0107V52.2988H38.6836V56.0107H36.2946ZM38.6162 70.166L38.6774 70.0802L39.4125 69.8413H41.8994V70.166H38.6162ZM41.8872 70.9255V72.8059H38.8796V70.9255H41.8872ZM39.192 69.3942V65.1923H39.927L39.829 68.8368H39.388V69.3329L39.192 69.3942ZM39.7494 69.4922V69.1737H41.8872V69.4922H39.7494ZM40.1169 68.8307L40.5763 51.0922H41.8749V68.8429L40.1169 68.8307ZM35.6882 56.4272L35.3452 56.7641V51.3311L35.6882 50.988V56.4272ZM35.9394 57.8299H40.1169L39.9393 64.4389H39.1552C39.0143 63.367 38.1261 62.5585 37.0481 62.5156C36.362 62.5217 35.7188 62.8647 35.3391 63.4344V58.424L35.9394 57.8299ZM37.483 65.4006V63.3486C38.0771 63.5936 38.4569 64.1817 38.4324 64.8248V65.4006H37.483ZM38.4202 66.1785V69.6086L37.9485 70.2946H37.483V66.1723L38.4202 66.1785ZM36.4478 65.4006V65.2781C36.4478 64.2797 36.7847 63.8019 37.0113 63.5936V65.4128L36.4478 65.4006ZM37.0113 66.1785V70.3007H36.4416V66.1785H37.0113ZM38.4508 70.705V71.0419H33.9792L33.5443 70.705H38.4508ZM38.3283 71.5135V72.8304H37.9975V71.5012L38.3283 71.5135ZM37.5075 71.5135V72.8304H37.1583V71.5012L37.5075 71.5135ZM36.6989 71.5135V72.8304H36.3314V71.5012L36.6989 71.5135ZM35.8781 71.5135V72.8304H35.5289V71.5012L35.8781 71.5135ZM34.5734 71.5135H35.0512V72.8304H34.5795V71.5196L34.5734 71.5135ZM34.4386 73.2285H41.8872V73.6573H34.016L34.4386 73.2285ZM40.5702 50.6144V50.1856H42.2915V50.6144H40.5702ZM40.5702 49.7201V49.0464L39.7861 47.7723H42.3037V49.714L40.5702 49.7201ZM30.6898 47.7723H33.2503V49.714H31.529V49.0402L30.6898 47.7723ZM32.8031 72.812H29.7955V70.9316H32.8031V72.812ZM32.8031 70.166H29.5382L29.5995 70.0802L30.3346 69.8352H32.8215L32.8031 70.166ZM32.8031 69.4983H30.6653V69.1798H32.8031V69.4983ZM32.8031 68.8307H31.0512L31.5106 51.0799H32.8092L32.8031 68.8307ZM31.5106 50.6144V50.1856H33.2319V50.6144H31.5106ZM29.5076 74.4352H43.9943L44.5946 77.2283C44.074 77.363 43.5839 77.6203 43.1735 77.9633L41.8321 76.0461H37.483L36.4478 78.7534C36.1415 78.4839 35.7495 78.3369 35.3391 78.3308H35.3146C34.9286 78.3492 34.555 78.4717 34.2426 78.6983L33.238 76.0584H29.5076V74.4352ZM35.6392 85.681V85.9566H34.5611V82.0304L35.5963 80.3582L35.6392 85.681ZM33.0788 80.3153V81.571H29.5076V78.9923H32.5091L33.336 79.6906C33.2258 79.8866 33.14 80.101 33.0788 80.3153ZM32.6071 78.7289H29.5076V76.2972H33.0481L34.016 78.8392C33.8077 79.0168 33.6239 79.2312 33.4708 79.464L32.6071 78.7289ZM37.0297 88.9641C35.8168 88.2903 34.6408 87.5553 33.5075 86.7529H37.0297V88.9641ZM37.0297 85.9628H36.3375V80.395H37.0297V85.9628ZM37.336 80.0642L38.7326 78.9923H40.7356L41.9546 79.9172V81.5588H37.4401V80.3215L37.3298 80.0642H37.336ZM37.4462 84.3396V81.8405H41.9546V84.3396H37.4462ZM41.9546 84.6152V87.1143H37.4401V84.6152H41.9546ZM37.4401 89.1846V87.4022H41.9484V89.7604H38.5182C38.1506 89.5705 37.7892 89.3867 37.4401 89.1907V89.1846ZM41.9607 91.2549L39.0756 90.0176H41.9607V91.2549ZM41.9913 79.3476L41.9546 79.4211V79.5926L40.8458 78.7351H38.6529L37.2502 79.8131C37.1093 79.4946 36.9194 79.2006 36.6805 78.9494L37.6851 76.3156H41.6728L42.9469 78.1593C42.5732 78.5023 42.2486 78.9066 41.9913 79.3476ZM43.0939 91.6653V88.3455H44.5701V84.5846H43.0939V84.1068H44.5701V82.8083H43.0939L43.8596 82.0427H45.005V91.8797H43.7371L43.0939 91.6653ZM55.1304 93.6743C51.5593 93.6743 48.0126 93.166 44.5885 92.1553H65.654C62.236 93.1598 58.6893 93.6743 55.1304 93.6743ZM66.9342 89.8767V91.7572L66.5667 91.8797H64.7229V88.3271H66.1808V84.5846H64.7229V84.1068H66.1808V82.8083H64.7229V82.0427H66.9342V89.8767ZM66.9342 81.3444H62.2115L62.8914 80.6645H66.9158L66.9342 81.3444ZM67.5406 91.5489V90.036H71.1914C70.0031 90.6056 68.7841 91.1079 67.5406 91.5489ZM72.0674 89.595L71.755 89.7542H67.5284V87.396H72.0551L72.0674 89.595ZM72.0674 87.1265H67.5284V84.6275H72.0674V87.1265ZM72.0674 84.3518H67.5284V81.8528H72.0674V84.3518ZM72.0674 80.3276V81.5833H67.5284V80.1071L68.9434 79.0291H70.9464L72.2021 79.9907C72.1531 80.101 72.1102 80.2174 72.0674 80.3276ZM71.0444 78.7473H68.8515L67.5284 79.7518V79.4333L67.4916 79.3598C67.265 78.9433 66.9832 78.5574 66.6524 78.2144L67.9817 76.3095H72L72.9739 78.8637C72.7044 79.1026 72.4778 79.3905 72.3124 79.7151L71.0444 78.7473ZM76.0244 87.2429C74.8789 88.0208 73.6906 88.7375 72.4655 89.3867V86.7529H76.0244V87.2429ZM73.5497 85.975V82.0488L74.6278 80.3889V85.9689L73.5497 85.975ZM76.0244 85.975H75.3322V80.395H76.0244V85.975ZM80.3612 81.5833H76.4287V80.3337C76.3736 80.1622 76.3062 79.9907 76.2266 79.8315L77.1699 79.0229H80.3735L80.3612 81.5833ZM80.3612 78.7473H77.0412L76.0673 79.5742C75.9448 79.3414 75.7855 79.1271 75.6079 78.9311L76.6063 76.3156H80.3429L80.3612 78.7473ZM80.3612 76.04H76.4348L75.4119 78.7351C75.1056 78.4717 74.7136 78.3247 74.3032 78.3247C73.905 78.3369 73.5191 78.4655 73.1944 78.6922L72.1837 76.0339H67.8592L66.4748 78.0123C66.0889 77.6509 65.6295 77.3875 65.1211 77.2405L65.7214 74.4352H80.3735L80.3612 76.04ZM84.0917 74.5638H83.5281V69.1431L84.0917 68.3774V74.5638ZM85.5618 74.5638H84.453V68.3651H85.5618V74.5638ZM84.4224 65.1249L85.7884 66.2336H82.9094L84.4224 65.1249ZM82.6154 67.1034H85.9967V67.9609H82.6154V67.1034ZM82.2234 66.7971V68.3529H82.6154V74.5638H81.813V66.7849L82.2234 66.7971ZM91.381 65.2964L91.528 64.6594L91.1604 64.3777L87.8037 66.7849H88.9491V68.3406H89.5984L89.7393 67.9486H89.3473V67.0911H90.8848L91.1421 66.203H89.6291L91.1543 65.0943L91.381 65.2964ZM42.2425 28.135L41.9484 28.2943L41.5258 28.5271L41.2011 28.7169L40.7968 28.9742L40.5089 29.1457L40.3926 28.9436L40.5151 28.8578C40.7662 28.6863 40.8458 28.5761 40.6008 28.1473L39.4676 26.1689C39.2104 25.734 39.1001 25.7707 38.8122 25.9361L38.6897 26.0096L38.5733 25.8014C38.9286 25.5502 39.2349 25.2378 39.4737 24.8765L39.6208 24.7907L41.3175 27.7124C41.5625 28.1412 41.685 28.1167 41.9791 27.988L42.1138 27.9207L42.2425 28.135ZM48.4537 22.6101C48.3434 22.0221 48.7293 21.428 49.5073 21.2932C50.3648 21.1401 50.8365 21.5689 50.91 21.9792C50.9406 22.3651 50.7507 22.7388 50.4138 22.9409C50.8977 23.0634 51.2775 23.4432 51.3939 23.9271C51.5164 24.6314 51.0448 25.2991 50.3403 25.4277C50.3097 25.4338 50.2729 25.44 50.2423 25.44C49.4399 25.587 48.7661 25.2685 48.6681 24.6498C48.6252 24.1782 48.8886 23.7372 49.3235 23.5412C48.8886 23.4125 48.5517 23.0573 48.4537 22.6101ZM50.1872 22.8613C50.3342 22.653 50.3832 22.4019 50.3403 22.1508C50.3036 21.7832 49.9789 21.5137 49.6114 21.5505C49.5808 21.5505 49.5501 21.5566 49.5195 21.5627C49.2194 21.5811 48.9866 21.8384 49.005 22.1446C49.005 22.1569 49.005 22.1753 49.0111 22.1875C49.0846 22.6163 49.6543 22.7388 50.0096 22.8123L50.1872 22.8613ZM49.5808 23.6269C49.3664 23.8719 49.2684 24.2027 49.3174 24.5212C49.3541 24.9255 49.7094 25.2256 50.1198 25.1888C50.1504 25.1888 50.1749 25.1827 50.2056 25.1766C50.5976 25.1521 50.8916 24.8152 50.8671 24.4232C50.8671 24.4109 50.8671 24.4048 50.8671 24.3926C50.7691 23.8597 50.1321 23.731 49.7155 23.6575L49.5808 23.6269ZM60.6862 25.4951L60.3555 25.4338L59.8838 25.342L59.5163 25.2807L59.0385 25.2133L58.7077 25.1643L58.7445 24.9377H58.8915C59.1978 24.9622 59.3325 24.9377 59.406 24.4538L59.7735 22.2059C59.8593 21.7097 59.749 21.6607 59.406 21.6056L59.259 21.5811L59.2958 21.3422C59.7368 21.3851 60.1778 21.3422 60.6005 21.2197L60.772 21.2504L60.2085 24.5886C60.1288 25.0725 60.2452 25.1398 60.5392 25.2133L60.6862 25.2501V25.4951ZM70.1256 26.3281C70.6708 26.665 70.8423 27.3816 70.4992 27.9268C70.4992 27.9329 70.4931 27.9329 70.4931 27.939C70.144 28.6373 69.2986 28.9191 68.6003 28.5699C68.5881 28.5638 68.5758 28.5577 68.5636 28.5516C68.0491 28.2575 67.5774 27.5103 68.3431 26.1689C69.268 24.5457 70.3767 24.7294 70.9219 25.0418C71.4671 25.3542 71.5099 25.7585 71.3997 25.9667C71.3078 26.1321 71.0995 26.1934 70.9341 26.1015C70.781 25.9974 70.7075 25.8014 70.7565 25.6237C70.7565 25.4522 70.7565 25.2807 70.5972 25.1827C70.438 25.0847 70.0153 24.999 69.3722 26.1995C69.6294 26.1444 69.8989 26.1934 70.1256 26.3281ZM68.7841 27.1611C68.5268 27.6022 68.2879 28.1228 68.6677 28.3249C69.0414 28.5332 69.4028 28.086 69.6172 27.6879C69.8316 27.2898 70.1807 26.7446 69.7458 26.4996C69.562 26.4077 69.3354 26.4139 69.1578 26.5241L68.7841 27.1611Z" fill="black"/>
</svg>
