<svg width="160" height="32" viewBox="0 0 160 32" fill="none" xmlns="http://www.w3.org/2000/svg">
<g clip-path="url(#clip0_966_550)">
<path d="M3.55754e-05 12.3079C0.0163076 5.3752 5.57049 0.0107017 12.7437 1.5424e-05C19.6756 -0.0106708 25.2488 5.53282 25.2379 12.4228C25.2271 19.3555 19.7109 24.744 12.6597 24.7093C5.5515 24.6746 -0.0162364 19.2219 3.55754e-05 12.3079ZM20.3943 12.4548C20.4079 7.97196 17.0504 4.54168 12.6624 4.56038C8.1713 4.57908 4.82198 7.9025 4.81384 12.348C4.8057 16.7347 8.23639 20.157 12.6624 20.173C17.0748 20.189 20.378 16.8896 20.3916 12.4522L20.3943 12.4548Z" fill="white"/>
<path d="M131.687 0.552734V24.2068H127.359C127.294 23.7339 127.223 23.237 127.15 22.716C122.806 25.6735 118.445 25.3849 115.499 21.984C112.291 18.2839 112.462 12.703 115.868 9.22998C118.458 6.5878 123.489 5.62871 127.242 9.10708C127.242 7.49613 127.242 6.1176 127.242 4.73908C127.242 3.36055 127.242 2.00607 127.242 0.552734H131.687ZM127.24 15.7994C127.237 12.9915 125.32 11.06 122.523 11.0493C119.643 11.0386 117.68 12.9755 117.688 15.8261C117.693 18.5724 119.679 20.5921 122.415 20.6349C125.176 20.6776 127.242 18.6072 127.24 15.7994Z" fill="white"/>
<path d="M51.8287 22.7616C51.7664 23.2452 51.704 23.7154 51.6335 24.247H47.2617V0.584961H51.6741V9.12862C54.0607 6.95664 56.5774 6.41164 59.3735 7.10625C61.2448 7.5711 62.7256 8.62904 63.8673 10.1278C66.5413 13.6409 66.3108 18.984 63.3846 22.0937C60.2793 25.3931 56.4039 25.6229 51.8314 22.7616H51.8287ZM51.7474 15.8289C51.7555 18.618 53.7054 20.619 56.4391 20.6351C59.2 20.6511 61.2882 18.5699 61.2882 15.8022C61.2882 12.9757 59.2867 11.0281 56.4093 11.0495C53.6024 11.0735 51.7419 12.981 51.7474 15.8289Z" fill="white"/>
<path d="M80.4962 10.4748C79.265 11.1347 78.1178 11.7491 76.8811 12.4117C76.0404 11.3858 75.0397 10.4561 73.5942 10.8435C72.8917 11.0332 71.9453 11.5514 71.7771 12.1151C71.6225 12.6334 72.1893 13.678 72.7399 14.0226C74.2152 14.947 75.8668 15.5908 77.4235 16.3977C79.8074 17.6292 81.6786 19.3043 81.9146 22.1442C82.2509 26.1489 79.8345 28.9647 75.536 29.67C70.8632 30.4394 66.7572 27.7705 66.0901 23.5895C65.9653 22.8041 66.109 22.4434 66.9416 22.3072C68.002 22.1335 69.0461 21.8476 70.253 21.5725C70.3479 22.1121 70.4184 22.6224 70.5323 23.122C70.8361 24.4551 71.628 25.3581 73.0084 25.652C74.4023 25.9512 75.7421 25.7882 76.7753 24.7383C77.9198 23.5735 77.7598 21.7702 76.2953 20.787C74.7386 19.7398 73.0084 18.9463 71.3812 17.9953C70.5323 17.4983 69.6672 16.9827 68.9377 16.3389C66.2663 13.9826 66.4616 10.2718 69.3309 8.16122C72.0049 6.19495 77.9578 5.91444 80.4935 10.4748H80.4962Z" fill="white"/>
<path d="M150.716 24.7712C145.62 24.7364 141.623 20.7692 141.645 15.768C141.666 10.7428 145.772 6.79421 150.939 6.83429C156.01 6.87169 160.016 10.8577 159.999 15.8535C159.983 20.9027 155.918 24.8086 150.716 24.7738V24.7712ZM155.495 15.8722C155.519 13.1659 153.607 11.1729 150.925 11.1141C148.267 11.0554 146.204 13.035 146.163 15.6825C146.119 18.469 148.059 20.478 150.8 20.486C153.51 20.494 155.47 18.5705 155.495 15.8722Z" fill="white"/>
<path d="M94.6998 7.37865H99.1394C99.1394 9.59872 99.1394 11.7707 99.1394 13.94C99.1394 15.0086 99.1123 16.0746 99.1502 17.1432C99.2343 19.4221 100.406 20.667 102.467 20.7151C104.715 20.7685 106.234 19.4327 106.315 17.1432C106.405 14.6106 106.351 12.0726 106.356 9.53994C106.356 8.8774 106.356 8.21485 106.356 7.43208H110.76V24.2469H106.481C106.405 23.7767 106.332 23.3252 106.237 22.7348C104.661 24.3751 102.779 24.8827 100.653 24.7598C97.3576 24.5675 94.8924 22.1818 94.7351 18.6072C94.5724 14.9258 94.6998 11.2337 94.6998 7.37598V7.37865Z" fill="white"/>
<path d="M43.8663 24.2498H39.6301C39.5677 23.8144 39.5054 23.3869 39.424 22.8392C39.2179 22.9568 39.0308 23.0236 38.8924 23.1465C35.0495 26.5046 28.8038 24.7467 28.1204 19.7857C27.5644 15.7436 28.0065 11.5652 28.0065 7.37891H32.2616C32.2616 9.49211 32.2616 11.5652 32.2616 13.6411C32.2616 14.8406 32.2426 16.0428 32.267 17.2423C32.3104 19.3101 33.4956 20.6031 35.4075 20.7127C37.5256 20.8329 39.0931 19.7162 39.3345 17.6992C39.5243 16.1176 39.4755 14.5066 39.5054 12.909C39.5379 11.1752 39.5352 9.44135 39.5515 7.71018C39.5515 7.6327 39.6165 7.55523 39.6871 7.39494H43.8635V24.2552L43.8663 24.2498Z" fill="white"/>
<path d="M81.3086 7.31975H83.9392C84.0504 7.1274 84.1589 7.02053 84.1725 6.90566C84.2674 6.03473 84.0504 4.62147 84.4843 4.39171C85.6966 3.74787 87.1747 3.59024 88.7151 3.2002V7.27967H92.6014C92.6014 8.57004 92.6556 9.71347 92.5607 10.8462C92.539 11.1054 92.0291 11.4981 91.7145 11.5301C90.7816 11.621 89.8351 11.5622 88.7422 11.5622C88.7422 14.1082 88.6744 16.5447 88.8019 18.9704C88.8263 19.4273 89.5558 20.0311 90.0901 20.2314C90.7789 20.4879 91.5952 20.4051 92.5878 20.4906C92.5878 21.5752 92.6258 22.7133 92.5526 23.8434C92.539 24.0491 92.0725 24.4017 91.8257 24.3937C90.3477 24.3376 88.8317 24.367 87.4052 24.0384C85.3929 23.5762 84.4843 22.0027 84.365 20.0818C84.2267 17.819 84.2647 15.5455 84.2294 13.2773C84.2213 12.751 84.2294 12.2274 84.2294 11.5702H81.3113V7.32242L81.3086 7.31975Z" fill="white"/>
<path d="M26.8338 26.571V31.289C23.3353 32.1385 19.8856 32.2561 16.3872 31.468C13.328 30.7814 10.2797 29.8063 6.78125 30.8428C7.54061 29.0956 8.13183 27.6343 8.8261 26.221C8.94814 25.9726 9.5041 25.7802 9.83496 25.8096C11.6249 25.9672 13.4582 26.0046 15.1803 26.4481C19.0422 27.4446 22.8716 27.8293 26.8338 26.571Z" fill="white"/>
<path d="M135.121 24.2526V7.38965H139.368V24.2552H135.121V24.2526Z" fill="white"/>
</g>
<defs>
<clipPath id="clip0_966_550">
<rect width="160" height="32" fill="white"/>
</clipPath>
</defs>
</svg>
