<svg width="356" height="104" viewBox="0 0 356 104" fill="none" xmlns="http://www.w3.org/2000/svg">
<path d="M147.396 45.9568V76.5149C147.396 82.5335 145.598 85.7754 140.436 85.7754C135.274 85.7754 133.476 82.5335 133.476 76.5149V45.9568H126.74V76.5149C126.74 85.7754 130.78 91.3324 140.209 91.3324C149.638 91.3324 153.904 85.3138 153.904 76.5149V45.9568H147.396ZM165.806 57.994H159.521V90.4056H165.806V68.412C167.153 65.1702 169.398 62.6242 172.315 62.6242C175.232 62.6242 177.253 64.2434 177.253 69.1079V90.4056H183.538V69.1079C183.538 61.2358 179.946 57.3015 173.885 57.3015C170.293 57.3015 167.6 59.155 165.579 61.9318L165.803 57.9974L165.806 57.994ZM196.114 90.1748H189.83V57.7632H196.338V90.1748H196.114ZM188.931 49.4294C188.931 47.1143 190.728 45.4951 192.746 45.4951C194.992 45.4951 196.562 47.3486 196.562 49.4294C196.562 51.5103 194.764 53.3638 192.746 53.3638C190.725 53.5946 188.931 51.7446 188.931 49.4294ZM206.666 57.994H200.381L211.38 90.1748H215.42L226.195 57.994H219.911L213.402 80.6835L206.666 57.994ZM239.667 62.1626C243.483 62.1626 244.829 65.4044 245.057 71.4231H234.505C234.729 66.3312 235.852 62.1626 239.667 62.1626ZM244.606 81.1452C243.931 83.9219 242.584 85.7754 239.667 85.7754C235.852 85.7754 234.729 81.6068 234.505 76.5149H251.342V73.7382C251.342 63.3201 247.75 57.0707 239.667 57.0707C231.585 57.0707 227.993 63.3201 227.993 73.2765V75.5916C227.993 84.3905 232.26 90.6399 239.667 90.6399C245.504 90.6399 249.544 86.4713 250.667 80.9178L244.606 81.1486V81.1452ZM271.994 57.994C271.095 57.5323 269.972 57.2981 268.85 57.2981C266.157 57.2981 263.911 58.9173 262.341 61.9283V57.7597H256.056V90.1714H262.341V68.4086C263.463 64.4743 265.485 62.1591 268.402 62.1591C269.524 62.1591 270.871 62.39 271.77 62.6208V57.9906H271.994V57.994ZM288.83 81.8411C288.83 84.6178 286.809 85.7754 283.892 85.7754C280.524 85.7754 278.73 83.9219 278.278 80.2184H272.889C273.113 86.237 276.257 90.8673 283.888 90.8673C290.848 90.8673 295.339 86.933 295.339 81.376C295.339 69.1045 280.52 72.5772 280.52 66.3277C280.52 63.3167 282.318 62.1591 284.787 62.1591C287.704 62.1591 289.502 64.0126 289.725 67.251H295.115C294.891 60.7673 290.848 57.2946 284.787 57.2946C278.726 57.2946 274.235 60.7673 274.235 66.5551C274.012 78.1307 288.827 74.658 288.827 81.8342L288.83 81.8411ZM306.565 90.1748H300.057V57.7632H306.565V90.1748ZM299.382 49.4294C299.382 47.1143 301.179 45.4951 303.197 45.4951C305.443 45.4951 307.013 47.3486 307.013 49.4294C307.013 51.5103 305.215 53.3638 303.197 53.3638C300.952 53.5946 299.382 51.7446 299.382 49.4294ZM328.116 85.5446C327.217 85.7754 326.319 85.7754 325.423 85.7754C322.279 85.7754 321.608 83.6911 321.608 79.7568V62.6242H327.221V57.5323H321.384V48.7335H315.099V57.5323H310.608V62.6242H315.099V79.526C315.099 86.4713 318.691 90.6399 324.976 90.6399C326.098 90.6399 327.221 90.4091 328.344 90.1783L328.12 85.548L328.116 85.5446ZM336.423 57.994H329.687L340.238 89.944L339.116 93.1858C337.769 97.1202 336.199 98.512 333.278 98.512C332.603 98.512 331.932 98.2812 331.481 98.2812V103.142C332.38 103.373 333.278 103.604 334.625 103.604C339.116 103.604 341.809 101.75 343.83 95.501L355.504 58.2283H348.768L343.155 80.6835L336.419 57.994H336.423Z" fill="black"/>
<path d="M134.374 19.1028C136.395 19.7987 139.312 20.722 139.312 23.5022C139.312 25.5865 137.966 26.7441 135.045 26.7441C131.901 26.7441 130.107 25.3557 130.107 22.5755H126.963C126.963 26.9749 130.107 29.5209 135.045 29.5209C139.312 29.5209 142.453 27.9017 142.453 23.2714C142.453 19.7987 140.882 17.4836 135.269 15.8644C131.677 14.9377 130.778 13.5493 130.778 11.9301C130.778 9.61498 132.125 8.45743 134.818 8.45743C137.735 8.45743 139.309 9.8458 139.309 12.626H142.453C142.453 8.69169 139.536 5.68066 134.821 5.68066C130.782 5.68066 127.638 7.76496 127.638 11.9301C127.638 15.6336 129.436 17.7179 134.374 19.1063V19.1028ZM150.539 29.5209H147.846V12.8534H150.539V29.5209ZM147.171 8.22315C147.171 7.0656 148.07 6.13886 149.192 6.13886C150.315 6.13886 151.214 7.0656 151.214 8.22315C151.214 9.38071 150.315 10.3075 149.192 10.3075C148.07 10.3075 147.171 9.38071 147.171 8.22315ZM158.845 20.9563C158.845 17.022 160.192 14.9377 162.885 14.9377C164.682 14.9377 165.801 16.0952 166.7 17.7145V23.5022C165.801 25.3557 164.679 26.279 162.885 26.279C160.192 26.5098 158.845 24.4255 158.845 20.9529V20.9563ZM162.885 33.6894C161.087 33.6894 160.191 32.7627 159.74 31.3743H156.596C157.044 33.9203 159.513 36.2354 162.657 36.2354C166.924 36.2354 169.393 33.4586 169.393 29.0592V12.8534H166.7V14.7069C165.577 13.3185 164.231 12.3917 162.209 12.3917C157.719 12.3917 156.149 16.3261 156.149 20.9563C156.149 25.5865 158.17 29.0592 162.209 29.0592C164.231 29.0592 165.577 28.3633 166.7 26.9749V29.29C166.7 32.0668 165.354 33.6894 162.885 33.6894ZM175.006 12.8534V29.5209H177.699V17.9453C178.374 16.3261 179.27 15.1685 181.067 15.1685C183.313 15.1685 184.212 16.7877 184.212 19.1028V29.5209H186.905V19.1028C186.905 17.0185 188.251 15.1685 190.272 15.1685C192.742 15.1685 193.417 16.7877 193.417 19.1028V29.5209H196.11V18.4069C196.11 14.4726 194.763 12.6191 191.171 12.6191C188.702 12.6191 187.58 13.7767 186.457 15.3959C185.558 13.5424 184.435 12.6191 182.19 12.6191C180.169 12.6191 179.046 13.315 177.699 14.7034V12.85H175.006V12.8534ZM214.293 29.5209C213.845 28.3633 213.618 27.2057 213.618 25.5865V18.1795C213.618 14.7069 211.596 12.6226 208.004 12.6226C204.412 12.6226 202.167 14.7069 201.943 17.7145H204.636C204.86 16.0952 205.759 15.1685 207.78 15.1685C210.026 15.1685 210.925 16.0952 210.925 18.1795V19.3371H208.455C203.741 19.3371 201.272 21.4214 201.272 24.8941C201.272 27.9051 203.517 29.7551 206.434 29.7551C208.232 29.7551 209.578 29.0592 210.925 27.6708C210.925 28.5976 211.148 29.0592 211.372 29.5243H214.289L214.293 29.5209ZM206.885 27.2057C205.087 27.2057 203.968 26.279 203.968 24.6598C203.968 22.8063 205.315 21.883 208.907 21.883H210.928V24.429C210.253 26.0482 208.683 27.2057 206.889 27.2057H206.885ZM235.172 19.1028C237.193 19.7987 240.11 20.722 240.11 23.5022C240.11 25.5865 238.764 26.7441 235.843 26.7441C232.476 26.9749 230.681 25.3557 230.681 22.8098H227.537C227.537 27.2092 230.681 29.7551 235.62 29.7551C239.886 29.7551 243.027 28.1359 243.027 23.5057C243.027 20.033 241.457 17.7179 235.843 16.0987C232.252 15.172 231.353 13.7836 231.353 12.1644C231.353 9.84925 232.699 8.6917 235.392 8.6917C238.309 8.6917 239.883 10.0801 239.883 12.8603H243.027C243.027 8.92597 240.11 5.91493 235.396 5.91493C231.356 5.91493 228.212 7.99922 228.212 12.1644C228.212 15.637 230.01 17.7213 235.172 19.1097V19.1028ZM254.03 14.9342C256.947 14.9342 257.846 16.7877 257.846 20.722V21.1837C257.846 25.118 256.947 26.9715 254.03 26.9715C251.113 26.9715 250.214 25.118 250.214 21.1837V20.722C250.214 17.0185 251.113 14.9342 254.03 14.9342ZM254.03 29.7517C258.968 29.7517 260.538 26.0482 260.538 21.1871V20.7255C260.538 15.6336 258.517 12.3917 254.03 12.3917C249.543 12.3917 247.521 15.6336 247.521 20.7255V21.1871C247.521 26.0482 249.092 29.7517 254.03 29.7517ZM273.787 6.36969C273.339 6.13886 272.664 6.13886 272.216 6.13886C268.848 6.13886 267.278 8.22316 267.278 11.6958V12.8534H264.361V15.3993H267.054V29.5209H269.747V15.3993H273.115V12.8534H269.747V11.6958C269.747 9.61154 270.422 8.68481 272.216 8.68481H273.563V6.36969H273.787ZM285.909 26.9749H284.562C282.764 26.9749 282.093 25.8174 282.093 23.7331V15.1685H285.461V12.6226H282.093V8.22315H279.4V12.6226H276.707V15.1685H279.4V23.5022C279.4 26.9749 280.97 29.0592 284.338 29.0592C284.786 29.0592 285.461 29.0592 285.909 28.8284V26.9749ZM300.727 12.8534H298.482L295.114 24.6598L292.421 12.8534H289.276L293.767 29.5209H296.012L299.604 17.4836L303.196 29.5209H305.441L309.932 12.8534H307.015L304.322 24.8906L300.73 12.8534H300.727ZM326.545 29.5209C326.097 28.3633 325.87 27.2057 325.87 25.5865V18.1795C325.87 14.7069 323.848 12.6226 320.256 12.6226C316.665 12.6226 314.419 14.7069 314.195 17.7145H316.888C317.112 16.0952 318.011 15.1685 320.032 15.1685C322.278 15.1685 323.177 16.0952 323.177 18.1795V19.3371H320.484C315.769 19.3371 313.3 21.4214 313.3 24.8941C313.3 27.9051 315.545 29.7551 318.462 29.7551C320.26 29.7551 321.606 29.0592 322.953 27.6708C322.953 28.5976 323.177 29.0592 323.4 29.5243H326.545V29.5209ZM319.137 27.2057C317.34 27.2057 316.22 26.279 316.22 24.6598C316.22 22.8063 317.567 21.883 321.159 21.883H323.18V24.429C322.281 26.0482 320.711 27.2057 319.141 27.2057H319.137ZM339.565 12.8534C339.118 12.6226 338.667 12.6226 337.995 12.6226C336.197 12.6226 335.078 13.5493 334.179 15.1685V13.0842H331.486V29.7517H334.179V18.1761C334.627 16.5569 335.977 15.1651 337.771 15.1651C338.446 15.1651 339.118 15.1651 339.569 15.3959V12.85L339.565 12.8534ZM352.81 24.8906C352.362 26.279 351.463 27.2057 349.666 27.2057C346.749 27.2057 345.626 25.3523 345.626 22.3447H355.73V20.9563C355.73 15.6302 353.485 12.3917 349.222 12.3917C345.182 12.3917 342.486 16.0952 342.713 21.1906V21.6522C342.713 26.2824 344.734 29.7551 349.673 29.7551C352.817 29.7551 355.286 27.44 355.734 24.8941H352.817L352.81 24.8906ZM349.442 14.9342C351.911 14.9342 353.034 16.5535 353.034 19.7953H345.85C346.074 16.7843 347.197 14.9342 349.442 14.9342Z" fill="black"/>
<path d="M91.048 3.58875C83.4166 -4.51416 65.0064 4.28467 47.2712 18.8678C29.3121 4.28122 10.9019 -4.51416 3.27057 3.58875C-1.22006 8.21899 -0.545085 17.2486 5.51589 29.2859C8.66002 35.5353 12.9234 42.019 18.089 48.7335C12.9268 55.6789 8.66002 62.1626 5.51589 68.412C-0.545085 80.6835 -1.44391 89.4789 3.27057 94.1091C5.29204 96.1934 7.98503 97.1202 11.353 97.1202C15.8436 97.1202 21.4569 95.2667 28.1894 91.794C34.2504 88.5522 40.7625 84.1528 47.2712 78.8301C60.5158 89.4789 73.9877 97.1202 83.1893 97.1202C86.5573 97.1202 89.2503 96.1934 91.2718 94.1091C98.9031 86.2371 90.373 67.0237 76.4534 48.7335C90.373 30.4434 98.9031 11.4608 91.0445 3.58875H91.048ZM67.0279 51.7446C64.5587 54.7556 61.6385 57.7632 58.7216 61.005C54.906 64.9394 51.0903 68.6463 47.0473 71.8847C43.2317 68.6429 39.416 64.9394 35.3731 61.005C32.4562 57.994 29.7598 54.9864 27.0668 51.7446H67.0279ZM27.2906 46.1876C29.9836 43.1766 32.6801 39.9382 35.5969 36.9271C39.4126 32.9928 43.4555 29.2859 47.2712 26.0475C51.0869 29.2893 54.9025 32.9928 58.9455 36.9271C61.8623 39.9382 64.7826 43.1766 67.2518 46.1876H27.2906ZM83.1893 6.13469C84.987 6.13469 86.5573 6.59634 87.4561 7.52307C91.7229 11.9225 86.1096 26.9707 72.865 44.5649C69.7209 40.6306 66.1291 36.6929 62.5373 32.9894C58.9454 29.2859 55.1298 25.8132 51.3141 22.3405C64.7826 11.9225 76.4568 6.13469 83.1928 6.13469H83.1893ZM10.2269 26.7399C5.51242 17.4794 4.3898 10.0725 6.85896 7.29225C7.98161 6.59634 9.32809 6.13469 11.3496 6.13469C17.8582 6.13469 29.7598 11.9225 43.0044 22.5713C39.1887 25.8132 35.3731 29.5167 31.7813 33.2202C28.1895 36.9237 24.8215 40.8614 21.4535 44.7958C16.9629 38.3121 13.1472 32.2934 10.2303 26.7365L10.2269 26.7399ZM25.7169 86.933C16.7356 91.5632 9.55192 92.9516 7.08277 90.1748C4.38976 87.3981 5.73627 79.9876 10.4507 70.7271C13.1438 65.1702 17.1867 59.1516 21.6739 53.1329C24.818 57.0673 28.1826 60.7742 32.0017 64.7085C35.5935 68.412 39.4091 71.8847 43.2248 75.3574C36.94 79.9876 31.1029 84.1562 25.7134 86.933H25.7169ZM87.2289 90.1748C82.9621 94.5742 68.371 88.7864 51.3107 75.1266C55.1264 71.8847 58.7181 68.412 62.31 64.4777C65.9018 60.7742 69.2698 56.8364 72.6378 52.9021C85.8824 70.7271 91.4957 86.0097 87.2289 90.1748Z" fill="black"/>
</svg>
