<svg width="200" height="60" viewBox="0 0 200 60" fill="none" xmlns="http://www.w3.org/2000/svg">
<g clip-path="url(#clip0_1812_767)">
<path d="M4.97108 0.138672C2.23277 0.138672 0 2.37145 0 5.10975V58.4857H13.186C10.5109 57.8959 8.4045 56.9796 7.20386 56.0633L9.82631 49.7652C12.3856 51.4082 15.9243 52.5878 19.8001 52.5878C24.0655 52.5878 27.9413 50.2918 27.9413 46.0264C27.9413 43.1406 26.035 41.1712 21.7695 38.8752C16.651 36.1158 12.7753 32.6403 12.7753 27.3322C12.7753 18.8645 20.1266 13.6196 29.0471 13.6196C33.9655 13.6196 37.1146 14.7992 38.8945 15.8523L36.3984 22.1505C34.9556 21.3606 32.0066 20.1178 28.3941 20.181C23.5389 20.181 20.7795 23.0035 20.7795 25.9525C20.7795 28.9014 23.2756 30.8077 27.4041 33.1037C32.786 35.9263 35.9982 39.465 35.9982 44.8468C35.9982 51.9243 31.3852 56.8111 24.5184 58.4962H38.8102L44.7924 26.5423H52.407L46.488 58.4962H54.1974C56.9252 58.4962 59.1685 56.2635 59.1685 53.5251V0.138672H4.97108ZM49.932 21.9398H49.8688C47.5728 21.9398 45.993 20.2968 45.993 17.8745C45.993 15.1888 48.0889 13.2825 50.585 13.2825C53.081 13.2825 54.6503 14.9255 54.6503 17.3479C54.5871 20.1704 52.4807 21.9398 49.9215 21.9398H49.932Z" fill="#CD163F"/>
<path d="M75.4395 21.0135H63.8965V14.252H95.1869V21.0135H83.507V58.4756H75.4395V21.0135Z" fill="#231F20"/>
<path d="M102.866 21.9392C100.18 21.9392 98.4004 19.9697 98.4004 17.6106C98.4004 15.1145 100.233 13.2188 102.929 13.2188C105.625 13.2188 107.395 15.125 107.458 17.6106C107.458 19.9697 105.689 21.9392 102.929 21.9392H102.866ZM98.8638 58.4851V26.5311H106.931V58.4851H98.8638Z" fill="#231F20"/>
<path d="M113.83 36.0429C113.83 32.3673 113.703 29.2814 113.566 26.5326H120.454L120.844 31.2614H121.044C122.55 28.7654 125.436 25.8164 130.891 25.8164C135.094 25.8164 138.369 28.1756 139.749 31.7248H139.875C140.992 29.9555 142.298 28.639 143.751 27.7227C145.584 26.4799 147.627 25.8164 150.312 25.8164C155.557 25.8164 160.939 29.4289 160.939 39.6659V58.4971H153.061V40.8455C153.061 35.5269 151.229 32.3778 147.353 32.3778C144.594 32.3778 142.561 34.3473 141.708 36.6433C141.444 37.37 141.318 38.4126 141.318 39.3289V58.4865H133.44V39.9819C133.44 35.5163 131.671 32.3673 127.932 32.3673C124.909 32.3673 122.877 34.7264 122.097 36.896C121.834 37.7491 121.708 38.6654 121.708 39.5817V58.476H113.83V36.0324V36.0429Z" fill="#231F20"/>
<path d="M173.209 44.7727C173.409 50.5442 177.937 53.0403 183.045 53.0403C186.784 53.0403 189.407 52.4505 191.903 51.5974L193.082 57.1056C190.323 58.2852 186.521 59.1383 181.929 59.1383C171.566 59.1383 165.457 52.777 165.457 42.9928C165.457 34.1355 170.839 25.8047 181.076 25.8047C191.313 25.8047 194.852 34.3356 194.852 41.3604C194.852 42.8664 194.725 44.046 194.588 44.7727H173.198H173.209ZM187.248 39.1276C187.311 36.1787 186.005 31.3234 180.623 31.3234C175.631 31.3234 173.535 35.8522 173.209 39.1276H187.248Z" fill="#231F20"/>
<path d="M196.863 26.1738C198.158 26.1738 199.201 27.206 199.201 28.4698C199.201 29.7336 198.158 30.7974 196.842 30.7974C195.525 30.7974 194.451 29.7652 194.451 28.4698C194.451 27.1744 195.515 26.1738 196.842 26.1738H196.852H196.863ZM196.821 26.711C195.852 26.711 195.115 27.4903 195.115 28.4909C195.115 29.4914 195.852 30.2708 196.842 30.2708C197.832 30.2813 198.548 29.4809 198.548 28.4909C198.548 27.5009 197.821 26.711 196.842 26.711H196.831H196.821ZM196.515 29.6283H195.905V27.4271C196.084 27.385 196.41 27.3429 196.821 27.3429C197.284 27.3429 197.495 27.4166 197.642 27.5219C197.779 27.6062 197.874 27.7642 197.874 27.9853C197.874 28.2276 197.663 28.4277 197.39 28.5014V28.533C197.621 28.6172 197.748 28.7963 197.811 29.0912C197.874 29.4071 197.916 29.5441 197.958 29.6283H197.305C197.232 29.5441 197.2 29.3545 197.137 29.1228C197.095 28.8911 196.968 28.7963 196.726 28.7963H196.505V29.6283H196.515ZM196.526 28.3645H196.747C197.01 28.3645 197.2 28.2697 197.2 28.059C197.2 27.8695 197.063 27.7536 196.779 27.7536C196.673 27.7536 196.589 27.7642 196.536 27.7642V28.3539L196.526 28.3645Z" fill="#231F20"/>
</g>
<defs>
<clipPath id="clip0_1812_767">
<rect width="199.201" height="59" fill="white" transform="translate(0 0.138672)"/>
</clipPath>
</defs>
</svg>
