<?xml version="1.0" encoding="iso-8859-1"?>
<!-- Generator: Adobe Illustrator 21.1.0, SVG Export Plug-In . SVG Version: 6.00 Build 0)  -->
<svg version="1.1" id="Layer_1" xmlns="http://www.w3.org/2000/svg" xmlns:xlink="http://www.w3.org/1999/xlink" x="0px" y="0px"
	 viewBox="0 0 189.14 56.022" style="enable-background:new 0 0 189.14 56.022;" xml:space="preserve">
<rect x="5.07" y="7.386" style="fill:#FFFFFF;" width="48" height="48"/>
<g>
	<path style="fill:#BA0C2F;" d="M4.715,0C2.122,0,0,2.122,0,4.715v50.684h12.524c-2.54-0.563-4.542-1.432-5.681-2.305l2.492-5.982
		c2.43,1.558,5.794,2.68,9.47,2.68c4.05,0,7.726-2.181,7.726-6.231c0-2.741-1.807-4.61-5.856-6.792
		c-4.859-2.616-8.535-5.918-8.535-10.965c0-8.037,6.977-13.021,15.45-13.021c4.673,0,7.663,1.122,9.346,2.118l-2.367,5.981
		c-1.371-0.748-4.175-1.931-7.601-1.869c-4.61,0-7.227,2.679-7.227,5.483c0,2.866,2.367,4.61,6.292,6.79
		c5.109,2.679,8.162,6.043,8.162,11.152c0,6.717-4.378,11.358-10.898,12.959h13.568l5.677-30.341h7.227l-5.616,30.341h7.323
		c2.593,0,4.715-2.122,4.715-4.715V0H4.715z M47.4,20.697h-0.062c-2.18,0-3.676-1.558-3.676-3.863c0-2.554,1.994-4.361,4.361-4.361
		c2.306,0,3.863,1.558,3.863,3.863C51.824,19.015,49.83,20.697,47.4,20.697z"/>
	<path style="fill:#FFFFFF;" d="M71.632,19.825H60.67v-6.417h29.712v6.417H79.295v35.574h-7.663V19.825z"/>
	<path style="fill:#FFFFFF;" d="M97.671,20.697c-2.554,0-4.236-1.869-4.236-4.112c0-2.367,1.744-4.174,4.299-4.174
		c2.616,0,4.236,1.807,4.299,4.174c0,2.243-1.683,4.112-4.299,4.112H97.671z M93.871,55.399V25.058h7.663v30.341H93.871z"/>
	<path style="fill:#FFFFFF;" d="M108.075,34.092c0-3.489-0.125-6.417-0.25-9.034h6.542l0.374,4.486h0.187
		c1.434-2.368,4.175-5.171,9.346-5.171c3.987,0,7.102,2.243,8.41,5.607h0.125c1.059-1.682,2.305-2.928,3.676-3.8
		c1.744-1.184,3.676-1.807,6.23-1.807c4.983,0,10.093,3.427,10.093,13.146v17.88h-7.477V38.64c0-5.046-1.744-8.037-5.42-8.037
		c-2.617,0-4.548,1.869-5.358,4.049c-0.249,0.686-0.374,1.682-0.374,2.555v18.192h-7.476V37.83c0-4.237-1.683-7.227-5.233-7.227
		c-2.866,0-4.797,2.243-5.545,4.299c-0.249,0.81-0.374,1.682-0.374,2.554v17.943h-7.476V34.092z"/>
	<path style="fill:#FFFFFF;" d="M164.458,42.379c0.187,5.482,4.485,7.85,9.345,7.85c3.552,0,6.044-0.561,8.411-1.37l1.121,5.233
		c-2.616,1.121-6.229,1.931-10.591,1.931c-9.844,0-15.638-6.043-15.638-15.326c0-8.411,5.108-16.323,14.828-16.323
		c9.843,0,13.083,8.1,13.083,14.766c0,1.434-0.125,2.555-0.249,3.24H164.458z M177.79,37.02c0.062-2.804-1.184-7.414-6.292-7.414
		c-4.735,0-6.729,4.299-7.04,7.414H177.79z"/>
	<g>
		<path style="fill:#FFFFFF;" d="M186.917,24.723c1.234,0,2.223,0.975,2.223,2.184c0,1.235-0.988,2.21-2.236,2.21
			c-1.261,0-2.274-0.975-2.274-2.21c0-1.209,1.014-2.184,2.274-2.184H186.917z M186.878,25.231c-0.923,0-1.625,0.741-1.625,1.69
			c0,0.936,0.702,1.69,1.638,1.69c0.937,0.013,1.625-0.754,1.625-1.69c0-0.949-0.688-1.69-1.625-1.69H186.878z M186.592,28h-0.585
			v-2.093c0.169-0.039,0.48-0.078,0.871-0.078c0.441,0,0.637,0.065,0.78,0.169c0.13,0.078,0.221,0.234,0.221,0.442
			c0,0.234-0.195,0.416-0.455,0.494v0.026c0.221,0.078,0.338,0.247,0.403,0.533c0.064,0.299,0.104,0.429,0.143,0.507h-0.624
			c-0.065-0.078-0.104-0.26-0.156-0.481c-0.039-0.221-0.156-0.312-0.39-0.312h-0.208V28z M186.605,26.803h0.208
			c0.247,0,0.43-0.091,0.43-0.286c0-0.182-0.131-0.286-0.403-0.286c-0.105,0-0.183,0.013-0.234,0.013V26.803z"/>
	</g>
</g>
</svg>
