<svg width="192" height="34" viewBox="0 0 192 34" fill="none" xmlns="http://www.w3.org/2000/svg">
<g clip-path="url(#clip0_1574_163)">
<path d="M9.36711 19.8848C6.67359 18.7851 4.34816 17.8392 4.34816 15.6489C4.34816 13.1191 6.55234 12.2186 8.61795 12.2186C12.1862 12.2186 14.0829 14.2777 14.1003 14.3003L14.2821 14.5039L15.88 11.7027L15.7805 11.5895C15.6895 11.4809 13.4767 8.95117 8.70456 8.95117C4.90678 8.95117 0.818872 11.0465 0.818872 15.6489C0.818872 20.0024 4.582 21.5592 7.8991 22.9304C10.5969 24.0482 12.9267 25.0121 12.9267 27.1798C12.9267 29.6146 10.7615 30.7052 8.61362 30.7052C4.55602 30.7052 2.08335 27.9537 2.05737 27.9265L1.89281 27.741L-0.00390625 30.3658L0.104354 30.4925C0.134667 30.5287 0.857846 31.3795 2.26523 32.2393C3.56002 33.0313 5.70358 33.9726 8.56598 33.9726C13.1346 33.9726 16.4517 31.1125 16.4517 27.1798C16.4517 22.772 12.6842 21.2333 9.36278 19.8802" fill="black"/>
<path d="M40.7407 21.3465C40.7407 26.5961 36.9819 30.7097 32.1838 30.7097C27.3857 30.7097 23.6269 26.5961 23.6269 21.3465C23.6269 16.0969 27.3857 12.2638 32.1838 12.2638C36.9819 12.2638 40.7407 16.2553 40.7407 21.3465ZM32.1838 8.95117C25.4067 8.95117 20.0977 14.3953 20.0977 21.3465C20.0977 28.2976 25.4067 33.9771 32.1838 33.9771C38.9609 33.9771 44.27 28.4289 44.27 21.3465C44.27 14.2641 38.9609 8.95117 32.1838 8.95117Z" fill="black"/>
<path d="M59.2186 0.0950353C59.197 0.0950353 58.6557 0 57.8026 0C55.4079 0 49.8389 0.868894 49.8389 8.92879V9.83841H46.7773V12.9157H49.8389V33.4343H53.273V12.9157H59.0281V9.83841H53.273V8.92879C53.273 6.81086 53.9009 3.26288 58.1144 3.26288C58.7076 3.26288 59.1407 3.34886 59.145 3.35339L59.3875 3.40317V0.126714L59.2186 0.0995608V0.0950353Z" fill="black"/>
<path d="M75.4394 30.5246L75.1925 30.5834C75.1925 30.5834 74.7942 30.674 74.1879 30.674C72.3431 30.674 69.2469 29.882 69.2469 24.56V12.9883H74.9804V9.84766H69.2469V2.94629H65.7869V9.84313H62.7383V12.9838H65.7436V24.8904C65.7436 32.8145 70.8621 34.0002 73.9151 34.0002C74.7465 34.0002 75.2532 33.9052 75.2705 33.9006L75.4394 33.869V30.5246Z" fill="black"/>
<path d="M82.4303 26.3108C82.4303 26.3108 84.9419 28.9356 88.6661 28.9356C90.2813 28.9356 91.6714 28.1843 91.6714 26.7814C91.6714 23.2199 80.5509 23.686 80.5509 16.0017C80.5509 11.5486 84.3616 8.97363 89.2983 8.97363C94.235 8.97363 96.9675 11.6935 96.9675 11.6935L94.8586 16.1013C94.8586 16.1013 92.7497 14.0377 89.2507 14.0377C87.7697 14.0377 86.3363 14.6939 86.3363 16.1918C86.3363 19.5678 97.4568 19.1424 97.4568 26.8312C97.4568 30.8136 94.1397 34.0041 88.7137 34.0041C83.0192 34.0041 79.832 30.4878 79.832 30.4878L82.4346 26.3153L82.4303 26.3108Z" fill="black"/>
<path d="M117.197 18.5321C117.106 15.2964 115.179 13.5631 112.667 13.5631C109.753 13.5631 107.735 15.4367 107.198 18.5321H117.197ZM112.801 8.96973C119.392 8.96973 122.939 13.984 122.939 20.3106C122.939 21.0121 122.805 22.605 122.805 22.605H107.016C107.375 26.7775 110.471 28.9317 113.88 28.9317C117.556 28.9317 120.47 26.3069 120.47 26.3069L122.67 30.5744C122.67 30.5744 119.171 33.9957 113.477 33.9957C105.899 33.9957 101.191 28.28 101.191 21.4827C101.191 14.1243 105.99 8.96973 112.806 8.96973" fill="black"/>
<path d="M128.672 9.53544H134.142V13.6582C134.142 14.5497 134.051 15.3462 134.051 15.3462H134.142C135.172 11.9249 137.909 9.20508 141.408 9.20508C141.949 9.20508 142.439 9.30011 142.439 9.30011V15.1561C142.439 15.1561 141.854 15.0611 141.092 15.0611C138.671 15.0611 135.934 16.5137 134.856 20.0753C134.497 21.2474 134.362 22.5598 134.362 23.9672V33.4345H128.668V9.53544H128.672Z" fill="black"/>
<path d="M144.922 9.53613H150.932L155.687 24.3481C156.138 25.7555 156.449 27.3439 156.497 27.3439H156.584C156.631 27.3439 156.943 25.7555 157.393 24.3481L162.148 9.53613H168.159L159.953 33.4398H153.228L144.931 9.53613H144.922Z" fill="black"/>
<path d="M185.565 18.5321C185.474 15.2964 183.547 13.5631 181.035 13.5631C178.121 13.5631 176.103 15.4367 175.566 18.5321H185.565ZM181.17 8.96973C187.761 8.96973 191.303 13.984 191.303 20.3106C191.303 21.0121 191.169 22.605 191.169 22.605H175.38C175.739 26.7775 178.831 28.9317 182.244 28.9317C185.92 28.9317 188.835 26.3069 188.835 26.3069L191.03 30.5744C191.03 30.5744 187.531 33.9957 181.837 33.9957C174.258 33.9957 169.547 28.28 169.547 21.4827C169.547 14.1243 174.345 8.96973 181.161 8.96973" fill="black"/>
</g>
<defs>
<clipPath id="clip0_1574_163">
<rect width="191.309" height="34" fill="white"/>
</clipPath>
</defs>
</svg>
