<svg width="177" height="30" viewBox="0 0 177 30" fill="none" xmlns="http://www.w3.org/2000/svg">
<g clip-path="url(#clip0_966_415)">
<path d="M8.63711 17.5457C6.15342 16.5754 4.00914 15.7408 4.00914 13.8082C4.00914 11.5761 6.04161 10.7814 7.94631 10.7814C11.2366 10.7814 12.9856 12.5983 13.0015 12.6183L13.1693 12.7979L14.6427 10.3262L14.5509 10.2264C14.467 10.1306 12.4265 7.89844 8.02617 7.89844C4.52424 7.89844 0.754779 9.74723 0.754779 13.8082C0.754779 17.6495 4.22476 19.0232 7.28346 20.2331C9.77115 21.2193 11.9194 22.0699 11.9194 23.9826C11.9194 26.1308 9.92289 27.0932 7.94232 27.0932C4.20081 27.0932 1.92076 24.6654 1.8968 24.6414L1.74506 24.4777L-0.00390625 26.7937L0.0959207 26.9055C0.123872 26.9374 0.790716 27.6881 2.08847 28.4468C3.2824 29.1456 5.25897 29.9762 7.8984 29.9762C12.1111 29.9762 15.1698 27.4525 15.1698 23.9826C15.1698 20.0933 11.6958 18.7357 8.63312 17.5417" fill="white"/>
<path d="M37.5663 18.8355C37.5663 23.4675 34.1003 27.0972 29.6759 27.0972C25.2516 27.0972 21.7856 23.4675 21.7856 18.8355C21.7856 14.2035 25.2516 10.8214 29.6759 10.8214C34.1003 10.8214 37.5663 14.3433 37.5663 18.8355ZM29.6759 7.89844C23.4268 7.89844 18.5312 12.7021 18.5312 18.8355C18.5312 24.9688 23.4268 29.9802 29.6759 29.9802C35.9251 29.9802 40.8206 25.0846 40.8206 18.8355C40.8206 12.5863 35.9251 7.89844 29.6759 7.89844Z" fill="white"/>
<path d="M54.6049 0.0838547C54.585 0.0838547 54.0858 0 53.2992 0C51.091 0 45.9559 0.766671 45.9559 7.87835V8.68095H43.1328V11.3962H45.9559V29.5009H49.1224V11.3962H54.4292V8.68095H49.1224V7.87835C49.1224 6.00958 49.7014 2.87901 53.5867 2.87901C54.1337 2.87901 54.5331 2.95488 54.537 2.95887L54.7607 3.0028V0.111806L54.6049 0.0878477V0.0838547Z" fill="white"/>
<path d="M69.5633 26.9334L69.3357 26.9853C69.3357 26.9853 68.9683 27.0652 68.4093 27.0652C66.7082 27.0652 63.8532 26.3664 63.8532 21.6706V11.4602H69.14V8.68905H63.8532V2.59961H60.6627V8.68506H57.8516V11.4563H60.6228V21.962C60.6228 28.9539 65.3426 30.0001 68.1577 30.0001C68.9244 30.0001 69.3916 29.9163 69.4075 29.9123L69.5633 29.8843V26.9334Z" fill="white"/>
<path d="M76.0091 23.2155C76.0091 23.2155 78.3251 25.5314 81.7592 25.5314C83.2486 25.5314 84.5304 24.8686 84.5304 23.6307C84.5304 20.4882 74.2761 20.8995 74.2761 14.1192C74.2761 10.19 77.79 7.91797 82.3422 7.91797C86.8943 7.91797 89.4139 10.3178 89.4139 10.3178L87.4693 14.2071C87.4693 14.2071 85.5246 12.3862 82.2982 12.3862C80.9326 12.3862 79.6109 12.9652 79.6109 14.2869C79.6109 17.2658 89.8651 16.8904 89.8651 23.6747C89.8651 27.1886 86.8064 30.0037 81.8031 30.0037C76.5522 30.0037 73.6133 26.9011 73.6133 26.9011L76.0131 23.2194L76.0091 23.2155Z" fill="white"/>
<path d="M108.067 16.3514C107.983 13.4964 106.206 11.967 103.89 11.967C101.203 11.967 99.3421 13.6202 98.847 16.3514H108.067ZM104.014 7.91406C110.092 7.91406 113.362 12.3384 113.362 17.9207C113.362 18.5396 113.238 19.9452 113.238 19.9452H98.6793C99.0107 23.6268 101.866 25.5275 105.008 25.5275C108.398 25.5275 111.086 23.2115 111.086 23.2115L113.114 26.977C113.114 26.977 109.888 29.9958 104.637 29.9958C97.6491 29.9958 93.3086 24.9525 93.3086 18.9549C93.3086 12.4622 97.7329 7.91406 104.018 7.91406" fill="white"/>
<path d="M118.649 8.41356H123.692V12.0513C123.692 12.8379 123.608 13.5407 123.608 13.5407H123.692C124.642 10.5219 127.166 8.12207 130.392 8.12207C130.891 8.12207 131.343 8.20592 131.343 8.20592V13.373C131.343 13.373 130.803 13.2891 130.101 13.2891C127.869 13.2891 125.345 14.5709 124.351 17.7134C124.019 18.7477 123.895 19.9056 123.895 21.1475V29.501H118.645V8.41356H118.649Z" fill="white"/>
<path d="M133.633 8.41406H139.175L143.56 21.4834C143.975 22.7253 144.262 24.1268 144.306 24.1268H144.386C144.43 24.1268 144.718 22.7253 145.133 21.4834L149.517 8.41406H155.06L147.493 29.5055H141.292L133.641 8.41406H133.633Z" fill="white"/>
<path d="M171.11 16.3514C171.026 13.4964 169.249 11.967 166.933 11.967C164.246 11.967 162.385 13.6202 161.89 16.3514H171.11ZM167.057 7.91406C173.135 7.91406 176.401 12.3384 176.401 17.9207C176.401 18.5396 176.277 19.9452 176.277 19.9452H161.719C162.05 23.6268 164.901 25.5275 168.048 25.5275C171.438 25.5275 174.125 23.2115 174.125 23.2115L176.15 26.977C176.15 26.977 172.923 29.9958 167.672 29.9958C160.684 29.9958 156.34 24.9525 156.34 18.9549C156.34 12.4622 160.764 7.91406 167.049 7.91406" fill="white"/>
</g>
<defs>
<clipPath id="clip0_966_415">
<rect width="176.406" height="30" fill="white"/>
</clipPath>
</defs>
</svg>
