<svg width="141" height="36" viewBox="0 0 141 36" fill="none" xmlns="http://www.w3.org/2000/svg">
<g filter="url(#filter0_d_966_447)">
<path d="M82.5626 25.1386C82.5016 25.0733 82.4452 25.0039 82.3934 24.9307C82.3299 24.8406 82.2982 24.8497 82.2982 24.9582L82.2997 27.0872C82.2997 27.1063 82.292 27.1246 82.2783 27.1381C82.2646 27.1517 82.2459 27.1592 82.2265 27.1592H77.2002C77.1782 27.1592 77.1571 27.1507 77.1415 27.1355C77.1259 27.1204 77.1172 27.0998 77.1172 27.0783V0.0948387C77.1172 0.0851842 77.1191 0.0756238 77.1229 0.0667042C77.1267 0.0577845 77.1323 0.0496797 77.1393 0.0428529C77.1463 0.0360261 77.1546 0.0306111 77.1638 0.0269165C77.1729 0.0232219 77.1827 0.02132 77.1926 0.02132C78.9265 0.0237953 80.6492 0.0225574 82.3607 0.0176067C82.479 0.0171116 82.5966 0.0230529 82.7135 0.0354297C82.7241 0.0366324 82.734 0.0414591 82.7414 0.0490636C82.7488 0.0566681 82.7532 0.0665643 82.7539 0.0770157C82.7584 0.159198 82.7607 0.292373 82.7607 0.47654C82.7638 4.14008 82.7638 7.78902 82.7607 11.4233C82.7607 11.5021 82.7866 11.511 82.8384 11.4501C83.4811 10.6887 84.2581 10.1421 85.1695 9.8104C85.5576 9.66881 86.0476 9.53984 86.6394 9.4235C87.7545 9.20418 88.835 9.18141 89.881 9.35518C91.3715 9.60321 92.6528 10.1988 93.7247 11.1419C94.6249 11.9345 95.3391 12.9093 95.8675 14.0663C96.3115 15.0371 96.6143 16.0921 96.7758 17.2313C96.8149 17.508 96.835 17.8276 96.836 18.19C96.837 18.4039 96.8378 18.6178 96.8383 18.8316C96.8393 19.092 96.8337 19.3059 96.8215 19.4732C96.723 20.8783 96.3336 22.1902 95.6533 23.4091C94.9858 24.6057 94.0445 25.5688 92.8293 26.2986C91.8498 26.8867 90.8003 27.2674 89.6806 27.4407C89.163 27.5209 88.6572 27.5655 88.1634 27.5744C86.4799 27.6036 84.9363 27.1016 83.5326 26.0684C83.1994 25.8233 82.9345 25.58 82.7379 25.3384C82.6891 25.2785 82.6307 25.2119 82.5626 25.1386ZM83.4831 20.9867C83.8133 21.5362 84.2583 21.9523 84.8182 22.235C85.5345 22.5964 86.2906 22.7813 87.0867 22.7897C87.6267 22.7952 88.1312 22.7434 88.6001 22.6345C89.2107 22.4929 89.7441 22.2298 90.2003 21.8451C91.101 21.0847 91.5852 20.0837 91.6527 18.842C91.6776 18.3816 91.6619 17.9501 91.6055 17.5477C91.5445 17.1159 91.4193 16.706 91.2298 16.3179C90.5663 14.9624 89.4058 14.2106 87.7481 14.0626C86.9384 13.9903 86.1761 14.0735 85.4613 14.3121C84.361 14.6794 83.5829 15.3971 83.1272 16.4649C82.9779 16.8154 82.8732 17.2303 82.8133 17.7095C82.6812 18.764 82.8351 19.7465 83.2751 20.657C83.3106 20.7302 83.3449 20.7901 83.378 20.8367C83.447 20.9347 83.4821 20.9847 83.4831 20.9867Z" fill="white"/>
<path d="M135.892 4.65947C135.489 5.03721 135.019 5.27138 134.482 5.36197C133.407 5.54317 132.518 5.25034 131.815 4.48347C131.446 4.07998 131.225 3.62105 131.152 3.10667C131.083 2.61902 131.146 2.13781 131.344 1.66304C131.642 0.942211 132.197 0.441939 133.011 0.162223C133.561 -0.0268952 134.106 -0.0506592 134.646 0.0909317C135.138 0.220146 135.573 0.464959 135.949 0.825372C136.395 1.25262 136.659 1.7717 136.741 2.38262C136.799 2.81433 136.756 3.22153 136.611 3.60422C136.462 3.9983 136.222 4.35004 135.892 4.65947ZM132.439 3.96884C132.831 4.44213 133.305 4.69115 133.861 4.7159C134.302 4.73571 134.706 4.62506 135.071 4.38396C135.441 4.14088 135.707 3.79507 135.871 3.34653C136.011 2.96137 136.036 2.59303 135.945 2.24153C135.842 1.84646 135.641 1.51427 135.341 1.24495C135.086 1.01573 134.796 0.861761 134.474 0.783044C134.142 0.702347 133.801 0.707546 133.451 0.79864C132.914 0.937755 132.512 1.24272 132.245 1.71354C131.792 2.51258 131.857 3.26435 132.439 3.96884Z" fill="white"/>
<path d="M16.2736 1.06771C17.6173 1.17762 18.8648 1.44026 20.0159 1.85562C20.5062 2.03286 20.9667 2.24005 21.3975 2.47719C21.9837 2.79948 22.5367 3.17425 23.0564 3.6015C23.0714 3.61363 23.0813 3.63074 23.0842 3.64961C23.0872 3.66848 23.083 3.68781 23.0724 3.70398C23.0048 3.80794 22.9238 3.90696 22.8293 4.00102C22.7231 4.10746 22.6693 4.16143 22.6678 4.16291C21.5278 5.36693 20.3911 6.57367 19.2577 7.78313C19.2537 7.78709 19.2344 7.81011 19.1998 7.8522C19.1094 7.96359 19.0073 7.95146 18.8935 7.81581C18.7096 7.59748 18.4253 7.37321 18.0408 7.143C17.611 6.88557 17.0918 6.67615 16.4832 6.51476C15.487 6.25039 14.4948 6.22464 13.5067 6.43752C13.0638 6.53307 12.6452 6.691 12.2509 6.91131C11.7952 7.16528 11.4638 7.44797 11.2565 7.75937C10.9593 8.20444 10.8679 8.72476 10.9822 9.32034C11.0843 9.85452 11.3622 10.2783 11.8158 10.5917C12.4376 11.0204 13.206 11.3736 14.1209 11.6514C15.106 11.9499 16.0948 12.2361 17.0875 12.5098C17.4599 12.6123 17.8246 12.7336 18.1817 12.8737C18.5724 13.0267 18.9247 13.1784 19.2387 13.3289C20.0337 13.7101 20.752 14.204 21.3937 14.8104C21.4983 14.9095 21.6568 15.0897 21.8692 15.3511C22.0515 15.5753 22.192 15.7689 22.2906 15.9318C22.6375 16.5056 22.8641 17.1482 22.9703 17.8596C23.0201 18.1943 23.0521 18.4757 23.0663 18.7039C23.0668 18.7148 23.079 18.8631 23.1029 19.1488C23.1176 19.325 23.1141 19.501 23.0922 19.6768C23.078 19.7921 23.0658 19.9369 23.0556 20.1112C23.049 20.2256 23.0348 20.3709 23.013 20.5471C22.7244 22.8556 21.6195 24.6503 19.6982 25.931C18.5338 26.7073 17.2092 27.2276 15.7242 27.492C13.6586 27.8598 11.5989 27.8212 9.545 27.3761C7.47231 26.9276 5.63228 25.9885 4.02492 24.5587C4.01747 24.5521 4.01144 24.5441 4.00717 24.5352C4.00291 24.5263 4.00049 24.5167 4.00007 24.5069C3.99964 24.4971 4.00122 24.4873 4.0047 24.4781C4.00818 24.4689 4.0135 24.4604 4.02035 24.4532L8.14136 20.1223C8.14467 20.1189 8.14872 20.1161 8.15321 20.1143C8.15771 20.1125 8.16256 20.1117 8.16742 20.1119C8.17227 20.1122 8.17702 20.1134 8.18134 20.1156C8.18566 20.1177 8.18944 20.1208 8.19242 20.1246C9.21352 21.3939 10.5344 22.1588 12.1549 22.4192C12.4704 22.4702 12.8844 22.5036 13.397 22.5195C13.5037 22.5229 13.5967 22.5192 13.6759 22.5083C13.8431 22.4851 13.9345 22.4727 13.9502 22.4712C14.1936 22.4554 14.4633 22.4128 14.7595 22.3435C15.2635 22.2252 15.7174 22.0341 16.1212 21.7702C16.5216 21.5083 16.8116 21.2157 16.9915 20.8924C17.1987 20.5201 17.28 20.102 17.2353 19.6382C17.1825 19.0896 16.9445 18.6361 16.5213 18.2777C16.1809 17.9891 15.7222 17.7059 15.1451 17.4281C14.6386 17.1846 13.9767 16.9385 13.1593 16.69C12.6071 16.5222 12.0561 16.3506 11.5064 16.1754C10.5844 15.8818 10.1018 15.7276 10.0586 15.7127C8.93234 15.3157 7.92418 14.7721 7.03414 14.0819C6.61452 13.7562 6.2104 13.3215 5.82177 12.7779C5.37268 12.1497 5.09429 11.4548 4.98659 10.6934C4.84689 9.71119 4.83571 8.83096 4.95306 8.0527C5.05517 7.37594 5.22002 6.75734 5.44761 6.19692C5.62339 5.76472 5.86622 5.33153 6.17611 4.89735C7.10628 3.59432 8.32424 2.63487 9.83 2.019C11.8382 1.19767 13.9861 0.880577 16.2736 1.06771Z" fill="white"/>
<path d="M134.857 2.87676C134.793 2.91686 134.759 2.93122 134.649 2.95993C134.523 2.99715 134.509 3.01588 134.573 3.11291L135.183 4.02706C135.227 4.0934 135.208 4.12657 135.126 4.12657H134.447C134.435 4.12658 134.423 4.12358 134.413 4.11785C134.403 4.11213 134.394 4.10388 134.388 4.0939L133.733 3.07578C133.681 2.99657 133.656 3.00598 133.656 3.104L133.659 4.02781C133.66 4.04075 133.657 4.05358 133.652 4.06556C133.648 4.07754 133.641 4.08843 133.632 4.09761C133.623 4.1068 133.612 4.11408 133.601 4.11905C133.589 4.12402 133.577 4.12658 133.564 4.12657L132.897 4.12806C132.878 4.12805 132.86 4.1205 132.846 4.10704C132.833 4.09357 132.825 4.07526 132.824 4.05603C132.819 3.7268 132.819 3.41218 132.825 3.11217C132.825 3.10722 132.827 1.28906 132.827 1.28906L134.156 1.28906C134.431 1.29451 134.679 1.37496 134.899 1.53041C135.077 1.65566 135.17 1.82795 135.178 2.04727C135.184 2.20173 135.179 2.32748 135.164 2.42451C135.143 2.56066 135.094 2.66488 134.996 2.76642C134.992 2.76989 134.928 2.83234 134.857 2.87676ZM133.659 1.91137L133.666 2.37699C133.667 2.39027 133.672 2.40306 133.682 2.41291C133.692 2.42277 133.705 2.42901 133.72 2.43045C133.909 2.45026 134.062 2.43615 134.177 2.38812C134.302 2.33614 134.359 2.25693 134.349 2.15049C134.342 2.07029 134.296 2.00271 134.21 1.94776C134.056 1.84924 133.888 1.81978 133.704 1.85939C133.691 1.86214 133.679 1.86884 133.671 1.87832C133.663 1.8878 133.658 1.89948 133.659 1.91137Z" fill="white"/>
<path d="M26.9468 24.9379C25.783 23.7581 25.0123 22.3687 24.6348 20.7696C24.4205 19.8602 24.3349 18.9384 24.378 18.0042C24.436 16.7363 24.7405 15.5397 25.2917 14.4144C25.5066 13.9753 25.767 13.5515 26.0728 13.143C27.5608 11.1563 29.6014 9.93001 32.1949 9.46414C33.284 9.26859 34.3321 9.20398 35.339 9.27032C36.9859 9.37974 38.4955 9.79857 39.8676 10.5268C40.4361 10.8288 40.9878 11.2095 41.5228 11.669C41.9139 12.0051 42.2662 12.3611 42.5797 12.7368C43.6999 14.08 44.3575 15.6211 44.5526 17.3603C44.583 17.6286 44.598 17.9715 44.5975 18.3888C44.5975 18.6176 44.5967 18.8465 44.5952 19.0757C44.5932 19.3352 44.5805 19.5639 44.5571 19.7619C44.4581 20.5936 44.2665 21.3459 43.9826 22.0187C43.0747 24.1693 41.5522 25.7459 39.415 26.7484C38.5991 27.1311 37.7289 27.4081 36.8043 27.5794C34.5122 28.0036 32.2899 27.8133 30.1374 27.0083C28.9248 26.5548 27.8612 25.8647 26.9468 24.9379ZM31.7331 14.8622C31.4298 15.0825 31.1664 15.3288 30.9429 15.6011C30.7341 15.8555 30.5563 16.1617 30.4094 16.5197C29.9228 17.7059 29.8781 18.9233 30.2753 20.1718C30.6132 21.2323 31.2649 22.0039 32.2307 22.4865C32.5731 22.6573 32.9538 22.7804 33.3729 22.8556C33.7534 22.9244 34.156 22.9611 34.5807 22.9655C34.6961 22.967 34.7956 22.9623 34.8795 22.9514C35.0573 22.9277 35.1482 22.9155 35.1523 22.915C36.0022 22.8497 36.7434 22.5643 37.3758 22.0588C37.7071 21.7939 37.9872 21.4833 38.2163 21.1268C38.445 20.7714 38.6164 20.3864 38.7307 19.9721C38.9695 19.1057 38.9941 18.2331 38.8046 17.3544C38.638 16.5791 38.2898 15.9122 37.7599 15.3538C37.4678 15.0458 37.1416 14.7958 36.7815 14.6037C36.4126 14.4072 36.0159 14.2696 35.5912 14.1909C34.6163 14.0097 33.6579 14.0656 32.7161 14.3587C32.3777 14.4636 32.0501 14.6315 31.7331 14.8622Z" fill="white"/>
<path d="M56.3651 14.4065C56.0552 14.1773 55.6884 14.052 55.2647 14.0307C54.932 14.0144 54.6025 14.0302 54.2764 14.0782C53.9304 14.1297 53.6198 14.2285 53.3444 14.3745C52.7282 14.7013 52.2873 15.1798 52.0216 15.81C51.9139 16.066 51.8262 16.4081 51.7587 16.8363C51.6982 17.221 51.6667 17.573 51.6642 17.8923C51.6632 17.9918 51.6586 18.075 51.6505 18.1418C51.6342 18.2755 51.6258 18.3574 51.6253 18.3876C51.6131 21.2724 51.6119 24.1676 51.6215 27.0732C51.6215 27.0952 51.6125 27.1164 51.5965 27.132C51.5805 27.1476 51.5588 27.1563 51.5362 27.1563H46.0755C46.0482 27.1563 46.0221 27.1458 46.0028 27.127C45.9835 27.1082 45.9727 27.0827 45.9727 27.0561V9.76739C45.9727 9.73726 45.9849 9.70836 46.0066 9.68705C46.0283 9.66574 46.0578 9.65377 46.0885 9.65377H51.2687C51.285 9.65377 51.3012 9.65694 51.3162 9.6631C51.3313 9.66926 51.345 9.67828 51.3565 9.68966C51.3681 9.70104 51.3772 9.71455 51.3835 9.72941C51.3897 9.74428 51.3929 9.76021 51.3929 9.7763V11.9685C51.3924 12.0393 51.4104 12.044 51.447 11.9826C51.8895 11.239 52.4839 10.6481 53.2301 10.21C54.5474 9.43569 56.0067 9.13122 57.608 9.29658C58.6047 9.39955 59.5061 9.67283 60.3124 10.1164C60.7599 10.363 61.146 10.661 61.4706 11.0105C61.8151 11.3813 62.0924 11.7868 62.3028 12.2269C62.3409 12.3066 62.3825 12.3084 62.4277 12.2321C62.7417 11.7058 63.1029 11.243 63.5113 10.8434C63.8791 10.483 64.2878 10.1929 64.7374 9.97309C65.216 9.73942 65.7415 9.56342 66.314 9.4451C67.1482 9.27281 68.0293 9.22801 68.9575 9.31069C69.6845 9.37505 70.3492 9.52703 70.9517 9.76665C71.8468 10.1231 72.5664 10.6672 73.1105 11.3989C73.6007 12.0588 73.9541 12.8106 74.1705 13.6542C74.3249 14.2562 74.4326 14.8649 74.4936 15.4803C74.5271 15.8204 74.5439 16.315 74.5439 16.964C74.5439 20.3315 74.5439 23.7044 74.5439 27.0828C74.5439 27.0925 74.5419 27.102 74.5381 27.111C74.5343 27.1199 74.5288 27.128 74.5218 27.1348C74.5148 27.1416 74.5065 27.147 74.4973 27.1507C74.4882 27.1544 74.4783 27.1563 74.4684 27.1563H68.988C68.9659 27.1563 68.9448 27.1478 68.9292 27.1326C68.9137 27.1174 68.9049 27.0969 68.9049 27.0754C68.9049 23.6822 68.9049 20.2808 68.9049 16.8712C68.9049 16.3108 68.782 15.7736 68.5361 15.2597C68.3441 14.8587 68.1048 14.5642 67.8183 14.376C67.4906 14.1607 67.1035 14.0456 66.657 14.0307C66.1515 14.0139 65.6935 14.0644 65.283 14.1822C64.5027 14.4065 63.9274 14.8706 63.557 15.5746C63.3731 15.9251 63.2507 16.314 63.1898 16.7412C63.1318 17.1492 63.1021 17.5081 63.1006 17.818C63.0859 20.889 63.0823 23.9601 63.0899 27.0316C63.0899 27.0499 63.0825 27.0675 63.0694 27.0804C63.0563 27.0934 63.0384 27.1006 63.0198 27.1006L57.5432 27.0969C57.5185 27.0969 57.4949 27.0872 57.4774 27.07C57.46 27.0527 57.4502 27.0293 57.4502 27.0048C57.4558 23.7849 57.4576 20.6508 57.4556 17.6027C57.4556 17.472 57.4446 17.3195 57.4228 17.1452C57.404 16.9927 57.3905 16.8398 57.3824 16.6863C57.3565 16.1739 57.2587 15.7234 57.089 15.3347C56.9198 14.9481 56.6785 14.6387 56.3651 14.4065Z" fill="white"/>
<path d="M103.906 12.3158C103.906 12.4336 103.935 12.4403 103.993 12.3359C104.24 11.8898 104.53 11.4732 104.864 11.086C105.8 9.99936 107 9.39686 108.461 9.27854C109.308 9.20972 110.15 9.25378 110.986 9.41072C110.998 9.41296 111.009 9.41908 111.017 9.42802C111.024 9.43697 111.028 9.44818 111.028 9.45973L111.047 14.3067C111.047 14.315 111.045 14.3232 111.041 14.3306C111.037 14.3381 111.032 14.3446 111.025 14.3497C111.018 14.3548 111.01 14.3583 111.002 14.36C110.994 14.3617 110.985 14.3615 110.977 14.3595C110.302 14.1956 109.64 14.0854 108.99 14.029C108.415 13.979 107.817 14.0129 107.196 14.1307C106.631 14.2377 106.156 14.405 105.773 14.6328C104.922 15.1382 104.382 15.9024 104.153 16.9252C104.079 17.2549 104.025 17.5869 103.991 17.921C103.968 18.1478 103.945 18.4832 103.922 18.9273C103.897 19.3991 103.886 19.9399 103.889 20.5499C103.9 22.7391 103.898 24.9189 103.884 27.0893C103.884 27.1066 103.877 27.1232 103.865 27.1355C103.852 27.1477 103.835 27.1546 103.817 27.1546L98.3315 27.1502C98.3208 27.1502 98.3102 27.1481 98.3003 27.1441C98.2904 27.1401 98.2814 27.1343 98.2739 27.1269C98.2663 27.1195 98.2603 27.1108 98.2562 27.1011C98.2521 27.0915 98.25 27.0812 98.25 27.0707V9.72559C98.25 9.70983 98.2563 9.69472 98.2676 9.68358C98.2789 9.67244 98.2942 9.66618 98.3102 9.66618L103.761 9.64836C103.855 9.64786 103.903 9.69514 103.903 9.79019L103.906 12.3158Z" fill="white"/>
<path d="M114.089 25.305C113.546 24.7926 113.07 24.1985 112.66 23.5228C112.126 22.6435 111.758 21.6464 111.555 20.5315C111.511 20.289 111.476 19.9892 111.451 19.6322C111.429 19.3312 111.409 19.03 111.388 18.7285C111.378 18.5651 111.376 18.4443 111.384 18.3661C111.391 18.2874 111.395 18.247 111.395 18.245C111.441 16.9658 111.71 15.7145 112.203 14.4912C112.547 13.6367 112.999 12.8599 113.558 12.1608C113.878 11.7618 114.226 11.4026 114.602 11.0833C115.988 9.90901 117.636 9.30056 119.547 9.25799C120.403 9.23917 121.315 9.34512 122.285 9.57582C123.069 9.76247 123.73 10.0395 124.271 10.4068C124.722 10.7133 125.116 11.0786 125.453 11.5029C125.484 11.542 125.5 11.5366 125.499 11.4866L125.491 9.69019C125.491 9.68004 125.493 9.67 125.497 9.66063C125.501 9.65126 125.507 9.64275 125.515 9.63557C125.522 9.6284 125.531 9.62271 125.541 9.61883C125.551 9.61495 125.561 9.61295 125.572 9.61295H131.044C131.066 9.61295 131.088 9.62172 131.104 9.63731C131.12 9.65291 131.129 9.67407 131.129 9.69613V27.0903C131.129 27.108 131.122 27.125 131.109 27.1375C131.096 27.1501 131.079 27.1571 131.061 27.1571H126.008C125.98 27.1571 125.954 27.1465 125.935 27.1277C125.916 27.1089 125.905 27.0834 125.905 27.0569V24.9842C125.905 24.8654 125.872 24.8558 125.806 24.9553C125.568 25.3127 125.275 25.6313 124.926 25.911C124.645 26.1358 124.286 26.3746 123.849 26.6276C122.872 27.1935 121.824 27.5061 120.704 27.5655C119.641 27.622 118.576 27.5042 117.51 27.2121C116.994 27.07 116.52 26.894 116.088 26.6841C115.345 26.3222 114.679 25.8625 114.089 25.305ZM117.404 21.1279C117.939 21.8601 118.626 22.3445 119.465 22.5811C119.9 22.7039 120.386 22.7717 120.925 22.7846C121.425 22.7965 121.918 22.742 122.404 22.6212C122.926 22.492 123.385 22.2881 123.781 22.0093C124.627 21.4138 125.157 20.5739 125.371 19.4897C125.532 18.6753 125.519 17.8841 125.33 17.1163C125.207 16.6118 125.006 16.161 124.727 15.764C124.174 14.9758 123.419 14.4602 122.463 14.2171C121.997 14.0993 121.494 14.0389 120.953 14.0359C120.267 14.032 119.627 14.1496 119.032 14.3887C118.328 14.6719 117.764 15.1234 117.34 15.7432C117.073 16.1343 116.87 16.5858 116.733 17.0977C116.548 17.7859 116.508 18.4911 116.613 19.2134C116.715 19.908 116.978 20.5461 117.404 21.1279Z" fill="white"/>
</g>
<defs>
<filter id="filter0_d_966_447" x="0" y="0" width="140.766" height="35.7988" filterUnits="userSpaceOnUse" color-interpolation-filters="sRGB">
<feFlood flood-opacity="0" result="BackgroundImageFix"/>
<feColorMatrix in="SourceAlpha" type="matrix" values="0 0 0 0 0 0 0 0 0 0 0 0 0 0 0 0 0 0 127 0" result="hardAlpha"/>
<feOffset dy="4"/>
<feGaussianBlur stdDeviation="2"/>
<feComposite in2="hardAlpha" operator="out"/>
<feColorMatrix type="matrix" values="0 0 0 0 0 0 0 0 0 0 0 0 0 0 0 0 0 0 0.25 0"/>
<feBlend mode="normal" in2="BackgroundImageFix" result="effect1_dropShadow_966_447"/>
<feBlend mode="normal" in="SourceGraphic" in2="effect1_dropShadow_966_447" result="shape"/>
</filter>
</defs>
</svg>
