<svg width="207" height="45" viewBox="0 0 207 45" fill="none" xmlns="http://www.w3.org/2000/svg">
<path d="M122.413 40.3982C122.318 40.2932 122.23 40.1818 122.149 40.064C122.05 39.9192 122.001 39.934 122.001 40.1082L122.003 43.5296C122.003 43.5603 121.991 43.5898 121.97 43.6115C121.948 43.6332 121.919 43.6454 121.889 43.6454H114.057C114.023 43.6454 113.99 43.6317 113.966 43.6073C113.941 43.5829 113.928 43.5498 113.928 43.5153V0.152479C113.928 0.136964 113.931 0.121601 113.937 0.107267C113.943 0.0929326 113.951 0.079908 113.962 0.0689372C113.973 0.0579664 113.986 0.0492646 114 0.0433272C114.015 0.0373899 114.03 0.0343335 114.045 0.0343335C116.747 0.0383114 119.431 0.0363221 122.098 0.0283662C122.282 0.0275706 122.466 0.0371184 122.648 0.0570081C122.664 0.0589408 122.68 0.0666974 122.691 0.0789179C122.703 0.0911384 122.71 0.107042 122.711 0.123837C122.718 0.255905 122.721 0.469919 122.721 0.765879C122.726 6.65324 122.726 12.5171 122.721 18.3576C122.721 18.4841 122.762 18.4984 122.842 18.4005C123.844 17.1769 125.055 16.2986 126.475 15.7655C127.079 15.538 127.843 15.3307 128.765 15.1438C130.503 14.7913 132.186 14.7547 133.816 15.034C136.139 15.4326 138.135 16.3897 139.805 17.9053C141.208 19.179 142.321 20.7455 143.144 22.6048C143.836 24.165 144.308 25.8604 144.559 27.691C144.62 28.1358 144.652 28.6493 144.653 29.2317C144.655 29.5754 144.656 29.9191 144.657 30.2628C144.658 30.6812 144.65 31.0249 144.631 31.2938C144.477 33.5517 143.87 35.66 142.81 37.6188C141.77 39.5417 140.304 41.0895 138.41 42.2622C136.884 43.2074 135.248 43.8192 133.504 44.0977C132.697 44.2266 131.909 44.2982 131.14 44.3125C128.517 44.3594 126.111 43.5527 123.924 41.8923C123.405 41.4985 122.992 41.1074 122.686 40.7192C122.61 40.6229 122.519 40.5159 122.413 40.3982ZM123.847 33.726C124.362 34.6091 125.055 35.2778 125.927 35.732C127.043 36.3128 128.222 36.61 129.462 36.6235C130.304 36.6323 131.09 36.5491 131.82 36.3741C132.772 36.1466 133.603 35.7237 134.314 35.1055C135.717 33.8835 136.471 32.2748 136.577 30.2795C136.616 29.5396 136.591 28.8462 136.503 28.1994C136.408 27.5057 136.213 26.8469 135.918 26.2232C134.884 24.0448 133.076 22.8367 130.493 22.5989C129.231 22.4827 128.043 22.6164 126.929 22.9998C125.215 23.5902 124.003 24.7434 123.292 26.4594C123.06 27.0227 122.897 27.6894 122.803 28.4596C122.597 30.1542 122.837 31.733 123.523 33.1961C123.578 33.3139 123.632 33.4101 123.683 33.4849C123.791 33.6424 123.845 33.7228 123.847 33.726Z" fill="black"/>
<path d="M205.512 7.48783C204.884 8.09486 204.152 8.47118 203.314 8.61677C201.639 8.90796 200.254 8.43737 199.159 7.205C198.585 6.55659 198.24 5.81908 198.126 4.99246C198.018 4.20881 198.117 3.4355 198.424 2.67252C198.889 1.51415 199.755 0.710202 201.022 0.260694C201.88 -0.043221 202.729 -0.0814101 203.571 0.146129C204.338 0.353777 205.014 0.747196 205.601 1.32639C206.295 2.01298 206.706 2.84716 206.835 3.82891C206.925 4.52267 206.858 5.17704 206.633 5.79203C206.4 6.42532 206.026 6.99059 205.512 7.48783ZM200.132 6.37798C200.742 7.13857 201.481 7.53875 202.348 7.57853C203.035 7.61035 203.663 7.43254 204.233 7.04509C204.809 6.65445 205.224 6.09873 205.479 5.37793C205.698 4.75896 205.736 4.16704 205.594 3.60217C205.434 2.96729 205.12 2.43345 204.653 2.00065C204.255 1.63229 203.805 1.38486 203.302 1.25836C202.784 1.12868 202.253 1.13704 201.708 1.28343C200.872 1.50699 200.245 1.99707 199.829 2.75368C199.123 4.03776 199.224 5.24586 200.132 6.37798Z" fill="black"/>
<path d="M19.1246 1.71652C21.2183 1.89314 23.162 2.3152 24.9557 2.9827C25.7196 3.26752 26.4372 3.60048 27.1084 3.98157C28.0219 4.4995 28.8835 5.10176 29.6933 5.78835C29.7167 5.80785 29.7321 5.83534 29.7367 5.86566C29.7413 5.89598 29.7347 5.92705 29.7183 5.95304C29.613 6.12011 29.4867 6.27923 29.3395 6.43039C29.1741 6.60144 29.0901 6.68816 29.0878 6.69055C27.3115 8.62542 25.5403 10.5647 23.7743 12.5083C23.768 12.5147 23.7379 12.5517 23.6841 12.6193C23.5432 12.7983 23.3841 12.7788 23.2067 12.5608C22.9202 12.21 22.4773 11.8496 21.8781 11.4796C21.2084 11.0659 20.3994 10.7294 19.4511 10.47C17.8988 10.0452 16.3529 10.0038 14.8132 10.3459C14.123 10.4994 13.4707 10.7532 12.8565 11.1073C12.1464 11.5154 11.6299 11.9697 11.3069 12.4701C10.8439 13.1853 10.7014 14.0215 10.8795 14.9786C11.0386 15.837 11.4716 16.5181 12.1785 17.0217C13.1474 17.7107 14.3446 18.2783 15.7703 18.7246C17.3051 19.2044 18.8459 19.6642 20.3927 20.1042C20.9729 20.2689 21.5413 20.4638 22.0977 20.689C22.7065 20.9348 23.2554 21.1786 23.7446 21.4205C24.9834 22.0331 26.1027 22.8267 27.1025 23.8013C27.2656 23.9604 27.5125 24.25 27.8434 24.6701C28.1276 25.0305 28.3465 25.3416 28.5 25.6033C29.0407 26.5254 29.3937 27.5581 29.5592 28.7013C29.6367 29.2392 29.6866 29.6914 29.7088 30.0582C29.7096 30.0757 29.7285 30.314 29.7658 30.7731C29.7887 31.0563 29.7832 31.3391 29.7491 31.6215C29.727 31.8069 29.708 32.0396 29.6921 32.3197C29.6818 32.5035 29.6597 32.737 29.6256 33.0202C29.176 36.73 27.4543 39.614 24.4606 41.6722C22.6463 42.9197 20.5823 43.7559 18.2685 44.1807C15.0499 44.7719 11.8405 44.7098 8.64012 43.9946C5.41048 43.2738 2.54339 41.7645 0.0388344 39.4669C0.0272266 39.4562 0.017827 39.4434 0.0111794 39.4291C0.00453187 39.4148 0.000768328 39.3994 0.00010585 39.3836C-0.000556628 39.3679 0.00189561 39.3521 0.00732035 39.3373C0.0127451 39.3225 0.0210348 39.309 0.0317105 39.2974L6.45299 32.3376C6.45815 32.332 6.46445 32.3276 6.47146 32.3247C6.47847 32.3219 6.48602 32.3205 6.49359 32.3209C6.50116 32.3212 6.50856 32.3232 6.51529 32.3267C6.52202 32.3302 6.5279 32.3351 6.53255 32.3412C8.12362 34.381 10.1817 35.6102 12.7069 36.0287C13.1984 36.1107 13.8436 36.1644 14.6423 36.1898C14.8085 36.1954 14.9534 36.1894 15.0768 36.1719C15.3373 36.1345 15.4798 36.1146 15.5043 36.1122C15.8835 36.0868 16.3038 36.0184 16.7653 35.907C17.5505 35.7168 18.2578 35.4097 18.8871 34.9857C19.5109 34.5648 19.9629 34.0946 20.2431 33.5751C20.566 32.9768 20.6927 32.305 20.623 31.5595C20.5407 30.678 20.1698 29.9492 19.5105 29.3732C18.9801 28.9094 18.2653 28.4543 17.3661 28.008C16.5769 27.6165 15.5455 27.2211 14.2718 26.8218C13.4114 26.552 12.5529 26.2764 11.6964 25.9947C10.2597 25.523 9.50769 25.2751 9.44041 25.2513C7.68548 24.6132 6.11459 23.7396 4.72775 22.6306C4.0739 22.1071 3.4442 21.4086 2.83864 20.535C2.13889 19.5254 1.70511 18.4088 1.53729 17.1852C1.31961 15.6067 1.30219 14.1922 1.48505 12.9415C1.64415 11.8539 1.90102 10.8598 2.25565 9.95923C2.52953 9.26468 2.90791 8.56854 3.39077 7.87081C4.84015 5.77681 6.73796 4.23496 9.0842 3.24525C12.2133 1.92536 15.5601 1.41579 19.1246 1.71652Z" fill="black"/>
<path d="M203.901 4.62275C203.801 4.68719 203.748 4.71027 203.577 4.7564C203.379 4.8162 203.357 4.84631 203.458 5.00224L204.408 6.4713C204.477 6.57791 204.447 6.63121 204.32 6.63121H203.261C203.243 6.63122 203.225 6.6264 203.209 6.6172C203.193 6.608 203.179 6.59475 203.169 6.5787L202.148 4.94257C202.068 4.81528 202.029 4.83039 202.029 4.98792L202.034 6.47249C202.034 6.49328 202.031 6.5139 202.023 6.53316C202.016 6.55241 202.005 6.56992 201.991 6.58467C201.977 6.59943 201.961 6.61114 201.943 6.61912C201.925 6.62711 201.905 6.63122 201.886 6.63121L200.847 6.6336C200.817 6.63359 200.788 6.62146 200.767 6.59982C200.746 6.57818 200.733 6.54875 200.733 6.51784C200.724 5.98877 200.724 5.48317 200.734 5.00105C200.734 4.99309 200.736 2.07129 200.736 2.07129L202.808 2.07129C203.237 2.08004 203.622 2.20932 203.966 2.45914C204.243 2.66042 204.388 2.93729 204.401 3.28973C204.409 3.53796 204.402 3.74004 204.378 3.89598C204.346 4.11476 204.27 4.28224 204.117 4.44543C204.111 4.451 204.011 4.55136 203.901 4.62275ZM202.033 3.07135L202.045 3.8196C202.045 3.84095 202.054 3.86149 202.069 3.87733C202.084 3.89317 202.105 3.9032 202.128 3.90552C202.423 3.93734 202.661 3.91467 202.84 3.8375C203.035 3.75396 203.125 3.62667 203.109 3.45562C203.098 3.32673 203.025 3.21813 202.891 3.12982C202.652 2.9715 202.39 2.92416 202.103 2.98781C202.083 2.99224 202.065 3.003 202.052 3.01824C202.039 3.03347 202.033 3.05225 202.033 3.07135Z" fill="black"/>
<path d="M35.7539 40.075C33.9404 38.1791 32.7396 35.9463 32.1514 33.3765C31.8174 31.915 31.684 30.4336 31.7513 28.9324C31.8415 26.8948 32.3161 24.9719 33.1749 23.1635C33.5098 22.4578 33.9155 21.7768 34.392 21.1205C36.7105 17.9278 39.8903 15.9571 43.9313 15.2084C45.6285 14.8942 47.2615 14.7903 48.8304 14.897C51.3967 15.0728 53.7489 15.7458 55.8869 16.9162C56.7727 17.4015 57.6323 18.0133 58.4659 18.7516C59.0754 19.2918 59.6244 19.8638 60.1128 20.4677C61.8582 22.6261 62.8829 25.1028 63.1868 27.8977C63.2343 28.3289 63.2577 28.8798 63.2569 29.5505C63.2569 29.9181 63.2557 30.286 63.2533 30.6544C63.2502 31.0713 63.2304 31.4389 63.194 31.7571C63.0396 33.0937 62.7412 34.3026 62.2987 35.3838C60.8841 38.8398 58.5118 41.3734 55.1816 42.9845C53.9103 43.5994 52.5544 44.0446 51.1137 44.3199C47.5421 45.0017 44.0793 44.6958 40.7254 43.4021C38.8359 42.6734 37.1788 41.5643 35.7539 40.075ZM43.2118 23.8831C42.7392 24.2372 42.3288 24.633 41.9805 25.0706C41.6551 25.4795 41.3781 25.9716 41.1493 26.5468C40.391 28.453 40.3213 30.4094 40.9403 32.4158C41.4667 34.12 42.4823 35.3599 43.9871 36.1356C44.5206 36.4101 45.1139 36.6078 45.767 36.7287C46.3599 36.8393 46.9872 36.8982 47.649 36.9054C47.8286 36.9077 47.9838 36.9002 48.1144 36.8827C48.3915 36.8445 48.5331 36.825 48.5395 36.8242C49.8638 36.7192 51.0187 36.2605 52.0042 35.4482C52.5203 35.0226 52.9569 34.5234 53.3139 33.9505C53.6701 33.3793 53.9373 32.7607 54.1154 32.0948C54.4874 30.7025 54.5258 29.3003 54.2305 27.8881C53.9709 26.6422 53.4283 25.5706 52.6027 24.6732C52.1475 24.1783 51.6393 23.7765 51.0781 23.4678C50.5034 23.152 49.8852 22.9308 49.2234 22.8043C47.7044 22.5131 46.2111 22.603 44.7435 23.074C44.2163 23.2427 43.7057 23.5124 43.2118 23.8831Z" fill="black"/>
<path d="M81.5937 23.151C81.1108 22.7826 80.5393 22.5813 79.8791 22.5471C79.3607 22.5209 78.8473 22.5463 78.3391 22.6235C77.8001 22.7062 77.316 22.8649 76.887 23.0996C75.9268 23.6247 75.2397 24.3937 74.8257 25.4065C74.6579 25.8178 74.5213 26.3675 74.4161 27.0557C74.3219 27.6739 74.2728 28.2396 74.2688 28.7527C74.2673 28.9126 74.2601 29.0463 74.2475 29.1537C74.2221 29.3685 74.2091 29.5002 74.2083 29.5487C74.1893 34.1846 74.1873 38.8372 74.2023 43.5065C74.2023 43.542 74.1883 43.576 74.1634 43.601C74.1385 43.6261 74.1046 43.6402 74.0694 43.6402H65.5607C65.5182 43.6402 65.4774 43.6232 65.4473 43.593C65.4173 43.5628 65.4004 43.5218 65.4004 43.4791V15.6959C65.4004 15.6475 65.4194 15.601 65.4533 15.5668C65.4871 15.5325 65.533 15.5133 65.5809 15.5133H73.6526C73.678 15.5133 73.7032 15.5184 73.7267 15.5283C73.7501 15.5382 73.7715 15.5527 73.7894 15.571C73.8074 15.5893 73.8217 15.611 73.8314 15.6349C73.8411 15.6587 73.8461 15.6843 73.8461 15.7102V19.2331C73.8453 19.3468 73.8734 19.3544 73.9304 19.2558C74.6199 18.0608 75.546 17.1112 76.7089 16.4071C78.7614 15.1628 81.0352 14.6736 83.5303 14.9393C85.0834 15.1048 86.488 15.5439 87.7443 16.2568C88.4416 16.653 89.0432 17.1319 89.5491 17.6936C90.0857 18.2895 90.518 18.9411 90.8457 19.6484C90.905 19.7765 90.9699 19.7793 91.0404 19.6567C91.5296 18.811 92.0924 18.0671 92.7288 17.4251C93.3019 16.8459 93.9388 16.3797 94.6393 16.0265C95.385 15.6509 96.2039 15.3681 97.096 15.178C98.3957 14.9011 99.7687 14.8291 101.215 14.962C102.348 15.0654 103.383 15.3096 104.322 15.6947C105.717 16.2675 106.838 17.1419 107.686 18.3178C108.45 19.3783 109.001 20.5864 109.338 21.9421C109.578 22.9095 109.746 23.8877 109.841 24.8766C109.893 25.4232 109.92 26.218 109.92 27.261C109.92 32.6726 109.92 38.0929 109.92 43.522C109.92 43.5375 109.916 43.5529 109.911 43.5672C109.905 43.5816 109.896 43.5946 109.885 43.6056C109.874 43.6165 109.861 43.6252 109.847 43.6312C109.833 43.6371 109.817 43.6402 109.802 43.6402H101.262C101.228 43.6402 101.195 43.6265 101.171 43.6021C101.147 43.5777 101.133 43.5446 101.133 43.5101C101.133 38.0571 101.133 32.591 101.133 27.1118C101.133 26.2112 100.941 25.348 100.558 24.5222C100.259 23.8777 99.8863 23.4044 99.4398 23.102C98.9293 22.7559 98.3261 22.571 97.6303 22.5471C96.8427 22.5201 96.1291 22.6012 95.4895 22.7906C94.2736 23.151 93.3771 23.8968 92.8001 25.0282C92.5135 25.5914 92.3228 26.2164 92.2278 26.903C92.1375 27.5585 92.0912 28.1353 92.0888 28.6334C92.0659 33.5684 92.0603 38.5038 92.0722 43.4397C92.0722 43.4691 92.0607 43.4973 92.0402 43.5182C92.0197 43.539 91.992 43.5507 91.963 43.5507L83.4294 43.5447C83.391 43.5447 83.3541 43.5291 83.3269 43.5014C83.2998 43.4736 83.2845 43.436 83.2845 43.3967C83.2932 38.2222 83.296 33.1857 83.2928 28.2873C83.2928 28.0773 83.2758 27.8322 83.2418 27.5522C83.2125 27.3071 83.1915 27.0613 83.1788 26.8147C83.1385 25.9912 82.9861 25.2672 82.7217 24.6427C82.4581 24.0213 82.0821 23.5241 81.5937 23.151Z" fill="black"/>
<path d="M155.671 19.7909C155.671 19.9802 155.716 19.991 155.807 19.8231C156.191 19.1063 156.643 18.4368 157.163 17.8146C158.622 16.0683 160.491 15.1001 162.768 14.9099C164.088 14.7994 165.399 14.8702 166.703 15.1224C166.721 15.126 166.738 15.1358 166.75 15.1502C166.762 15.1645 166.768 15.1826 166.768 15.2011L166.797 22.9903C166.797 23.0036 166.794 23.0168 166.788 23.0287C166.782 23.0407 166.774 23.0512 166.763 23.0593C166.753 23.0675 166.74 23.0732 166.727 23.0759C166.714 23.0786 166.701 23.0784 166.688 23.0751C165.636 22.8117 164.605 22.6347 163.592 22.544C162.697 22.4637 161.765 22.5182 160.797 22.7075C159.916 22.8794 159.177 23.1483 158.579 23.5142C157.253 24.3265 156.412 25.5545 156.055 27.1982C155.94 27.7281 155.856 28.2615 155.803 28.7985C155.767 29.1629 155.731 29.7019 155.695 30.4156C155.656 31.1738 155.639 32.043 155.644 33.0231C155.661 36.5412 155.658 40.0442 155.637 43.5321C155.637 43.5599 155.626 43.5866 155.606 43.6063C155.587 43.626 155.56 43.6371 155.532 43.6371L146.984 43.6299C146.968 43.6299 146.951 43.6266 146.936 43.6202C146.92 43.6138 146.906 43.6044 146.895 43.5925C146.883 43.5807 146.873 43.5666 146.867 43.5511C146.861 43.5356 146.857 43.519 146.857 43.5022V15.6284C146.857 15.603 146.867 15.5788 146.885 15.5608C146.902 15.5429 146.926 15.5329 146.951 15.5329L155.444 15.5042C155.592 15.5035 155.666 15.5794 155.666 15.7322L155.671 19.7909Z" fill="black"/>
<path d="M171.539 40.6643C170.694 39.8409 169.951 38.8862 169.313 37.8002C168.481 36.3872 167.907 34.7849 167.591 32.9932C167.522 32.6034 167.468 32.1217 167.428 31.548C167.395 31.0643 167.363 30.5802 167.331 30.0957C167.314 29.8332 167.312 29.639 167.324 29.5133C167.336 29.3868 167.342 29.322 167.342 29.3188C167.413 27.263 167.832 25.2521 168.6 23.2862C169.136 21.9131 169.84 20.6648 170.713 19.5414C171.21 18.9002 171.752 18.323 172.339 17.8098C174.498 15.9227 177.066 14.9449 180.044 14.8765C181.377 14.8462 182.799 15.0165 184.31 15.3872C185.531 15.6872 186.562 16.1323 187.405 16.7226C188.108 17.2151 188.721 17.8022 189.246 18.4841C189.295 18.5469 189.319 18.5382 189.319 18.4578L189.306 15.571C189.306 15.5547 189.309 15.5386 189.315 15.5235C189.321 15.5085 189.331 15.4948 189.342 15.4833C189.354 15.4717 189.368 15.4626 189.383 15.4564C189.399 15.4501 189.415 15.4469 189.431 15.4469H197.958C197.993 15.4469 198.027 15.461 198.052 15.4861C198.077 15.5111 198.091 15.5451 198.091 15.5806V43.5332C198.091 43.5617 198.08 43.589 198.06 43.6092C198.04 43.6293 198.012 43.6406 197.984 43.6406H190.111C190.068 43.6406 190.027 43.6236 189.997 43.5934C189.967 43.5632 189.95 43.5222 189.95 43.4795V40.1488C189.95 39.9578 189.899 39.9423 189.796 40.1022C189.425 40.6766 188.968 41.1886 188.425 41.6381C187.987 41.9993 187.428 42.3832 186.747 42.7897C185.225 43.6991 183.591 44.2015 181.847 44.297C180.19 44.3877 178.531 44.1983 176.87 43.7289C176.066 43.5006 175.327 43.2178 174.655 42.8804C173.497 42.2988 172.458 41.5601 171.539 40.6643ZM176.704 33.9515C177.538 35.1282 178.609 35.9067 179.916 36.287C180.593 36.4843 181.352 36.5933 182.191 36.614C182.971 36.6331 183.739 36.5455 184.496 36.3514C185.309 36.1438 186.024 35.816 186.641 35.3681C187.959 34.411 188.785 33.0613 189.119 31.3189C189.37 30.0102 189.349 28.7388 189.055 27.5049C188.863 26.6942 188.549 25.9698 188.115 25.3317C187.253 24.0651 186.077 23.2365 184.587 22.8459C183.861 22.6565 183.077 22.5595 182.235 22.5547C181.166 22.5483 180.168 22.7373 179.241 23.1216C178.144 23.5766 177.266 24.3022 176.605 25.2983C176.188 25.9268 175.873 26.6524 175.659 27.475C175.371 28.5809 175.309 29.7142 175.473 30.875C175.63 31.9912 176.041 33.0167 176.704 33.9515Z" fill="black"/>
</svg>
