<svg width="290" height="97" viewBox="0 0 290 97" fill="none" xmlns="http://www.w3.org/2000/svg">
<path d="M53.2318 90.8884C45.5024 98.6209 30.965 96.6164 30.965 96.6164C30.965 96.6164 28.9613 82.0731 36.6908 74.3406C44.4202 66.6081 58.9576 68.6126 58.9576 68.6126C58.9576 68.6126 60.9613 83.1559 53.2318 90.8884Z" fill="black"/>
<path d="M6.1019 90.8884C13.8313 98.6209 28.3687 96.6164 28.3687 96.6164C28.3687 96.6164 30.3724 82.0731 22.643 74.3406C14.9135 66.6081 0.376168 68.6126 0.376168 68.6126C0.376168 68.6126 -1.62753 83.1559 6.1019 90.8884Z" fill="black"/>
<path d="M53.2318 62.5006C45.5024 70.2331 30.965 68.2286 30.965 68.2286C30.965 68.2286 28.9613 53.6854 36.6908 45.9529C44.4202 38.2204 58.9576 40.2249 58.9576 40.2249C58.9576 40.2249 60.9613 54.768 53.2318 62.5006Z" fill="black"/>
<path d="M6.1019 62.5006C13.8313 70.2331 28.3687 68.2286 28.3687 68.2286C28.3687 68.2286 30.3724 53.6854 22.643 45.9529C14.9135 38.2204 0.376168 40.2249 0.376168 40.2249C0.376168 40.2249 -1.62753 54.768 6.1019 62.5006Z" fill="black"/>
<path d="M28.3558 40.9831C17.2716 40.9831 8.28613 31.994 8.28613 20.9054C8.28613 9.81677 17.2716 0.831055 28.3558 0.831055V40.9831Z" fill="black"/>
<path d="M30.9824 40.9831C42.0666 40.9831 51.0521 31.994 51.0521 20.9054C51.0521 9.81677 42.0666 0.831055 30.9824 0.831055V40.9831Z" fill="black"/>
<path d="M100.389 13.4586C100.284 12.166 99.8049 11.1555 98.9457 10.4338C98.0865 9.70875 96.7846 9.34785 95.04 9.34785C93.9283 9.34785 93.0199 9.47907 92.3149 9.7448C91.6098 10.0105 91.0917 10.3682 90.7539 10.8209C90.4161 11.2737 90.2423 11.792 90.2292 12.3727C90.2029 12.8517 90.2915 13.2813 90.4915 13.6619C90.6916 14.0424 91.0129 14.387 91.4524 14.6889C91.8918 14.994 92.4526 15.2662 93.138 15.5122C93.8234 15.7583 94.6366 15.9782 95.5811 16.1717L98.8375 16.8705C101.035 17.3363 102.917 17.9498 104.478 18.7142C106.042 19.4786 107.321 20.371 108.318 21.4011C109.312 22.4279 110.046 23.5827 110.519 24.8621C110.991 26.1416 111.233 27.5391 111.247 29.0515C111.233 31.6629 110.581 33.8742 109.289 35.6851C107.997 37.496 106.15 38.8738 103.753 39.8154C101.356 40.7602 98.4767 41.2326 95.1154 41.2326C91.754 41.2326 88.6551 40.7208 86.0906 39.7005C83.5262 38.6803 81.5356 37.1056 80.119 34.9764C78.7023 32.8506 77.9907 30.1243 77.9775 26.801H88.2157C88.2813 28.0182 88.5829 29.0384 89.1273 29.8651C89.6717 30.6919 90.4357 31.3185 91.4261 31.7483C92.4165 32.1748 93.5938 32.3879 94.9645 32.3879C96.1156 32.3879 97.0765 32.2469 97.8537 31.9615C98.6276 31.6761 99.2179 31.2825 99.618 30.7772C100.018 30.272 100.225 29.6978 100.238 29.0515C100.225 28.4446 100.028 27.9099 99.6475 27.4506C99.2671 26.9913 98.6407 26.5779 97.775 26.2104C96.9092 25.843 95.7385 25.4953 94.2661 25.1738L90.3112 24.3208C86.7957 23.5564 84.0247 22.2802 82.0046 20.489C79.9812 18.6977 78.9777 16.2504 78.9908 13.1469C78.9777 10.6241 79.6533 8.41619 81.0175 6.52325C82.3817 4.63031 84.2739 3.15065 86.6973 2.09099C89.1208 1.03134 91.9016 0.5 95.0432 0.5C98.1849 0.5 101.022 1.03792 103.36 2.1107C105.698 3.18347 107.505 4.69267 108.777 6.6381C110.05 8.58354 110.692 10.857 110.705 13.4552H100.392L100.389 13.4586Z" fill="black"/>
<path d="M153.825 20.9092C153.825 25.3316 152.966 29.0584 151.247 32.093C149.529 35.1243 147.207 37.4208 144.289 38.9792C141.367 40.5375 138.11 41.3149 134.516 41.3149C130.922 41.3149 127.63 40.5309 124.714 38.9594C121.799 37.388 119.487 35.0882 117.772 32.0536C116.06 29.0222 115.204 25.3053 115.204 20.9092C115.204 16.5132 116.06 12.7601 117.772 9.72873C119.484 6.6974 121.799 4.40086 124.714 2.84254C127.63 1.28423 130.896 0.506836 134.516 0.506836C138.137 0.506836 141.367 1.28751 144.289 2.84254C147.211 4.40086 149.529 6.6974 151.247 9.72873C152.966 12.7601 153.825 16.4869 153.825 20.9092ZM142.734 20.9092C142.734 18.5308 142.423 16.5229 141.793 14.8858C141.167 13.2488 140.242 12.0088 139.022 11.1624C137.799 10.316 136.297 9.89276 134.513 9.89276C132.729 9.89276 131.227 10.316 130.004 11.1624C128.784 12.0088 127.859 13.2521 127.233 14.8858C126.606 16.5229 126.292 18.5308 126.292 20.9092C126.292 23.2877 126.606 25.2954 127.233 26.9325C127.859 28.5695 128.784 29.8097 130.004 30.6561C131.227 31.5025 132.729 31.9257 134.513 31.9257C136.297 31.9257 137.799 31.5025 139.022 30.6561C140.242 29.8097 141.167 28.5663 141.793 26.9325C142.419 25.2954 142.734 23.291 142.734 20.9092Z" fill="black"/>
<path d="M169.645 1.04395L177.788 29.051H178.099L186.242 1.04395H198.418L185.31 40.7696H170.576L157.469 1.04395H169.645Z" fill="black"/>
<path d="M212.533 40.7696H200.901L214.009 1.04395H228.743L241.851 40.7696H230.219L221.532 11.985H221.22L212.533 40.7696ZM210.362 25.0979H232.232V33.1682H210.362V25.0979Z" fill="black"/>
<path d="M115.203 71.5066H104.266C104.188 70.6012 103.984 69.7809 103.656 69.0428C103.328 68.3046 102.876 67.6682 102.299 67.1335C101.725 66.5955 101.03 66.182 100.213 65.8933C99.3998 65.6013 98.4751 65.4571 97.4421 65.4571C95.6319 65.4571 94.1037 65.8967 92.8575 66.7759C91.6114 67.6552 90.667 68.9149 90.0275 70.5585C89.388 72.2021 89.0666 74.1737 89.0666 76.4734C89.0666 78.9044 89.3912 80.9385 90.0471 82.5723C90.6997 84.2093 91.6475 85.4363 92.8871 86.2565C94.1267 87.0766 95.622 87.4867 97.3666 87.4867C98.3636 87.4867 99.2522 87.3621 100.043 87.1095C100.83 86.8569 101.515 86.4926 102.099 86.0136C102.679 85.5346 103.155 84.9572 103.525 84.2781C103.893 83.599 104.142 82.8347 104.273 81.9785L115.21 82.0571C115.082 83.7401 114.609 85.4494 113.793 87.1881C112.98 88.9269 111.825 90.5312 110.333 91.9976C108.841 93.4641 106.995 94.6451 104.798 95.5375C102.6 96.4298 100.046 96.876 97.1404 96.876C93.4938 96.876 90.2275 96.0951 87.3384 94.5302C84.4493 92.9653 82.1669 90.6624 80.4944 87.6245C78.8219 84.5866 77.9824 80.8696 77.9824 76.4702C77.9824 72.0709 78.835 68.3211 80.5403 65.2865C82.2456 62.2552 84.5477 59.9586 87.4433 58.4003C90.339 56.842 93.5692 56.0645 97.1371 56.0645C99.6458 56.0645 101.951 56.4058 104.06 57.0914C106.165 57.7771 108.015 58.7744 109.605 60.0866C111.196 61.3989 112.475 63.013 113.445 64.9256C114.416 66.8382 115.003 69.033 115.21 71.5001L115.203 71.5066Z" fill="black"/>
<path d="M158.556 76.4734C158.556 80.8958 157.697 84.6226 155.979 87.654C154.26 90.6853 151.939 92.9818 149.02 94.5401C146.098 96.0984 142.842 96.876 139.248 96.876C135.653 96.876 132.361 96.0919 129.446 94.5204C126.53 92.949 124.218 90.6493 122.503 87.6147C120.791 84.5834 119.936 80.8663 119.936 76.4702C119.936 72.0741 120.791 68.3211 122.503 65.2865C124.215 62.2552 126.53 59.9586 129.446 58.4003C132.361 56.842 135.627 56.0645 139.248 56.0645C142.868 56.0645 146.098 56.8453 149.02 58.4003C151.942 59.9586 154.26 62.2552 155.979 65.2865C157.697 68.3178 158.556 72.0446 158.556 76.4702V76.4734ZM147.466 76.4734C147.466 74.095 147.151 72.0872 146.524 70.4502C145.898 68.8131 144.973 67.573 143.753 66.7266C142.534 65.8802 141.028 65.4571 139.244 65.4571C137.46 65.4571 135.958 65.8802 134.735 66.7266C133.515 67.573 132.591 68.8164 131.964 70.4502C131.338 72.0872 131.023 74.095 131.023 76.4734C131.023 78.8519 131.338 80.8598 131.964 82.4968C132.591 84.1339 133.515 85.374 134.735 86.2204C135.955 87.0668 137.46 87.4899 139.244 87.4899C141.028 87.4899 142.53 87.0668 143.753 86.2204C144.973 85.374 145.898 84.1306 146.524 82.4968C147.151 80.8598 147.466 78.8519 147.466 76.4734Z" fill="black"/>
<path d="M163.521 96.3344V56.6123H191.442V65.3027H174.301V72.1298H189.733V80.8202H174.301V96.3378H163.521V96.3344Z" fill="black"/>
<path d="M195.396 96.3344V56.6123H223.316V65.3027H206.175V72.1298H221.607V80.8202H206.175V96.3378H195.396V96.3344Z" fill="black"/>
<path d="M227.269 96.3344V56.6123H255.887V65.3027H238.051V72.1298H254.415V80.8202H238.051V87.6472H255.812V96.3378H227.272L227.269 96.3344Z" fill="black"/>
<path d="M261.239 96.3344V56.6123H289.858V65.3027H272.022V72.1298H288.386V80.8202H272.022V87.6472H289.783V96.3378H261.243L261.239 96.3344Z" fill="black"/>
</svg>
