<svg width="171" height="43" viewBox="0 0 171 43" fill="none" xmlns="http://www.w3.org/2000/svg">
<path d="M163.469 6L159.369 19.2386L158.506 22.5075C158.296 21.6811 157.854 20.0253 157.643 19.2386L153.898 6H146.5L155.244 29.6238L150.314 43H157.178L170.5 6H163.467H163.469Z" fill="#58BB69"/>
<path d="M3.88109 6.09939L5.8475 0H10.4338V6.09939L15.6058 6.0798V11.0661H10.4338V22.094C10.4455 25.1471 11.3967 26.4199 13.4261 26.4121C14.3734 26.4081 15.2558 26.3151 15.9316 26.1759L15.951 31.3258C15.0502 31.6933 13.1759 31.9275 11.2376 31.9344C4.02265 31.9618 3.95381 25.6272 3.94315 22.8024L3.90048 11.0906L0.518417 11.1033L0.5 8.26772L3.88206 6.09939H3.88109ZM23.8089 20.8349C23.9892 25.1647 25.9634 27.1812 29.5878 27.1812C32.8361 27.1812 35.3513 26.4777 37.4922 25.4773V30.4969C35.4172 31.4082 32.7382 31.9549 29.6266 31.9549C21.6476 31.9549 17.451 27.3684 17.451 19.1497C17.451 11.8578 21.6001 5.56929 28.9508 5.56929C35.0381 5.56929 39.0068 9.9442 39.0068 18.1463C39.0068 19.1496 38.9612 20.1059 38.8265 20.8349H23.8098H23.8089ZM32.8283 16.1416C32.8739 13.498 31.8364 10.2626 28.5445 10.2626C25.2526 10.2626 23.9892 13.6342 23.8098 16.1416H32.8293H32.8283ZM42.4819 7.73471C44.8847 6.55304 47.2942 5.61438 51.579 5.61438C59.3806 5.61438 61.5002 10.6271 61.5002 16.1866V31.4983H56.6172L55.4565 28.8548H55.3208C53.878 30.8595 51.4423 31.999 48.6468 31.999C44.0023 31.999 41.1157 28.4903 41.1157 24.3887C41.1157 17.8719 46.8433 14.8188 54.8253 14.8188C54.8253 12.3124 54.3764 10.3988 51.1077 10.3988C48.8078 10.3988 46.7706 10.9142 44.5599 12.0155L42.4819 7.73372V7.73471ZM55.0057 19.1497C51.3977 19.1497 47.6549 20.0148 47.6549 23.7058C47.6549 26.1211 49.1433 27.1695 50.812 27.1695C52.3906 27.1695 55.0057 26.0309 55.0057 22.7946V19.1486V19.1497ZM85.483 9.85309C87.557 6.75392 90.1275 5.61536 92.9239 5.61536C97.2979 5.61536 100.681 8.75961 100.681 16.0965V31.4993H94.1417V17.1449C94.1417 13.499 93.1498 11.0837 90.4892 11.0837C88.6401 11.0837 86.566 12.5427 86.566 16.0965V31.4993H80.0269V16.5071C80.0269 13.499 79.0796 11.0837 76.4645 11.0837C74.6154 11.0837 72.4512 12.8151 72.4512 16.2337V31.4993H65.912V6.16209H71.1005L71.7288 9.53465H71.8645C73.0368 7.71218 75.2466 5.61536 78.9894 5.61536C82.0563 5.61536 84.4009 7.25558 85.3928 9.85309H85.483ZM118.754 6.11604H125.654L117.085 31.4983H110.636L102.203 6.11604H109.374L112.665 18.4197C113.207 20.6076 113.657 22.7034 114.064 24.8904H114.199C114.606 22.7025 115.057 20.6527 115.598 18.4197L118.755 6.11604H118.754ZM148.5 24.5425L141.861 6.11604C140.822 5.76624 139.4 5.56929 138.009 5.56929C131.199 5.56929 126.104 10.3998 126.104 18.9213C126.104 27.4429 130.974 32 137.738 32C141.993 32 146.559 29.8326 148.5 24.5425ZM137.828 27.0333C134.581 27.0333 132.868 23.2962 132.868 18.7851C132.868 14.9119 134.176 10.537 137.873 10.537C141.301 10.537 142.698 14.7747 142.698 18.7401C142.698 23.2512 140.984 27.0342 137.827 27.0342L137.828 27.0333Z" fill="white"/>
</svg>
