<?xml version="1.0" encoding="UTF-8"?>
<svg id="Layer_1" data-name="Layer 1" xmlns="http://www.w3.org/2000/svg" viewBox="0 0 178.36 45.26">
  <defs>
    <style>
      .cls-1 {
        fill: #00e171;
      }

      .cls-1, .cls-2 {
        stroke-width: 0px;
      }
    </style>
  </defs>
  <path class="cls-1" d="m171.06,6.36l-4.25,13.92-.9,3.44c-.22-.87-.68-2.61-.9-3.44l-3.89-13.92h-7.68l9.07,24.84-5.12,14.07h7.12l13.82-38.91h-7.3Z"/>
  <path class="cls-2" d="m3.55,6.34L5.62,0h4.82v6.34l5.43-.02v5.18h-5.43v11.47c.01,3.17,1.01,4.5,3.14,4.49,1,0,1.92-.1,2.63-.25l.02,5.35c-.95.38-2.92.63-4.95.63-7.58.03-7.65-6.56-7.66-9.5l-.05-12.18H.02s-.02-2.93-.02-2.93l3.55-2.25Zm20.94,15.32c.19,4.5,2.26,6.6,6.07,6.6,3.41,0,6.06-.73,8.31-1.77v5.22c-2.18.95-5,1.52-8.26,1.52-8.38,0-12.79-4.77-12.79-13.31,0-7.58,4.36-14.12,12.08-14.12,6.4,0,10.57,4.55,10.57,13.08,0,1.04-.05,2.04-.19,2.8h-15.78Zm9.48-4.88c.05-2.75-1.04-6.11-4.5-6.11s-4.79,3.51-4.98,6.11h9.48Zm10.14-8.74c2.52-1.23,5.06-2.2,9.56-2.2,8.2,0,10.42,5.21,10.42,10.99v15.92h-5.13l-1.22-2.75h-.14c-1.52,2.08-4.07,3.27-7.01,3.27-4.88,0-7.91-3.65-7.91-7.91,0-6.78,6.02-9.95,14.4-9.95,0-2.61-.47-4.6-3.91-4.6-2.42,0-4.56.54-6.88,1.68l-2.18-4.45Zm13.16,11.87c-3.79,0-7.72.9-7.72,4.74,0,2.51,1.56,3.6,3.32,3.6,1.66,0,4.41-1.18,4.41-4.55v-3.79Zm32.02-9.67c2.18-3.22,4.88-4.41,7.82-4.41,4.6,0,8.15,3.27,8.15,10.9v16.02h-6.87v-14.93c0-3.79-1.04-6.3-3.84-6.3-1.94,0-4.12,1.52-4.12,5.21v16.02h-6.87v-15.59c0-3.13-.99-5.64-3.74-5.64-1.94,0-4.22,1.8-4.22,5.35v15.87h-6.87V6.41h5.45l.66,3.51h.14c1.23-1.9,3.55-4.07,7.49-4.07,3.22,0,5.69,1.71,6.73,4.41h.1Zm34.96-3.89h7.25l-9,26.39h-6.78l-8.86-26.39h7.53l3.46,12.79c.57,2.27,1.04,4.45,1.47,6.73h.14c.43-2.27.9-4.41,1.47-6.73l3.32-12.79Zm31.25,19.16l-6.97-19.16c-1.09-.36-2.59-.57-4.05-.57-7.15,0-12.51,5.02-12.51,13.88s5.12,13.6,12.22,13.6c4.47,0,9.27-2.25,11.31-7.75Zm-11.21,2.59c-3.41,0-5.21-3.89-5.21-8.58,0-4.03,1.37-8.58,5.26-8.58,3.6,0,5.07,4.41,5.07,8.53,0,4.69-1.8,8.62-5.12,8.62Z"/>
</svg>