<svg width="103" height="38" viewBox="0 0 103 38" fill="none" xmlns="http://www.w3.org/2000/svg">
<path d="M3.42415 9.51657V3.6748H12.3927C12.3927 9.51519 12.3927 9.51518 12.3927 9.51518L19.5255 9.51795V16.6414H12.4079V29.8556H20.0297V36.9653H3.42415V16.6401H0V9.51518L3.42415 9.51657Z" fill="white"/>
<path d="M86.0726 9.51657V3.6748H95.0411C95.0411 9.51519 95.0411 9.51518 95.0411 9.51518L102.174 9.51795V16.6414H95.0563V29.8556H102.678V36.9653H86.0726V16.6401H82.6484V9.51518L86.0726 9.51657Z" fill="white"/>
<path d="M40.3741 17.9611H49.0802C49.0802 17.9611 48.478 14.4878 45.3232 11.9036C42.1684 9.31944 38.555 8.57418 34.9996 8.68894C31.4443 8.80371 27.2024 9.56279 24.7051 13.5974C22.2893 17.4993 24.4247 21.0928 25.4455 22.1188C26.7604 23.4392 28.3461 24.9933 33.7952 26.199C39.2443 27.4047 39.5592 27.9495 39.8465 28.2952C40.1338 28.6394 40.1614 29.2022 40.0371 29.5147C39.9128 29.8271 39.6531 30.2641 38.9045 30.5447C38.1558 30.8254 36.8782 30.9084 36.2124 30.8876C35.5466 30.8669 34.8201 30.8558 33.9057 30.5033C32.9913 30.1493 31.7026 29.234 31.4015 27.9854H22.4219C22.4219 27.9854 22.9108 31.1683 25.4358 33.6751C27.9607 36.1819 30.7053 37.1387 33.251 37.5341C35.7966 37.9296 39.486 37.7636 41.4819 37.2216C43.4778 36.681 45.9821 35.8583 47.9973 33.0709C50.014 30.2834 49.2543 26.9858 48.8813 26.0386C48.507 25.0915 47.5719 23.1046 44.808 21.7524C42.0441 20.4001 37.0246 19.3811 36.7539 19.3175C36.4831 19.2553 34.3325 18.7976 33.6667 18.3289C33.001 17.8602 32.954 17.408 32.9954 16.8674C33.0369 16.3268 33.5383 15.7931 34.1543 15.5829C34.8519 15.3451 35.7138 15.2082 36.7939 15.323C37.8754 15.4391 39.6241 15.8138 40.3741 17.9611Z" fill="white"/>
<path d="M52.6211 0H61.6007V19.2758H64.5124L70.5665 9.50721H80.0502L72.1411 22.4476L80.8569 36.9518H71.1107L65.0165 26.9233H61.6076V36.9518H52.6211V0Z" fill="white"/>
</svg>
