<?xml version="1.0" encoding="utf-8"?>
<!-- Generator: Adobe Illustrator 26.0.1, SVG Export Plug-In . SVG Version: 6.00 Build 0)  -->
<svg version="1.1" id="Layer_1" xmlns="http://www.w3.org/2000/svg" xmlns:xlink="http://www.w3.org/1999/xlink" x="0px" y="0px"
	 width="595.3px" height="186.5px" viewBox="0 0 595.3 186.5" style="enable-background:new 0 0 595.3 186.5;" xml:space="preserve"
	>
<style type="text/css">
	.st0{fill:#191C1E;}
</style>
<path class="st0" d="M506.8,85.9V62.5h11.3V43.4h29.5v19.1H571v23.4h-23.4v43.4h25.2v23.4h-54.6V85.9H506.8z M435.5,92.8
	c-3.5,3.9-5.2,7.6-5.2,14.7c0,7.2,1.7,10.8,5.2,14.7c3.5,3.9,7.1,5.9,12.9,5.9c5.8,0,9.4-2,12.9-5.9c3.5-3.9,5.2-7.6,5.2-14.7
	c0-7.2-1.7-10.8-5.2-14.7c-3.5-3.9-7.1-5.9-12.9-5.9C442.6,86.9,438.9,88.9,435.5,92.8z M411.5,142.2c-7.7-8.7-11.6-20.3-11.6-34.6
	c0-14.3,3.9-25.9,11.6-34.6c7.7-8.7,17.2-13.1,28.3-13.1c7.2,0,13.9,2,20.3,7c2.7,2.2,4.9,4.1,6.6,6.8h1h0.7V62.5H496v90.2h-27.6
	v-11.2h-1.7c-1.6,2.8-3.8,4.8-6.6,7c-6.2,4.9-13,6.8-20.3,6.8C428.7,155.3,419.3,150.9,411.5,142.2z M307.1,152.7V31.2h29.5v63.3
	h9.5l20-32.1h31.2l-26,42.5l28.6,47.7h-32.1l-20-33h-11.3v33H307.1z M197.8,118V62.5h29.5v51.2c0,5.2,1.4,9.3,4.2,12.1
	c2.8,2.9,6.6,4.3,11.4,4.3c5,0,9.1-1.8,12.4-5.5c3.3-3.6,4.9-8.5,4.9-14.5V62.5h29.5v90.2h-29.5v-12.1h-1.7
	c-1.5,2.9-3.6,5.4-6.2,7.5c-5.8,4.9-12.7,7.3-20.6,7.3c-10.6,0-18.9-3.2-24.9-9.6C200.8,139.2,197.8,130,197.8,118z M96.3,123.2
	h29.5c0.5,1.7,1.4,3.4,2.9,4.9c3.1,3.1,7.6,4.7,13.5,4.7c8.1,0,12.1-2,12.1-6.1c0-1.9-1.2-3.3-3.5-4.4c-2.3-1.1-5.8-2.2-10.4-3.4
	c-3.8-0.9-6.3-1.5-7.5-1.7c-1.2-0.2-3.6-0.9-7.3-2c-3.7-1.1-6.3-2.1-7.9-2.9c-1.6-0.9-3.7-2.1-6.4-3.8c-2.7-1.7-4.7-3.4-5.9-5.2
	c-1.2-1.8-2.3-4-3.4-6.8c-1-2.7-1.6-5.6-1.6-8.8c0-7.6,3.4-14.2,10.2-19.6c6.8-5.4,16.4-8.2,28.8-8.2c15.5,0,27.8,5.1,36.8,15.3
	c3.6,4.4,6.1,9.4,7.5,15.1h-28.6c-0.7-1.9-1.5-3.3-2.4-4.3c-2.7-2.9-6.5-4.3-11.4-4.3c-6.9,0-10.4,2-10.4,6.1c0,2,1.2,3.5,3.5,4.5
	c2.3,1,5.8,2,10.6,2.9c11.9,2.8,20,5.2,24.1,7.3c10.4,5.1,15.6,12.9,15.6,23.4c0,8.3-3.7,15.3-11,21c-7.3,5.7-17.8,8.5-31.5,8.5
	c-16.8,0-29.5-5.3-38.3-16C100,134.6,97.5,129.2,96.3,123.2z M22.6,85.9V62.5h11.3V43.4h29.5v19.1h23.4v23.4H63.3v43.4h25.2v23.4
	H33.8V85.9H22.6z"/>
</svg>
