<svg width="151" height="44" viewBox="0 0 151 44" fill="none" xmlns="http://www.w3.org/2000/svg">
<g clip-path="url(#clip0_966_582)">
<path d="M64.3069 24.7136C64.3069 29.916 61.7146 32.4105 56.6363 32.4105C51.2921 32.4105 48.8594 29.8876 48.8594 24.6602V18.8173H52.1645V25.3257C52.1645 28.2471 53.7249 29.6776 56.6895 29.6776C60.445 29.6776 61.0018 27.4999 61.0018 24.2902V13.1416H64.3105V24.7172L64.3069 24.7136Z" fill="white"/>
<path d="M76.3416 20.678L84.3562 32.0401H80.2567L74.0649 22.9874L71.3662 25.6954V32.0401H68.0859V13.1377H71.3662V21.7135L79.7 13.1377H83.881L76.3416 20.678Z" fill="white"/>
<path d="M99.7825 15.9279H89.4912V20.9452H99.0413V23.6283H89.4912V29.2044H99.9421V32.044H86.2109V13.1416H99.7825V15.9279Z" fill="white"/>
<path d="M116.447 15.9279H106.155V20.9452H115.705V23.6283H106.155V29.2044H116.606V32.044H102.875V13.1416H116.447V15.9279Z" fill="white"/>
<path d="M129.966 18.7141C129.753 16.3513 128.193 15.3976 125.866 15.3976C123.54 15.3976 122.267 16.3797 122.267 18.0273C122.267 19.8314 123.43 19.9382 127.054 20.8954C130.256 21.7174 133.852 22.4896 133.852 26.5497C133.852 30.8234 130.069 32.471 126.366 32.471C121.894 32.471 118.43 30.3466 118.43 25.7811H121.685C121.685 28.7026 123.88 29.8413 126.554 29.8413C129.228 29.8413 130.6 28.7275 130.6 26.8664C130.6 24.9022 128.987 24.557 126.21 23.8418C122.217 22.8063 119.121 22.1444 119.121 18.2942C119.121 14.9243 121.845 12.7715 126.079 12.7715C129.916 12.7715 132.959 14.4973 133.115 18.7176H129.966V18.7141Z" fill="white"/>
<path d="M147.11 18.7141C146.897 16.3513 145.337 15.3976 143.011 15.3976C140.684 15.3976 139.411 16.3797 139.411 18.0273C139.411 19.8314 140.574 19.9382 144.199 20.8954C147.401 21.7174 150.997 22.4896 150.997 26.5497C150.997 30.8234 147.213 32.471 143.511 32.471C139.039 32.471 135.574 30.3466 135.574 25.7811H138.83C138.83 28.7026 141.025 29.8413 143.699 29.8413C146.373 29.8413 147.745 28.7275 147.745 26.8664C147.745 24.9022 146.131 24.557 143.355 23.8418C139.362 22.8063 136.266 22.1444 136.266 18.2942C136.266 14.9243 138.989 12.7715 143.224 12.7715C147.061 12.7715 150.103 14.4973 150.259 18.7176H147.11V18.7141Z" fill="white"/>
<path d="M52.1645 13.1377H48.8594V17.7032H52.1645V13.1377Z" fill="white"/>
<path d="M74.0703 22.9872C74.2618 22.8164 76.347 20.6777 76.347 20.6777L84.3616 32.0398H80.2621L74.0703 22.9872Z" fill="white"/>
<path d="M40.2324 10.9463V30.1334L21.3946 41.0471L2.54977 30.1298V11.0495C1.65611 11.5975 0.723438 12.1775 0 12.6259V31.6101L21.3946 44.0006L42.7857 31.6101V12.4266C42.0658 11.9782 41.1296 11.5014 40.2359 10.9463H40.2324Z" fill="white"/>
<path d="M38.0544 9.65758V17.4826L21.3905 7.82499L10.6382 14.0629L29.0362 24.7275L21.394 29.1613L4.72656 19.5038V9.65758L21.394 0L38.0544 9.65758Z" fill="white"/>
<path d="M21.3905 9.75L38.0544 19.404V28.9655L21.394 38.6231L4.72656 28.9655V21.4217L21.394 31.0792L32.3555 24.7239L13.9504 14.0628L21.3905 9.75Z" fill="white"/>
</g>
<defs>
<clipPath id="clip0_966_582">
<rect width="151" height="44" fill="white"/>
</clipPath>
</defs>
</svg>
