<svg width="196" height="58" viewBox="0 0 196 58" fill="none" xmlns="http://www.w3.org/2000/svg">
<path d="M83.471 32.1541C83.471 38.8936 80.1062 42.1251 73.5145 42.1251C66.5777 42.1251 63.4199 38.8567 63.4199 32.085V24.5157H67.71V32.947C67.71 36.7316 69.7354 38.5848 73.5836 38.5848C78.4583 38.5848 79.1809 35.7636 79.1809 31.6055V17.1631H83.4756V32.1587L83.471 32.1541Z" fill="black"/>
<path d="M99.091 26.9263L109.494 41.6454H104.173L96.1358 29.9181L92.6329 33.4261V41.6454H88.375V17.1582H92.6329V28.2678L103.45 17.1582H108.877L99.091 26.9263Z" fill="black"/>
<path d="M129.518 20.7725H116.16V27.2723H128.556V30.7481H116.16V37.9717H129.726V41.6503H111.902V17.1631H129.518V20.7725Z" fill="black"/>
<path d="M151.149 20.7725H137.791V27.2723H150.187V30.7481H137.791V37.9717H151.356V41.6503H133.533V17.1631H151.149V20.7725Z" fill="black"/>
<path d="M168.697 24.3819C168.42 21.321 166.395 20.0856 163.375 20.0856C160.356 20.0856 158.703 21.3579 158.703 23.4922C158.703 25.8294 160.213 25.9677 164.917 27.2077C169.074 28.2726 173.742 29.2729 173.742 34.5327C173.742 40.069 168.83 42.2034 164.024 42.2034C158.22 42.2034 153.723 39.4513 153.723 33.537H157.948C157.948 37.3216 160.798 38.7967 164.268 38.7967C167.739 38.7967 169.521 37.3539 169.521 34.943C169.521 32.3984 167.426 31.9512 163.822 31.0246C158.639 29.6832 154.62 28.8258 154.62 23.838C154.62 19.4725 158.155 16.6836 163.652 16.6836C168.632 16.6836 172.582 18.9193 172.784 24.3865H168.697V24.3819Z" fill="black"/>
<path d="M190.95 24.3819C190.674 21.321 188.649 20.0856 185.629 20.0856C182.61 20.0856 180.957 21.3579 180.957 23.4922C180.957 25.8294 182.467 25.9677 187.171 27.2077C191.328 28.2726 195.995 29.2729 195.995 34.5327C195.995 40.069 191.084 42.2034 186.278 42.2034C180.474 42.2034 175.977 39.4513 175.977 33.537H180.202C180.202 37.3216 183.052 38.7967 186.522 38.7967C189.993 38.7967 191.774 37.3539 191.774 34.943C191.774 32.3984 189.68 31.9512 186.076 31.0246C180.893 29.6832 176.874 28.8258 176.874 23.838C176.874 19.4725 180.409 16.6836 185.905 16.6836C190.886 16.6836 194.835 18.9193 195.038 24.3865H190.95V24.3819Z" fill="black"/>
<path d="M67.71 17.1582H63.4199V23.0726H67.71V17.1582Z" fill="black"/>
<path d="M96.1445 29.9175C96.3931 29.6963 99.0997 26.9258 99.0997 26.9258L109.503 41.6448H104.182L96.1445 29.9175Z" fill="black"/>
<path d="M52.2222 14.3193V39.1753L27.7705 53.3135L3.30963 39.1707V14.453C2.14965 15.1629 0.939032 15.9143 0 16.4952V41.0884L27.7705 57.1396L55.5364 41.0884V16.237C54.602 15.6562 53.3868 15.0385 52.2268 14.3193H52.2222Z" fill="black"/>
<path d="M49.3947 12.6496V22.7865L27.7647 10.2756L13.8081 18.3565L37.689 32.1721L27.7693 37.9159L6.13477 25.4049V12.6496L27.7693 0.138672L49.3947 12.6496Z" fill="black"/>
<path d="M27.7647 12.7695L49.3947 25.2759V37.6624L27.7693 50.1733L6.13477 37.6624V27.8896L27.7693 40.4006L41.9975 32.1675L18.1074 18.3566L27.7647 12.7695Z" fill="black"/>
</svg>
