<svg width="56" height="71" viewBox="0 0 56 71" fill="none" xmlns="http://www.w3.org/2000/svg">
<mask id="mask0_1593_80" style="mask-type:luminance" maskUnits="userSpaceOnUse" x="0" y="0" width="56" height="40">
<path d="M0 0H55.9968V39.7708H0V0Z" fill="white"/>
</mask>
<g mask="url(#mask0_1593_80)">
<path d="M49.7747 13.215V6.55101L43.5532 6.5471V19.7627H37.331V13.1549H31.1095V6.5471H43.5532V0H12.4437V6.5471H24.8874V19.7627H18.6658V13.1549H12.4437V6.5471H6.22153V13.215H0V39.6455H6.22153V33.0377H12.4437V39.6455H18.6658V33.0377H24.8874V39.6455H31.1095V33.0377H37.331V39.6455H43.5532V33.0377H49.7747V39.6455H55.9968V13.215" fill="#30712F"/>
</g>
<path d="M9.40202 57.7987H3.15652V54.4984H9.40202V57.7987ZM3.15652 47.8978H6.26421V51.1981H3.15652V47.8978ZM9.37191 51.1981V44.5981H0.0488281V61.0991H12.4796V51.1981" fill="#30712F"/>
<path d="M15.5879 44.5981V61.0991H26.4648V57.7987H18.6956V54.4984H24.911V51.1981H18.6956V47.8978H26.4648V44.5981" fill="#30712F"/>
<mask id="mask1_1593_80" style="mask-type:luminance" maskUnits="userSpaceOnUse" x="43" y="44" width="14" height="18">
<path d="M43.4336 44.4521H56.0014V61.1626H43.4336V44.4521Z" fill="white"/>
</mask>
<g mask="url(#mask1_1593_80)">
<path d="M43.5566 44.5979V47.8976H48.2182V61.0988H51.3259V47.8976H55.9868V44.5979" fill="#30712F"/>
</g>
<path d="M32.5383 51.1922L32.5438 47.8854L40.447 47.8978V44.5981H29.5707V51.1981L29.5664 54.5043L37.3393 54.4984V57.7987H29.5707V61.0991H40.447V51.1994" fill="#30712F"/>
<mask id="mask2_1593_80" style="mask-type:luminance" maskUnits="userSpaceOnUse" x="44" y="64" width="6" height="7">
<path d="M44.2148 64.3372H49.5648V70.9998H44.2148V64.3372Z" fill="white"/>
</mask>
<g mask="url(#mask2_1593_80)">
<path d="M48.1018 65.7433H45.5596V69.6723H48.1018V65.7433ZM44.2344 64.3987H49.4153V70.998H44.2344V64.3987Z" fill="#30712F"/>
</g>
<mask id="mask3_1593_80" style="mask-type:luminance" maskUnits="userSpaceOnUse" x="6" y="64" width="6" height="7">
<path d="M6.45508 64.3372H11.805V70.9998H6.45508V64.3372Z" fill="white"/>
</mask>
<g mask="url(#mask3_1593_80)">
<path d="M7.84723 67.0043H10.4214V65.7308H7.84723V67.0043ZM6.53125 70.9985V64.4011H11.706V70.9906H10.47V68.3947H7.83739V70.9985" fill="#30712F"/>
</g>
<mask id="mask4_1593_80" style="mask-type:luminance" maskUnits="userSpaceOnUse" x="25" y="64" width="7" height="7">
<path d="M25.8086 64.3372H31.1585V70.9998H25.8086V64.3372Z" fill="white"/>
</mask>
<g mask="url(#mask4_1593_80)">
<path d="M27.2177 67.0077H29.8048V65.744H27.2177V67.0077ZM27.2159 70.998H25.9355V64.3987H31.0986V70.9725H29.8312V68.3811H27.2159" fill="#30712F"/>
</g>
<mask id="mask5_1593_80" style="mask-type:luminance" maskUnits="userSpaceOnUse" x="0" y="64" width="6" height="7">
<path d="M0 64.3372H5.1926V70.9998H0V64.3372Z" fill="white"/>
</mask>
<g mask="url(#mask5_1593_80)">
<path d="M3.89199 67.0134V64.4083H5.19014V70.9887H3.90182V68.3836H1.29876V70.9991H0V64.4011H1.26803V67.0134" fill="#30712F"/>
</g>
<mask id="mask6_1593_80" style="mask-type:luminance" maskUnits="userSpaceOnUse" x="37" y="64" width="6" height="7">
<path d="M37.6074 64.3372H42.9574V70.9998H37.6074V64.3372Z" fill="white"/>
</mask>
<g mask="url(#mask6_1593_80)">
<path d="M38.9637 68.3901V70.9933H37.7012V64.4011H38.9471V67.0128H41.5827V64.4096H42.8643V70.9998H41.5987V68.3901" fill="#30712F"/>
</g>
<mask id="mask7_1593_80" style="mask-type:luminance" maskUnits="userSpaceOnUse" x="13" y="64" width="6" height="7">
<path d="M13.0645 64.3372H18.4144V70.9998H13.0645V64.3372Z" fill="white"/>
</mask>
<g mask="url(#mask7_1593_80)">
<path d="M13.0898 64.3987H18.2671V65.7042H14.415V69.699H18.2812V70.998H13.0898" fill="#30712F"/>
</g>
<mask id="mask8_1593_80" style="mask-type:luminance" maskUnits="userSpaceOnUse" x="32" y="64" width="5" height="7">
<path d="M32.416 64.3372H36.3498V70.9998H32.416V64.3372Z" fill="white"/>
</mask>
<g mask="url(#mask8_1593_80)">
<path d="M32.4629 64.3987H36.3401V65.6937H35.0758V70.998H33.758V65.7153H32.4629" fill="#30712F"/>
</g>
<mask id="mask9_1593_80" style="mask-type:luminance" maskUnits="userSpaceOnUse" x="19" y="64" width="7" height="7">
<path d="M19.5156 64.3372H25.0229V70.9998H19.5156V64.3372Z" fill="white"/>
</mask>
<g mask="url(#mask9_1593_80)">
<path d="M24.9466 70.9983L21.9501 67.7169L24.5882 64.3984H23.0497L20.9089 67.091V64.3977H19.623V70.9983H20.9089V68.2901L23.3632 70.9983" fill="#30712F"/>
</g>
<mask id="mask10_1593_80" style="mask-type:luminance" maskUnits="userSpaceOnUse" x="50" y="64" width="6" height="7">
<path d="M50.6641 64.3372H55.9937V70.9998H50.6641V64.3372Z" fill="white"/>
</mask>
<g mask="url(#mask10_1593_80)">
<path d="M55.9815 64.3987H54.7048V68.6455L52.3403 64.3987H50.7969V70.998H52.0735V66.6833L54.4756 70.998H55.9815" fill="#30712F"/>
</g>
</svg>
