<svg width="85" height="234" viewBox="0 0 85 234" fill="none" xmlns="http://www.w3.org/2000/svg">
<path d="M1.31641 0.996582C17.9571 0.996582 31.2316 5.30716 44.4794 16.1146C52.1397 22.3637 59.6475 33.3945 62.8109 42.772C66.0271 52.3055 68.6976 69.6225 64.5638 79.1429C59.9682 89.7266 54.2059 100.441 45.2828 107.991C39.2628 113.085 31.4495 116.005 24.9794 120.626C23.28 121.84 7.98993 129.828 15.1928 129.828C21.6505 129.828 28.3945 129.241 34.7659 130.413C45.6917 132.422 51.2549 134.052 60.1817 140.783C70.5231 148.582 79.0888 159.299 82.238 171.896C85.2051 183.764 84.0794 195.382 81.2155 207.098C79.8077 212.857 74.6562 218.369 70.9907 222.727C68.4389 225.762 63.4003 229.144 61.7885 232.368" stroke="white" stroke-width="2" stroke-linecap="round" stroke-dasharray="4 4"/>
</svg>
