<svg width="117" height="117" viewBox="0 0 117 117" fill="none" xmlns="http://www.w3.org/2000/svg">
<path d="M41.875 4.875C42.9796 4.875 43.875 5.77043 43.875 6.875V12.625C43.875 13.7296 44.7704 14.625 45.875 14.625H71.125C72.2296 14.625 73.125 13.7296 73.125 12.625V6.875C73.125 5.77043 74.0204 4.875 75.125 4.875H80.875C81.9796 4.875 82.875 5.77043 82.875 6.875V12.625C82.875 13.7296 83.7704 14.625 84.875 14.625H102.375C105.067 14.625 107.25 16.8076 107.25 19.5V97.5C107.25 100.192 105.067 102.375 102.375 102.375H14.625C11.9326 102.375 9.75 100.192 9.75 97.5V19.5C9.75 16.8076 11.9326 14.625 14.625 14.625H32.125C33.2296 14.625 34.125 13.7296 34.125 12.625V6.875C34.125 5.77043 35.0204 4.875 36.125 4.875H41.875ZM97.5 55.625C97.5 54.5204 96.6046 53.625 95.5 53.625H21.5C20.3954 53.625 19.5 54.5204 19.5 55.625V90.625C19.5 91.7296 20.3954 92.625 21.5 92.625H95.5C96.6046 92.625 97.5 91.7296 97.5 90.625V55.625ZM34.125 26.375C34.125 25.2704 33.2296 24.375 32.125 24.375H21.5C20.3954 24.375 19.5 25.2704 19.5 26.375V41.875C19.5 42.9796 20.3954 43.875 21.5 43.875H95.5C96.6046 43.875 97.5 42.9796 97.5 41.875V26.375C97.5 25.2704 96.6046 24.375 95.5 24.375H84.875C83.7704 24.375 82.875 25.2704 82.875 26.375V32.125C82.875 33.2296 81.9796 34.125 80.875 34.125H75.125C74.0204 34.125 73.125 33.2296 73.125 32.125V26.375C73.125 25.2704 72.2296 24.375 71.125 24.375H45.875C44.7704 24.375 43.875 25.2704 43.875 26.375V32.125C43.875 33.2296 42.9796 34.125 41.875 34.125H36.125C35.0204 34.125 34.125 33.2296 34.125 32.125V26.375Z" fill="white"/>
</svg>
