<svg width="117" height="117" viewBox="0 0 117 117" fill="none" xmlns="http://www.w3.org/2000/svg">
<path d="M52.2181 86.4781C55.3423 89.6023 60.4077 89.6023 63.5319 86.4781L82.0048 68.0048C95.3316 54.6785 95.3316 33.0716 82.0048 19.745C68.6785 6.41833 47.0716 6.41833 33.745 19.745C20.4183 33.0716 20.4183 54.6785 33.745 68.0048L52.2181 86.4781ZM63.5318 100.267C60.4076 103.391 55.3424 103.391 52.2182 100.267L26.8507 74.8995C9.71643 57.7648 9.71643 29.985 26.8507 12.8507C43.985 -4.28357 71.7648 -4.28357 88.8995 12.8507C106.034 29.985 106.034 57.7648 88.8995 74.8995L63.5318 100.267ZM57.875 53.625C63.2599 53.625 67.625 49.2599 67.625 43.875C67.625 38.4902 63.2599 34.125 57.875 34.125C52.4901 34.125 48.125 38.4902 48.125 43.875C48.125 49.2599 52.4901 53.625 57.875 53.625ZM57.875 63.375C47.1054 63.375 38.375 54.6444 38.375 43.875C38.375 33.1054 47.1054 24.375 57.875 24.375C68.6444 24.375 77.375 33.1054 77.375 43.875C77.375 54.6444 68.6444 63.375 57.875 63.375Z" fill="white"/>
</svg>
