<svg width="37" height="55" viewBox="0 0 37 55" fill="none" xmlns="http://www.w3.org/2000/svg">
<path d="M13.8127 41.1791H23.1872C23.4925 38.0865 24.9105 35.5337 27.2126 32.7441C27.4718 32.4301 29.1347 30.5147 29.332 30.2412C31.2923 27.5208 32.375 24.1541 32.375 20.5895C32.375 12.0611 26.1629 5.14739 18.5 5.14739C10.837 5.14739 4.625 12.0611 4.625 20.5895C4.625 24.1523 5.70665 27.5172 7.66506 30.2368C7.86259 30.5111 9.52937 32.4316 9.78544 32.742C12.089 35.5334 13.5074 38.0865 13.8127 41.1791ZM23.125 46.3265H13.875V48.9002H23.125V46.3265ZM4.05601 33.456C1.51804 29.9313 0 25.4577 0 20.5895C0 9.21825 8.28273 0 18.5 0C28.7173 0 37 9.21825 37 20.5895C37 25.4603 35.4802 29.9359 32.9399 33.4616C31.5055 35.4521 27.75 38.6054 27.75 42.4659V48.9002C27.75 51.7431 25.6794 54.0476 23.125 54.0476H13.875C11.3207 54.0476 9.25 51.7431 9.25 48.9002V42.4659C9.25 38.6054 5.49122 35.449 4.05601 33.456ZM20.8125 20.6019H26.5938L16.1875 36.0441V25.7493H10.4062L20.8125 10.2948V20.6019Z" fill="#071A03"/>
</svg>
