<svg width="53" height="53" viewBox="0 0 53 53" fill="none" xmlns="http://www.w3.org/2000/svg">
<path d="M26.5 53C11.8644 53 0 41.1354 0 26.5C0 11.8644 11.8644 0 26.5 0C41.1354 0 53 11.8644 53 26.5C53 41.1354 41.1354 53 26.5 53ZM26.5 47.7C38.2085 47.7 47.7 38.2085 47.7 26.5C47.7 14.7916 38.2085 5.3 26.5 5.3C14.7916 5.3 5.3 14.7916 5.3 26.5C5.3 38.2085 14.7916 47.7 26.5 47.7ZM13.25 29.15H18.55C18.55 33.5408 22.1092 37.1 26.5 37.1C30.8908 37.1 34.45 33.5408 34.45 29.15H39.75C39.75 36.4677 33.8177 42.4 26.5 42.4C19.1822 42.4 13.25 36.4677 13.25 29.15ZM15.9 23.85C13.7047 23.85 11.925 22.0703 11.925 19.875C11.925 17.6797 13.7047 15.9 15.9 15.9C18.0953 15.9 19.875 17.6797 19.875 19.875C19.875 22.0703 18.0953 23.85 15.9 23.85ZM37.1 23.85C34.9047 23.85 33.125 22.0703 33.125 19.875C33.125 17.6797 34.9047 15.9 37.1 15.9C39.2953 15.9 41.075 17.6797 41.075 19.875C41.075 22.0703 39.2953 23.85 37.1 23.85Z" fill="black"/>
</svg>
