<svg width="54" height="54" viewBox="0 0 54 54" fill="none" xmlns="http://www.w3.org/2000/svg">
<path d="M6.87581 33.2033L15.8902 24.1841L23.3854 31.6836L31.7512 23.3134L27 18.5597H40.25V31.8167L35.4988 27.063L23.3854 39.1828L15.8902 31.6836L9.33366 38.2434C13.1317 43.9585 19.6262 47.725 27 47.725C38.7085 47.725 48.2 38.2285 48.2 26.5139C48.2 14.7993 38.7085 5.30278 27 5.30278C15.2915 5.30278 5.79999 14.7993 5.79999 26.5139C5.79999 28.8514 6.17786 31.1003 6.87581 33.2033ZM2.8002 37.3347L2.77335 37.308L2.78361 37.2976C1.31588 34.003 0.5 30.3539 0.5 26.5139C0.5 11.8707 12.3645 0 27 0C41.6354 0 53.5 11.8707 53.5 26.5139C53.5 41.1573 41.6354 53.0278 27 53.0278C16.2168 53.0278 6.93785 46.5839 2.8002 37.3347Z" fill="#030E01"/>
</svg>
